<?xml version="1.0" encoding="UTF-8" standalone="no"?>
<!DOCTYPE svg PUBLIC "-//W3C//DTD SVG 1.1//EN"
 "http://www.w3.org/Graphics/SVG/1.1/DTD/svg11.dtd">
<!-- Generated by graphviz version 2.49.3 (20211023.0002)
 -->
<!-- Title: G Pages: 1 -->
<svg width="1500pt" height="893pt"
 viewBox="0.00 0.00 1499.97 893.19" xmlns="http://www.w3.org/2000/svg" xmlns:xlink="http://www.w3.org/1999/xlink">
<g id="graph0" class="graph" transform="scale(1 1) rotate(0) translate(4 889.19)">
<title>G</title><style>.edge>path:hover{stroke-width:8}</style>
<polygon fill="white" stroke="transparent" points="-4,4 -4,-889.19 1495.97,-889.19 1495.97,4 -4,4"/>
<!-- alconna -->
<g id="node1" class="node">
<title>alconna</title><style>.edge>path:hover{stroke-width:8}</style>
<ellipse fill="#821717" stroke="black" cx="548.13" cy="-18" rx="29.37" ry="18"/>
<text text-anchor="middle" x="548.13" y="-15.5" font-family="Helvetica,sans-Serif" font-size="10.00" fill="#ffffff">alconna</text>
</g>
<!-- alconna_analysis -->
<g id="node2" class="node">
<title>alconna_analysis</title><style>.edge>path:hover{stroke-width:8}</style>
<ellipse fill="#9c1b1b" stroke="black" cx="727.13" cy="-525.59" rx="37.45" ry="21.43"/>
<text text-anchor="middle" x="727.13" y="-528.59" font-family="Helvetica,sans-Serif" font-size="10.00" fill="#ffffff">alconna.</text>
<text text-anchor="middle" x="727.13" y="-517.59" font-family="Helvetica,sans-Serif" font-size="10.00" fill="#ffffff">analysis</text>
</g>
<!-- alconna_analysis&#45;&gt;alconna -->
<g id="edge1" class="edge">
<title>alconna_analysis&#45;&gt;alconna</title><style>.edge>path:hover{stroke-width:8}</style>
<path fill="none" stroke="black" d="M717.5,-504.95C707.87,-485.89 692.21,-456.39 676.13,-432.37 634.96,-370.9 599.55,-371.11 572.13,-302.39 536.85,-213.98 541.1,-98.01 545.34,-46.13"/>
<polygon fill="#9c1b1b" stroke="black" points="548.84,-46.34 546.23,-36.07 541.86,-45.72 548.84,-46.34"/>
</g>
<!-- alconna_main -->
<g id="node21" class="node">
<title>alconna_main</title><style>.edge>path:hover{stroke-width:8}</style>
<ellipse fill="#950303" stroke="black" cx="396.13" cy="-450.37" rx="43.62" ry="18"/>
<text text-anchor="middle" x="396.13" y="-447.87" font-family="Helvetica,sans-Serif" font-size="10.00" fill="#ffffff">alconna.main</text>
</g>
<!-- alconna_analysis&#45;&gt;alconna_main -->
<g id="edge2" class="edge">
<title>alconna_analysis&#45;&gt;alconna_main</title><style>.edge>path:hover{stroke-width:8}</style>
<path fill="none" stroke="black" d="M682.59,-514.74C620.18,-500.93 507.21,-475.94 443.37,-461.82"/>
<polygon fill="#9c1b1b" stroke="black" points="682.12,-518.22 692.64,-516.96 683.63,-511.38 682.12,-518.22"/>
<polygon fill="#9c1b1b" stroke="black" points="444.09,-458.4 433.57,-459.66 442.57,-465.23 444.09,-458.4"/>
</g>
<!-- alconna_manager -->
<g id="node22" class="node">
<title>alconna_manager</title><style>.edge>path:hover{stroke-width:8}</style>
<ellipse fill="#ae1e1e" stroke="black" cx="887.13" cy="-93.21" rx="38.37" ry="21.43"/>
<text text-anchor="middle" x="887.13" y="-96.21" font-family="Helvetica,sans-Serif" font-size="10.00" fill="#ffffff">alconna.</text>
<text text-anchor="middle" x="887.13" y="-85.21" font-family="Helvetica,sans-Serif" font-size="10.00" fill="#ffffff">manager</text>
</g>
<!-- alconna_analysis&#45;&gt;alconna_manager -->
<g id="edge3" class="edge">
<title>alconna_analysis&#45;&gt;alconna_manager</title><style>.edge>path:hover{stroke-width:8}</style>
<path fill="none" stroke="black" d="M764.43,-523.07C802.8,-519.34 861.07,-507.15 891.13,-468.37 971.19,-365.08 922.95,-193.07 898.62,-124.13"/>
<polygon fill="#9c1b1b" stroke="black" points="901.77,-122.57 895.08,-114.36 895.19,-124.95 901.77,-122.57"/>
</g>
<!-- alconna_analysis_analyser -->
<g id="node3" class="node">
<title>alconna_analysis_analyser</title><style>.edge>path:hover{stroke-width:8}</style>
<ellipse fill="#c20a0a" stroke="black" cx="746.13" cy="-273.4" rx="39.7" ry="28.98"/>
<text text-anchor="middle" x="746.13" y="-281.9" font-family="Helvetica,sans-Serif" font-size="10.00" fill="#ffffff">alconna.</text>
<text text-anchor="middle" x="746.13" y="-270.9" font-family="Helvetica,sans-Serif" font-size="10.00" fill="#ffffff">analysis.</text>
<text text-anchor="middle" x="746.13" y="-259.9" font-family="Helvetica,sans-Serif" font-size="10.00" fill="#ffffff">analyser</text>
</g>
<!-- alconna_analysis_analyser&#45;&gt;alconna_analysis -->
<g id="edge4" class="edge">
<title>alconna_analysis_analyser&#45;&gt;alconna_analysis</title><style>.edge>path:hover{stroke-width:8}</style>
<path fill="none" stroke="black" d="M738.13,-451.37C732.45,-468.72 729.69,-489.35 728.35,-504.28"/>
<path fill="none" stroke="black" d="M748.9,-302.35C751.3,-335.21 752.75,-391.37 740.79,-439.54"/>
<polygon fill="#c20a0a" stroke="black" points="737.37,-438.81 738.13,-449.37 744.12,-440.64 737.37,-438.81"/>
</g>
<!-- alconna_analysis_arg_handlers -->
<g id="node4" class="node">
<title>alconna_analysis_arg_handlers</title><style>.edge>path:hover{stroke-width:8}</style>
<ellipse fill="#b03a3a" stroke="black" cx="1004.13" cy="-179.42" rx="50.82" ry="28.98"/>
<text text-anchor="middle" x="1004.13" y="-187.92" font-family="Helvetica,sans-Serif" font-size="10.00" fill="#ffffff">alconna.</text>
<text text-anchor="middle" x="1004.13" y="-176.92" font-family="Helvetica,sans-Serif" font-size="10.00" fill="#ffffff">analysis.</text>
<text text-anchor="middle" x="1004.13" y="-165.92" font-family="Helvetica,sans-Serif" font-size="10.00" fill="#ffffff">arg_handlers</text>
</g>
<!-- alconna_analysis_analyser&#45;&gt;alconna_analysis_arg_handlers -->
<g id="edge5" class="edge">
<title>alconna_analysis_analyser&#45;&gt;alconna_analysis_arg_handlers</title><style>.edge>path:hover{stroke-width:8}</style>
<path fill="none" stroke="black" d="M781.19,-259.9C825.2,-244.21 901.06,-217.16 951.91,-199.03"/>
<polygon fill="#c20a0a" stroke="black" points="953.17,-202.3 961.41,-195.65 950.82,-195.71 953.17,-202.3"/>
</g>
<!-- alconna_analysis_parts -->
<g id="node5" class="node">
<title>alconna_analysis_parts</title><style>.edge>path:hover{stroke-width:8}</style>
<ellipse fill="#993333" stroke="black" cx="814.13" cy="-179.42" rx="39.7" ry="28.98"/>
<text text-anchor="middle" x="814.13" y="-187.92" font-family="Helvetica,sans-Serif" font-size="10.00" fill="#ffffff">alconna.</text>
<text text-anchor="middle" x="814.13" y="-176.92" font-family="Helvetica,sans-Serif" font-size="10.00" fill="#ffffff">analysis.</text>
<text text-anchor="middle" x="814.13" y="-165.92" font-family="Helvetica,sans-Serif" font-size="10.00" fill="#ffffff">parts</text>
</g>
<!-- alconna_analysis_analyser&#45;&gt;alconna_analysis_parts -->
<g id="edge6" class="edge">
<title>alconna_analysis_analyser&#45;&gt;alconna_analysis_parts</title><style>.edge>path:hover{stroke-width:8}</style>
<path fill="none" stroke="black" d="M764.71,-247.27C772.42,-236.84 781.47,-224.6 789.7,-213.46"/>
<polygon fill="#c20a0a" stroke="black" points="792.67,-215.33 795.8,-205.2 787.05,-211.16 792.67,-215.33"/>
</g>
<!-- alconna_analysis_analyser&#45;&gt;alconna_manager -->
<g id="edge8" class="edge">
<title>alconna_analysis_analyser&#45;&gt;alconna_manager</title><style>.edge>path:hover{stroke-width:8}</style>
<path fill="none" stroke="black" d="M743.38,-244.34C742.27,-217.58 744.72,-177.45 765.13,-150.43 783.57,-126 815.17,-111.85 841.58,-103.85"/>
<polygon fill="#c20a0a" stroke="black" points="842.74,-107.16 851.41,-101.08 840.84,-100.42 842.74,-107.16"/>
</g>
<!-- alconna_analysis_arg_handlers&#45;&gt;alconna_analysis -->
<g id="edge9" class="edge">
<title>alconna_analysis_arg_handlers&#45;&gt;alconna_analysis</title><style>.edge>path:hover{stroke-width:8}</style>
<path fill="none" stroke="black" d="M1005.13,-208.45C1005.56,-266.01 997.91,-398.01 924.13,-468.37 883.86,-506.78 819.23,-519.24 775.05,-523.12"/>
<polygon fill="#b03a3a" stroke="black" points="774.55,-519.65 764.85,-523.9 775.09,-526.63 774.55,-519.65"/>
</g>
<!-- alconna_analysis_parts&#45;&gt;alconna_analysis -->
<g id="edge10" class="edge">
<title>alconna_analysis_parts&#45;&gt;alconna_analysis</title><style>.edge>path:hover{stroke-width:8}</style>
<path fill="none" stroke="black" d="M816.65,-208.57C819.28,-251.37 819.57,-334.35 790.13,-396.37 777.58,-422.81 754.47,-419.38 742.24,-440.13"/>
<polygon fill="#993333" stroke="black" points="738.99,-438.82 738.13,-449.37 745.39,-441.66 738.99,-438.82"/>
</g>
<!-- alconna_arpamar -->
<g id="node6" class="node">
<title>alconna_arpamar</title><style>.edge>path:hover{stroke-width:8}</style>
<ellipse fill="#ef0606" stroke="black" cx="997.13" cy="-611.79" rx="37.45" ry="21.43"/>
<text text-anchor="middle" x="997.13" y="-614.79" font-family="Helvetica,sans-Serif" font-size="10.00" fill="#ffffff">alconna.</text>
<text text-anchor="middle" x="997.13" y="-603.79" font-family="Helvetica,sans-Serif" font-size="10.00" fill="#ffffff">arpamar</text>
</g>
<!-- alconna_arpamar&#45;&gt;alconna -->
<g id="edge11" class="edge">
<title>alconna_arpamar&#45;&gt;alconna</title><style>.edge>path:hover{stroke-width:8}</style>
<path fill="none" stroke="black" d="M1016.14,-593.38C1054.63,-556.14 1138.13,-464.3 1138.13,-368.38 1138.13,-368.38 1138.13,-368.38 1138.13,-272.4 1138.13,-192.76 1221.04,-141.73 1157.13,-94.21"/>
<path fill="none" stroke="black" d="M1157.13,-92.21C1050.2,-23.17 710.3,-68.07 587.13,-36 584.69,-35.36 582.21,-34.6 579.74,-33.74"/>
<polygon fill="#ef0606" stroke="black" points="580.97,-30.47 570.39,-30.12 578.45,-37 580.97,-30.47"/>
</g>
<!-- alconna_arpamar&#45;&gt;alconna_analysis -->
<g id="edge12" class="edge">
<title>alconna_arpamar&#45;&gt;alconna_analysis</title><style>.edge>path:hover{stroke-width:8}</style>
<path fill="none" stroke="black" d="M972.65,-595.48C964.46,-590.87 955.12,-586.15 946.13,-582.8 874.57,-556.15 851.21,-568.95 778.13,-546.8 774.08,-545.57 769.9,-544.16 765.75,-542.67"/>
<polygon fill="#ef0606" stroke="black" points="766.82,-539.33 756.23,-539.09 764.35,-545.88 766.82,-539.33"/>
</g>
<!-- alconna_arpamar&#45;&gt;alconna_analysis_analyser -->
<g id="edge13" class="edge">
<title>alconna_arpamar&#45;&gt;alconna_analysis_analyser</title><style>.edge>path:hover{stroke-width:8}</style>
<path fill="none" stroke="black" d="M966.72,-599.29C916.57,-578.48 817.9,-529.36 776.13,-451.37"/>
<path fill="none" stroke="black" d="M776.13,-449.37C757.7,-418.45 788.35,-402.24 776.13,-368.38"/>
<path fill="none" stroke="black" d="M776.13,-366.38C769.71,-348.59 763.13,-328.65 757.77,-311.89"/>
<polygon fill="#ef0606" stroke="black" points="760.97,-310.4 754.61,-301.92 754.3,-312.51 760.97,-310.4"/>
</g>
<!-- alconna_arpamar&#45;&gt;alconna_main -->
<g id="edge14" class="edge">
<title>alconna_arpamar&#45;&gt;alconna_main</title><style>.edge>path:hover{stroke-width:8}</style>
<path fill="none" stroke="black" d="M960,-607.91C844.64,-598.77 497.43,-569.62 452.13,-546.8 441.12,-541.25 442.25,-534.89 433.13,-526.59"/>
</g>
<!-- alconna_proxy -->
<g id="node23" class="node">
<title>alconna_proxy</title><style>.edge>path:hover{stroke-width:8}</style>
<ellipse fill="#8f3d3d" stroke="black" cx="641.13" cy="-18" rx="45.15" ry="18"/>
<text text-anchor="middle" x="641.13" y="-15.5" font-family="Helvetica,sans-Serif" font-size="10.00" fill="#ffffff">alconna.proxy</text>
</g>
<!-- alconna_arpamar&#45;&gt;alconna_proxy -->
<g id="edge15" class="edge">
<title>alconna_arpamar&#45;&gt;alconna_proxy</title><style>.edge>path:hover{stroke-width:8}</style>
<path fill="none" stroke="black" d="M1021.64,-595.59C1070.66,-564.31 1176.13,-492.26 1176.13,-451.37 1176.13,-451.37 1176.13,-451.37 1176.13,-366.38 1176.13,-303.59 1293.73,-141.25 1252.13,-94.21"/>
<path fill="none" stroke="black" d="M1252.13,-92.21C1211.83,-54.52 838.7,-29.99 696.14,-21.92"/>
<polygon fill="#ef0606" stroke="black" points="696.06,-18.41 685.88,-21.34 695.67,-25.4 696.06,-18.41"/>
</g>
<!-- alconna_arpamar_behavior -->
<g id="node7" class="node">
<title>alconna_arpamar_behavior</title><style>.edge>path:hover{stroke-width:8}</style>
<ellipse fill="#b03a3a" stroke="black" cx="793.13" cy="-705.78" rx="38.78" ry="28.98"/>
<text text-anchor="middle" x="793.13" y="-714.28" font-family="Helvetica,sans-Serif" font-size="10.00" fill="#ffffff">alconna.</text>
<text text-anchor="middle" x="793.13" y="-703.28" font-family="Helvetica,sans-Serif" font-size="10.00" fill="#ffffff">arpamar.</text>
<text text-anchor="middle" x="793.13" y="-692.28" font-family="Helvetica,sans-Serif" font-size="10.00" fill="#ffffff">behavior</text>
</g>
<!-- alconna_arpamar_behavior&#45;&gt;alconna_arpamar -->
<g id="edge16" class="edge">
<title>alconna_arpamar_behavior&#45;&gt;alconna_arpamar</title><style>.edge>path:hover{stroke-width:8}</style>
<path fill="none" stroke="black" d="M825.9,-690C862.24,-673.61 920.78,-647.22 959.11,-629.94"/>
<polygon fill="#b03a3a" stroke="black" points="960.71,-633.05 968.39,-625.75 957.83,-626.67 960.71,-633.05"/>
</g>
<!-- alconna_arpamar_duplication -->
<g id="node8" class="node">
<title>alconna_arpamar_duplication</title><style>.edge>path:hover{stroke-width:8}</style>
<ellipse fill="#b42d2d" stroke="black" cx="323.13" cy="-273.4" rx="44.6" ry="28.98"/>
<text text-anchor="middle" x="323.13" y="-281.9" font-family="Helvetica,sans-Serif" font-size="10.00" fill="#ffffff">alconna.</text>
<text text-anchor="middle" x="323.13" y="-270.9" font-family="Helvetica,sans-Serif" font-size="10.00" fill="#ffffff">arpamar.</text>
<text text-anchor="middle" x="323.13" y="-259.9" font-family="Helvetica,sans-Serif" font-size="10.00" fill="#ffffff">duplication</text>
</g>
<!-- alconna_arpamar_duplication&#45;&gt;alconna -->
<g id="edge17" class="edge">
<title>alconna_arpamar_duplication&#45;&gt;alconna</title><style>.edge>path:hover{stroke-width:8}</style>
<path fill="none" stroke="black" d="M300.47,-248.12C284.79,-230.39 264.29,-205.2 250.13,-180.42"/>
</g>
<!-- alconna_arpamar_stub -->
<g id="node9" class="node">
<title>alconna_arpamar_stub</title><style>.edge>path:hover{stroke-width:8}</style>
<ellipse fill="#c43131" stroke="black" cx="253.13" cy="-367.38" rx="38.78" ry="28.98"/>
<text text-anchor="middle" x="253.13" y="-375.88" font-family="Helvetica,sans-Serif" font-size="10.00" fill="#ffffff">alconna.</text>
<text text-anchor="middle" x="253.13" y="-364.88" font-family="Helvetica,sans-Serif" font-size="10.00" fill="#ffffff">arpamar.</text>
<text text-anchor="middle" x="253.13" y="-353.88" font-family="Helvetica,sans-Serif" font-size="10.00" fill="#ffffff">stub</text>
</g>
<!-- alconna_arpamar_stub&#45;&gt;alconna -->
<g id="edge19" class="edge">
<title>alconna_arpamar_stub&#45;&gt;alconna</title><style>.edge>path:hover{stroke-width:8}</style>
<path fill="none" stroke="black" d="M249.53,-338.45C247.82,-320.13 246.81,-295.71 250.13,-274.4"/>
</g>
<!-- alconna_arpamar_stub&#45;&gt;alconna_arpamar_duplication -->
<g id="edge20" class="edge">
<title>alconna_arpamar_stub&#45;&gt;alconna_arpamar_duplication</title><style>.edge>path:hover{stroke-width:8}</style>
<path fill="none" stroke="black" d="M271.89,-341.73C279.76,-331.39 289.04,-319.19 297.53,-308.04"/>
<polygon fill="#c43131" stroke="black" points="300.56,-309.84 303.83,-299.76 294.99,-305.6 300.56,-309.84"/>
</g>
<!-- alconna_base -->
<g id="node10" class="node">
<title>alconna_base</title><style>.edge>path:hover{stroke-width:8}</style>
<ellipse fill="#ef0606" stroke="black" cx="405.13" cy="-705.78" rx="43.62" ry="18"/>
<text text-anchor="middle" x="405.13" y="-703.28" font-family="Helvetica,sans-Serif" font-size="10.00" fill="#ffffff">alconna.base</text>
</g>
<!-- alconna_base&#45;&gt;alconna -->
<g id="edge21" class="edge">
<title>alconna_base&#45;&gt;alconna</title><style>.edge>path:hover{stroke-width:8}</style>
<path fill="none" stroke="black" d="M150.13,-610.79C137.69,-583.57 164.03,-575.88 171.13,-546.8 193.38,-455.63 169.68,-425.29 205.13,-338.39 218.26,-306.2 244.45,-308.7 250.13,-274.4"/>
</g>
<!-- alconna_base&#45;&gt;alconna_analysis -->
<g id="edge22" class="edge">
<title>alconna_base&#45;&gt;alconna_analysis</title><style>.edge>path:hover{stroke-width:8}</style>
<path fill="none" stroke="black" d="M662.13,-610.79C679.56,-593.53 696.4,-571.51 708.58,-554.32"/>
<polygon fill="#ef0606" stroke="black" points="711.65,-556.02 714.49,-545.82 705.91,-552.02 711.65,-556.02"/>
</g>
<!-- alconna_base&#45;&gt;alconna_analysis_analyser -->
<g id="edge23" class="edge">
<title>alconna_base&#45;&gt;alconna_analysis_analyser</title><style>.edge>path:hover{stroke-width:8}</style>
<path fill="none" stroke="black" d="M662.13,-449.37C656.01,-395.2 691.17,-339.62 717.88,-306.04"/>
<polygon fill="#ef0606" stroke="black" points="720.84,-307.95 724.46,-297.99 715.42,-303.52 720.84,-307.95"/>
</g>
<!-- alconna_base&#45;&gt;alconna_analysis_parts -->
<g id="edge24" class="edge">
<title>alconna_base&#45;&gt;alconna_analysis_parts</title><style>.edge>path:hover{stroke-width:8}</style>
<path fill="none" stroke="black" d="M662.13,-610.79C687.3,-585.87 667.96,-486.32 662.13,-451.37"/>
<path fill="none" stroke="black" d="M662.13,-449.37C642.14,-366.98 533.71,-341.04 586.13,-274.4"/>
<path fill="none" stroke="black" d="M446.91,-700.15C502.62,-691.92 601.28,-669.83 662.13,-612.79"/>
</g>
<!-- alconna_base&#45;&gt;alconna_arpamar_stub -->
<g id="edge25" class="edge">
<title>alconna_base&#45;&gt;alconna_arpamar_stub</title><style>.edge>path:hover{stroke-width:8}</style>
<path fill="none" stroke="black" d="M378.8,-691.42C351.9,-677.24 312.75,-654.97 303.13,-640.78 254.44,-569.01 249.54,-463.15 250.89,-406.86"/>
<polygon fill="#ef0606" stroke="black" points="254.4,-406.73 251.22,-396.62 247.4,-406.5 254.4,-406.73"/>
</g>
<!-- alconna_component -->
<g id="node16" class="node">
<title>alconna_component</title><style>.edge>path:hover{stroke-width:8}</style>
<ellipse fill="#f90606" stroke="black" cx="358.13" cy="-611.79" rx="45.92" ry="21.43"/>
<text text-anchor="middle" x="358.13" y="-614.79" font-family="Helvetica,sans-Serif" font-size="10.00" fill="#ffffff">alconna.</text>
<text text-anchor="middle" x="358.13" y="-603.79" font-family="Helvetica,sans-Serif" font-size="10.00" fill="#ffffff">component</text>
</g>
<!-- alconna_base&#45;&gt;alconna_component -->
<g id="edge26" class="edge">
<title>alconna_base&#45;&gt;alconna_component</title><style>.edge>path:hover{stroke-width:8}</style>
<path fill="none" stroke="black" d="M396.51,-687.9C389.92,-675.02 380.69,-656.95 372.93,-641.77"/>
<polygon fill="#ef0606" stroke="black" points="376,-640.07 368.33,-632.76 369.76,-643.26 376,-640.07"/>
</g>
<!-- alconna_base&#45;&gt;alconna_main -->
<g id="edge27" class="edge">
<title>alconna_base&#45;&gt;alconna_main</title><style>.edge>path:hover{stroke-width:8}</style>
<path fill="none" stroke="black" d="M524.13,-610.79C522.27,-595.87 515.76,-593.43 505.13,-582.8 485,-562.66 473.79,-565.29 452.13,-546.8 442.75,-538.8 442.25,-534.89 433.13,-526.59"/>
<path fill="none" stroke="black" d="M440.23,-694.84C477.24,-682.02 529.52,-656.06 524.13,-612.79"/>
</g>
<!-- alconna_visitor -->
<g id="node26" class="node">
<title>alconna_visitor</title><style>.edge>path:hover{stroke-width:8}</style>
<ellipse fill="#b42d2d" stroke="black" cx="121.13" cy="-367.38" rx="37.45" ry="21.43"/>
<text text-anchor="middle" x="121.13" y="-370.38" font-family="Helvetica,sans-Serif" font-size="10.00" fill="#ffffff">alconna.</text>
<text text-anchor="middle" x="121.13" y="-359.38" font-family="Helvetica,sans-Serif" font-size="10.00" fill="#ffffff">visitor</text>
</g>
<!-- alconna_base&#45;&gt;alconna_visitor -->
<g id="edge28" class="edge">
<title>alconna_base&#45;&gt;alconna_visitor</title><style>.edge>path:hover{stroke-width:8}</style>
<path fill="none" stroke="black" d="M156.13,-449.37C145.76,-433.48 137.24,-414.01 131.19,-398.14"/>
<polygon fill="#ef0606" stroke="black" points="134.31,-396.49 127.59,-388.3 127.74,-398.9 134.31,-396.49"/>
<path fill="none" stroke="black" d="M381.79,-690.56C372.78,-685.59 362.23,-680.36 352.13,-676.78 273.98,-649.13 238.27,-686.51 169.13,-640.78 156.59,-632.49 157.27,-626.02 150.13,-612.79"/>
<path fill="none" stroke="black" d="M150.13,-610.79C116.46,-548.4 194.86,-510.77 156.13,-451.37"/>
</g>
<!-- alconna_builtin -->
<g id="node11" class="node">
<title>alconna_builtin</title><style>.edge>path:hover{stroke-width:8}</style>
<ellipse fill="#db2f2f" stroke="black" cx="498.13" cy="-525.59" rx="37.45" ry="21.43"/>
<text text-anchor="middle" x="498.13" y="-528.59" font-family="Helvetica,sans-Serif" font-size="10.00" fill="#ffffff">alconna.</text>
<text text-anchor="middle" x="498.13" y="-517.59" font-family="Helvetica,sans-Serif" font-size="10.00" fill="#ffffff">builtin</text>
</g>
<!-- alconna_builtin&#45;&gt;alconna -->
<g id="edge29" class="edge">
<title>alconna_builtin&#45;&gt;alconna</title><style>.edge>path:hover{stroke-width:8}</style>
<path fill="none" stroke="black" d="M492.61,-504.55C484.98,-474.99 472.13,-417.87 472.13,-368.38"/>
<path fill="none" stroke="black" d="M472.13,-366.38C467.31,-277.23 398.35,-269.68 396.13,-180.42"/>
</g>
<!-- alconna_builtin&#45;&gt;alconna_main -->
<g id="edge30" class="edge">
<title>alconna_builtin&#45;&gt;alconna_main</title><style>.edge>path:hover{stroke-width:8}</style>
<path fill="none" stroke="black" d="M475.74,-508.52C461,-497.94 441.53,-483.97 425.54,-472.49"/>
<polygon fill="#db2f2f" stroke="black" points="427.23,-469.39 417.07,-466.41 423.15,-475.08 427.23,-469.39"/>
</g>
<!-- alconna_builtin&#45;&gt;alconna_proxy -->
<g id="edge31" class="edge">
<title>alconna_builtin&#45;&gt;alconna_proxy</title><style>.edge>path:hover{stroke-width:8}</style>
<path fill="none" stroke="black" d="M472.13,-366.38C464.9,-232.61 571.84,-96.11 619.19,-42.57"/>
<polygon fill="#db2f2f" stroke="black" points="621.91,-44.78 625.98,-35 616.7,-40.1 621.91,-44.78"/>
</g>
<!-- alconna_builtin_actions -->
<g id="node12" class="node">
<title>alconna_builtin_actions</title><style>.edge>path:hover{stroke-width:8}</style>
<ellipse fill="#db2f2f" stroke="black" cx="306.13" cy="-705.78" rx="37.45" ry="28.98"/>
<text text-anchor="middle" x="306.13" y="-714.28" font-family="Helvetica,sans-Serif" font-size="10.00" fill="#ffffff">alconna.</text>
<text text-anchor="middle" x="306.13" y="-703.28" font-family="Helvetica,sans-Serif" font-size="10.00" fill="#ffffff">builtin.</text>
<text text-anchor="middle" x="306.13" y="-692.28" font-family="Helvetica,sans-Serif" font-size="10.00" fill="#ffffff">actions</text>
</g>
<!-- alconna_builtin_actions&#45;&gt;alconna -->
<g id="edge32" class="edge">
<title>alconna_builtin_actions&#45;&gt;alconna</title><style>.edge>path:hover{stroke-width:8}</style>
<path fill="none" stroke="black" d="M18.13,-366.38C22.2,-325.71 8.78,-314.2 18.13,-274.4"/>
<path fill="none" stroke="black" d="M269.51,-699.55C231.73,-692.38 173.24,-676.13 136.13,-640.78 124.18,-629.41 16.49,-384.79 18.13,-368.38"/>
</g>
<!-- alconna_builtin_analyser -->
<g id="node13" class="node">
<title>alconna_builtin_analyser</title><style>.edge>path:hover{stroke-width:8}</style>
<ellipse fill="#c04040" stroke="black" cx="459.13" cy="-611.79" rx="37.45" ry="28.98"/>
<text text-anchor="middle" x="459.13" y="-620.29" font-family="Helvetica,sans-Serif" font-size="10.00" fill="#ffffff">alconna.</text>
<text text-anchor="middle" x="459.13" y="-609.29" font-family="Helvetica,sans-Serif" font-size="10.00" fill="#ffffff">builtin.</text>
<text text-anchor="middle" x="459.13" y="-598.29" font-family="Helvetica,sans-Serif" font-size="10.00" fill="#ffffff">analyser</text>
</g>
<!-- alconna_builtin_actions&#45;&gt;alconna_builtin_analyser -->
<g id="edge33" class="edge">
<title>alconna_builtin_actions&#45;&gt;alconna_builtin_analyser</title><style>.edge>path:hover{stroke-width:8}</style>
<path fill="none" stroke="black" d="M335.29,-686.95C340.87,-683.56 346.67,-680.05 352.13,-676.78 379.13,-660.6 386.12,-656.97 413.13,-640.78 415.77,-639.2 418.49,-637.56 421.23,-635.91"/>
<polygon fill="#db2f2f" stroke="black" points="423.22,-638.79 429.96,-630.62 419.6,-632.81 423.22,-638.79"/>
</g>
<!-- alconna_builtin_actions&#45;&gt;alconna_proxy -->
<g id="edge34" class="edge">
<title>alconna_builtin_actions&#45;&gt;alconna_proxy</title><style>.edge>path:hover{stroke-width:8}</style>
<path fill="none" stroke="black" d="M18.13,-366.38C17.52,-358.66 485.15,-75.36 492.13,-72 511.15,-62.84 561.07,-45.57 597.91,-33.23"/>
<polygon fill="#db2f2f" stroke="black" points="599.07,-36.53 607.45,-30.05 596.85,-29.89 599.07,-36.53"/>
</g>
<!-- alconna_builtin_analyser&#45;&gt;alconna_main -->
<g id="edge35" class="edge">
<title>alconna_builtin_analyser&#45;&gt;alconna_main</title><style>.edge>path:hover{stroke-width:8}</style>
<path fill="none" stroke="black" d="M457.6,-582.67C455.08,-564.16 448.74,-540.8 433.13,-526.59"/>
<path fill="none" stroke="black" d="M433.13,-524.59C419.39,-512.09 410.05,-493.32 404.18,-477.92"/>
<polygon fill="#c04040" stroke="black" points="407.45,-476.65 400.82,-468.38 400.85,-478.97 407.45,-476.65"/>
</g>
<!-- alconna_builtin_construct -->
<g id="node14" class="node">
<title>alconna_builtin_construct</title><style>.edge>path:hover{stroke-width:8}</style>
<ellipse fill="#c24747" stroke="black" cx="182.13" cy="-179.42" rx="40.11" ry="28.98"/>
<text text-anchor="middle" x="182.13" y="-187.92" font-family="Helvetica,sans-Serif" font-size="10.00" fill="#ffffff">alconna.</text>
<text text-anchor="middle" x="182.13" y="-176.92" font-family="Helvetica,sans-Serif" font-size="10.00" fill="#ffffff">builtin.</text>
<text text-anchor="middle" x="182.13" y="-165.92" font-family="Helvetica,sans-Serif" font-size="10.00" fill="#ffffff">construct</text>
</g>
<!-- alconna_builtin_construct&#45;&gt;alconna -->
<g id="edge36" class="edge">
<title>alconna_builtin_construct&#45;&gt;alconna</title><style>.edge>path:hover{stroke-width:8}</style>
<path fill="none" stroke="black" d="M173.21,-150.82C169.12,-132.3 167.9,-108.72 182.13,-94.21"/>
</g>
<!-- alconna_builtin_formatter -->
<g id="node15" class="node">
<title>alconna_builtin_formatter</title><style>.edge>path:hover{stroke-width:8}</style>
<ellipse fill="#ce3b3b" stroke="black" cx="217.13" cy="-611.79" rx="38.78" ry="28.98"/>
<text text-anchor="middle" x="217.13" y="-620.29" font-family="Helvetica,sans-Serif" font-size="10.00" fill="#ffffff">alconna.</text>
<text text-anchor="middle" x="217.13" y="-609.29" font-family="Helvetica,sans-Serif" font-size="10.00" fill="#ffffff">builtin.</text>
<text text-anchor="middle" x="217.13" y="-598.29" font-family="Helvetica,sans-Serif" font-size="10.00" fill="#ffffff">formatter</text>
</g>
<!-- alconna_builtin_formatter&#45;&gt;alconna -->
<g id="edge37" class="edge">
<title>alconna_builtin_formatter&#45;&gt;alconna</title><style>.edge>path:hover{stroke-width:8}</style>
<path fill="none" stroke="black" d="M199.53,-585.72C149.37,-513.7 9.78,-309.08 18.13,-274.4"/>
</g>
<!-- alconna_builtin_formatter&#45;&gt;alconna_main -->
<g id="edge38" class="edge">
<title>alconna_builtin_formatter&#45;&gt;alconna_main</title><style>.edge>path:hover{stroke-width:8}</style>
<path fill="none" stroke="black" d="M235.02,-585.54C252.08,-562.6 279.37,-528.73 308.13,-504.37 323.97,-490.95 343.61,-478.78 360.31,-469.49"/>
<polygon fill="#ce3b3b" stroke="black" points="362.13,-472.49 369.24,-464.64 358.79,-466.33 362.13,-472.49"/>
</g>
<!-- alconna_component&#45;&gt;alconna -->
<g id="edge39" class="edge">
<title>alconna_component&#45;&gt;alconna</title><style>.edge>path:hover{stroke-width:8}</style>
<path fill="none" stroke="black" d="M322.13,-449.37C326.51,-399.37 323.27,-383.45 301.13,-338.39 285.09,-305.75 244.53,-310.34 250.13,-274.4"/>
</g>
<!-- alconna_component&#45;&gt;alconna_analysis -->
<g id="edge40" class="edge">
<title>alconna_component&#45;&gt;alconna_analysis</title><style>.edge>path:hover{stroke-width:8}</style>
<path fill="none" stroke="black" d="M385.7,-594.77C394.26,-590.34 403.88,-585.9 413.13,-582.8 462.08,-566.36 606.33,-544.05 681.06,-533.14"/>
<polygon fill="#f90606" stroke="black" points="681.74,-536.58 691.13,-531.67 680.73,-529.65 681.74,-536.58"/>
</g>
<!-- alconna_component&#45;&gt;alconna_analysis_analyser -->
<g id="edge41" class="edge">
<title>alconna_component&#45;&gt;alconna_analysis_analyser</title><style>.edge>path:hover{stroke-width:8}</style>
<path fill="none" stroke="black" d="M322.13,-449.37C344.1,-372.51 592.4,-308.59 698.51,-284.59"/>
<polygon fill="#f90606" stroke="black" points="699.33,-287.99 708.32,-282.39 697.8,-281.16 699.33,-287.99"/>
</g>
<!-- alconna_component&#45;&gt;alconna_analysis_parts -->
<g id="edge42" class="edge">
<title>alconna_component&#45;&gt;alconna_analysis_parts</title><style>.edge>path:hover{stroke-width:8}</style>
<path fill="none" stroke="black" d="M386.45,-594.99C394.88,-590.68 404.24,-586.24 413.13,-582.8 469.43,-561 504.4,-592.27 544.13,-546.8 624.72,-454.55 499.8,-361.31 586.13,-274.4"/>
<path fill="none" stroke="black" d="M586.13,-272.4C609.26,-242.98 707.68,-210.71 767.39,-193.29"/>
<polygon fill="#f90606" stroke="black" points="768.71,-196.56 777.35,-190.42 766.77,-189.83 768.71,-196.56"/>
</g>
<!-- alconna_component&#45;&gt;alconna_arpamar_stub -->
<g id="edge43" class="edge">
<title>alconna_component&#45;&gt;alconna_arpamar_stub</title><style>.edge>path:hover{stroke-width:8}</style>
<path fill="none" stroke="black" d="M322.13,-524.59C309.72,-494.51 313.18,-482.66 322.13,-451.37"/>
<path fill="none" stroke="black" d="M322.13,-449.37C328.7,-426.37 310.97,-405.92 291.84,-391.32"/>
<polygon fill="#f90606" stroke="black" points="293.79,-388.41 283.62,-385.43 289.71,-394.1 293.79,-388.41"/>
</g>
<!-- alconna_component&#45;&gt;alconna_main -->
<g id="edge44" class="edge">
<title>alconna_component&#45;&gt;alconna_main</title><style>.edge>path:hover{stroke-width:8}</style>
<path fill="none" stroke="black" d="M322.13,-524.59C312.57,-501.43 335.06,-481.89 357.69,-468.84"/>
<polygon fill="#f90606" stroke="black" points="359.51,-471.83 366.63,-463.99 356.17,-465.68 359.51,-471.83"/>
</g>
<!-- alconna_component&#45;&gt;alconna_visitor -->
<g id="edge45" class="edge">
<title>alconna_component&#45;&gt;alconna_visitor</title><style>.edge>path:hover{stroke-width:8}</style>
<path fill="none" stroke="black" d="M349.4,-590.78C342.02,-573.75 331.22,-548.63 322.13,-526.59"/>
<path fill="none" stroke="black" d="M322.13,-524.59C291.37,-450.05 200.17,-518.92 156.13,-451.37"/>
</g>
<!-- alconna_exceptions -->
<g id="node17" class="node">
<title>alconna_exceptions</title><style>.edge>path:hover{stroke-width:8}</style>
<ellipse fill="#f91010" stroke="black" cx="729.13" cy="-863.98" rx="45.01" ry="21.43"/>
<text text-anchor="middle" x="729.13" y="-866.98" font-family="Helvetica,sans-Serif" font-size="10.00" fill="#ffffff">alconna.</text>
<text text-anchor="middle" x="729.13" y="-855.98" font-family="Helvetica,sans-Serif" font-size="10.00" fill="#ffffff">exceptions</text>
</g>
<!-- alconna_exceptions&#45;&gt;alconna -->
<g id="edge46" class="edge">
<title>alconna_exceptions&#45;&gt;alconna</title><style>.edge>path:hover{stroke-width:8}</style>
<path fill="none" stroke="black" d="M405.13,-787.77C374.25,-726.49 322.06,-764.3 260.13,-734.77 186.72,-699.77 156.19,-702.41 103.13,-640.78 67.31,-599.19 67.24,-580.33 56.13,-526.59"/>
<path fill="none" stroke="black" d="M56.13,-524.59C33.81,-467.29 15.9,-456.73 4.13,-396.37 -6.32,-342.82 5.65,-327.52 18.13,-274.4"/>
<path fill="none" stroke="black" d="M182.13,-92.21C227.32,-46.14 423.77,-27.44 508.73,-21.41"/>
<polygon fill="#f91010" stroke="black" points="509.03,-24.9 518.76,-20.72 508.55,-17.91 509.03,-24.9"/>
<path fill="none" stroke="black" d="M18.13,-272.4C38.47,-166.71 106.75,-171.05 182.13,-94.21"/>
<path fill="none" stroke="black" d="M684.07,-861.38C599.66,-857.16 424.42,-842.12 405.13,-789.77"/>
</g>
<!-- alconna_exceptions&#45;&gt;alconna_analysis_arg_handlers -->
<g id="edge47" class="edge">
<title>alconna_exceptions&#45;&gt;alconna_analysis_arg_handlers</title><style>.edge>path:hover{stroke-width:8}</style>
<path fill="none" stroke="black" d="M1214.13,-449.37C1195.71,-390.02 1134.91,-419.89 1100.13,-368.38"/>
<path fill="none" stroke="black" d="M1175.13,-787.77C1255.27,-715.5 1267.91,-624.68 1214.13,-451.37"/>
</g>
<!-- alconna_exceptions&#45;&gt;alconna_analysis_parts -->
<g id="edge48" class="edge">
<title>alconna_exceptions&#45;&gt;alconna_analysis_parts</title><style>.edge>path:hover{stroke-width:8}</style>
<path fill="none" stroke="black" d="M1175.13,-787.77C1256.86,-683.06 941.92,-320.81 842.98,-211.74"/>
<polygon fill="#f91010" stroke="black" points="845.29,-209.07 835.97,-204.03 840.11,-213.78 845.29,-209.07"/>
<path fill="none" stroke="black" d="M774.31,-861.59C875.62,-857.55 1116.63,-842.51 1175.13,-789.77"/>
</g>
<!-- alconna_exceptions&#45;&gt;alconna_arpamar_behavior -->
<g id="edge49" class="edge">
<title>alconna_exceptions&#45;&gt;alconna_arpamar_behavior</title><style>.edge>path:hover{stroke-width:8}</style>
<path fill="none" stroke="black" d="M405.13,-787.77C373.9,-725.78 632.85,-711.19 744.02,-707.79"/>
<polygon fill="#f91010" stroke="black" points="744.41,-711.28 754.3,-707.5 744.21,-704.29 744.41,-711.28"/>
</g>
<!-- alconna_exceptions&#45;&gt;alconna_base -->
<g id="edge50" class="edge">
<title>alconna_exceptions&#45;&gt;alconna_base</title><style>.edge>path:hover{stroke-width:8}</style>
<path fill="none" stroke="black" d="M405.13,-787.77C396.82,-771.29 397.03,-750.41 399.21,-733.99"/>
<polygon fill="#f91010" stroke="black" points="402.7,-734.36 400.86,-723.93 395.79,-733.23 402.7,-734.36"/>
</g>
<!-- alconna_exceptions&#45;&gt;alconna_manager -->
<g id="edge51" class="edge">
<title>alconna_exceptions&#45;&gt;alconna_manager</title><style>.edge>path:hover{stroke-width:8}</style>
<path fill="none" stroke="black" d="M1214.13,-449.37C1154.12,-318.83 1198.7,-245.67 1091.13,-150.43 1047.88,-112.13 980.79,-99.67 935.46,-95.76"/>
<polygon fill="#f91010" stroke="black" points="935.53,-92.25 925.29,-94.99 935,-99.23 935.53,-92.25"/>
</g>
<!-- alconna_types -->
<g id="node24" class="node">
<title>alconna_types</title><style>.edge>path:hover{stroke-width:8}</style>
<ellipse fill="#f90606" stroke="black" cx="729.13" cy="-788.77" rx="45.15" ry="18"/>
<text text-anchor="middle" x="729.13" y="-786.27" font-family="Helvetica,sans-Serif" font-size="10.00" fill="#ffffff">alconna.types</text>
</g>
<!-- alconna_exceptions&#45;&gt;alconna_types -->
<g id="edge52" class="edge">
<title>alconna_exceptions&#45;&gt;alconna_types</title><style>.edge>path:hover{stroke-width:8}</style>
<path fill="none" stroke="black" d="M729.13,-842.59C729.13,-834.73 729.13,-825.63 729.13,-817.22"/>
<polygon fill="#f91010" stroke="black" points="732.63,-817.08 729.13,-807.08 725.63,-817.08 732.63,-817.08"/>
</g>
<!-- alconna_exceptions&#45;&gt;alconna_visitor -->
<g id="edge53" class="edge">
<title>alconna_exceptions&#45;&gt;alconna_visitor</title><style>.edge>path:hover{stroke-width:8}</style>
<path fill="none" stroke="black" d="M56.13,-524.59C44.8,-477.05 75.64,-425.33 98.63,-394.94"/>
<polygon fill="#f91010" stroke="black" points="101.47,-396.99 104.87,-386.96 95.96,-392.69 101.47,-396.99"/>
</g>
<!-- alconna_graia -->
<g id="node18" class="node">
<title>alconna_graia</title><style>.edge>path:hover{stroke-width:8}</style>
<ellipse fill="#b83d3d" stroke="black" cx="1405.13" cy="-525.59" rx="43.62" ry="18"/>
<text text-anchor="middle" x="1405.13" y="-523.09" font-family="Helvetica,sans-Serif" font-size="10.00" fill="#ffffff">alconna.graia</text>
</g>
<!-- alconna_graia_analyser -->
<g id="node19" class="node">
<title>alconna_graia_analyser</title><style>.edge>path:hover{stroke-width:8}</style>
<ellipse fill="#c24747" stroke="black" cx="1349.13" cy="-611.79" rx="37.45" ry="28.98"/>
<text text-anchor="middle" x="1349.13" y="-620.29" font-family="Helvetica,sans-Serif" font-size="10.00" fill="#ffffff">alconna.</text>
<text text-anchor="middle" x="1349.13" y="-609.29" font-family="Helvetica,sans-Serif" font-size="10.00" fill="#ffffff">graia.</text>
<text text-anchor="middle" x="1349.13" y="-598.29" font-family="Helvetica,sans-Serif" font-size="10.00" fill="#ffffff">analyser</text>
</g>
<!-- alconna_graia_analyser&#45;&gt;alconna_graia -->
<g id="edge54" class="edge">
<title>alconna_graia_analyser&#45;&gt;alconna_graia</title><style>.edge>path:hover{stroke-width:8}</style>
<path fill="none" stroke="black" d="M1365.93,-585.53C1373.08,-574.78 1381.39,-562.28 1388.52,-551.56"/>
<polygon fill="#c24747" stroke="black" points="1391.55,-553.32 1394.17,-543.06 1385.72,-549.45 1391.55,-553.32"/>
</g>
<!-- alconna_graia_dispatcher -->
<g id="node20" class="node">
<title>alconna_graia_dispatcher</title><style>.edge>path:hover{stroke-width:8}</style>
<ellipse fill="#c04040" stroke="black" cx="1448.13" cy="-611.79" rx="43.68" ry="28.98"/>
<text text-anchor="middle" x="1448.13" y="-620.29" font-family="Helvetica,sans-Serif" font-size="10.00" fill="#ffffff">alconna.</text>
<text text-anchor="middle" x="1448.13" y="-609.29" font-family="Helvetica,sans-Serif" font-size="10.00" fill="#ffffff">graia.</text>
<text text-anchor="middle" x="1448.13" y="-598.29" font-family="Helvetica,sans-Serif" font-size="10.00" fill="#ffffff">dispatcher</text>
</g>
<!-- alconna_graia_dispatcher&#45;&gt;alconna_graia -->
<g id="edge55" class="edge">
<title>alconna_graia_dispatcher&#45;&gt;alconna_graia</title><style>.edge>path:hover{stroke-width:8}</style>
<path fill="none" stroke="black" d="M1434.52,-584.15C1429.34,-574 1423.44,-562.46 1418.3,-552.39"/>
<polygon fill="#c04040" stroke="black" points="1421.31,-550.59 1413.65,-543.27 1415.08,-553.77 1421.31,-550.59"/>
</g>
<!-- alconna_main&#45;&gt;alconna -->
<g id="edge56" class="edge">
<title>alconna_main&#45;&gt;alconna</title><style>.edge>path:hover{stroke-width:8}</style>
<path fill="none" stroke="black" d="M396.13,-178.42C391.3,-130.17 388.89,-109.08 420.13,-72 442.62,-45.29 480.77,-31.83 509.58,-25.18"/>
<polygon fill="#950303" stroke="black" points="510.67,-28.53 519.72,-23.03 509.21,-21.68 510.67,-28.53"/>
<path fill="none" stroke="black" d="M394.98,-431.93C393.16,-400.4 390.38,-331.83 396.13,-274.4"/>
<path fill="none" stroke="black" d="M396.13,-272.4C400.85,-231.79 397.15,-221.29 396.13,-180.42"/>
</g>
<!-- alconna_main&#45;&gt;alconna_analysis_analyser -->
<g id="edge58" class="edge">
<title>alconna_main&#45;&gt;alconna_analysis_analyser</title><style>.edge>path:hover{stroke-width:8}</style>
<path fill="none" stroke="black" d="M442.86,-438.17C476.87,-429.13 523.52,-414.89 562.13,-396.37 617.63,-369.75 675.92,-328.52 711.65,-301.49"/>
<polygon fill="#950303" stroke="black" points="441.97,-434.78 433.18,-440.69 443.74,-441.56 441.97,-434.78"/>
<polygon fill="#950303" stroke="black" points="713.97,-304.13 719.8,-295.28 709.72,-298.56 713.97,-304.13"/>
</g>
<!-- alconna_main&#45;&gt;alconna_arpamar_duplication -->
<g id="edge59" class="edge">
<title>alconna_main&#45;&gt;alconna_arpamar_duplication</title><style>.edge>path:hover{stroke-width:8}</style>
<path fill="none" stroke="black" d="M385.22,-423.24C372.81,-393.49 352.45,-344.67 338.44,-311.11"/>
<polygon fill="#950303" stroke="black" points="382.05,-424.72 389.13,-432.6 388.51,-422.02 382.05,-424.72"/>
<polygon fill="#950303" stroke="black" points="341.58,-309.53 334.49,-301.65 335.12,-312.22 341.58,-309.53"/>
</g>
<!-- alconna_main&#45;&gt;alconna_manager -->
<g id="edge60" class="edge">
<title>alconna_main&#45;&gt;alconna_manager</title><style>.edge>path:hover{stroke-width:8}</style>
<path fill="none" stroke="black" d="M407.44,-422.99C418.34,-399.35 436.35,-364.49 458.13,-338.39 565.47,-209.75 759.07,-135.18 844.57,-107.12"/>
<polygon fill="#950303" stroke="black" points="404.13,-421.82 403.22,-432.37 410.51,-424.69 404.13,-421.82"/>
<polygon fill="#950303" stroke="black" points="845.77,-110.41 854.2,-104.01 843.61,-103.75 845.77,-110.41"/>
</g>
<!-- alconna_main&#45;&gt;alconna_proxy -->
<g id="edge61" class="edge">
<title>alconna_main&#45;&gt;alconna_proxy</title><style>.edge>path:hover{stroke-width:8}</style>
<path fill="none" stroke="black" d="M396.13,-272.4C409.63,-156.24 539.5,-72.3 604.48,-37.2"/>
<polygon fill="#950303" stroke="black" points="606.38,-40.16 613.57,-32.38 603.1,-33.97 606.38,-40.16"/>
</g>
<!-- alconna_main&#45;&gt;alconna_visitor -->
<g id="edge62" class="edge">
<title>alconna_main&#45;&gt;alconna_visitor</title><style>.edge>path:hover{stroke-width:8}</style>
<path fill="none" stroke="black" d="M351.43,-436.67C346.27,-435.21 341.08,-433.76 336.13,-432.37 277.97,-416.14 262.9,-413.93 205.13,-396.37 191.04,-392.1 175.74,-387.1 162.11,-382.53"/>
<polygon fill="#950303" stroke="black" points="350.67,-440.09 361.24,-439.44 352.57,-433.35 350.67,-440.09"/>
<polygon fill="#950303" stroke="black" points="163.11,-379.17 152.51,-379.28 160.87,-385.8 163.11,-379.17"/>
</g>
<!-- alconna_manager&#45;&gt;alconna -->
<g id="edge63" class="edge">
<title>alconna_manager&#45;&gt;alconna</title><style>.edge>path:hover{stroke-width:8}</style>
<path fill="none" stroke="black" d="M857.81,-79.49C850.51,-76.69 842.62,-73.97 835.13,-72 727.42,-43.64 694.24,-66.52 587.13,-36 584.7,-35.31 582.23,-34.5 579.77,-33.62"/>
<polygon fill="#ae1e1e" stroke="black" points="581.02,-30.35 570.44,-29.94 578.46,-36.86 581.02,-30.35"/>
</g>
<!-- alconna_manager&#45;&gt;alconna_proxy -->
<g id="edge65" class="edge">
<title>alconna_manager&#45;&gt;alconna_proxy</title><style>.edge>path:hover{stroke-width:8}</style>
<path fill="none" stroke="black" d="M857.07,-79.92C849.93,-77.17 842.3,-74.37 835.13,-72 785.87,-55.75 728.44,-40.51 688.92,-30.58"/>
<polygon fill="#ae1e1e" stroke="black" points="689.58,-27.14 679.03,-28.11 687.88,-33.93 689.58,-27.14"/>
</g>
<!-- alconna_types&#45;&gt;alconna -->
<g id="edge66" class="edge">
<title>alconna_types&#45;&gt;alconna</title><style>.edge>path:hover{stroke-width:8}</style>
<path fill="none" stroke="black" d="M1166.13,-610.79C1217.59,-548.89 1252.13,-531.88 1252.13,-451.37 1252.13,-451.37 1252.13,-451.37 1252.13,-272.4 1252.13,-182.65 1232.52,-142.89 1157.13,-94.21"/>
</g>
<!-- alconna_types&#45;&gt;alconna_analysis -->
<g id="edge67" class="edge">
<title>alconna_types&#45;&gt;alconna_analysis</title><style>.edge>path:hover{stroke-width:8}</style>
<path fill="none" stroke="black" d="M773.33,-784.47C856.86,-777.14 1032.27,-756.08 1062.13,-706.78"/>
<path fill="none" stroke="black" d="M1062.13,-704.78C1064.3,-701.18 850.15,-590.1 763.17,-545.17"/>
<polygon fill="#f90606" stroke="black" points="764.67,-542.01 754.18,-540.53 761.46,-548.23 764.67,-542.01"/>
</g>
<!-- alconna_types&#45;&gt;alconna_analysis_analyser -->
<g id="edge68" class="edge">
<title>alconna_types&#45;&gt;alconna_analysis_analyser</title><style>.edge>path:hover{stroke-width:8}</style>
<path fill="none" stroke="black" d="M1062.13,-610.79C1056.2,-582.65 992.63,-532.46 986.13,-526.59"/>
<path fill="none" stroke="black" d="M1062.13,-704.78C1081.53,-668.79 1070.55,-652.8 1062.13,-612.79"/>
<path fill="none" stroke="black" d="M986.13,-524.59C912.8,-458.31 826.73,-536.28 776.13,-451.37"/>
</g>
<!-- alconna_types&#45;&gt;alconna_analysis_arg_handlers -->
<g id="edge69" class="edge">
<title>alconna_types&#45;&gt;alconna_analysis_arg_handlers</title><style>.edge>path:hover{stroke-width:8}</style>
<path fill="none" stroke="black" d="M1062.13,-704.78C1091.41,-650.46 1132.3,-664.4 1166.13,-612.79"/>
<path fill="none" stroke="black" d="M1100.13,-366.38C1082.85,-310.72 1049.54,-251.8 1027.06,-215.56"/>
<polygon fill="#f90606" stroke="black" points="1029.88,-213.46 1021.6,-206.85 1023.95,-217.18 1029.88,-213.46"/>
<path fill="none" stroke="black" d="M1166.13,-610.79C1227.34,-517.41 1153.87,-466.26 1100.13,-368.38"/>
</g>
<!-- alconna_types&#45;&gt;alconna_analysis_parts -->
<g id="edge70" class="edge">
<title>alconna_types&#45;&gt;alconna_analysis_parts</title><style>.edge>path:hover{stroke-width:8}</style>
<path fill="none" stroke="black" d="M986.13,-524.59C892.55,-440.01 888.42,-395.21 852.13,-274.4"/>
</g>
<!-- alconna_types&#45;&gt;alconna_arpamar -->
<g id="edge71" class="edge">
<title>alconna_types&#45;&gt;alconna_arpamar</title><style>.edge>path:hover{stroke-width:8}</style>
<path fill="none" stroke="black" d="M1062.13,-704.78C1077.26,-679.79 1052.6,-652.64 1029.43,-634.36"/>
<polygon fill="#f90606" stroke="black" points="1031.46,-631.51 1021.37,-628.29 1027.25,-637.1 1031.46,-631.51"/>
</g>
<!-- alconna_types&#45;&gt;alconna_base -->
<g id="edge72" class="edge">
<title>alconna_types&#45;&gt;alconna_base</title><style>.edge>path:hover{stroke-width:8}</style>
<path fill="none" stroke="black" d="M691.08,-778.84C647.35,-768.51 573.44,-750.86 510.13,-734.77 490.44,-729.76 468.75,-724.02 450.21,-719.04"/>
<polygon fill="#f90606" stroke="black" points="451.12,-715.66 440.55,-716.44 449.3,-722.42 451.12,-715.66"/>
</g>
<!-- alconna_types&#45;&gt;alconna_main -->
<g id="edge73" class="edge">
<title>alconna_types&#45;&gt;alconna_main</title><style>.edge>path:hover{stroke-width:8}</style>
<path fill="none" stroke="black" d="M696.6,-776.12C641.59,-754.1 535.07,-700.55 524.13,-612.79"/>
</g>
<!-- alconna_types&#45;&gt;alconna_manager -->
<g id="edge74" class="edge">
<title>alconna_types&#45;&gt;alconna_manager</title><style>.edge>path:hover{stroke-width:8}</style>
<path fill="none" stroke="black" d="M1062.13,-610.79C1047.52,-541.46 1062.13,-522.23 1062.13,-451.37 1062.13,-451.37 1062.13,-451.37 1062.13,-366.38 1062.13,-270.4 1120.8,-227.89 1064.13,-150.43 1034.91,-110.49 977.1,-98.23 935.48,-94.82"/>
<polygon fill="#f90606" stroke="black" points="935.49,-91.32 925.28,-94.13 935.02,-98.3 935.49,-91.32"/>
</g>
<!-- alconna_types&#45;&gt;alconna_proxy -->
<g id="edge75" class="edge">
<title>alconna_types&#45;&gt;alconna_proxy</title><style>.edge>path:hover{stroke-width:8}</style>
<path fill="none" stroke="black" d="M773.12,-784.22C854.07,-777.17 1023.21,-759.89 1076.13,-734.77 1218.71,-667.08 1290.13,-609.2 1290.13,-451.37 1290.13,-451.37 1290.13,-451.37 1290.13,-272.4 1290.13,-191.43 1311.26,-149.53 1252.13,-94.21"/>
</g>
<!-- alconna_util -->
<g id="node25" class="node">
<title>alconna_util</title><style>.edge>path:hover{stroke-width:8}</style>
<ellipse fill="#e72222" stroke="black" cx="843.13" cy="-450.37" rx="38.7" ry="18"/>
<text text-anchor="middle" x="843.13" y="-447.87" font-family="Helvetica,sans-Serif" font-size="10.00" fill="#ffffff">alconna.util</text>
</g>
<!-- alconna_util&#45;&gt;alconna -->
<g id="edge76" class="edge">
<title>alconna_util&#45;&gt;alconna</title><style>.edge>path:hover{stroke-width:8}</style>
<path fill="none" stroke="black" d="M852.13,-366.38C865.01,-283.27 903.73,-262.86 887.13,-180.42"/>
<path fill="none" stroke="black" d="M887.13,-178.42C873.32,-84.27 1051.8,-233.58 587.13,-36 585.08,-35.13 582.98,-34.23 580.87,-33.32"/>
<polygon fill="#e72222" stroke="black" points="582.18,-30.08 571.61,-29.32 579.4,-36.5 582.18,-30.08"/>
</g>
<!-- alconna_util&#45;&gt;alconna_analysis_analyser -->
<g id="edge77" class="edge">
<title>alconna_util&#45;&gt;alconna_analysis_analyser</title><style>.edge>path:hover{stroke-width:8}</style>
<path fill="none" stroke="black" d="M824.87,-434.21C808.56,-419.38 785.79,-395.16 776.13,-368.38"/>
</g>
<!-- alconna_util&#45;&gt;alconna_analysis_parts -->
<g id="edge78" class="edge">
<title>alconna_util&#45;&gt;alconna_analysis_parts</title><style>.edge>path:hover{stroke-width:8}</style>
<path fill="none" stroke="black" d="M844.6,-432.25C846.11,-415.82 848.73,-390.33 852.13,-368.38"/>
<path fill="none" stroke="black" d="M852.13,-366.38C858.39,-325.98 863.89,-313.55 852.13,-274.4"/>
<path fill="none" stroke="black" d="M852.13,-272.4C846.48,-253.59 838.35,-233.34 831.06,-216.65"/>
<polygon fill="#e72222" stroke="black" points="834.15,-214.99 826.89,-207.27 827.75,-217.83 834.15,-214.99"/>
</g>
<!-- alconna_util&#45;&gt;alconna_manager -->
<g id="edge79" class="edge">
<title>alconna_util&#45;&gt;alconna_manager</title><style>.edge>path:hover{stroke-width:8}</style>
<path fill="none" stroke="black" d="M887.13,-178.42C883.61,-160.95 883.44,-141.03 884.23,-124.95"/>
<polygon fill="#e72222" stroke="black" points="887.75,-124.71 884.9,-114.51 880.77,-124.27 887.75,-124.71"/>
</g>
<!-- alconna_visitor&#45;&gt;alconna -->
<g id="edge80" class="edge">
<title>alconna_visitor&#45;&gt;alconna</title><style>.edge>path:hover{stroke-width:8}</style>
<path fill="none" stroke="black" d="M145.84,-351.43C182.75,-328.72 248.19,-286.87 250.13,-274.4"/>
<path fill="none" stroke="black" d="M250.13,-272.4C256.42,-232.01 270.41,-215.91 250.13,-180.42"/>
<path fill="none" stroke="black" d="M250.13,-178.42C242.67,-165.36 240.31,-162.34 231.13,-150.43 210.89,-124.18 158.92,-117.87 182.13,-94.21"/>
</g>
<!-- loguru -->
<g id="node27" class="node">
<title>loguru</title><style>.edge>path:hover{stroke-width:8}</style>
<ellipse fill="#40bfc0" stroke="black" cx="1448.13" cy="-863.98" rx="27" ry="18"/>
<text text-anchor="middle" x="1448.13" y="-861.48" font-family="Helvetica,sans-Serif" font-size="10.00" fill="#000000">loguru</text>
</g>
<!-- loguru&#45;&gt;alconna_graia_dispatcher -->
<g id="edge82" class="edge">
<title>loguru&#45;&gt;alconna_graia_dispatcher</title><style>.edge>path:hover{stroke-width:8}</style>
<path fill="none" stroke="black" d="M1448.13,-845.78C1448.13,-805.85 1448.13,-706.07 1448.13,-650.92"/>
<polygon fill="#40bfc0" stroke="black" points="1451.63,-650.84 1448.13,-640.84 1444.63,-650.84 1451.63,-650.84"/>
</g>
</g>
</svg>
