<?xml version="1.0" encoding="UTF-8" standalone="no"?>
<!DOCTYPE svg PUBLIC "-//W3C//DTD SVG 1.1//EN"
 "http://www.w3.org/Graphics/SVG/1.1/DTD/svg11.dtd">
<!-- Generated by graphviz version 2.49.3 (20211023.0002)
 -->
<!-- Title: G Pages: 1 -->
<svg width="464pt" height="894pt"
 viewBox="0.00 0.00 463.83 894.28" xmlns="http://www.w3.org/2000/svg" xmlns:xlink="http://www.w3.org/1999/xlink">
<g id="graph0" class="graph" transform="scale(1 1) rotate(0) translate(4 890.28)">
<title>G</title><style>.edge>path:hover{stroke-width:8}</style>
<polygon fill="white" stroke="transparent" points="-4,4 -4,-890.28 459.83,-890.28 459.83,4 -4,4"/>
<!-- alconna -->
<g id="node1" class="node">
<title>alconna</title><style>.edge>path:hover{stroke-width:8}</style>
<ellipse fill="#813737" stroke="black" cx="325" cy="-18" rx="29.37" ry="18"/>
<text text-anchor="middle" x="325" y="-15.5" font-family="Helvetica,sans-Serif" font-size="10.00" fill="#ffffff">alconna</text>
</g>
<!-- alconna_analysis -->
<g id="node2" class="node">
<title>alconna_analysis</title><style>.edge>path:hover{stroke-width:8}</style>
<ellipse fill="#832020" stroke="black" cx="395" cy="-165.21" rx="37.45" ry="21.43"/>
<text text-anchor="middle" x="395" y="-168.21" font-family="Helvetica,sans-Serif" font-size="10.00" fill="#ffffff">alconna.</text>
<text text-anchor="middle" x="395" y="-157.21" font-family="Helvetica,sans-Serif" font-size="10.00" fill="#ffffff">analysis</text>
</g>
<!-- alconna_analysis&#45;&gt;alconna -->
<g id="edge1" class="edge">
<title>alconna_analysis&#45;&gt;alconna</title><style>.edge>path:hover{stroke-width:8}</style>
<path fill="none" stroke="black" d="M399,-143.86C401.04,-128.71 401.84,-107.84 395,-91"/>
</g>
<!-- alconna_core -->
<g id="node5" class="node">
<title>alconna_core</title><style>.edge>path:hover{stroke-width:8}</style>
<ellipse fill="#ac2b2b" stroke="black" cx="325" cy="-90" rx="42.27" ry="18"/>
<text text-anchor="middle" x="325" y="-87.5" font-family="Helvetica,sans-Serif" font-size="10.00" fill="#ffffff">alconna.core</text>
</g>
<!-- alconna_analysis&#45;&gt;alconna_core -->
<g id="edge2" class="edge">
<title>alconna_analysis&#45;&gt;alconna_core</title><style>.edge>path:hover{stroke-width:8}</style>
<path fill="none" stroke="black" d="M370.62,-138.71C363.03,-130.78 354.71,-122.08 347.28,-114.3"/>
<polygon fill="#832020" stroke="black" points="368.26,-141.31 377.7,-146.12 373.32,-136.47 368.26,-141.31"/>
<polygon fill="#832020" stroke="black" points="349.64,-111.71 340.2,-106.9 344.58,-116.55 349.64,-111.71"/>
</g>
<!-- alconna_arparma -->
<g id="node3" class="node">
<title>alconna_arparma</title><style>.edge>path:hover{stroke-width:8}</style>
<ellipse fill="#c82323" stroke="black" cx="357" cy="-243.64" rx="37.45" ry="21.43"/>
<text text-anchor="middle" x="357" y="-246.64" font-family="Helvetica,sans-Serif" font-size="10.00" fill="#ffffff">alconna.</text>
<text text-anchor="middle" x="357" y="-235.64" font-family="Helvetica,sans-Serif" font-size="10.00" fill="#ffffff">arparma</text>
</g>
<!-- alconna_arparma&#45;&gt;alconna -->
<g id="edge3" class="edge">
<title>alconna_arparma&#45;&gt;alconna</title><style>.edge>path:hover{stroke-width:8}</style>
<path fill="none" stroke="black" d="M330,-164.21C331.04,-120.71 411.37,-131.32 395,-91"/>
<path fill="none" stroke="black" d="M395,-89C386.54,-68.17 368.46,-50.36 352.79,-37.91"/>
<polygon fill="#c82323" stroke="black" points="354.5,-34.81 344.41,-31.56 350.27,-40.39 354.5,-34.81"/>
</g>
<!-- alconna_arparma&#45;&gt;alconna_analysis -->
<g id="edge4" class="edge">
<title>alconna_arparma&#45;&gt;alconna_analysis</title><style>.edge>path:hover{stroke-width:8}</style>
<path fill="none" stroke="black" d="M366.79,-222.96C371.04,-214.4 376.11,-204.21 380.77,-194.83"/>
<polygon fill="#c82323" stroke="black" points="383.93,-196.34 385.25,-185.83 377.66,-193.22 383.93,-196.34"/>
</g>
<!-- alconna_arparma&#45;&gt;alconna_core -->
<g id="edge5" class="edge">
<title>alconna_arparma&#45;&gt;alconna_core</title><style>.edge>path:hover{stroke-width:8}</style>
<path fill="none" stroke="black" d="M345.74,-223.19C338.12,-208.12 329.51,-186.47 330,-166.21"/>
<path fill="none" stroke="black" d="M330,-164.21C330.36,-149.04 329.31,-132.13 328.07,-118.39"/>
<polygon fill="#c82323" stroke="black" points="331.53,-117.75 327.07,-108.14 324.56,-118.43 331.53,-117.75"/>
</g>
<!-- alconna_base -->
<g id="node4" class="node">
<title>alconna_base</title><style>.edge>path:hover{stroke-width:8}</style>
<ellipse fill="#b81414" stroke="black" cx="250" cy="-318.85" rx="43.62" ry="18"/>
<text text-anchor="middle" x="250" y="-316.35" font-family="Helvetica,sans-Serif" font-size="10.00" fill="#ffffff">alconna.base</text>
</g>
<!-- alconna_base&#45;&gt;alconna -->
<g id="edge6" class="edge">
<title>alconna_base&#45;&gt;alconna</title><style>.edge>path:hover{stroke-width:8}</style>
<path fill="none" stroke="black" d="M223.95,-304.32C203.94,-291.89 179.47,-271.34 178,-244.64"/>
</g>
<!-- alconna_base&#45;&gt;alconna_analysis -->
<g id="edge7" class="edge">
<title>alconna_base&#45;&gt;alconna_analysis</title><style>.edge>path:hover{stroke-width:8}</style>
<path fill="none" stroke="black" d="M245.25,-300.82C241.74,-284.14 239.73,-259.18 254,-244.64"/>
</g>
<!-- alconna_base&#45;&gt;alconna_arparma -->
<g id="edge8" class="edge">
<title>alconna_base&#45;&gt;alconna_arparma</title><style>.edge>path:hover{stroke-width:8}</style>
<path fill="none" stroke="black" d="M271.65,-303.04C287.05,-292.5 307.97,-278.19 325.24,-266.37"/>
<polygon fill="#b81414" stroke="black" points="327.62,-268.98 333.9,-260.45 323.67,-263.21 327.62,-268.98"/>
</g>
<!-- alconna_base&#45;&gt;alconna_core -->
<g id="edge9" class="edge">
<title>alconna_base&#45;&gt;alconna_core</title><style>.edge>path:hover{stroke-width:8}</style>
<path fill="none" stroke="black" d="M234.37,-302.01C221.82,-287.28 207.58,-264.66 216,-244.64"/>
</g>
<!-- alconna_core&#45;&gt;alconna -->
<g id="edge10" class="edge">
<title>alconna_core&#45;&gt;alconna</title><style>.edge>path:hover{stroke-width:8}</style>
<path fill="none" stroke="black" d="M325,-71.7C325,-63.98 325,-54.71 325,-46.11"/>
<polygon fill="#ac2b2b" stroke="black" points="328.5,-46.1 325,-36.1 321.5,-46.1 328.5,-46.1"/>
</g>
<!-- alconna_exceptions -->
<g id="node6" class="node">
<title>alconna_exceptions</title><style>.edge>path:hover{stroke-width:8}</style>
<ellipse fill="#e72222" stroke="black" cx="187" cy="-394.07" rx="45.01" ry="21.43"/>
<text text-anchor="middle" x="187" y="-397.07" font-family="Helvetica,sans-Serif" font-size="10.00" fill="#ffffff">alconna.</text>
<text text-anchor="middle" x="187" y="-386.07" font-family="Helvetica,sans-Serif" font-size="10.00" fill="#ffffff">exceptions</text>
</g>
<!-- alconna_exceptions&#45;&gt;alconna -->
<g id="edge12" class="edge">
<title>alconna_exceptions&#45;&gt;alconna</title><style>.edge>path:hover{stroke-width:8}</style>
<path fill="none" stroke="black" d="M181.29,-372.78C177.92,-358.04 174.87,-337.64 178,-319.85"/>
<path fill="none" stroke="black" d="M178,-317.85C183.64,-285.81 179.79,-277.13 178,-244.64"/>
</g>
<!-- alconna_exceptions&#45;&gt;alconna_analysis -->
<g id="edge13" class="edge">
<title>alconna_exceptions&#45;&gt;alconna_analysis</title><style>.edge>path:hover{stroke-width:8}</style>
<path fill="none" stroke="black" d="M254,-242.64C269.62,-226.72 320.9,-200.8 357.09,-183.63"/>
<polygon fill="#e72222" stroke="black" points="358.84,-186.67 366.4,-179.25 355.86,-180.34 358.84,-186.67"/>
<path fill="none" stroke="black" d="M178,-317.85C180.03,-306.31 245.79,-253.01 254,-244.64"/>
</g>
<!-- alconna_exceptions&#45;&gt;alconna_base -->
<g id="edge14" class="edge">
<title>alconna_exceptions&#45;&gt;alconna_base</title><style>.edge>path:hover{stroke-width:8}</style>
<path fill="none" stroke="black" d="M203.22,-374.21C211.09,-365.08 220.62,-353.99 229.03,-344.23"/>
<polygon fill="#e72222" stroke="black" points="231.89,-346.26 235.76,-336.4 226.59,-341.7 231.89,-346.26"/>
</g>
<!-- alconna_exceptions&#45;&gt;alconna_core -->
<g id="edge15" class="edge">
<title>alconna_exceptions&#45;&gt;alconna_core</title><style>.edge>path:hover{stroke-width:8}</style>
<path fill="none" stroke="black" d="M216,-242.64C234.57,-198.48 272.73,-210.07 292,-166.21"/>
<path fill="none" stroke="black" d="M292,-164.21C298.86,-148.6 306.7,-131.19 313.01,-117.27"/>
<polygon fill="#e72222" stroke="black" points="316.35,-118.38 317.31,-107.83 309.98,-115.48 316.35,-118.38"/>
<path fill="none" stroke="black" d="M178,-317.85C184.36,-281.75 201.79,-278.43 216,-244.64"/>
</g>
<!-- alconna_typing -->
<g id="node7" class="node">
<title>alconna_typing</title><style>.edge>path:hover{stroke-width:8}</style>
<ellipse fill="#f30c0c" stroke="black" cx="335" cy="-394.07" rx="47.19" ry="18"/>
<text text-anchor="middle" x="335" y="-391.57" font-family="Helvetica,sans-Serif" font-size="10.00" fill="#ffffff">alconna.typing</text>
</g>
<!-- alconna_typing&#45;&gt;alconna -->
<g id="edge16" class="edge">
<title>alconna_typing&#45;&gt;alconna</title><style>.edge>path:hover{stroke-width:8}</style>
<path fill="none" stroke="black" d="M372,-317.85C383.3,-282.69 419.23,-297.76 436,-264.85 460.41,-216.96 459.81,-194.36 441,-144 430.09,-114.78 406.73,-119.9 395,-91"/>
</g>
<!-- alconna_typing&#45;&gt;alconna_analysis -->
<g id="edge17" class="edge">
<title>alconna_typing&#45;&gt;alconna_analysis</title><style>.edge>path:hover{stroke-width:8}</style>
<path fill="none" stroke="black" d="M422,-242.64C420.59,-226.39 414.92,-209.2 409.14,-195.24"/>
<polygon fill="#f30c0c" stroke="black" points="412.19,-193.47 404.97,-185.71 405.78,-196.27 412.19,-193.47"/>
<path fill="none" stroke="black" d="M372,-317.85C383.63,-280.2 425.41,-283.9 422,-244.64"/>
</g>
<!-- alconna_typing&#45;&gt;alconna_arparma -->
<g id="edge18" class="edge">
<title>alconna_typing&#45;&gt;alconna_arparma</title><style>.edge>path:hover{stroke-width:8}</style>
<path fill="none" stroke="black" d="M372,-317.85C376.36,-303.73 373.87,-287.67 369.76,-274.2"/>
<polygon fill="#f30c0c" stroke="black" points="372.97,-272.78 366.39,-264.48 366.36,-275.07 372.97,-272.78"/>
</g>
<!-- alconna_typing&#45;&gt;alconna_base -->
<g id="edge19" class="edge">
<title>alconna_typing&#45;&gt;alconna_base</title><style>.edge>path:hover{stroke-width:8}</style>
<path fill="none" stroke="black" d="M316.56,-377.18C304.67,-366.94 289.04,-353.48 275.91,-342.17"/>
<polygon fill="#f30c0c" stroke="black" points="277.98,-339.33 268.12,-335.46 273.41,-344.63 277.98,-339.33"/>
</g>
<!-- alconna_typing&#45;&gt;alconna_core -->
<g id="edge20" class="edge">
<title>alconna_typing&#45;&gt;alconna_core</title><style>.edge>path:hover{stroke-width:8}</style>
<path fill="none" stroke="black" d="M345.53,-376.3C354.08,-361.89 365.7,-340.26 372,-319.85"/>
<path fill="none" stroke="black" d="M372,-317.85C382.6,-283.54 328.93,-295.97 311,-264.85 288.71,-226.17 273.29,-206.75 292,-166.21"/>
</g>
<!-- nepattern -->
<g id="node8" class="node">
<title>nepattern</title><style>.edge>path:hover{stroke-width:8}</style>
<ellipse fill="#7ad024" stroke="black" cx="306" cy="-506.28" rx="33.61" ry="18"/>
<text text-anchor="middle" x="306" y="-503.78" font-family="Helvetica,sans-Serif" font-size="10.00" fill="#000000">nepattern</text>
</g>
<!-- nepattern&#45;&gt;alconna -->
<g id="edge21" class="edge">
<title>nepattern&#45;&gt;alconna</title><style>.edge>path:hover{stroke-width:8}</style>
<path fill="none" stroke="black" d="M273.49,-501.24C211.42,-491.88 84.66,-464.03 114,-395.07"/>
</g>
<!-- nepattern&#45;&gt;alconna_analysis -->
<g id="edge22" class="edge">
<title>nepattern&#45;&gt;alconna_analysis</title><style>.edge>path:hover{stroke-width:8}</style>
<path fill="none" stroke="black" d="M448,-393.07C473.3,-331.06 427.8,-311.36 422,-244.64"/>
<path fill="none" stroke="black" d="M335,-451.28C354.37,-398.64 427.85,-447.41 448,-395.07"/>
</g>
<!-- nepattern&#45;&gt;alconna_base -->
<g id="edge23" class="edge">
<title>nepattern&#45;&gt;alconna_base</title><style>.edge>path:hover{stroke-width:8}</style>
<path fill="none" stroke="black" d="M316.46,-489.17C322.66,-478.96 330.22,-465.27 335,-452.28"/>
<path fill="none" stroke="black" d="M335,-451.28C349.38,-412.18 242.26,-432.76 260,-395.07"/>
</g>
<!-- nepattern&#45;&gt;alconna_typing -->
<g id="edge24" class="edge">
<title>nepattern&#45;&gt;alconna_typing</title><style>.edge>path:hover{stroke-width:8}</style>
<path fill="none" stroke="black" d="M335,-451.28C338.33,-442.23 339.09,-431.79 338.77,-422.38"/>
<polygon fill="#7ad024" stroke="black" points="342.25,-422.04 338.02,-412.33 335.27,-422.56 342.25,-422.04"/>
</g>
<!-- nepattern_util -->
<g id="node9" class="node">
<title>nepattern_util</title><style>.edge>path:hover{stroke-width:8}</style>
<ellipse fill="#7ab83d" stroke="black" cx="377" cy="-578.28" rx="42.94" ry="18"/>
<text text-anchor="middle" x="377" y="-575.78" font-family="Helvetica,sans-Serif" font-size="10.00" fill="#000000">nepattern.util</text>
</g>
<!-- nepattern_util&#45;&gt;alconna_analysis -->
<g id="edge25" class="edge">
<title>nepattern_util&#45;&gt;alconna_analysis</title><style>.edge>path:hover{stroke-width:8}</style>
<path fill="none" stroke="black" d="M448,-505.28C459.12,-457.57 430.4,-440.78 448,-395.07"/>
<path fill="none" stroke="black" d="M401.76,-563.55C420.06,-551.55 442.68,-532.16 448,-507.28"/>
</g>
<!-- nepattern_util&#45;&gt;nepattern -->
<g id="edge26" class="edge">
<title>nepattern_util&#45;&gt;nepattern</title><style>.edge>path:hover{stroke-width:8}</style>
<path fill="none" stroke="black" d="M360.89,-561.4C351.41,-552.05 339.26,-540.07 328.81,-529.77"/>
<polygon fill="#7ab83d" stroke="black" points="331.14,-527.15 321.56,-522.62 326.22,-532.13 331.14,-527.15"/>
</g>
<!-- tarina -->
<g id="node10" class="node">
<title>tarina</title><style>.edge>path:hover{stroke-width:8}</style>
<ellipse fill="#0cf3f3" stroke="black" cx="297" cy="-687.28" rx="27" ry="18"/>
<text text-anchor="middle" x="297" y="-684.78" font-family="Helvetica,sans-Serif" font-size="10.00" fill="#000000">tarina</text>
</g>
<!-- tarina&#45;&gt;alconna -->
<g id="edge27" class="edge">
<title>tarina&#45;&gt;alconna</title><style>.edge>path:hover{stroke-width:8}</style>
<path fill="none" stroke="black" d="M178,-242.64C173.15,-154.82 255.85,-74.59 299.27,-38.75"/>
<polygon fill="#0cf3f3" stroke="black" points="301.57,-41.39 307.15,-32.38 297.17,-35.95 301.57,-41.39"/>
<path fill="none" stroke="black" d="M114,-393.07C126.34,-359.33 176.15,-280.51 178,-244.64"/>
<path fill="none" stroke="black" d="M269.77,-687.11C203.27,-687.59 38,-678.77 38,-579.28 38,-579.28 38,-579.28 38,-505.28 38,-445.78 87.72,-448.45 114,-395.07"/>
</g>
<!-- tarina&#45;&gt;alconna_analysis -->
<g id="edge28" class="edge">
<title>tarina&#45;&gt;alconna_analysis</title><style>.edge>path:hover{stroke-width:8}</style>
<path fill="none" stroke="black" d="M390,-632.28C406.01,-614.96 417.32,-616.78 429,-596.28 449.02,-561.14 439.54,-546.83 448,-507.28"/>
<path fill="none" stroke="black" d="M318.49,-676.3C342.74,-664.66 380.09,-645.46 390,-633.28"/>
</g>
<!-- tarina&#45;&gt;alconna_arparma -->
<g id="edge29" class="edge">
<title>tarina&#45;&gt;alconna_arparma</title><style>.edge>path:hover{stroke-width:8}</style>
<path fill="none" stroke="black" d="M306,-577.28C306.84,-546.96 333.8,-550.53 349,-524.28 375.01,-479.35 381.51,-466.32 391,-415.28 400.31,-365.23 399.72,-349.87 386,-300.85 383.33,-291.3 378.93,-281.49 374.36,-272.79"/>
<polygon fill="#0cf3f3" stroke="black" points="377.31,-270.91 369.4,-263.86 371.19,-274.3 377.31,-270.91"/>
</g>
<!-- tarina&#45;&gt;alconna_base -->
<g id="edge30" class="edge">
<title>tarina&#45;&gt;alconna_base</title><style>.edge>path:hover{stroke-width:8}</style>
<path fill="none" stroke="black" d="M298.15,-669.1C299.29,-658.5 301.54,-644.76 306,-633.28"/>
<path fill="none" stroke="black" d="M306,-632.28C314.53,-610.32 306,-602.83 306,-579.28"/>
<path fill="none" stroke="black" d="M306,-577.28C306,-546.95 273.47,-552.75 263,-524.28 243.17,-470.37 235.54,-447.04 260,-395.07"/>
</g>
<!-- tarina&#45;&gt;nepattern -->
<g id="edge31" class="edge">
<title>tarina&#45;&gt;nepattern</title><style>.edge>path:hover{stroke-width:8}</style>
<path fill="none" stroke="black" d="M306,-577.28C306,-563.23 306,-547.59 306,-534.66"/>
<polygon fill="#0cf3f3" stroke="black" points="309.5,-534.54 306,-524.54 302.5,-534.54 309.5,-534.54"/>
</g>
<!-- tarina&#45;&gt;nepattern_util -->
<g id="edge32" class="edge">
<title>tarina&#45;&gt;nepattern_util</title><style>.edge>path:hover{stroke-width:8}</style>
<path fill="none" stroke="black" d="M306,-632.28C311.94,-616.99 325.25,-605.24 338.76,-596.74"/>
<polygon fill="#0cf3f3" stroke="black" points="340.7,-599.66 347.59,-591.61 337.19,-593.6 340.7,-599.66"/>
</g>
<!-- tarina_lang -->
<g id="node11" class="node">
<title>tarina_lang</title><style>.edge>path:hover{stroke-width:8}</style>
<ellipse fill="#26d9d9" stroke="black" cx="297" cy="-759.28" rx="36.49" ry="18"/>
<text text-anchor="middle" x="297" y="-756.78" font-family="Helvetica,sans-Serif" font-size="10.00" fill="#000000">tarina.lang</text>
</g>
<!-- tarina_lang&#45;&gt;alconna_analysis -->
<g id="edge33" class="edge">
<title>tarina_lang&#45;&gt;alconna_analysis</title><style>.edge>path:hover{stroke-width:8}</style>
<path fill="none" stroke="black" d="M352,-686.28C367.48,-661.78 371.71,-655.76 390,-633.28"/>
</g>
<!-- tarina_lang&#45;&gt;alconna_base -->
<g id="edge34" class="edge">
<title>tarina_lang&#45;&gt;alconna_base</title><style>.edge>path:hover{stroke-width:8}</style>
<path fill="none" stroke="black" d="M261.49,-754.48C199.02,-745.62 76,-717.47 76,-633.28 76,-633.28 76,-633.28 76,-505.28 76,-409.95 218.6,-480.93 260,-395.07"/>
</g>
<!-- tarina_lang&#45;&gt;nepattern_util -->
<g id="edge35" class="edge">
<title>tarina_lang&#45;&gt;nepattern_util</title><style>.edge>path:hover{stroke-width:8}</style>
<path fill="none" stroke="black" d="M352,-686.28C365.44,-661.31 371.71,-629.25 374.59,-606.76"/>
<polygon fill="#26d9d9" stroke="black" points="378.1,-606.9 375.75,-596.56 371.14,-606.1 378.1,-606.9"/>
<path fill="none" stroke="black" d="M310.88,-742.57C322.64,-728.82 339.54,-708.01 352,-688.28"/>
</g>
<!-- tarina_lang&#45;&gt;tarina -->
<g id="edge36" class="edge">
<title>tarina_lang&#45;&gt;tarina</title><style>.edge>path:hover{stroke-width:8}</style>
<path fill="none" stroke="black" d="M297,-740.98C297,-733.26 297,-723.99 297,-715.39"/>
<polygon fill="#26d9d9" stroke="black" points="300.5,-715.38 297,-705.38 293.5,-715.38 300.5,-715.38"/>
</g>
<!-- typing_extensions -->
<g id="node12" class="node">
<title>typing_extensions</title><style>.edge>path:hover{stroke-width:8}</style>
<ellipse fill="#853bce" stroke="black" cx="297" cy="-868.28" rx="55.85" ry="18"/>
<text text-anchor="middle" x="297" y="-865.78" font-family="Helvetica,sans-Serif" font-size="10.00" fill="#ffffff">typing_extensions</text>
</g>
<!-- typing_extensions&#45;&gt;alconna_analysis -->
<g id="edge37" class="edge">
<title>typing_extensions&#45;&gt;alconna_analysis</title><style>.edge>path:hover{stroke-width:8}</style>
<path fill="none" stroke="black" d="M297,-813.28C294.45,-787.79 327.35,-798.29 342,-777.28 342.15,-777.06 389.83,-633.48 390,-633.28"/>
</g>
<!-- typing_extensions&#45;&gt;alconna_base -->
<g id="edge38" class="edge">
<title>typing_extensions&#45;&gt;alconna_base</title><style>.edge>path:hover{stroke-width:8}</style>
<path fill="none" stroke="black" d="M260,-393.07C266.5,-378.56 264.36,-360.94 260.43,-346.62"/>
<polygon fill="#853bce" stroke="black" points="263.7,-345.35 257.34,-336.87 257.02,-347.46 263.7,-345.35"/>
<path fill="none" stroke="black" d="M297,-813.28C290.14,-787.34 101.82,-722.2 81,-705.28 29.34,-663.29 0,-645.85 0,-579.28 0,-579.28 0,-579.28 0,-505.28 0,-379.77 208.7,-509.61 260,-395.07"/>
<path fill="none" stroke="black" d="M297.86,-850.05C298.17,-839.66 298.19,-826.18 297,-814.28"/>
</g>
<!-- typing_extensions&#45;&gt;tarina_lang -->
<g id="edge39" class="edge">
<title>typing_extensions&#45;&gt;tarina_lang</title><style>.edge>path:hover{stroke-width:8}</style>
<path fill="none" stroke="black" d="M297,-813.28C294.82,-805.02 294.22,-795.79 294.34,-787.37"/>
<polygon fill="#853bce" stroke="black" points="297.84,-787.43 294.81,-777.27 290.85,-787.1 297.84,-787.43"/>
</g>
</g>
</svg>
