<?xml version="1.0" encoding="UTF-8" standalone="no"?>
<!DOCTYPE svg PUBLIC "-//W3C//DTD SVG 1.1//EN"
 "http://www.w3.org/Graphics/SVG/1.1/DTD/svg11.dtd">
<!-- Generated by graphviz version 2.49.3 (20211023.0002)
 -->
<!-- Title: G Pages: 1 -->
<svg width="1172pt" height="1008pt"
 viewBox="0.00 0.00 1171.73 1008.08" xmlns="http://www.w3.org/2000/svg" xmlns:xlink="http://www.w3.org/1999/xlink">
<g id="graph0" class="graph" transform="scale(1 1) rotate(0) translate(4 1004.08)">
<title>G</title><style>.edge>path:hover{stroke-width:8}</style>
<polygon fill="white" stroke="transparent" points="-4,4 -4,-1004.08 1167.73,-1004.08 1167.73,4 -4,4"/>
<!-- alconna -->
<g id="node1" class="node">
<title>alconna</title><style>.edge>path:hover{stroke-width:8}</style>
<ellipse fill="#821717" stroke="black" cx="694.85" cy="-18" rx="29.37" ry="18"/>
<text text-anchor="middle" x="694.85" y="-15.5" font-family="Helvetica,sans-Serif" font-size="10.00" fill="#ffffff">alconna</text>
</g>
<!-- alconna_analysis -->
<g id="node2" class="node">
<title>alconna_analysis</title><style>.edge>path:hover{stroke-width:8}</style>
<ellipse fill="#b80909" stroke="black" cx="590.85" cy="-678.01" rx="37.45" ry="21.43"/>
<text text-anchor="middle" x="590.85" y="-681.01" font-family="Helvetica,sans-Serif" font-size="10.00" fill="#ffffff">alconna.</text>
<text text-anchor="middle" x="590.85" y="-670.01" font-family="Helvetica,sans-Serif" font-size="10.00" fill="#ffffff">analysis</text>
</g>
<!-- alconna_analysis&#45;&gt;alconna -->
<g id="edge1" class="edge">
<title>alconna_analysis&#45;&gt;alconna</title><style>.edge>path:hover{stroke-width:8}</style>
<path fill="none" stroke="black" d="M563.55,-663.17C531.56,-646.38 477.63,-616.27 435.85,-583.8 356.12,-521.83 323.42,-505.91 287.85,-411.39 264.12,-348.32 241.66,-322.62 268.85,-260.97"/>
</g>
<!-- alconna_builtin_analyser -->
<g id="node10" class="node">
<title>alconna_builtin_analyser</title><style>.edge>path:hover{stroke-width:8}</style>
<ellipse fill="#8a2e2e" stroke="black" cx="688.85" cy="-554.81" rx="37.45" ry="28.98"/>
<text text-anchor="middle" x="688.85" y="-563.31" font-family="Helvetica,sans-Serif" font-size="10.00" fill="#ffffff">alconna.</text>
<text text-anchor="middle" x="688.85" y="-552.31" font-family="Helvetica,sans-Serif" font-size="10.00" fill="#ffffff">builtin.</text>
<text text-anchor="middle" x="688.85" y="-541.31" font-family="Helvetica,sans-Serif" font-size="10.00" fill="#ffffff">analyser</text>
</g>
<!-- alconna_analysis&#45;&gt;alconna_builtin_analyser -->
<g id="edge2" class="edge">
<title>alconna_analysis&#45;&gt;alconna_builtin_analyser</title><style>.edge>path:hover{stroke-width:8}</style>
<path fill="none" stroke="black" d="M606.45,-658.65C615.67,-647.73 627.52,-633.55 637.85,-620.8 646.4,-610.25 655.6,-598.61 663.81,-588.13"/>
<polygon fill="#b80909" stroke="black" points="666.74,-590.06 670.14,-580.02 661.22,-585.75 666.74,-590.06"/>
</g>
<!-- alconna_main -->
<g id="node14" class="node">
<title>alconna_main</title><style>.edge>path:hover{stroke-width:8}</style>
<ellipse fill="#9b0808" stroke="black" cx="340.85" cy="-393.39" rx="43.62" ry="18"/>
<text text-anchor="middle" x="340.85" y="-390.89" font-family="Helvetica,sans-Serif" font-size="10.00" fill="#ffffff">alconna.main</text>
</g>
<!-- alconna_analysis&#45;&gt;alconna_main -->
<g id="edge3" class="edge">
<title>alconna_analysis&#45;&gt;alconna_main</title><style>.edge>path:hover{stroke-width:8}</style>
<path fill="none" stroke="black" d="M568.56,-650.57C540.21,-618.14 488.58,-562.9 435.85,-525.82 405.94,-504.78 384.49,-518.55 361.85,-489.82 346.57,-470.42 341.87,-442.21 340.67,-421.49"/>
<polygon fill="#b80909" stroke="black" points="566.06,-653.03 575.25,-658.3 571.35,-648.45 566.06,-653.03"/>
<polygon fill="#b80909" stroke="black" points="344.17,-421.3 340.32,-411.43 337.17,-421.55 344.17,-421.3"/>
</g>
<!-- alconna_manager -->
<g id="node15" class="node">
<title>alconna_manager</title><style>.edge>path:hover{stroke-width:8}</style>
<ellipse fill="#cc0a0a" stroke="black" cx="410.85" cy="-318.18" rx="38.37" ry="21.43"/>
<text text-anchor="middle" x="410.85" y="-321.18" font-family="Helvetica,sans-Serif" font-size="10.00" fill="#ffffff">alconna.</text>
<text text-anchor="middle" x="410.85" y="-310.18" font-family="Helvetica,sans-Serif" font-size="10.00" fill="#ffffff">manager</text>
</g>
<!-- alconna_analysis&#45;&gt;alconna_manager -->
<g id="edge4" class="edge">
<title>alconna_analysis&#45;&gt;alconna_manager</title><style>.edge>path:hover{stroke-width:8}</style>
<path fill="none" stroke="black" d="M592.38,-656.47C595.18,-603.66 595.52,-461.34 526.85,-375.39 508.85,-352.86 479.57,-338.76 454.93,-330.32"/>
<polygon fill="#b80909" stroke="black" points="455.99,-326.99 445.4,-327.26 453.85,-333.65 455.99,-326.99"/>
</g>
<!-- alconna_analysis_Analyser -->
<g id="node3" class="node">
<title>alconna_analysis_Analyser</title><style>.edge>path:hover{stroke-width:8}</style>
<ellipse fill="#883a3a" stroke="black" cx="276.85" cy="-194.97" rx="39.7" ry="28.98"/>
<text text-anchor="middle" x="276.85" y="-203.47" font-family="Helvetica,sans-Serif" font-size="10.00" fill="#ffffff">alconna.</text>
<text text-anchor="middle" x="276.85" y="-192.47" font-family="Helvetica,sans-Serif" font-size="10.00" fill="#ffffff">analysis.</text>
<text text-anchor="middle" x="276.85" y="-181.47" font-family="Helvetica,sans-Serif" font-size="10.00" fill="#ffffff">Analyser</text>
</g>
<!-- alconna_analysis_Analyser&#45;&gt;alconna -->
<g id="edge5" class="edge">
<title>alconna_analysis_Analyser&#45;&gt;alconna</title><style>.edge>path:hover{stroke-width:8}</style>
<path fill="none" stroke="black" d="M278.41,-165.68C281.34,-143.8 289.34,-115.11 310.85,-101.99"/>
</g>
<!-- alconna_analysis_analyser -->
<g id="node4" class="node">
<title>alconna_analysis_analyser</title><style>.edge>path:hover{stroke-width:8}</style>
<ellipse fill="#b80909" stroke="black" cx="715.85" cy="-194.97" rx="39.7" ry="28.98"/>
<text text-anchor="middle" x="715.85" y="-203.47" font-family="Helvetica,sans-Serif" font-size="10.00" fill="#ffffff">alconna.</text>
<text text-anchor="middle" x="715.85" y="-192.47" font-family="Helvetica,sans-Serif" font-size="10.00" fill="#ffffff">analysis.</text>
<text text-anchor="middle" x="715.85" y="-181.47" font-family="Helvetica,sans-Serif" font-size="10.00" fill="#ffffff">analyser</text>
</g>
<!-- alconna_analysis_analyser&#45;&gt;alconna_analysis -->
<g id="edge6" class="edge">
<title>alconna_analysis_analyser&#45;&gt;alconna_analysis</title><style>.edge>path:hover{stroke-width:8}</style>
<path fill="none" stroke="black" d="M709.85,-260.97C711.94,-326.74 784.16,-495.4 753.85,-553.81"/>
<path fill="none" stroke="black" d="M753.85,-555.81C725.84,-611 659.63,-647.48 620.76,-664.97"/>
</g>
<!-- alconna_analysis_arg_handlers -->
<g id="node5" class="node">
<title>alconna_analysis_arg_handlers</title><style>.edge>path:hover{stroke-width:8}</style>
<ellipse fill="#b42d2d" stroke="black" cx="538.85" cy="-100.99" rx="50.82" ry="28.98"/>
<text text-anchor="middle" x="538.85" y="-109.49" font-family="Helvetica,sans-Serif" font-size="10.00" fill="#ffffff">alconna.</text>
<text text-anchor="middle" x="538.85" y="-98.49" font-family="Helvetica,sans-Serif" font-size="10.00" fill="#ffffff">analysis.</text>
<text text-anchor="middle" x="538.85" y="-87.49" font-family="Helvetica,sans-Serif" font-size="10.00" fill="#ffffff">arg_handlers</text>
</g>
<!-- alconna_analysis_analyser&#45;&gt;alconna_analysis_arg_handlers -->
<g id="edge7" class="edge">
<title>alconna_analysis_analyser&#45;&gt;alconna_analysis_arg_handlers</title><style>.edge>path:hover{stroke-width:8}</style>
<path fill="none" stroke="black" d="M684.21,-177.53C656.51,-163.14 615.94,-142.05 584.69,-125.81"/>
<polygon fill="#b80909" stroke="black" points="586.22,-122.66 575.73,-121.16 582.99,-128.87 586.22,-122.66"/>
</g>
<!-- alconna_analysis_parts -->
<g id="node6" class="node">
<title>alconna_analysis_parts</title><style>.edge>path:hover{stroke-width:8}</style>
<ellipse fill="#ac2b2b" stroke="black" cx="647.85" cy="-100.99" rx="39.7" ry="28.98"/>
<text text-anchor="middle" x="647.85" y="-109.49" font-family="Helvetica,sans-Serif" font-size="10.00" fill="#ffffff">alconna.</text>
<text text-anchor="middle" x="647.85" y="-98.49" font-family="Helvetica,sans-Serif" font-size="10.00" fill="#ffffff">analysis.</text>
<text text-anchor="middle" x="647.85" y="-87.49" font-family="Helvetica,sans-Serif" font-size="10.00" fill="#ffffff">parts</text>
</g>
<!-- alconna_analysis_analyser&#45;&gt;alconna_analysis_parts -->
<g id="edge8" class="edge">
<title>alconna_analysis_analyser&#45;&gt;alconna_analysis_parts</title><style>.edge>path:hover{stroke-width:8}</style>
<path fill="none" stroke="black" d="M697.27,-168.84C689.56,-158.41 680.51,-146.17 672.28,-135.03"/>
<polygon fill="#b80909" stroke="black" points="674.94,-132.74 666.18,-126.78 669.31,-136.9 674.94,-132.74"/>
</g>
<!-- alconna_analysis_analyser&#45;&gt;alconna_builtin_analyser -->
<g id="edge9" class="edge">
<title>alconna_analysis_analyser&#45;&gt;alconna_builtin_analyser</title><style>.edge>path:hover{stroke-width:8}</style>
<path fill="none" stroke="black" d="M709.85,-260.97C710.66,-286.33 694.17,-292.45 699.85,-317.18"/>
<path fill="none" stroke="black" d="M711.7,-223.96C710.8,-232 710.04,-240.97 709.83,-249.78"/>
<polygon fill="#b80909" stroke="black" points="706.33,-249.97 709.85,-259.97 713.33,-249.96 706.33,-249.97"/>
</g>
<!-- alconna_analysis_arg_handlers&#45;&gt;alconna_analysis -->
<g id="edge11" class="edge">
<title>alconna_analysis_arg_handlers&#45;&gt;alconna_analysis</title><style>.edge>path:hover{stroke-width:8}</style>
<path fill="none" stroke="black" d="M551.84,-129.15C556.66,-140.32 561.72,-153.54 564.85,-165.98 604.17,-321.97 591.76,-365.41 603.85,-525.82 607.03,-567.95 614.03,-579 607.85,-620.8 606.56,-629.55 604.19,-638.82 601.62,-647.26"/>
<polygon fill="#b42d2d" stroke="black" points="598.21,-646.46 598.45,-657.05 604.87,-648.61 598.21,-646.46"/>
</g>
<!-- alconna_analysis_arg_handlers&#45;&gt;alconna_builtin_analyser -->
<g id="edge12" class="edge">
<title>alconna_analysis_arg_handlers&#45;&gt;alconna_builtin_analyser</title><style>.edge>path:hover{stroke-width:8}</style>
<path fill="none" stroke="black" d="M699.85,-319.18C701.95,-351.65 680.83,-366 699.85,-392.39"/>
<path fill="none" stroke="black" d="M574.93,-121.54C597.77,-135.86 626.06,-157.55 642.83,-184.9"/>
<polygon fill="#b42d2d" stroke="black" points="639.95,-186.92 647.85,-193.97 646.07,-183.53 639.95,-186.92"/>
<path fill="none" stroke="black" d="M647.85,-195.97C657.04,-253.87 686.73,-260.05 699.85,-317.18"/>
</g>
<!-- alconna_analysis_parts&#45;&gt;alconna_analysis -->
<g id="edge13" class="edge">
<title>alconna_analysis_parts&#45;&gt;alconna_analysis</title><style>.edge>path:hover{stroke-width:8}</style>
<path fill="none" stroke="black" d="M687.57,-103.52C730.24,-107.53 796.2,-121.14 827.85,-165.98 927.06,-306.55 845.71,-398.66 759.04,-545"/>
<polygon fill="#ac2b2b" stroke="black" points="755.91,-543.42 753.85,-553.81 761.94,-546.97 755.91,-543.42"/>
</g>
<!-- alconna_analysis_parts&#45;&gt;alconna_builtin_analyser -->
<g id="edge14" class="edge">
<title>alconna_analysis_parts&#45;&gt;alconna_builtin_analyser</title><style>.edge>path:hover{stroke-width:8}</style>
<path fill="none" stroke="black" d="M645.59,-129.94C644.8,-145.48 644.55,-165.38 646.55,-184.06"/>
<polygon fill="#ac2b2b" stroke="black" points="643.08,-184.52 647.85,-193.97 650.02,-183.6 643.08,-184.52"/>
</g>
<!-- alconna_base -->
<g id="node7" class="node">
<title>alconna_base</title><style>.edge>path:hover{stroke-width:8}</style>
<ellipse fill="#e50505" stroke="black" cx="322.85" cy="-831.65" rx="43.62" ry="18"/>
<text text-anchor="middle" x="322.85" y="-829.15" font-family="Helvetica,sans-Serif" font-size="10.00" fill="#ffffff">alconna.base</text>
</g>
<!-- alconna_base&#45;&gt;alconna -->
<g id="edge15" class="edge">
<title>alconna_base&#45;&gt;alconna</title><style>.edge>path:hover{stroke-width:8}</style>
<path fill="none" stroke="black" d="M192.85,-755.44C189.21,-687.15 78.85,-537.99 78.85,-469.61 78.85,-469.61 78.85,-469.61 78.85,-317.18 78.85,-263.31 38.18,-231.29 78.85,-195.97"/>
<path fill="none" stroke="black" d="M290.52,-819.5C252.16,-805.25 193.28,-779.78 192.85,-757.44"/>
</g>
<!-- alconna_base&#45;&gt;alconna_analysis -->
<g id="edge16" class="edge">
<title>alconna_base&#45;&gt;alconna_analysis</title><style>.edge>path:hover{stroke-width:8}</style>
<path fill="none" stroke="black" d="M192.85,-755.44C189.09,-684.81 436.73,-677.98 543.2,-678.3"/>
<polygon fill="#e50505" stroke="black" points="543.33,-681.8 553.35,-678.36 543.37,-674.8 543.33,-681.8"/>
</g>
<!-- alconna_base&#45;&gt;alconna_analysis_Analyser -->
<g id="edge17" class="edge">
<title>alconna_base&#45;&gt;alconna_analysis_Analyser</title><style>.edge>path:hover{stroke-width:8}</style>
<path fill="none" stroke="black" d="M192.85,-677.01C202.34,-653.9 199.53,-644.87 192.85,-620.8"/>
<path fill="none" stroke="black" d="M192.85,-755.44C191.04,-721.52 179.95,-710.44 192.85,-679.01"/>
</g>
<!-- alconna_base&#45;&gt;alconna_analysis_analyser -->
<g id="edge18" class="edge">
<title>alconna_base&#45;&gt;alconna_analysis_analyser</title><style>.edge>path:hover{stroke-width:8}</style>
<path fill="none" stroke="black" d="M357.07,-820.49C434.91,-796.97 622.57,-737.84 675.85,-699.23 689.13,-689.6 761.9,-599.08 767.85,-583.8 786.32,-536.39 788.2,-518.96 775.85,-469.61"/>
<path fill="none" stroke="black" d="M775.85,-467.61C762.26,-403.05 791.14,-383.35 775.85,-319.18"/>
<path fill="none" stroke="black" d="M775.85,-317.18C768.37,-286.15 751.91,-253.89 738.13,-230.46"/>
<polygon fill="#e50505" stroke="black" points="740.96,-228.39 732.8,-221.62 734.96,-232 740.96,-228.39"/>
</g>
<!-- alconna_base&#45;&gt;alconna_analysis_parts -->
<g id="edge19" class="edge">
<title>alconna_base&#45;&gt;alconna_analysis_parts</title><style>.edge>path:hover{stroke-width:8}</style>
<path fill="none" stroke="black" d="M1003.85,-467.61C1010.56,-435.76 1004.29,-426.93 1003.85,-394.39"/>
<path fill="none" stroke="black" d="M365.74,-827.91C454.36,-821.74 654.58,-805.15 716.85,-777.65 888.03,-702.07 965.29,-652.71 1003.85,-469.61"/>
</g>
<!-- alconna_builtin_actions -->
<g id="node9" class="node">
<title>alconna_builtin_actions</title><style>.edge>path:hover{stroke-width:8}</style>
<ellipse fill="#c43131" stroke="black" cx="257.85" cy="-554.81" rx="37.45" ry="28.98"/>
<text text-anchor="middle" x="257.85" y="-563.31" font-family="Helvetica,sans-Serif" font-size="10.00" fill="#ffffff">alconna.</text>
<text text-anchor="middle" x="257.85" y="-552.31" font-family="Helvetica,sans-Serif" font-size="10.00" fill="#ffffff">builtin.</text>
<text text-anchor="middle" x="257.85" y="-541.31" font-family="Helvetica,sans-Serif" font-size="10.00" fill="#ffffff">actions</text>
</g>
<!-- alconna_base&#45;&gt;alconna_builtin_actions -->
<g id="edge20" class="edge">
<title>alconna_base&#45;&gt;alconna_builtin_actions</title><style>.edge>path:hover{stroke-width:8}</style>
<path fill="none" stroke="black" d="M192.85,-677.01C214.31,-624.76 283.42,-672.2 306.85,-620.8"/>
<path fill="none" stroke="black" d="M306.85,-619.8C313.18,-605.91 305.22,-592.24 293.99,-581.12"/>
<polygon fill="#e50505" stroke="black" points="296.05,-578.26 286.26,-574.2 291.38,-583.48 296.05,-578.26"/>
</g>
<!-- alconna_component -->
<g id="node12" class="node">
<title>alconna_component</title><style>.edge>path:hover{stroke-width:8}</style>
<ellipse fill="#ef0606" stroke="black" cx="661.85" cy="-756.44" rx="45.92" ry="21.43"/>
<text text-anchor="middle" x="661.85" y="-759.44" font-family="Helvetica,sans-Serif" font-size="10.00" fill="#ffffff">alconna.</text>
<text text-anchor="middle" x="661.85" y="-748.44" font-family="Helvetica,sans-Serif" font-size="10.00" fill="#ffffff">component</text>
</g>
<!-- alconna_base&#45;&gt;alconna_component -->
<g id="edge21" class="edge">
<title>alconna_base&#45;&gt;alconna_component</title><style>.edge>path:hover{stroke-width:8}</style>
<path fill="none" stroke="black" d="M363.44,-824.74C418.09,-816.36 518.15,-799.59 601.85,-777.65 606.78,-776.36 611.88,-774.88 616.94,-773.31"/>
<polygon fill="#e50505" stroke="black" points="618.11,-776.61 626.56,-770.23 615.97,-769.95 618.11,-776.61"/>
</g>
<!-- alconna_base&#45;&gt;alconna_main -->
<g id="edge22" class="edge">
<title>alconna_base&#45;&gt;alconna_main</title><style>.edge>path:hover{stroke-width:8}</style>
<path fill="none" stroke="black" d="M322.85,-553.81C296.68,-513.07 314.36,-454.15 328.39,-420.52"/>
<polygon fill="#e50505" stroke="black" points="331.61,-421.91 332.4,-411.35 325.19,-419.11 331.61,-421.91"/>
<path fill="none" stroke="black" d="M306.85,-619.8C319.01,-593.13 328.92,-584.49 322.85,-555.81"/>
</g>
<!-- alconna_builtin -->
<g id="node8" class="node">
<title>alconna_builtin</title><style>.edge>path:hover{stroke-width:8}</style>
<ellipse fill="#ce3b3b" stroke="black" cx="447.85" cy="-468.61" rx="37.45" ry="21.43"/>
<text text-anchor="middle" x="447.85" y="-471.61" font-family="Helvetica,sans-Serif" font-size="10.00" fill="#ffffff">alconna.</text>
<text text-anchor="middle" x="447.85" y="-460.61" font-family="Helvetica,sans-Serif" font-size="10.00" fill="#ffffff">builtin</text>
</g>
<!-- alconna_builtin&#45;&gt;alconna -->
<g id="edge23" class="edge">
<title>alconna_builtin&#45;&gt;alconna</title><style>.edge>path:hover{stroke-width:8}</style>
<path fill="none" stroke="black" d="M437.58,-447.96C427.32,-428.88 410.7,-399.38 393.85,-375.39 381.88,-358.35 373.21,-358 363.85,-339.39 347.73,-307.35 354.06,-295.63 344.85,-260.97"/>
<path fill="none" stroke="black" d="M344.85,-259.97C336.45,-232.8 342.32,-224.3 344.85,-195.97"/>
</g>
<!-- alconna_builtin&#45;&gt;alconna_main -->
<g id="edge24" class="edge">
<title>alconna_builtin&#45;&gt;alconna_main</title><style>.edge>path:hover{stroke-width:8}</style>
<path fill="none" stroke="black" d="M424.64,-451.72C408.93,-440.97 388.04,-426.68 371.05,-415.05"/>
<polygon fill="#ce3b3b" stroke="black" points="372.8,-412.01 362.57,-409.25 368.84,-417.78 372.8,-412.01"/>
</g>
<!-- alconna_builtin_actions&#45;&gt;alconna -->
<g id="edge25" class="edge">
<title>alconna_builtin_actions&#45;&gt;alconna</title><style>.edge>path:hover{stroke-width:8}</style>
<path fill="none" stroke="black" d="M230.41,-534.8C211.89,-519.47 191.11,-496.14 192.85,-469.61"/>
<path fill="none" stroke="black" d="M192.85,-467.61C199.27,-369.96 218.73,-345.01 268.85,-260.97"/>
<path fill="none" stroke="black" d="M268.85,-259.97C280.94,-232.55 304.32,-244.8 325.85,-223.97 336.66,-213.51 343.51,-210.95 344.85,-195.97"/>
<path fill="none" stroke="black" d="M344.85,-193.97C348.74,-150.56 273.64,-124.68 310.85,-101.99"/>
</g>
<!-- alconna_builtin_actions&#45;&gt;alconna_main -->
<g id="edge26" class="edge">
<title>alconna_builtin_actions&#45;&gt;alconna_main</title><style>.edge>path:hover{stroke-width:8}</style>
<path fill="none" stroke="black" d="M192.85,-467.61C195.7,-424.27 247.02,-406.58 288.43,-399.37"/>
<polygon fill="#c43131" stroke="black" points="289.11,-402.8 298.44,-397.79 288.02,-395.89 289.11,-402.8"/>
</g>
<!-- alconna_builtin_analyser&#45;&gt;alconna_main -->
<g id="edge27" class="edge">
<title>alconna_builtin_analyser&#45;&gt;alconna_main</title><style>.edge>path:hover{stroke-width:8}</style>
<path fill="none" stroke="black" d="M652.07,-549.15C584.1,-539.98 442.11,-517.99 401.85,-489.82 377.55,-472.8 360.7,-442.7 350.97,-420.84"/>
<polygon fill="#8a2e2e" stroke="black" points="354.11,-419.3 346.99,-411.45 347.67,-422.03 354.11,-419.3"/>
</g>
<!-- alconna_builtin_construct -->
<g id="node11" class="node">
<title>alconna_builtin_construct</title><style>.edge>path:hover{stroke-width:8}</style>
<ellipse fill="#c24747" stroke="black" cx="1109.85" cy="-194.97" rx="40.11" ry="28.98"/>
<text text-anchor="middle" x="1109.85" y="-203.47" font-family="Helvetica,sans-Serif" font-size="10.00" fill="#ffffff">alconna.</text>
<text text-anchor="middle" x="1109.85" y="-192.47" font-family="Helvetica,sans-Serif" font-size="10.00" fill="#ffffff">builtin.</text>
<text text-anchor="middle" x="1109.85" y="-181.47" font-family="Helvetica,sans-Serif" font-size="10.00" fill="#ffffff">construct</text>
</g>
<!-- alconna_builtin_construct&#45;&gt;alconna -->
<g id="edge28" class="edge">
<title>alconna_builtin_construct&#45;&gt;alconna</title><style>.edge>path:hover{stroke-width:8}</style>
<path fill="none" stroke="black" d="M1118.32,-166.35C1122.63,-146.28 1124.33,-119.65 1109.85,-101.99"/>
</g>
<!-- alconna_component&#45;&gt;alconna -->
<g id="edge29" class="edge">
<title>alconna_component&#45;&gt;alconna</title><style>.edge>path:hover{stroke-width:8}</style>
<path fill="none" stroke="black" d="M851.85,-553.81C878.16,-512.38 904.62,-521.8 941.85,-489.82 978.67,-458.19 994.07,-453.7 1017.85,-411.39 1038.61,-374.48 1041.85,-361.53 1041.85,-319.18 1041.85,-319.18 1041.85,-319.18 1041.85,-259.97 1041.85,-217.35 1043.22,-204.78 1060.85,-165.98 1075.67,-133.37 1132.56,-129.69 1109.85,-101.99"/>
<path fill="none" stroke="black" d="M1109.85,-99.99C1061.46,-43.26 828.49,-25.56 734.4,-20.68"/>
<polygon fill="#ef0606" stroke="black" points="734.32,-17.17 724.16,-20.17 733.97,-24.16 734.32,-17.17"/>
</g>
<!-- alconna_component&#45;&gt;alconna_analysis -->
<g id="edge30" class="edge">
<title>alconna_component&#45;&gt;alconna_analysis</title><style>.edge>path:hover{stroke-width:8}</style>
<path fill="none" stroke="black" d="M644.3,-736.55C635.4,-726.97 624.46,-715.19 614.8,-704.79"/>
<polygon fill="#ef0606" stroke="black" points="617.08,-702.11 607.71,-697.16 611.95,-706.87 617.08,-702.11"/>
</g>
<!-- alconna_component&#45;&gt;alconna_analysis_Analyser -->
<g id="edge31" class="edge">
<title>alconna_component&#45;&gt;alconna_analysis_Analyser</title><style>.edge>path:hover{stroke-width:8}</style>
<path fill="none" stroke="black" d="M616.67,-752.43C491.67,-741.29 148.34,-690.67 116.85,-469.61"/>
</g>
<!-- alconna_component&#45;&gt;alconna_analysis_analyser -->
<g id="edge32" class="edge">
<title>alconna_component&#45;&gt;alconna_analysis_analyser</title><style>.edge>path:hover{stroke-width:8}</style>
<path fill="none" stroke="black" d="M851.85,-553.81C868.47,-506.21 788.09,-518.51 775.85,-469.61"/>
<path fill="none" stroke="black" d="M680.3,-736.9C727.24,-689.62 847.79,-567.44 851.85,-555.81"/>
</g>
<!-- alconna_component&#45;&gt;alconna_analysis_parts -->
<g id="edge33" class="edge">
<title>alconna_component&#45;&gt;alconna_analysis_parts</title><style>.edge>path:hover{stroke-width:8}</style>
<path fill="none" stroke="black" d="M1003.85,-392.39C1023.22,-274.23 953.39,-238.15 857.85,-165.98 810.35,-130.1 742.64,-114.18 697.07,-107.23"/>
<polygon fill="#ef0606" stroke="black" points="697.52,-103.76 687.12,-105.8 696.52,-110.68 697.52,-103.76"/>
<path fill="none" stroke="black" d="M851.85,-553.81C878.97,-494.84 906.9,-494.21 951.85,-447.39 974.71,-423.59 998.95,-427.03 1003.85,-394.39"/>
</g>
<!-- alconna_component&#45;&gt;alconna_builtin_analyser -->
<g id="edge34" class="edge">
<title>alconna_component&#45;&gt;alconna_builtin_analyser</title><style>.edge>path:hover{stroke-width:8}</style>
<path fill="none" stroke="black" d="M654.98,-735.35C650.47,-718.03 647.71,-693.58 661.85,-679.01"/>
</g>
<!-- alconna_component&#45;&gt;alconna_main -->
<g id="edge35" class="edge">
<title>alconna_component&#45;&gt;alconna_main</title><style>.edge>path:hover{stroke-width:8}</style>
<path fill="none" stroke="black" d="M627.09,-742.49C602.85,-732.59 570.4,-717.54 544.85,-699.23 439.25,-623.53 389.61,-610.26 340.85,-489.82 332.09,-468.18 332.98,-441.45 335.54,-421.79"/>
<polygon fill="#ef0606" stroke="black" points="339.04,-422.09 337.09,-411.67 332.12,-421.03 339.04,-422.09"/>
</g>
<!-- alconna_exceptions -->
<g id="node13" class="node">
<title>alconna_exceptions</title><style>.edge>path:hover{stroke-width:8}</style>
<ellipse fill="#f91010" stroke="black" cx="435.85" cy="-978.87" rx="45.01" ry="21.43"/>
<text text-anchor="middle" x="435.85" y="-981.87" font-family="Helvetica,sans-Serif" font-size="10.00" fill="#ffffff">alconna.</text>
<text text-anchor="middle" x="435.85" y="-970.87" font-family="Helvetica,sans-Serif" font-size="10.00" fill="#ffffff">exceptions</text>
</g>
<!-- alconna_exceptions&#45;&gt;alconna -->
<g id="edge36" class="edge">
<title>alconna_exceptions&#45;&gt;alconna</title><style>.edge>path:hover{stroke-width:8}</style>
<path fill="none" stroke="black" d="M78.85,-193.97C164.96,-124.05 216.15,-159.74 310.85,-101.99"/>
<path fill="none" stroke="black" d="M2.85,-392.39C-3.63,-299.01 6.19,-254.98 78.85,-195.97"/>
<path fill="none" stroke="black" d="M78.85,-902.65C53,-834.55 2.85,-830.28 2.85,-757.44 2.85,-757.44 2.85,-757.44 2.85,-619.8 2.85,-553.05 -2.85,-536.11 2.85,-469.61"/>
<path fill="none" stroke="black" d="M2.85,-467.61C5.82,-435.2 4.68,-426.88 2.85,-394.39"/>
<path fill="none" stroke="black" d="M310.85,-99.99C422.16,-32.12 581.6,-20.46 655.04,-18.9"/>
<polygon fill="#f91010" stroke="black" points="655.29,-22.4 665.23,-18.74 655.18,-15.4 655.29,-22.4"/>
<path fill="none" stroke="black" d="M390.49,-977.41C298.81,-975.24 98.48,-963.72 78.85,-904.65"/>
</g>
<!-- alconna_exceptions&#45;&gt;alconna_analysis_Analyser -->
<g id="edge37" class="edge">
<title>alconna_exceptions&#45;&gt;alconna_analysis_Analyser</title><style>.edge>path:hover{stroke-width:8}</style>
<path fill="none" stroke="black" d="M2.85,-467.61C18.57,-341.23 162.06,-252.75 234.88,-215.58"/>
<polygon fill="#f91010" stroke="black" points="236.45,-218.7 243.81,-211.09 233.31,-212.45 236.45,-218.7"/>
</g>
<!-- alconna_exceptions&#45;&gt;alconna_analysis_analyser -->
<g id="edge38" class="edge">
<title>alconna_exceptions&#45;&gt;alconna_analysis_analyser</title><style>.edge>path:hover{stroke-width:8}</style>
<path fill="none" stroke="black" d="M469.01,-964.29C573.26,-920.6 888.12,-780.58 898.85,-679.01"/>
<path fill="none" stroke="black" d="M898.85,-677.01C899.05,-651.71 888.36,-646.06 889.85,-620.8"/>
</g>
<!-- alconna_exceptions&#45;&gt;alconna_analysis_arg_handlers -->
<g id="edge39" class="edge">
<title>alconna_exceptions&#45;&gt;alconna_analysis_arg_handlers</title><style>.edge>path:hover{stroke-width:8}</style>
<path fill="none" stroke="black" d="M442.79,-957.74C467.65,-883.72 550.85,-619.21 550.85,-394.39 550.85,-394.39 550.85,-394.39 550.85,-259.97 550.85,-219.07 546.8,-172.39 543.41,-140.43"/>
<polygon fill="#f91010" stroke="black" points="546.86,-139.75 542.29,-130.19 539.9,-140.51 546.86,-139.75"/>
</g>
<!-- alconna_exceptions&#45;&gt;alconna_analysis_parts -->
<g id="edge40" class="edge">
<title>alconna_exceptions&#45;&gt;alconna_analysis_parts</title><style>.edge>path:hover{stroke-width:8}</style>
<path fill="none" stroke="black" d="M470.71,-965.13C478,-962.57 485.65,-959.96 492.85,-957.65 547.9,-939.98 564.31,-943.46 617.85,-921.65 680.47,-896.15 693.96,-884.57 751.85,-849.65 887.66,-767.75 934.71,-732.49 989.85,-583.8 1007.63,-535.86 1000.17,-520.61 1003.85,-469.61"/>
</g>
<!-- alconna_exceptions&#45;&gt;alconna_base -->
<g id="edge41" class="edge">
<title>alconna_exceptions&#45;&gt;alconna_base</title><style>.edge>path:hover{stroke-width:8}</style>
<path fill="none" stroke="black" d="M78.85,-902.65C74.96,-892.01 87.76,-890.8 97.85,-885.65 165.51,-851.19 191.26,-868.34 264.85,-849.65 269.5,-848.47 274.34,-847.17 279.15,-845.83"/>
<polygon fill="#f91010" stroke="black" points="280.26,-849.15 288.92,-843.05 278.35,-842.42 280.26,-849.15"/>
</g>
<!-- alconna_exceptions&#45;&gt;alconna_builtin_analyser -->
<g id="edge42" class="edge">
<title>alconna_exceptions&#45;&gt;alconna_builtin_analyser</title><style>.edge>path:hover{stroke-width:8}</style>
<path fill="none" stroke="black" d="M448.16,-958.22C474.98,-915.91 541.57,-813.65 606.85,-735.23 629.21,-708.36 637.5,-704.09 661.85,-679.01"/>
<path fill="none" stroke="black" d="M661.85,-677.01C680.46,-653.68 686.84,-620.14 688.77,-594.26"/>
<polygon fill="#f91010" stroke="black" points="692.28,-594.22 689.34,-584.04 685.29,-593.83 692.28,-594.22"/>
</g>
<!-- alconna_exceptions&#45;&gt;alconna_main -->
<g id="edge43" class="edge">
<title>alconna_exceptions&#45;&gt;alconna_main</title><style>.edge>path:hover{stroke-width:8}</style>
<path fill="none" stroke="black" d="M78.85,-902.65C38.29,-791.89 119.86,-758.95 178.85,-656.8 188.99,-639.25 200.27,-639.97 206.85,-620.8 232.19,-546.96 133.03,-510.6 178.85,-447.39 203.38,-413.56 250.15,-400.92 287.15,-396.4"/>
<polygon fill="#f91010" stroke="black" points="287.73,-399.86 297.3,-395.32 286.99,-392.89 287.73,-399.86"/>
</g>
<!-- alconna_exceptions&#45;&gt;alconna_manager -->
<g id="edge44" class="edge">
<title>alconna_exceptions&#45;&gt;alconna_manager</title><style>.edge>path:hover{stroke-width:8}</style>
<path fill="none" stroke="black" d="M429.59,-957.8C426.6,-947.17 423.35,-933.83 421.85,-921.65 411.77,-839.41 410.07,-817.24 421.85,-735.23 440.61,-604.7 531.21,-573.86 493.85,-447.39 482.24,-408.09 454.41,-369.52 434.16,-345.12"/>
<polygon fill="#f91010" stroke="black" points="436.76,-342.77 427.62,-337.4 431.42,-347.3 436.76,-342.77"/>
</g>
<!-- alconna_util -->
<g id="node17" class="node">
<title>alconna_util</title><style>.edge>path:hover{stroke-width:8}</style>
<ellipse fill="#dd1818" stroke="black" cx="145.85" cy="-903.65" rx="38.7" ry="18"/>
<text text-anchor="middle" x="145.85" y="-901.15" font-family="Helvetica,sans-Serif" font-size="10.00" fill="#ffffff">alconna.util</text>
</g>
<!-- alconna_exceptions&#45;&gt;alconna_util -->
<g id="edge45" class="edge">
<title>alconna_exceptions&#45;&gt;alconna_util</title><style>.edge>path:hover{stroke-width:8}</style>
<path fill="none" stroke="black" d="M395.35,-969.26C347.97,-958.97 267.29,-940.72 198.85,-921.65 194.72,-920.5 190.42,-919.24 186.14,-917.93"/>
<polygon fill="#f91010" stroke="black" points="186.87,-914.5 176.28,-914.86 184.78,-921.18 186.87,-914.5"/>
</g>
<!-- alconna_main&#45;&gt;alconna -->
<g id="edge46" class="edge">
<title>alconna_main&#45;&gt;alconna</title><style>.edge>path:hover{stroke-width:8}</style>
<path fill="none" stroke="black" d="M306.85,-317.18C315.77,-288.37 253.41,-286.87 268.85,-260.97"/>
<path fill="none" stroke="black" d="M325.69,-376.32C313.9,-361.81 300.51,-339.66 306.85,-319.18"/>
</g>
<!-- alconna_main&#45;&gt;alconna_analysis_Analyser -->
<g id="edge48" class="edge">
<title>alconna_main&#45;&gt;alconna_analysis_Analyser</title><style>.edge>path:hover{stroke-width:8}</style>
<path fill="none" stroke="black" d="M314.52,-378.92C272.18,-355.49 196.98,-305.48 230.85,-260.97"/>
</g>
<!-- alconna_main&#45;&gt;alconna_analysis_analyser -->
<g id="edge49" class="edge">
<title>alconna_main&#45;&gt;alconna_analysis_analyser</title><style>.edge>path:hover{stroke-width:8}</style>
<path fill="none" stroke="black" d="M306.85,-317.18C305.42,-290.34 338.1,-304.66 363.85,-296.97 494.5,-257.91 534.2,-271.9 661.85,-223.97 666.43,-222.25 671.12,-220.23 675.73,-218.09"/>
<polygon fill="#9b0808" stroke="black" points="677.57,-221.09 685.02,-213.55 674.5,-214.79 677.57,-221.09"/>
</g>
<!-- alconna_main&#45;&gt;alconna_manager -->
<g id="edge50" class="edge">
<title>alconna_main&#45;&gt;alconna_manager</title><style>.edge>path:hover{stroke-width:8}</style>
<path fill="none" stroke="black" d="M363.18,-369.04C370.53,-361.35 378.74,-352.76 386.26,-344.9"/>
<polygon fill="#9b0808" stroke="black" points="360.42,-366.86 356.04,-376.51 365.48,-371.7 360.42,-366.86"/>
<polygon fill="#9b0808" stroke="black" points="389.09,-347 393.47,-337.35 384.03,-342.16 389.09,-347"/>
</g>
<!-- alconna_manager&#45;&gt;alconna -->
<g id="edge51" class="edge">
<title>alconna_manager&#45;&gt;alconna</title><style>.edge>path:hover{stroke-width:8}</style>
<path fill="none" stroke="black" d="M382.63,-303.69C367.08,-294.29 349.92,-280.02 344.85,-260.97"/>
</g>
<!-- alconna_manager&#45;&gt;alconna_analysis_Analyser -->
<g id="edge52" class="edge">
<title>alconna_manager&#45;&gt;alconna_analysis_Analyser</title><style>.edge>path:hover{stroke-width:8}</style>
<path fill="none" stroke="black" d="M385.78,-302.02C369.34,-291.5 347.82,-276.62 330.85,-260.97 320.37,-251.3 310.06,-239.6 301.31,-228.81"/>
<polygon fill="#cc0a0a" stroke="black" points="303.89,-226.44 294.94,-220.78 298.41,-230.79 303.89,-226.44"/>
</g>
<!-- alconna_manager&#45;&gt;alconna_analysis_analyser -->
<g id="edge53" class="edge">
<title>alconna_manager&#45;&gt;alconna_analysis_analyser</title><style>.edge>path:hover{stroke-width:8}</style>
<path fill="none" stroke="black" d="M452.62,-303.43C502.94,-286.46 589.73,-255.91 661.85,-223.97 666.27,-222.01 670.83,-219.86 675.34,-217.65"/>
<polygon fill="#cc0a0a" stroke="black" points="451.42,-300.14 443.05,-306.64 453.65,-306.77 451.42,-300.14"/>
<polygon fill="#cc0a0a" stroke="black" points="677.11,-220.68 684.47,-213.06 673.97,-214.42 677.11,-220.68"/>
</g>
<!-- alconna_manager&#45;&gt;alconna_builtin_analyser -->
<g id="edge54" class="edge">
<title>alconna_manager&#45;&gt;alconna_builtin_analyser</title><style>.edge>path:hover{stroke-width:8}</style>
<path fill="none" stroke="black" d="M448.33,-322.81C515.21,-330.13 651.95,-349.08 692.97,-384.98"/>
<polygon fill="#cc0a0a" stroke="black" points="690.48,-387.45 699.85,-392.39 695.61,-382.68 690.48,-387.45"/>
<path fill="none" stroke="black" d="M699.85,-394.39C724.61,-435.19 711.13,-493.13 699.62,-526.76"/>
</g>
<!-- alconna_types -->
<g id="node16" class="node">
<title>alconna_types</title><style>.edge>path:hover{stroke-width:8}</style>
<ellipse fill="#f91010" stroke="black" cx="546.85" cy="-978.87" rx="45.15" ry="18"/>
<text text-anchor="middle" x="546.85" y="-976.37" font-family="Helvetica,sans-Serif" font-size="10.00" fill="#ffffff">alconna.types</text>
</g>
<!-- alconna_types&#45;&gt;alconna -->
<g id="edge56" class="edge">
<title>alconna_types&#45;&gt;alconna</title><style>.edge>path:hover{stroke-width:8}</style>
<path fill="none" stroke="black" d="M1079.85,-467.61C1053.47,-356.87 1141.08,-336.4 1158.85,-223.97 1162.88,-198.51 1167.12,-190.39 1158.85,-165.98 1147.36,-132.06 1133.1,-129.24 1109.85,-101.99"/>
</g>
<!-- alconna_types&#45;&gt;alconna_analysis -->
<g id="edge57" class="edge">
<title>alconna_types&#45;&gt;alconna_analysis</title><style>.edge>path:hover{stroke-width:8}</style>
<path fill="none" stroke="black" d="M552.89,-960.85C556.58,-949.81 561.11,-935.04 563.85,-921.65 579.3,-846.31 586.41,-755.87 589.25,-709.59"/>
<polygon fill="#f91010" stroke="black" points="592.76,-709.53 589.85,-699.34 585.77,-709.12 592.76,-709.53"/>
</g>
<!-- alconna_types&#45;&gt;alconna_analysis_Analyser -->
<g id="edge58" class="edge">
<title>alconna_types&#45;&gt;alconna_analysis_Analyser</title><style>.edge>path:hover{stroke-width:8}</style>
<path fill="none" stroke="black" d="M514.27,-966.16C485.2,-955.44 441.67,-938.69 404.85,-921.65 343.14,-893.09 325.59,-888.6 269.85,-849.65 260.56,-843.16 251.83,-843.94 250.85,-832.65"/>
</g>
<!-- alconna_types&#45;&gt;alconna_analysis_analyser -->
<g id="edge59" class="edge">
<title>alconna_types&#45;&gt;alconna_analysis_analyser</title><style>.edge>path:hover{stroke-width:8}</style>
<path fill="none" stroke="black" d="M925.85,-830.65C912.36,-801.05 918.33,-789.1 925.85,-757.44"/>
<path fill="none" stroke="black" d="M925.85,-755.44C934.18,-720.39 895.07,-714.84 898.85,-679.01"/>
</g>
<!-- alconna_types&#45;&gt;alconna_analysis_arg_handlers -->
<g id="edge60" class="edge">
<title>alconna_types&#45;&gt;alconna_analysis_arg_handlers</title><style>.edge>path:hover{stroke-width:8}</style>
<path fill="none" stroke="black" d="M1031.85,-677.01C1047.15,-614.8 815.8,-204.83 764.85,-165.98 704.82,-120.21 670.39,-154.09 598.85,-129.98 594.39,-128.48 589.82,-126.74 585.29,-124.88"/>
<polygon fill="#f91010" stroke="black" points="586.66,-121.66 576.09,-120.92 583.9,-128.09 586.66,-121.66"/>
<path fill="none" stroke="black" d="M925.85,-755.44C939.28,-698.93 1005.71,-730.88 1031.85,-679.01"/>
</g>
<!-- alconna_types&#45;&gt;alconna_analysis_parts -->
<g id="edge61" class="edge">
<title>alconna_types&#45;&gt;alconna_analysis_parts</title><style>.edge>path:hover{stroke-width:8}</style>
<path fill="none" stroke="black" d="M1031.85,-677.01C1074.44,-592.52 1091.69,-563.48 1079.85,-469.61"/>
<path fill="none" stroke="black" d="M1079.85,-467.61C1068.98,-421.98 1004.48,-441.29 1003.85,-394.39"/>
</g>
<!-- alconna_types&#45;&gt;alconna_base -->
<g id="edge62" class="edge">
<title>alconna_types&#45;&gt;alconna_base</title><style>.edge>path:hover{stroke-width:8}</style>
<path fill="none" stroke="black" d="M524.14,-963.14C483.79,-936.98 399.55,-882.37 353.89,-852.77"/>
<polygon fill="#f91010" stroke="black" points="355.59,-849.7 345.29,-847.2 351.78,-855.58 355.59,-849.7"/>
</g>
<!-- alconna_types&#45;&gt;alconna_builtin_analyser -->
<g id="edge63" class="edge">
<title>alconna_types&#45;&gt;alconna_builtin_analyser</title><style>.edge>path:hover{stroke-width:8}</style>
<path fill="none" stroke="black" d="M925.85,-830.65C875.06,-725.74 773.91,-628.92 721.71,-583.29"/>
<polygon fill="#f91010" stroke="black" points="723.92,-580.58 714.07,-576.68 719.34,-585.87 723.92,-580.58"/>
</g>
<!-- alconna_types&#45;&gt;alconna_component -->
<g id="edge64" class="edge">
<title>alconna_types&#45;&gt;alconna_component</title><style>.edge>path:hover{stroke-width:8}</style>
<path fill="none" stroke="black" d="M592.43,-978.05C707.25,-976.65 994.48,-960.56 925.85,-832.65"/>
<path fill="none" stroke="black" d="M925.85,-830.65C907.51,-792.76 788.27,-772.26 716.47,-763.22"/>
<polygon fill="#f91010" stroke="black" points="716.58,-759.71 706.23,-761.97 715.73,-766.66 716.58,-759.71"/>
</g>
<!-- alconna_types&#45;&gt;alconna_main -->
<g id="edge65" class="edge">
<title>alconna_types&#45;&gt;alconna_main</title><style>.edge>path:hover{stroke-width:8}</style>
<path fill="none" stroke="black" d="M533.71,-961.54C491.43,-907.73 359.57,-729.49 322.85,-555.81"/>
</g>
<!-- alconna_types&#45;&gt;alconna_util -->
<g id="edge66" class="edge">
<title>alconna_types&#45;&gt;alconna_util</title><style>.edge>path:hover{stroke-width:8}</style>
<path fill="none" stroke="black" d="M515.83,-965.61C507.5,-962.66 498.42,-959.76 489.85,-957.65 379.56,-930.54 348.92,-940.09 236.85,-921.65 221.78,-919.17 205.35,-916.19 190.65,-913.42"/>
<polygon fill="#f91010" stroke="black" points="191.27,-909.98 180.79,-911.55 189.96,-916.85 191.27,-909.98"/>
</g>
<!-- alconna_util&#45;&gt;alconna -->
<g id="edge67" class="edge">
<title>alconna_util&#45;&gt;alconna</title><style>.edge>path:hover{stroke-width:8}</style>
<path fill="none" stroke="black" d="M125.61,-888.24C95.1,-864.66 40.85,-814.68 40.85,-757.44 40.85,-757.44 40.85,-757.44 40.85,-553.81 40.85,-505.33 28.38,-494.49 16.85,-447.39 11.06,-423.73 5.86,-418.57 2.85,-394.39"/>
</g>
<!-- alconna_util&#45;&gt;alconna_analysis_Analyser -->
<g id="edge68" class="edge">
<title>alconna_util&#45;&gt;alconna_analysis_Analyser</title><style>.edge>path:hover{stroke-width:8}</style>
<path fill="none" stroke="black" d="M116.85,-467.61C113.87,-362.76 169.37,-345.94 230.85,-260.97"/>
<path fill="none" stroke="black" d="M250.85,-830.65C245.38,-791.3 196.78,-813.11 178.85,-777.65 154.62,-729.72 168.95,-709.59 178.85,-656.8 182.02,-639.93 197.44,-637.34 192.85,-620.8"/>
<path fill="none" stroke="black" d="M230.85,-259.97C236.35,-249.11 243.59,-238.07 250.68,-228.29"/>
<polygon fill="#dd1818" stroke="black" points="253.65,-230.16 256.83,-220.05 248.05,-225.97 253.65,-230.16"/>
<path fill="none" stroke="black" d="M180.36,-895.24C212.12,-886.19 253.89,-867.58 250.85,-832.65"/>
<path fill="none" stroke="black" d="M192.85,-619.8C167.03,-549.59 117.52,-544.42 116.85,-469.61"/>
</g>
<!-- alconna_util&#45;&gt;alconna_analysis_analyser -->
<g id="edge69" class="edge">
<title>alconna_util&#45;&gt;alconna_analysis_analyser</title><style>.edge>path:hover{stroke-width:8}</style>
<path fill="none" stroke="black" d="M889.85,-619.8C905.16,-562.94 806.16,-388.7 775.85,-319.18"/>
<path fill="none" stroke="black" d="M184.53,-901C280.13,-895.51 533.07,-872.4 716.85,-777.65 762.98,-753.87 879.81,-671.71 889.85,-620.8"/>
</g>
<!-- alconna_util&#45;&gt;alconna_base -->
<g id="edge70" class="edge">
<title>alconna_util&#45;&gt;alconna_base</title><style>.edge>path:hover{stroke-width:8}</style>
<path fill="none" stroke="black" d="M174.68,-891.25C204.2,-879.58 250.28,-861.36 283.21,-848.33"/>
<polygon fill="#dd1818" stroke="black" points="284.54,-851.57 292.55,-844.64 281.96,-845.06 284.54,-851.57"/>
</g>
</g>
</svg>
