<?xml version="1.0" encoding="UTF-8" standalone="no"?>
<!DOCTYPE svg PUBLIC "-//W3C//DTD SVG 1.1//EN"
 "http://www.w3.org/Graphics/SVG/1.1/DTD/svg11.dtd">
<!-- Generated by graphviz version 2.49.3 (20211023.0002)
 -->
<!-- Title: G Pages: 1 -->
<svg width="1066pt" height="878pt"
 viewBox="0.00 0.00 1065.76 877.64" xmlns="http://www.w3.org/2000/svg" xmlns:xlink="http://www.w3.org/1999/xlink">
<g id="graph0" class="graph" transform="scale(1 1) rotate(0) translate(4 873.64)">
<title>G</title><style>.edge>path:hover{stroke-width:8}</style>
<polygon fill="white" stroke="transparent" points="-4,4 -4,-873.64 1061.76,-873.64 1061.76,4 -4,4"/>
<!-- alconna -->
<g id="node1" class="node">
<title>alconna</title><style>.edge>path:hover{stroke-width:8}</style>
<ellipse fill="#6b2e2e" stroke="black" cx="782.55" cy="-18" rx="29.37" ry="18"/>
<text text-anchor="middle" x="782.55" y="-15.5" font-family="Helvetica,sans-Serif" font-size="10.00" fill="#ffffff">alconna</text>
</g>
<!-- alconna_analysis -->
<g id="node2" class="node">
<title>alconna_analysis</title><style>.edge>path:hover{stroke-width:8}</style>
<ellipse fill="#9c1b1b" stroke="black" cx="433.55" cy="-510.03" rx="37.45" ry="21.43"/>
<text text-anchor="middle" x="433.55" y="-513.03" font-family="Helvetica,sans-Serif" font-size="10.00" fill="#ffffff">alconna.</text>
<text text-anchor="middle" x="433.55" y="-502.03" font-family="Helvetica,sans-Serif" font-size="10.00" fill="#ffffff">analysis</text>
</g>
<!-- alconna_analysis&#45;&gt;alconna -->
<g id="edge1" class="edge">
<title>alconna_analysis&#45;&gt;alconna</title><style>.edge>path:hover{stroke-width:8}</style>
<path fill="none" stroke="black" d="M429.55,-488.66C416.87,-422.11 379.92,-211.86 406.55,-150.43 421.08,-116.9 439.5,-118.78 466.55,-94.21"/>
</g>
<!-- alconna_main -->
<g id="node15" class="node">
<title>alconna_main</title><style>.edge>path:hover{stroke-width:8}</style>
<ellipse fill="#950303" stroke="black" cx="611.55" cy="-434.82" rx="43.62" ry="18"/>
<text text-anchor="middle" x="611.55" y="-432.32" font-family="Helvetica,sans-Serif" font-size="10.00" fill="#ffffff">alconna.main</text>
</g>
<!-- alconna_analysis&#45;&gt;alconna_main -->
<g id="edge2" class="edge">
<title>alconna_analysis&#45;&gt;alconna_main</title><style>.edge>path:hover{stroke-width:8}</style>
<path fill="none" stroke="black" d="M472.65,-492.95C502.15,-480.81 542.47,-464.23 572.07,-452.06"/>
<polygon fill="#9c1b1b" stroke="black" points="471.26,-489.74 463.34,-496.78 473.92,-496.21 471.26,-489.74"/>
<polygon fill="#9c1b1b" stroke="black" points="573.74,-455.15 581.66,-448.11 571.08,-448.68 573.74,-455.15"/>
</g>
<!-- alconna_manager -->
<g id="node16" class="node">
<title>alconna_manager</title><style>.edge>path:hover{stroke-width:8}</style>
<ellipse fill="#ae1e1e" stroke="black" cx="848.55" cy="-93.21" rx="38.37" ry="21.43"/>
<text text-anchor="middle" x="848.55" y="-96.21" font-family="Helvetica,sans-Serif" font-size="10.00" fill="#ffffff">alconna.</text>
<text text-anchor="middle" x="848.55" y="-85.21" font-family="Helvetica,sans-Serif" font-size="10.00" fill="#ffffff">manager</text>
</g>
<!-- alconna_analysis&#45;&gt;alconna_manager -->
<g id="edge3" class="edge">
<title>alconna_analysis&#45;&gt;alconna_manager</title><style>.edge>path:hover{stroke-width:8}</style>
<path fill="none" stroke="black" d="M470.57,-506.22C565.03,-498.72 809.5,-477.15 836.55,-452.82 907.53,-388.98 859.57,-335.37 888.55,-244.41 897.82,-215.32 921.54,-209.89 913.55,-180.42"/>
<path fill="none" stroke="black" d="M913.55,-178.42C906.19,-155.84 889.83,-134.7 875.36,-119.25"/>
<polygon fill="#9c1b1b" stroke="black" points="877.51,-116.44 868.02,-111.71 872.49,-121.32 877.51,-116.44"/>
</g>
<!-- alconna_analysis_analyser -->
<g id="node3" class="node">
<title>alconna_analysis_analyser</title><style>.edge>path:hover{stroke-width:8}</style>
<ellipse fill="#c20a0a" stroke="black" cx="541.55" cy="-273.4" rx="39.7" ry="28.98"/>
<text text-anchor="middle" x="541.55" y="-281.9" font-family="Helvetica,sans-Serif" font-size="10.00" fill="#ffffff">alconna.</text>
<text text-anchor="middle" x="541.55" y="-270.9" font-family="Helvetica,sans-Serif" font-size="10.00" fill="#ffffff">analysis.</text>
<text text-anchor="middle" x="541.55" y="-259.9" font-family="Helvetica,sans-Serif" font-size="10.00" fill="#ffffff">analyser</text>
</g>
<!-- alconna_analysis_analyser&#45;&gt;alconna_analysis -->
<g id="edge4" class="edge">
<title>alconna_analysis_analyser&#45;&gt;alconna_analysis</title><style>.edge>path:hover{stroke-width:8}</style>
<path fill="none" stroke="black" d="M511.72,-292.65C493.89,-305.64 473.29,-324.95 465.84,-348.59"/>
<polygon fill="#c20a0a" stroke="black" points="462.37,-348.08 463.55,-358.61 469.19,-349.64 462.37,-348.08"/>
</g>
<!-- alconna_analysis_arg_handlers -->
<g id="node4" class="node">
<title>alconna_analysis_arg_handlers</title><style>.edge>path:hover{stroke-width:8}</style>
<ellipse fill="#b03a3a" stroke="black" cx="466.55" cy="-179.42" rx="50.82" ry="28.98"/>
<text text-anchor="middle" x="466.55" y="-187.92" font-family="Helvetica,sans-Serif" font-size="10.00" fill="#ffffff">alconna.</text>
<text text-anchor="middle" x="466.55" y="-176.92" font-family="Helvetica,sans-Serif" font-size="10.00" fill="#ffffff">analysis.</text>
<text text-anchor="middle" x="466.55" y="-165.92" font-family="Helvetica,sans-Serif" font-size="10.00" fill="#ffffff">arg_handlers</text>
</g>
<!-- alconna_analysis_analyser&#45;&gt;alconna_analysis_arg_handlers -->
<g id="edge5" class="edge">
<title>alconna_analysis_analyser&#45;&gt;alconna_analysis_arg_handlers</title><style>.edge>path:hover{stroke-width:8}</style>
<path fill="none" stroke="black" d="M521.85,-248.23C513.32,-237.78 503.21,-225.37 493.97,-214.05"/>
<polygon fill="#c20a0a" stroke="black" points="496.47,-211.57 487.44,-206.03 491.04,-215.99 496.47,-211.57"/>
</g>
<!-- alconna_analysis_parts -->
<g id="node5" class="node">
<title>alconna_analysis_parts</title><style>.edge>path:hover{stroke-width:8}</style>
<ellipse fill="#a13535" stroke="black" cx="311.55" cy="-179.42" rx="39.7" ry="28.98"/>
<text text-anchor="middle" x="311.55" y="-187.92" font-family="Helvetica,sans-Serif" font-size="10.00" fill="#ffffff">alconna.</text>
<text text-anchor="middle" x="311.55" y="-176.92" font-family="Helvetica,sans-Serif" font-size="10.00" fill="#ffffff">analysis.</text>
<text text-anchor="middle" x="311.55" y="-165.92" font-family="Helvetica,sans-Serif" font-size="10.00" fill="#ffffff">parts</text>
</g>
<!-- alconna_analysis_analyser&#45;&gt;alconna_analysis_parts -->
<g id="edge6" class="edge">
<title>alconna_analysis_analyser&#45;&gt;alconna_analysis_parts</title><style>.edge>path:hover{stroke-width:8}</style>
<path fill="none" stroke="black" d="M507.12,-258.63C466.61,-242.43 399.29,-215.5 355.16,-197.86"/>
<polygon fill="#c20a0a" stroke="black" points="356.43,-194.6 345.84,-194.13 353.83,-201.1 356.43,-194.6"/>
</g>
<!-- alconna_analysis_analyser&#45;&gt;alconna_manager -->
<g id="edge8" class="edge">
<title>alconna_analysis_analyser&#45;&gt;alconna_manager</title><style>.edge>path:hover{stroke-width:8}</style>
<path fill="none" stroke="black" d="M576.13,-259.06C601.79,-248.04 636.68,-230.63 662.55,-208.41 686.89,-187.51 680.08,-169.94 705.55,-150.43 734.76,-128.06 774,-113.47 803.98,-104.78"/>
<polygon fill="#c20a0a" stroke="black" points="805.07,-108.11 813.77,-102.06 803.2,-101.37 805.07,-108.11"/>
</g>
<!-- alconna_analysis_arg_handlers&#45;&gt;alconna_analysis -->
<g id="edge9" class="edge">
<title>alconna_analysis_arg_handlers&#45;&gt;alconna_analysis</title><style>.edge>path:hover{stroke-width:8}</style>
<path fill="none" stroke="black" d="M462.82,-208.4C461.51,-219.58 460.2,-232.58 459.55,-244.41 458.15,-270.14 458.64,-276.64 459.55,-302.39 460.3,-323.51 466.64,-331.64 465.22,-348.32"/>
<polygon fill="#b03a3a" stroke="black" points="461.7,-348.17 463.55,-358.61 468.61,-349.3 461.7,-348.17"/>
<path fill="none" stroke="black" d="M463.55,-360.61C456.97,-406.94 445.04,-460.6 438.38,-488.99"/>
</g>
<!-- alconna_analysis_parts&#45;&gt;alconna_analysis -->
<g id="edge10" class="edge">
<title>alconna_analysis_parts&#45;&gt;alconna_analysis</title><style>.edge>path:hover{stroke-width:8}</style>
<path fill="none" stroke="black" d="M318.8,-208.05C329.33,-247.09 350.18,-320.35 373.55,-380.82 387.07,-415.78 405.77,-454.59 418.69,-480.26"/>
<polygon fill="#a13535" stroke="black" points="415.69,-482.08 423.33,-489.41 421.93,-478.91 415.69,-482.08"/>
</g>
<!-- alconna_arpamar -->
<g id="node6" class="node">
<title>alconna_arpamar</title><style>.edge>path:hover{stroke-width:8}</style>
<ellipse fill="#e90c0c" stroke="black" cx="740.55" cy="-596.24" rx="37.45" ry="21.43"/>
<text text-anchor="middle" x="740.55" y="-599.24" font-family="Helvetica,sans-Serif" font-size="10.00" fill="#ffffff">alconna.</text>
<text text-anchor="middle" x="740.55" y="-588.24" font-family="Helvetica,sans-Serif" font-size="10.00" fill="#ffffff">arpamar</text>
</g>
<!-- alconna_arpamar&#45;&gt;alconna -->
<g id="edge11" class="edge">
<title>alconna_arpamar&#45;&gt;alconna</title><style>.edge>path:hover{stroke-width:8}</style>
<path fill="none" stroke="black" d="M759.67,-577.47C786.26,-551.97 834.61,-502.53 865.55,-452.82 934.82,-341.55 955.92,-309.52 978.55,-180.42"/>
<path fill="none" stroke="black" d="M978.55,-178.42C980.78,-118.48 942.44,-109.41 895.55,-72 888.74,-66.56 845.87,-47.03 814.95,-33.27"/>
<polygon fill="#e90c0c" stroke="black" points="816.35,-30.06 805.79,-29.2 813.51,-36.46 816.35,-30.06"/>
</g>
<!-- alconna_arpamar&#45;&gt;alconna_analysis -->
<g id="edge12" class="edge">
<title>alconna_arpamar&#45;&gt;alconna_analysis</title><style>.edge>path:hover{stroke-width:8}</style>
<path fill="none" stroke="black" d="M709.21,-584.17C693.49,-578.78 674.11,-572.38 656.55,-567.24 594.91,-549.23 522.7,-531.67 477.53,-521.09"/>
<polygon fill="#e90c0c" stroke="black" points="478.3,-517.68 467.77,-518.82 476.71,-524.5 478.3,-517.68"/>
</g>
<!-- alconna_arpamar&#45;&gt;alconna_analysis_analyser -->
<g id="edge13" class="edge">
<title>alconna_arpamar&#45;&gt;alconna_analysis_analyser</title><style>.edge>path:hover{stroke-width:8}</style>
<path fill="none" stroke="black" d="M721.55,-509.03C688.81,-436.53 720.78,-397.5 667.55,-338.39 646.2,-314.69 614.03,-298.55 587.54,-288.41"/>
<polygon fill="#e90c0c" stroke="black" points="588.67,-285.1 578.07,-284.95 586.26,-291.67 588.67,-285.1"/>
</g>
<!-- alconna_arpamar&#45;&gt;alconna_main -->
<g id="edge14" class="edge">
<title>alconna_arpamar&#45;&gt;alconna_main</title><style>.edge>path:hover{stroke-width:8}</style>
<path fill="none" stroke="black" d="M721.55,-509.03C708.91,-481.04 679.4,-462.3 654.13,-450.79"/>
<polygon fill="#e90c0c" stroke="black" points="655.26,-447.47 644.69,-446.73 652.49,-453.9 655.26,-447.47"/>
<path fill="none" stroke="black" d="M738.28,-574.77C735.8,-557.25 730.86,-531.66 721.55,-511.03"/>
</g>
<!-- alconna_proxy -->
<g id="node17" class="node">
<title>alconna_proxy</title><style>.edge>path:hover{stroke-width:8}</style>
<ellipse fill="#8f3d3d" stroke="black" cx="875.55" cy="-18" rx="45.15" ry="18"/>
<text text-anchor="middle" x="875.55" y="-15.5" font-family="Helvetica,sans-Serif" font-size="10.00" fill="#ffffff">alconna.proxy</text>
</g>
<!-- alconna_arpamar&#45;&gt;alconna_proxy -->
<g id="edge15" class="edge">
<title>alconna_arpamar&#45;&gt;alconna_proxy</title><style>.edge>path:hover{stroke-width:8}</style>
<path fill="none" stroke="black" d="M771.11,-583.81C785.93,-578.45 804.06,-572.18 820.55,-567.24 919.3,-537.7 999.57,-603.28 1045.55,-511.03"/>
<path fill="none" stroke="black" d="M1045.55,-509.03C1060.07,-479.91 1031.81,-465.31 1045.55,-435.82"/>
</g>
<!-- alconna_base -->
<g id="node7" class="node">
<title>alconna_base</title><style>.edge>path:hover{stroke-width:8}</style>
<ellipse fill="#ef0606" stroke="black" cx="282.55" cy="-690.22" rx="43.62" ry="18"/>
<text text-anchor="middle" x="282.55" y="-687.72" font-family="Helvetica,sans-Serif" font-size="10.00" fill="#ffffff">alconna.base</text>
</g>
<!-- alconna_base&#45;&gt;alconna -->
<g id="edge16" class="edge">
<title>alconna_base&#45;&gt;alconna</title><style>.edge>path:hover{stroke-width:8}</style>
<path fill="none" stroke="black" d="M235.55,-509.03C195.25,-407.1 114.96,-374.54 159.55,-274.4"/>
<path fill="none" stroke="black" d="M276.16,-672.35C264.76,-641.1 241.56,-571.84 235.55,-511.03"/>
</g>
<!-- alconna_base&#45;&gt;alconna_analysis -->
<g id="edge17" class="edge">
<title>alconna_base&#45;&gt;alconna_analysis</title><style>.edge>path:hover{stroke-width:8}</style>
<path fill="none" stroke="black" d="M427.55,-595.24C439.94,-580.76 441.29,-559.27 439.62,-541.62"/>
<polygon fill="#ef0606" stroke="black" points="443.03,-540.69 438.27,-531.23 436.09,-541.6 443.03,-540.69"/>
<path fill="none" stroke="black" d="M312.07,-676.91C344.27,-662.18 395.47,-634.72 427.55,-597.24"/>
</g>
<!-- alconna_base&#45;&gt;alconna_analysis_analyser -->
<g id="edge18" class="edge">
<title>alconna_base&#45;&gt;alconna_analysis_analyser</title><style>.edge>path:hover{stroke-width:8}</style>
<path fill="none" stroke="black" d="M427.55,-595.24C436.6,-584.67 433.27,-578.42 441.55,-567.24 455.41,-548.56 467.9,-551.38 479.55,-531.24 520.18,-461.04 534.26,-365.29 539.09,-312.77"/>
<polygon fill="#ef0606" stroke="black" points="542.6,-312.81 539.96,-302.55 535.62,-312.22 542.6,-312.81"/>
</g>
<!-- alconna_base&#45;&gt;alconna_analysis_parts -->
<g id="edge19" class="edge">
<title>alconna_base&#45;&gt;alconna_analysis_parts</title><style>.edge>path:hover{stroke-width:8}</style>
<path fill="none" stroke="black" d="M235.55,-509.03C209.33,-446.19 273.55,-428.7 273.55,-360.61"/>
<path fill="none" stroke="black" d="M273.55,-358.61C272.64,-321.19 258.99,-308.87 273.55,-274.4"/>
</g>
<!-- alconna_component -->
<g id="node13" class="node">
<title>alconna_component</title><style>.edge>path:hover{stroke-width:8}</style>
<ellipse fill="#f90606" stroke="black" cx="330.55" cy="-596.24" rx="45.92" ry="21.43"/>
<text text-anchor="middle" x="330.55" y="-599.24" font-family="Helvetica,sans-Serif" font-size="10.00" fill="#ffffff">alconna.</text>
<text text-anchor="middle" x="330.55" y="-588.24" font-family="Helvetica,sans-Serif" font-size="10.00" fill="#ffffff">component</text>
</g>
<!-- alconna_base&#45;&gt;alconna_component -->
<g id="edge20" class="edge">
<title>alconna_base&#45;&gt;alconna_component</title><style>.edge>path:hover{stroke-width:8}</style>
<path fill="none" stroke="black" d="M291.36,-672.35C298.08,-659.46 307.51,-641.4 315.43,-626.21"/>
<polygon fill="#ef0606" stroke="black" points="318.61,-627.69 320.13,-617.2 312.4,-624.45 318.61,-627.69"/>
</g>
<!-- alconna_base&#45;&gt;alconna_main -->
<g id="edge21" class="edge">
<title>alconna_base&#45;&gt;alconna_main</title><style>.edge>path:hover{stroke-width:8}</style>
<path fill="none" stroke="black" d="M316.54,-678.94C349.73,-668.13 401.03,-649.35 441.55,-625.23 475.75,-604.87 556.18,-543.25 579.55,-511.03"/>
</g>
<!-- alconna_visitor -->
<g id="node20" class="node">
<title>alconna_visitor</title><style>.edge>path:hover{stroke-width:8}</style>
<ellipse fill="#b42d2d" stroke="black" cx="94.55" cy="-359.61" rx="37.45" ry="21.43"/>
<text text-anchor="middle" x="94.55" y="-362.61" font-family="Helvetica,sans-Serif" font-size="10.00" fill="#ffffff">alconna.</text>
<text text-anchor="middle" x="94.55" y="-351.61" font-family="Helvetica,sans-Serif" font-size="10.00" fill="#ffffff">visitor</text>
</g>
<!-- alconna_base&#45;&gt;alconna_visitor -->
<g id="edge22" class="edge">
<title>alconna_base&#45;&gt;alconna_visitor</title><style>.edge>path:hover{stroke-width:8}</style>
<path fill="none" stroke="black" d="M253.84,-676.58C204.18,-652.79 104.69,-595.95 74.55,-511.03"/>
</g>
<!-- alconna_builtin -->
<g id="node8" class="node">
<title>alconna_builtin</title><style>.edge>path:hover{stroke-width:8}</style>
<ellipse fill="#db2f2f" stroke="black" cx="904.55" cy="-510.03" rx="37.45" ry="21.43"/>
<text text-anchor="middle" x="904.55" y="-513.03" font-family="Helvetica,sans-Serif" font-size="10.00" fill="#ffffff">alconna.</text>
<text text-anchor="middle" x="904.55" y="-502.03" font-family="Helvetica,sans-Serif" font-size="10.00" fill="#ffffff">builtin</text>
</g>
<!-- alconna_builtin&#45;&gt;alconna -->
<g id="edge23" class="edge">
<title>alconna_builtin&#45;&gt;alconna</title><style>.edge>path:hover{stroke-width:8}</style>
<path fill="none" stroke="black" d="M925.81,-492.02C954.78,-466.86 1003.53,-416.6 1007.55,-360.61"/>
<path fill="none" stroke="black" d="M1007.55,-358.61C1002.69,-278.52 963.23,-259.18 978.55,-180.42"/>
</g>
<!-- alconna_builtin&#45;&gt;alconna_main -->
<g id="edge24" class="edge">
<title>alconna_builtin&#45;&gt;alconna_main</title><style>.edge>path:hover{stroke-width:8}</style>
<path fill="none" stroke="black" d="M870.94,-500.63C818.51,-487.53 717.12,-462.2 657.82,-447.38"/>
<polygon fill="#db2f2f" stroke="black" points="658.52,-443.95 647.97,-444.92 656.82,-450.74 658.52,-443.95"/>
</g>
<!-- alconna_builtin&#45;&gt;alconna_proxy -->
<g id="edge25" class="edge">
<title>alconna_builtin&#45;&gt;alconna_proxy</title><style>.edge>path:hover{stroke-width:8}</style>
<path fill="none" stroke="black" d="M1045.55,-433.82C1071.6,-367.93 1045.55,-345.25 1045.55,-274.4 1045.55,-274.4 1045.55,-274.4 1045.55,-178.42 1045.55,-125.58 1030.59,-108.67 992.55,-72 973.02,-53.18 945.64,-40.28 922.28,-31.92"/>
<polygon fill="#db2f2f" stroke="black" points="923.14,-28.52 912.54,-28.61 920.89,-35.14 923.14,-28.52"/>
<path fill="none" stroke="black" d="M939.99,-503.05C975.23,-494.88 1026.68,-476.32 1045.55,-435.82"/>
</g>
<!-- alconna_builtin_actions -->
<g id="node9" class="node">
<title>alconna_builtin_actions</title><style>.edge>path:hover{stroke-width:8}</style>
<ellipse fill="#db2f2f" stroke="black" cx="866.55" cy="-690.22" rx="37.45" ry="28.98"/>
<text text-anchor="middle" x="866.55" y="-698.72" font-family="Helvetica,sans-Serif" font-size="10.00" fill="#ffffff">alconna.</text>
<text text-anchor="middle" x="866.55" y="-687.72" font-family="Helvetica,sans-Serif" font-size="10.00" fill="#ffffff">builtin.</text>
<text text-anchor="middle" x="866.55" y="-676.72" font-family="Helvetica,sans-Serif" font-size="10.00" fill="#ffffff">actions</text>
</g>
<!-- alconna_builtin_actions&#45;&gt;alconna -->
<g id="edge26" class="edge">
<title>alconna_builtin_actions&#45;&gt;alconna</title><style>.edge>path:hover{stroke-width:8}</style>
<path fill="none" stroke="black" d="M896.75,-672.63C903.59,-668.88 910.82,-664.91 917.55,-661.23 946.86,-645.19 957.58,-646.26 983.55,-625.23 996.29,-614.91 998.3,-610.76 1007.55,-597.24"/>
<path fill="none" stroke="black" d="M1007.55,-595.24C1036.99,-552.2 1008.48,-412.74 1007.55,-360.61"/>
</g>
<!-- alconna_builtin_analyser -->
<g id="node10" class="node">
<title>alconna_builtin_analyser</title><style>.edge>path:hover{stroke-width:8}</style>
<ellipse fill="#c04040" stroke="black" cx="866.55" cy="-596.24" rx="37.45" ry="28.98"/>
<text text-anchor="middle" x="866.55" y="-604.74" font-family="Helvetica,sans-Serif" font-size="10.00" fill="#ffffff">alconna.</text>
<text text-anchor="middle" x="866.55" y="-593.74" font-family="Helvetica,sans-Serif" font-size="10.00" fill="#ffffff">builtin.</text>
<text text-anchor="middle" x="866.55" y="-582.74" font-family="Helvetica,sans-Serif" font-size="10.00" fill="#ffffff">analyser</text>
</g>
<!-- alconna_builtin_actions&#45;&gt;alconna_builtin_analyser -->
<g id="edge27" class="edge">
<title>alconna_builtin_actions&#45;&gt;alconna_builtin_analyser</title><style>.edge>path:hover{stroke-width:8}</style>
<path fill="none" stroke="black" d="M866.55,-661.12C866.55,-653.08 866.55,-644.18 866.55,-635.64"/>
<polygon fill="#db2f2f" stroke="black" points="870.05,-635.48 866.55,-625.48 863.05,-635.48 870.05,-635.48"/>
</g>
<!-- alconna_builtin_actions&#45;&gt;alconna_proxy -->
<g id="edge28" class="edge">
<title>alconna_builtin_actions&#45;&gt;alconna_proxy</title><style>.edge>path:hover{stroke-width:8}</style>
<path fill="none" stroke="black" d="M1007.55,-595.24C1030.73,-561.35 1027.24,-547.78 1045.55,-511.03"/>
</g>
<!-- alconna_builtin_analyser&#45;&gt;alconna_main -->
<g id="edge29" class="edge">
<title>alconna_builtin_analyser&#45;&gt;alconna_main</title><style>.edge>path:hover{stroke-width:8}</style>
<path fill="none" stroke="black" d="M843.44,-573.08C818.37,-549.89 776.44,-513.5 735.55,-488.82 709.63,-473.17 678.25,-459.81 653.54,-450.41"/>
<polygon fill="#c04040" stroke="black" points="654.68,-447.1 644.09,-446.88 652.23,-453.66 654.68,-447.1"/>
</g>
<!-- alconna_builtin_construct -->
<g id="node11" class="node">
<title>alconna_builtin_construct</title><style>.edge>path:hover{stroke-width:8}</style>
<ellipse fill="#c24747" stroke="black" cx="613.55" cy="-179.42" rx="40.11" ry="28.98"/>
<text text-anchor="middle" x="613.55" y="-187.92" font-family="Helvetica,sans-Serif" font-size="10.00" fill="#ffffff">alconna.</text>
<text text-anchor="middle" x="613.55" y="-176.92" font-family="Helvetica,sans-Serif" font-size="10.00" fill="#ffffff">builtin.</text>
<text text-anchor="middle" x="613.55" y="-165.92" font-family="Helvetica,sans-Serif" font-size="10.00" fill="#ffffff">construct</text>
</g>
<!-- alconna_builtin_construct&#45;&gt;alconna -->
<g id="edge30" class="edge">
<title>alconna_builtin_construct&#45;&gt;alconna</title><style>.edge>path:hover{stroke-width:8}</style>
<path fill="none" stroke="black" d="M581.73,-161.15C537.77,-137.16 464.1,-96.44 466.55,-94.21"/>
</g>
<!-- alconna_builtin_formatter -->
<g id="node12" class="node">
<title>alconna_builtin_formatter</title><style>.edge>path:hover{stroke-width:8}</style>
<ellipse fill="#c24747" stroke="black" cx="608.55" cy="-596.24" rx="38.78" ry="28.98"/>
<text text-anchor="middle" x="608.55" y="-604.74" font-family="Helvetica,sans-Serif" font-size="10.00" fill="#ffffff">alconna.</text>
<text text-anchor="middle" x="608.55" y="-593.74" font-family="Helvetica,sans-Serif" font-size="10.00" fill="#ffffff">builtin.</text>
<text text-anchor="middle" x="608.55" y="-582.74" font-family="Helvetica,sans-Serif" font-size="10.00" fill="#ffffff">formatter</text>
</g>
<!-- alconna_builtin_formatter&#45;&gt;alconna_main -->
<g id="edge31" class="edge">
<title>alconna_builtin_formatter&#45;&gt;alconna_main</title><style>.edge>path:hover{stroke-width:8}</style>
<path fill="none" stroke="black" d="M589,-570.96C577.14,-553.11 566.57,-528.93 579.55,-511.03"/>
</g>
<!-- alconna_component&#45;&gt;alconna -->
<g id="edge32" class="edge">
<title>alconna_component&#45;&gt;alconna</title><style>.edge>path:hover{stroke-width:8}</style>
<path fill="none" stroke="black" d="M273.55,-433.82C262.8,-347.38 126.4,-354.95 159.55,-274.4"/>
<path fill="none" stroke="black" d="M273.55,-509.03C263.97,-477.93 279.78,-467.76 273.55,-435.82"/>
</g>
<!-- alconna_component&#45;&gt;alconna_analysis -->
<g id="edge33" class="edge">
<title>alconna_component&#45;&gt;alconna_analysis</title><style>.edge>path:hover{stroke-width:8}</style>
<path fill="none" stroke="black" d="M352.39,-577.38C367.72,-564.85 388.36,-547.97 404.99,-534.38"/>
<polygon fill="#f90606" stroke="black" points="407.27,-537.04 412.79,-528 402.84,-531.62 407.27,-537.04"/>
</g>
<!-- alconna_component&#45;&gt;alconna_analysis_analyser -->
<g id="edge34" class="edge">
<title>alconna_component&#45;&gt;alconna_analysis_analyser</title><style>.edge>path:hover{stroke-width:8}</style>
<path fill="none" stroke="black" d="M273.55,-509.03C264.77,-449.21 425.78,-343.87 502.31,-297.46"/>
<polygon fill="#f90606" stroke="black" points="504.45,-300.26 511.21,-292.1 500.84,-294.27 504.45,-300.26"/>
</g>
<!-- alconna_component&#45;&gt;alconna_analysis_parts -->
<g id="edge35" class="edge">
<title>alconna_component&#45;&gt;alconna_analysis_parts</title><style>.edge>path:hover{stroke-width:8}</style>
<path fill="none" stroke="black" d="M273.55,-433.82C269.54,-401.53 273.55,-393.14 273.55,-360.61"/>
</g>
<!-- alconna_component&#45;&gt;alconna_main -->
<g id="edge36" class="edge">
<title>alconna_component&#45;&gt;alconna_main</title><style>.edge>path:hover{stroke-width:8}</style>
<path fill="none" stroke="black" d="M366.72,-583.04C435.72,-559.77 579.35,-511.31 579.55,-511.03"/>
<path fill="none" stroke="black" d="M579.55,-509.03C589.81,-494.89 597.72,-476.94 603.11,-462.36"/>
<polygon fill="#f90606" stroke="black" points="606.42,-463.48 606.43,-452.89 599.82,-461.16 606.42,-463.48"/>
</g>
<!-- alconna_component&#45;&gt;alconna_visitor -->
<g id="edge37" class="edge">
<title>alconna_component&#45;&gt;alconna_visitor</title><style>.edge>path:hover{stroke-width:8}</style>
<path fill="none" stroke="black" d="M273.55,-509.03C259.12,-440.9 182.87,-397.2 134.65,-375.93"/>
<polygon fill="#f90606" stroke="black" points="135.98,-372.69 125.41,-371.98 133.23,-379.13 135.98,-372.69"/>
<path fill="none" stroke="black" d="M310.7,-576.72C295.8,-560.99 277.35,-536.88 273.55,-511.03"/>
</g>
<!-- alconna_exceptions -->
<g id="node14" class="node">
<title>alconna_exceptions</title><style>.edge>path:hover{stroke-width:8}</style>
<ellipse fill="#f91010" stroke="black" cx="541.55" cy="-848.42" rx="45.01" ry="21.43"/>
<text text-anchor="middle" x="541.55" y="-851.42" font-family="Helvetica,sans-Serif" font-size="10.00" fill="#ffffff">alconna.</text>
<text text-anchor="middle" x="541.55" y="-840.42" font-family="Helvetica,sans-Serif" font-size="10.00" fill="#ffffff">exceptions</text>
</g>
<!-- alconna_exceptions&#45;&gt;alconna -->
<g id="edge38" class="edge">
<title>alconna_exceptions&#45;&gt;alconna</title><style>.edge>path:hover{stroke-width:8}</style>
<path fill="none" stroke="black" d="M7.55,-689.22C22.44,-647.57 59.91,-639.07 45.55,-597.24"/>
<path fill="none" stroke="black" d="M45.55,-595.24C8.49,-487.26 -9.14,-436.9 48.55,-338.39 77.33,-289.25 136.01,-326.25 159.55,-274.4"/>
<path fill="none" stroke="black" d="M466.55,-92.21C506.38,-54.58 668.25,-31.86 743.61,-23.12"/>
<polygon fill="#f91010" stroke="black" points="744.1,-26.59 753.64,-21.98 743.31,-19.63 744.1,-26.59"/>
<path fill="none" stroke="black" d="M7.55,-772.21C0.35,-736.94 -4.56,-725.12 7.55,-691.22"/>
<path fill="none" stroke="black" d="M496.52,-845.83C369.58,-840.73 17.37,-822.29 7.55,-774.21"/>
<path fill="none" stroke="black" d="M159.55,-272.4C187.29,-207.1 202.79,-188.67 262.55,-150.43 341.77,-99.74 398.2,-158.81 466.55,-94.21"/>
</g>
<!-- alconna_exceptions&#45;&gt;alconna_analysis_arg_handlers -->
<g id="edge39" class="edge">
<title>alconna_exceptions&#45;&gt;alconna_analysis_arg_handlers</title><style>.edge>path:hover{stroke-width:8}</style>
<path fill="none" stroke="black" d="M7.55,-689.22C25.67,-643.61 62.11,-659.18 97.55,-625.23 182.26,-544.06 184.88,-507.3 259.55,-416.82 320.93,-342.44 396.25,-258.06 436.98,-212.96"/>
<polygon fill="#f91010" stroke="black" points="439.58,-215.3 443.7,-205.53 434.39,-210.6 439.58,-215.3"/>
</g>
<!-- alconna_exceptions&#45;&gt;alconna_analysis_parts -->
<g id="edge40" class="edge">
<title>alconna_exceptions&#45;&gt;alconna_analysis_parts</title><style>.edge>path:hover{stroke-width:8}</style>
<path fill="none" stroke="black" d="M83.55,-595.24C147.74,-442.45 209.06,-427.06 273.55,-274.4"/>
<path fill="none" stroke="black" d="M273.55,-272.4C279.62,-253.72 287.8,-233.49 295.01,-216.77"/>
<polygon fill="#f91010" stroke="black" points="298.32,-217.94 299.12,-207.37 291.91,-215.13 298.32,-217.94"/>
</g>
<!-- alconna_exceptions&#45;&gt;alconna_arpamar -->
<g id="edge41" class="edge">
<title>alconna_exceptions&#45;&gt;alconna_arpamar</title><style>.edge>path:hover{stroke-width:8}</style>
<path fill="none" stroke="black" d="M866.55,-772.21C885.96,-747.8 839.37,-744.08 820.55,-719.21 797.15,-688.27 773.11,-650.68 757.57,-625.48"/>
<polygon fill="#f91010" stroke="black" points="760.46,-623.49 752.25,-616.8 754.49,-627.15 760.46,-623.49"/>
<path fill="none" stroke="black" d="M585.6,-843.29C664.98,-834.93 827.44,-813.42 866.55,-774.21"/>
</g>
<!-- alconna_exceptions&#45;&gt;alconna_base -->
<g id="edge42" class="edge">
<title>alconna_exceptions&#45;&gt;alconna_base</title><style>.edge>path:hover{stroke-width:8}</style>
<path fill="none" stroke="black" d="M7.55,-772.21C-1.72,-726.85 147.72,-704.64 230.09,-695.9"/>
<polygon fill="#f91010" stroke="black" points="230.68,-699.35 240.27,-694.85 229.97,-692.39 230.68,-699.35"/>
</g>
<!-- alconna_exceptions&#45;&gt;alconna_manager -->
<g id="edge43" class="edge">
<title>alconna_exceptions&#45;&gt;alconna_manager</title><style>.edge>path:hover{stroke-width:8}</style>
<path fill="none" stroke="black" d="M866.55,-772.21C888.58,-750.13 895.56,-745.37 912.55,-719.21 945.14,-669.03 936.52,-647.13 969.55,-597.24"/>
</g>
<!-- alconna_types -->
<g id="node18" class="node">
<title>alconna_types</title><style>.edge>path:hover{stroke-width:8}</style>
<ellipse fill="#f90606" stroke="black" cx="541.55" cy="-773.21" rx="45.15" ry="18"/>
<text text-anchor="middle" x="541.55" y="-770.71" font-family="Helvetica,sans-Serif" font-size="10.00" fill="#ffffff">alconna.types</text>
</g>
<!-- alconna_exceptions&#45;&gt;alconna_types -->
<g id="edge44" class="edge">
<title>alconna_exceptions&#45;&gt;alconna_types</title><style>.edge>path:hover{stroke-width:8}</style>
<path fill="none" stroke="black" d="M541.55,-827.03C541.55,-819.18 541.55,-810.07 541.55,-801.66"/>
<polygon fill="#f91010" stroke="black" points="545.05,-801.52 541.55,-791.52 538.05,-801.52 545.05,-801.52"/>
</g>
<!-- alconna_exceptions&#45;&gt;alconna_visitor -->
<g id="edge45" class="edge">
<title>alconna_exceptions&#45;&gt;alconna_visitor</title><style>.edge>path:hover{stroke-width:8}</style>
<path fill="none" stroke="black" d="M74.55,-509.03C59.35,-470.91 61.03,-456.97 69.55,-416.82 71.53,-407.48 75.18,-397.81 79.08,-389.18"/>
<polygon fill="#f91010" stroke="black" points="82.34,-390.48 83.53,-379.95 76.04,-387.44 82.34,-390.48"/>
<path fill="none" stroke="black" d="M7.55,-689.22C27.13,-639.94 63.01,-646.13 83.55,-597.24"/>
<path fill="none" stroke="black" d="M83.55,-595.24C98.13,-560.54 83.8,-547.51 74.55,-511.03"/>
</g>
<!-- alconna_main&#45;&gt;alconna -->
<g id="edge46" class="edge">
<title>alconna_main&#45;&gt;alconna</title><style>.edge>path:hover{stroke-width:8}</style>
<path fill="none" stroke="black" d="M612.51,-416.67C613.79,-382.59 613.7,-304.45 590.55,-244.41 583.45,-225.99 575.74,-224.67 564.55,-208.41 547.08,-183.03 546.38,-174.01 526.55,-150.43 503.04,-122.46 439.5,-118.78 466.55,-94.21"/>
</g>
<!-- alconna_main&#45;&gt;alconna_analysis_analyser -->
<g id="edge48" class="edge">
<title>alconna_main&#45;&gt;alconna_analysis_analyser</title><style>.edge>path:hover{stroke-width:8}</style>
<path fill="none" stroke="black" d="M600.15,-407.85C588.52,-381.36 570.38,-340.05 557.36,-310.41"/>
<polygon fill="#950303" stroke="black" points="596.97,-409.31 604.19,-417.06 603.38,-406.5 596.97,-409.31"/>
<polygon fill="#950303" stroke="black" points="560.56,-308.98 553.33,-301.23 554.15,-311.79 560.56,-308.98"/>
</g>
<!-- alconna_main&#45;&gt;alconna_manager -->
<g id="edge49" class="edge">
<title>alconna_main&#45;&gt;alconna_manager</title><style>.edge>path:hover{stroke-width:8}</style>
<path fill="none" stroke="black" d="M628.84,-409.05C671.98,-347.22 784.17,-186.46 829.32,-121.77"/>
<polygon fill="#950303" stroke="black" points="625.84,-407.23 622.98,-417.44 631.58,-411.24 625.84,-407.23"/>
<polygon fill="#950303" stroke="black" points="832.38,-123.51 835.23,-113.3 826.64,-119.5 832.38,-123.51"/>
</g>
<!-- alconna_main&#45;&gt;alconna_proxy -->
<g id="edge50" class="edge">
<title>alconna_main&#45;&gt;alconna_proxy</title><style>.edge>path:hover{stroke-width:8}</style>
<path fill="none" stroke="black" d="M634.87,-419.53C648.81,-410 666,-396.4 677.55,-380.82 765.64,-262.01 710.22,-188.34 801.55,-72 812.12,-58.54 826.98,-46.99 840.62,-38.13"/>
<polygon fill="#950303" stroke="black" points="842.7,-40.96 849.35,-32.71 839.01,-35.01 842.7,-40.96"/>
</g>
<!-- alconna_main&#45;&gt;alconna_visitor -->
<g id="edge51" class="edge">
<title>alconna_main&#45;&gt;alconna_visitor</title><style>.edge>path:hover{stroke-width:8}</style>
<path fill="none" stroke="black" d="M561.04,-426.67C460.7,-412.46 237.58,-380.86 140.81,-367.16"/>
<polygon fill="#950303" stroke="black" points="560.59,-430.14 570.98,-428.07 561.57,-423.21 560.59,-430.14"/>
<polygon fill="#950303" stroke="black" points="141.14,-363.67 130.75,-365.73 140.16,-370.6 141.14,-363.67"/>
</g>
<!-- alconna_manager&#45;&gt;alconna -->
<g id="edge52" class="edge">
<title>alconna_manager&#45;&gt;alconna</title><style>.edge>path:hover{stroke-width:8}</style>
<path fill="none" stroke="black" d="M831.9,-73.74C823.13,-64.02 812.31,-52.01 803.04,-41.72"/>
<polygon fill="#ae1e1e" stroke="black" points="805.6,-39.34 796.31,-34.26 800.4,-44.03 805.6,-39.34"/>
</g>
<!-- alconna_manager&#45;&gt;alconna_proxy -->
<g id="edge54" class="edge">
<title>alconna_manager&#45;&gt;alconna_proxy</title><style>.edge>path:hover{stroke-width:8}</style>
<path fill="none" stroke="black" d="M855.93,-72.21C858.97,-63.96 862.54,-54.29 865.79,-45.48"/>
<polygon fill="#ae1e1e" stroke="black" points="869.1,-46.6 869.28,-36 862.54,-44.17 869.1,-46.6"/>
</g>
<!-- alconna_types&#45;&gt;alconna -->
<g id="edge55" class="edge">
<title>alconna_types&#45;&gt;alconna</title><style>.edge>path:hover{stroke-width:8}</style>
<path fill="none" stroke="black" d="M496.59,-770.41C434.51,-766.63 319.98,-755 229.55,-719.21 138.32,-683.11 51.17,-695.19 45.55,-597.24"/>
</g>
<!-- alconna_types&#45;&gt;alconna_analysis -->
<g id="edge56" class="edge">
<title>alconna_types&#45;&gt;alconna_analysis</title><style>.edge>path:hover{stroke-width:8}</style>
<path fill="none" stroke="black" d="M541.55,-595.24C532.24,-562.84 500.12,-540.5 473.3,-527.01"/>
<polygon fill="#f90606" stroke="black" points="474.62,-523.76 464.09,-522.61 471.6,-530.08 474.62,-523.76"/>
<path fill="none" stroke="black" d="M541.55,-689.22C553.63,-650.16 552.84,-636.53 541.55,-597.24"/>
</g>
<!-- alconna_types&#45;&gt;alconna_analysis_analyser -->
<g id="edge57" class="edge">
<title>alconna_types&#45;&gt;alconna_analysis_analyser</title><style>.edge>path:hover{stroke-width:8}</style>
<path fill="none" stroke="black" d="M683.55,-509.03C677.13,-467.68 683.05,-454.35 664.55,-416.82 642.44,-371.95 602.79,-329.81 574.48,-303.18"/>
<polygon fill="#f90606" stroke="black" points="576.53,-300.32 566.82,-296.09 571.78,-305.45 576.53,-300.32"/>
</g>
<!-- alconna_types&#45;&gt;alconna_analysis_arg_handlers -->
<g id="edge58" class="edge">
<title>alconna_types&#45;&gt;alconna_analysis_arg_handlers</title><style>.edge>path:hover{stroke-width:8}</style>
<path fill="none" stroke="black" d="M541.55,-595.24C502.54,-459.48 479.72,-292.63 470.85,-218.75"/>
<polygon fill="#f90606" stroke="black" points="474.3,-218.05 469.65,-208.53 467.34,-218.88 474.3,-218.05"/>
</g>
<!-- alconna_types&#45;&gt;alconna_analysis_parts -->
<g id="edge59" class="edge">
<title>alconna_types&#45;&gt;alconna_analysis_parts</title><style>.edge>path:hover{stroke-width:8}</style>
<path fill="none" stroke="black" d="M538.7,-755.03C536.59,-738.34 535.07,-712.47 541.55,-691.22"/>
<path fill="none" stroke="black" d="M541.55,-689.22C562.01,-622.17 493.51,-614.31 441.55,-567.24 420.17,-547.88 407.96,-551.63 387.55,-531.24 355.29,-499.01 274.66,-406.2 273.55,-360.61"/>
</g>
<!-- alconna_types&#45;&gt;alconna_arpamar -->
<g id="edge60" class="edge">
<title>alconna_types&#45;&gt;alconna_arpamar</title><style>.edge>path:hover{stroke-width:8}</style>
<path fill="none" stroke="black" d="M541.55,-689.22C562.72,-620.75 625.18,-656.72 689.55,-625.23 694.9,-622.61 700.49,-619.72 705.92,-616.81"/>
<polygon fill="#f90606" stroke="black" points="707.74,-619.8 714.85,-611.95 704.4,-613.65 707.74,-619.8"/>
</g>
<!-- alconna_types&#45;&gt;alconna_base -->
<g id="edge61" class="edge">
<title>alconna_types&#45;&gt;alconna_base</title><style>.edge>path:hover{stroke-width:8}</style>
<path fill="none" stroke="black" d="M507.16,-761.46C460.46,-746.85 376.98,-720.75 326.01,-704.81"/>
<polygon fill="#f90606" stroke="black" points="326.85,-701.41 316.26,-701.76 324.76,-708.09 326.85,-701.41"/>
</g>
<!-- alconna_types&#45;&gt;alconna_main -->
<g id="edge62" class="edge">
<title>alconna_types&#45;&gt;alconna_main</title><style>.edge>path:hover{stroke-width:8}</style>
<path fill="none" stroke="black" d="M541.55,-689.22C558.83,-633.34 621.27,-671.88 656.55,-625.23 688.01,-583.63 692.73,-562.37 683.55,-511.03"/>
<path fill="none" stroke="black" d="M683.55,-509.03C680.05,-486.47 662.04,-468.17 644.91,-455.5"/>
<polygon fill="#f90606" stroke="black" points="646.84,-452.58 636.64,-449.74 642.84,-458.33 646.84,-452.58"/>
</g>
<!-- alconna_types&#45;&gt;alconna_manager -->
<g id="edge63" class="edge">
<title>alconna_types&#45;&gt;alconna_manager</title><style>.edge>path:hover{stroke-width:8}</style>
<path fill="none" stroke="black" d="M572.49,-759.84C623.94,-739.28 730.36,-696.81 820.55,-661.23 861.4,-645.11 872.37,-642.92 912.55,-625.23 938.38,-613.86 959.49,-623.6 969.55,-597.24"/>
<path fill="none" stroke="black" d="M969.55,-595.24C1047.61,-426.37 971.2,-357.3 913.55,-180.42"/>
</g>
<!-- alconna_types&#45;&gt;alconna_proxy -->
<g id="edge64" class="edge">
<title>alconna_types&#45;&gt;alconna_proxy</title><style>.edge>path:hover{stroke-width:8}</style>
<path fill="none" stroke="black" d="M585.85,-769.01C671.19,-762.34 855.02,-745.37 912.55,-719.21 970.78,-692.74 989.04,-680.31 1021.55,-625.23 1047.91,-580.56 1022.42,-557.45 1045.55,-511.03"/>
</g>
<!-- alconna_util -->
<g id="node19" class="node">
<title>alconna_util</title><style>.edge>path:hover{stroke-width:8}</style>
<ellipse fill="#db2f2f" stroke="black" cx="788.55" cy="-434.82" rx="38.7" ry="18"/>
<text text-anchor="middle" x="788.55" y="-432.32" font-family="Helvetica,sans-Serif" font-size="10.00" fill="#ffffff">alconna.util</text>
</g>
<!-- alconna_util&#45;&gt;alconna -->
<g id="edge65" class="edge">
<title>alconna_util&#45;&gt;alconna</title><style>.edge>path:hover{stroke-width:8}</style>
<path fill="none" stroke="black" d="M826.55,-358.61C804.54,-281.91 853.96,-260.03 848.55,-180.42"/>
<path fill="none" stroke="black" d="M848.55,-178.42C845.26,-143.28 815.78,-146.72 801.55,-114.43 791.95,-92.64 787.17,-65.93 784.8,-46.31"/>
<polygon fill="#db2f2f" stroke="black" points="788.26,-45.79 783.72,-36.22 781.3,-46.54 788.26,-45.79"/>
</g>
<!-- alconna_util&#45;&gt;alconna_analysis_analyser -->
<g id="edge66" class="edge">
<title>alconna_util&#45;&gt;alconna_analysis_analyser</title><style>.edge>path:hover{stroke-width:8}</style>
<path fill="none" stroke="black" d="M804.74,-418.31C817.65,-403.99 832.63,-381.8 826.55,-360.61"/>
<path fill="none" stroke="black" d="M826.55,-358.61C813.31,-312.45 668.64,-288.9 590.68,-279.48"/>
<polygon fill="#db2f2f" stroke="black" points="590.94,-275.98 580.6,-278.29 590.12,-282.94 590.94,-275.98"/>
</g>
<!-- alconna_util&#45;&gt;alconna_manager -->
<g id="edge67" class="edge">
<title>alconna_util&#45;&gt;alconna_manager</title><style>.edge>path:hover{stroke-width:8}</style>
<path fill="none" stroke="black" d="M848.55,-178.42C847.35,-160.76 847.29,-140.97 847.55,-125.02"/>
<polygon fill="#db2f2f" stroke="black" points="851.06,-124.73 847.78,-114.66 844.06,-124.58 851.06,-124.73"/>
</g>
<!-- alconna_visitor&#45;&gt;alconna -->
<g id="edge68" class="edge">
<title>alconna_visitor&#45;&gt;alconna</title><style>.edge>path:hover{stroke-width:8}</style>
<path fill="none" stroke="black" d="M113.03,-340.74C128.23,-324.85 148.94,-300.19 159.55,-274.4"/>
</g>
</g>
</svg>
