<?xml version="1.0" encoding="UTF-8" standalone="no"?>
<!DOCTYPE svg PUBLIC "-//W3C//DTD SVG 1.1//EN"
 "http://www.w3.org/Graphics/SVG/1.1/DTD/svg11.dtd">
<!-- Generated by graphviz version 2.49.3 (20211023.0002)
 -->
<!-- Title: G Pages: 1 -->
<svg width="994pt" height="814pt"
 viewBox="0.00 0.00 994.47 814.23" xmlns="http://www.w3.org/2000/svg" xmlns:xlink="http://www.w3.org/1999/xlink">
<g id="graph0" class="graph" transform="scale(1 1) rotate(0) translate(4 810.23)">
<title>G</title><style>.edge>path:hover{stroke-width:8}</style>
<polygon fill="white" stroke="transparent" points="-4,4 -4,-810.23 990.47,-810.23 990.47,4 -4,4"/>
<!-- alconna -->
<g id="node1" class="node">
<title>alconna</title><style>.edge>path:hover{stroke-width:8}</style>
<ellipse fill="#732626" stroke="black" cx="384.16" cy="-18" rx="29.37" ry="18"/>
<text text-anchor="middle" x="384.16" y="-15.5" font-family="Helvetica,sans-Serif" font-size="10.00" fill="#ffffff">alconna</text>
</g>
<!-- alconna_analysis -->
<g id="node2" class="node">
<title>alconna_analysis</title><style>.edge>path:hover{stroke-width:8}</style>
<ellipse fill="#a51d1d" stroke="black" cx="483.16" cy="-468.61" rx="37.45" ry="21.43"/>
<text text-anchor="middle" x="483.16" y="-471.61" font-family="Helvetica,sans-Serif" font-size="10.00" fill="#ffffff">alconna.</text>
<text text-anchor="middle" x="483.16" y="-460.61" font-family="Helvetica,sans-Serif" font-size="10.00" fill="#ffffff">analysis</text>
</g>
<!-- alconna_analysis&#45;&gt;alconna -->
<g id="edge1" class="edge">
<title>alconna_analysis&#45;&gt;alconna</title><style>.edge>path:hover{stroke-width:8}</style>
<path fill="none" stroke="black" d="M511.96,-454.88C531.58,-445.13 557.16,-430.18 575.16,-411.39 656.37,-326.66 619.75,-262.98 703.16,-180.42"/>
<path fill="none" stroke="black" d="M878.16,-92.21C855.77,-52.53 537.04,-28.65 423.76,-21.38"/>
<polygon fill="#a51d1d" stroke="black" points="423.65,-17.87 413.45,-20.73 423.21,-24.85 423.65,-17.87"/>
<path fill="none" stroke="black" d="M703.16,-178.42C713.37,-167.38 710.28,-159.65 722.16,-150.43 780.37,-105.23 914.38,-158.4 878.16,-94.21"/>
</g>
<!-- alconna_main -->
<g id="node13" class="node">
<title>alconna_main</title><style>.edge>path:hover{stroke-width:8}</style>
<ellipse fill="#9c1111" stroke="black" cx="672.16" cy="-393.39" rx="43.62" ry="18"/>
<text text-anchor="middle" x="672.16" y="-390.89" font-family="Helvetica,sans-Serif" font-size="10.00" fill="#ffffff">alconna.main</text>
</g>
<!-- alconna_analysis&#45;&gt;alconna_main -->
<g id="edge2" class="edge">
<title>alconna_analysis&#45;&gt;alconna_main</title><style>.edge>path:hover{stroke-width:8}</style>
<path fill="none" stroke="black" d="M522.94,-452.13C527.07,-450.53 531.2,-448.93 535.16,-447.39 567.67,-434.79 604.53,-420.53 631.82,-409.98"/>
<polygon fill="#a51d1d" stroke="black" points="521.46,-448.96 513.4,-455.84 523.99,-455.48 521.46,-448.96"/>
<polygon fill="#a51d1d" stroke="black" points="633.35,-413.14 641.41,-406.27 630.82,-406.61 633.35,-413.14"/>
</g>
<!-- alconna_manager -->
<g id="node14" class="node">
<title>alconna_manager</title><style>.edge>path:hover{stroke-width:8}</style>
<ellipse fill="#ac2b2b" stroke="black" cx="384.16" cy="-93.21" rx="38.37" ry="21.43"/>
<text text-anchor="middle" x="384.16" y="-96.21" font-family="Helvetica,sans-Serif" font-size="10.00" fill="#ffffff">alconna.</text>
<text text-anchor="middle" x="384.16" y="-85.21" font-family="Helvetica,sans-Serif" font-size="10.00" fill="#ffffff">manager</text>
</g>
<!-- alconna_analysis&#45;&gt;alconna_manager -->
<g id="edge3" class="edge">
<title>alconna_analysis&#45;&gt;alconna_manager</title><style>.edge>path:hover{stroke-width:8}</style>
<path fill="none" stroke="black" d="M495.23,-448.36C523.01,-401.52 586.43,-278.27 551.16,-180.42"/>
</g>
<!-- alconna_analysis_analyser -->
<g id="node3" class="node">
<title>alconna_analysis_analyser</title><style>.edge>path:hover{stroke-width:8}</style>
<ellipse fill="#c20a0a" stroke="black" cx="471.16" cy="-273.4" rx="39.7" ry="28.98"/>
<text text-anchor="middle" x="471.16" y="-281.9" font-family="Helvetica,sans-Serif" font-size="10.00" fill="#ffffff">alconna.</text>
<text text-anchor="middle" x="471.16" y="-270.9" font-family="Helvetica,sans-Serif" font-size="10.00" fill="#ffffff">analysis.</text>
<text text-anchor="middle" x="471.16" y="-259.9" font-family="Helvetica,sans-Serif" font-size="10.00" fill="#ffffff">analyser</text>
</g>
<!-- alconna_analysis_analyser&#45;&gt;alconna_analysis -->
<g id="edge4" class="edge">
<title>alconna_analysis_analyser&#45;&gt;alconna_analysis</title><style>.edge>path:hover{stroke-width:8}</style>
<path fill="none" stroke="black" d="M472.91,-302.5C475.13,-338.36 478.97,-400.16 481.27,-437.12"/>
<polygon fill="#c20a0a" stroke="black" points="477.79,-437.53 481.9,-447.29 484.77,-437.1 477.79,-437.53"/>
</g>
<!-- alconna_analysis_arg_handlers -->
<g id="node4" class="node">
<title>alconna_analysis_arg_handlers</title><style>.edge>path:hover{stroke-width:8}</style>
<ellipse fill="#b03a3a" stroke="black" cx="782.16" cy="-179.42" rx="50.82" ry="28.98"/>
<text text-anchor="middle" x="782.16" y="-187.92" font-family="Helvetica,sans-Serif" font-size="10.00" fill="#ffffff">alconna.</text>
<text text-anchor="middle" x="782.16" y="-176.92" font-family="Helvetica,sans-Serif" font-size="10.00" fill="#ffffff">analysis.</text>
<text text-anchor="middle" x="782.16" y="-165.92" font-family="Helvetica,sans-Serif" font-size="10.00" fill="#ffffff">arg_handlers</text>
</g>
<!-- alconna_analysis_analyser&#45;&gt;alconna_analysis_arg_handlers -->
<g id="edge5" class="edge">
<title>alconna_analysis_analyser&#45;&gt;alconna_analysis_arg_handlers</title><style>.edge>path:hover{stroke-width:8}</style>
<path fill="none" stroke="black" d="M508.19,-262.29C528.03,-256.91 552.91,-250.22 575.16,-244.41 638.15,-227.95 655.51,-229.35 717.16,-208.41 722.68,-206.54 728.38,-204.4 734.01,-202.15"/>
<polygon fill="#c20a0a" stroke="black" points="735.45,-205.35 743.37,-198.31 732.79,-198.87 735.45,-205.35"/>
</g>
<!-- alconna_analysis_parts -->
<g id="node5" class="node">
<title>alconna_analysis_parts</title><style>.edge>path:hover{stroke-width:8}</style>
<ellipse fill="#a13535" stroke="black" cx="399.16" cy="-179.42" rx="39.7" ry="28.98"/>
<text text-anchor="middle" x="399.16" y="-187.92" font-family="Helvetica,sans-Serif" font-size="10.00" fill="#ffffff">alconna.</text>
<text text-anchor="middle" x="399.16" y="-176.92" font-family="Helvetica,sans-Serif" font-size="10.00" fill="#ffffff">analysis.</text>
<text text-anchor="middle" x="399.16" y="-165.92" font-family="Helvetica,sans-Serif" font-size="10.00" fill="#ffffff">parts</text>
</g>
<!-- alconna_analysis_analyser&#45;&gt;alconna_analysis_parts -->
<g id="edge6" class="edge">
<title>alconna_analysis_analyser&#45;&gt;alconna_analysis_parts</title><style>.edge>path:hover{stroke-width:8}</style>
<path fill="none" stroke="black" d="M451.87,-247.75C443.49,-237.05 433.56,-224.36 424.59,-212.9"/>
<polygon fill="#c20a0a" stroke="black" points="427.18,-210.53 418.26,-204.82 421.67,-214.85 427.18,-210.53"/>
</g>
<!-- alconna_analysis_analyser&#45;&gt;alconna_manager -->
<g id="edge8" class="edge">
<title>alconna_analysis_analyser&#45;&gt;alconna_manager</title><style>.edge>path:hover{stroke-width:8}</style>
<path fill="none" stroke="black" d="M502.85,-255.8C529.79,-239.19 562.43,-211.68 551.16,-180.42"/>
<path fill="none" stroke="black" d="M551.16,-178.42C533.78,-130.2 474.34,-109.43 431.32,-100.59"/>
<polygon fill="#c20a0a" stroke="black" points="431.8,-97.12 421.32,-98.69 430.49,-104 431.8,-97.12"/>
</g>
<!-- alconna_analysis_arg_handlers&#45;&gt;alconna_analysis -->
<g id="edge9" class="edge">
<title>alconna_analysis_arg_handlers&#45;&gt;alconna_analysis</title><style>.edge>path:hover{stroke-width:8}</style>
<path fill="none" stroke="black" d="M756.79,-204.78C700.47,-258.88 565.51,-388.51 508.87,-442.91"/>
<polygon fill="#b03a3a" stroke="black" points="506.2,-440.62 501.41,-450.07 511.05,-445.67 506.2,-440.62"/>
</g>
<!-- alconna_analysis_parts&#45;&gt;alconna_analysis -->
<g id="edge10" class="edge">
<title>alconna_analysis_parts&#45;&gt;alconna_analysis</title><style>.edge>path:hover{stroke-width:8}</style>
<path fill="none" stroke="black" d="M400.95,-208.52C403.56,-240.72 409.66,-294.78 423.16,-339.39 434.01,-375.27 453.23,-413.9 467,-439.28"/>
<polygon fill="#a13535" stroke="black" points="464.08,-441.25 471.97,-448.32 470.22,-437.87 464.08,-441.25"/>
</g>
<!-- alconna_base -->
<g id="node6" class="node">
<title>alconna_base</title><style>.edge>path:hover{stroke-width:8}</style>
<ellipse fill="#ef0606" stroke="black" cx="614.16" cy="-637.8" rx="43.62" ry="18"/>
<text text-anchor="middle" x="614.16" y="-635.3" font-family="Helvetica,sans-Serif" font-size="10.00" fill="#ffffff">alconna.base</text>
</g>
<!-- alconna_base&#45;&gt;alconna -->
<g id="edge11" class="edge">
<title>alconna_base&#45;&gt;alconna</title><style>.edge>path:hover{stroke-width:8}</style>
<path fill="none" stroke="black" d="M650.38,-627.79C674.72,-619.97 705.78,-606.28 725.16,-583.8 819.1,-474.86 760.89,-405.47 820.16,-274.4"/>
</g>
<!-- alconna_base&#45;&gt;alconna_analysis -->
<g id="edge12" class="edge">
<title>alconna_base&#45;&gt;alconna_analysis</title><style>.edge>path:hover{stroke-width:8}</style>
<path fill="none" stroke="black" d="M414.16,-553.81C398.72,-530.58 424.02,-506.15 448.21,-489.62"/>
<polygon fill="#ef0606" stroke="black" points="450.19,-492.51 456.66,-484.12 446.37,-486.64 450.19,-492.51"/>
</g>
<!-- alconna_base&#45;&gt;alconna_analysis_analyser -->
<g id="edge13" class="edge">
<title>alconna_base&#45;&gt;alconna_analysis_analyser</title><style>.edge>path:hover{stroke-width:8}</style>
<path fill="none" stroke="black" d="M414.16,-553.81C361.09,-474 388.08,-421.71 437.16,-339.39"/>
</g>
<!-- alconna_base&#45;&gt;alconna_analysis_parts -->
<g id="edge14" class="edge">
<title>alconna_base&#45;&gt;alconna_analysis_parts</title><style>.edge>path:hover{stroke-width:8}</style>
<path fill="none" stroke="black" d="M414.16,-553.81C384.5,-514.51 352.39,-517.77 342.16,-469.61"/>
<path fill="none" stroke="black" d="M572.53,-632.41C525.92,-625.11 451.96,-605.9 414.16,-555.81"/>
</g>
<!-- alconna_component -->
<g id="node11" class="node">
<title>alconna_component</title><style>.edge>path:hover{stroke-width:8}</style>
<ellipse fill="#e90c0c" stroke="black" cx="302.16" cy="-554.81" rx="45.92" ry="21.43"/>
<text text-anchor="middle" x="302.16" y="-557.81" font-family="Helvetica,sans-Serif" font-size="10.00" fill="#ffffff">alconna.</text>
<text text-anchor="middle" x="302.16" y="-546.81" font-family="Helvetica,sans-Serif" font-size="10.00" fill="#ffffff">component</text>
</g>
<!-- alconna_base&#45;&gt;alconna_component -->
<g id="edge15" class="edge">
<title>alconna_base&#45;&gt;alconna_component</title><style>.edge>path:hover{stroke-width:8}</style>
<path fill="none" stroke="black" d="M577.33,-628.1C534.61,-617.91 462.11,-600.31 400.16,-583.8 383.74,-579.42 365.84,-574.39 349.89,-569.81"/>
<polygon fill="#ef0606" stroke="black" points="350.82,-566.43 340.24,-567.02 348.88,-573.16 350.82,-566.43"/>
</g>
<!-- alconna_base&#45;&gt;alconna_main -->
<g id="edge16" class="edge">
<title>alconna_base&#45;&gt;alconna_main</title><style>.edge>path:hover{stroke-width:8}</style>
<path fill="none" stroke="black" d="M613.9,-619.46C612.98,-596.92 609.27,-556.77 595.16,-525.82 581.77,-496.44 529.79,-495.43 549.16,-469.61"/>
</g>
<!-- alconna_builtin -->
<g id="node7" class="node">
<title>alconna_builtin</title><style>.edge>path:hover{stroke-width:8}</style>
<ellipse fill="#ce3b3b" stroke="black" cx="676.16" cy="-468.61" rx="37.45" ry="21.43"/>
<text text-anchor="middle" x="676.16" y="-471.61" font-family="Helvetica,sans-Serif" font-size="10.00" fill="#ffffff">alconna.</text>
<text text-anchor="middle" x="676.16" y="-460.61" font-family="Helvetica,sans-Serif" font-size="10.00" fill="#ffffff">builtin</text>
</g>
<!-- alconna_builtin&#45;&gt;alconna -->
<g id="edge17" class="edge">
<title>alconna_builtin&#45;&gt;alconna</title><style>.edge>path:hover{stroke-width:8}</style>
<path fill="none" stroke="black" d="M820.16,-272.4C844.98,-230.93 873.1,-228.48 878.16,-180.42"/>
<path fill="none" stroke="black" d="M693.02,-449.3C702.73,-438.52 714.98,-424.47 725.16,-411.39 770.68,-352.93 782.11,-337.98 820.16,-274.4"/>
<path fill="none" stroke="black" d="M878.16,-178.42C882.08,-141.2 896.55,-126.81 878.16,-94.21"/>
</g>
<!-- alconna_builtin&#45;&gt;alconna_main -->
<g id="edge18" class="edge">
<title>alconna_builtin&#45;&gt;alconna_main</title><style>.edge>path:hover{stroke-width:8}</style>
<path fill="none" stroke="black" d="M675.05,-447.21C674.62,-439.36 674.12,-430.26 673.66,-421.84"/>
<polygon fill="#ce3b3b" stroke="black" points="677.15,-421.5 673.11,-411.7 670.16,-421.88 677.15,-421.5"/>
</g>
<!-- alconna_builtin_actions -->
<g id="node8" class="node">
<title>alconna_builtin_actions</title><style>.edge>path:hover{stroke-width:8}</style>
<ellipse fill="#cc3333" stroke="black" cx="679.16" cy="-554.81" rx="37.45" ry="28.98"/>
<text text-anchor="middle" x="679.16" y="-563.31" font-family="Helvetica,sans-Serif" font-size="10.00" fill="#ffffff">alconna.</text>
<text text-anchor="middle" x="679.16" y="-552.31" font-family="Helvetica,sans-Serif" font-size="10.00" fill="#ffffff">builtin.</text>
<text text-anchor="middle" x="679.16" y="-541.31" font-family="Helvetica,sans-Serif" font-size="10.00" fill="#ffffff">actions</text>
</g>
<!-- alconna_builtin_actions&#45;&gt;alconna -->
<g id="edge19" class="edge">
<title>alconna_builtin_actions&#45;&gt;alconna</title><style>.edge>path:hover{stroke-width:8}</style>
<path fill="none" stroke="black" d="M700.27,-530.26C748.28,-474.43 862.67,-327.62 878.16,-180.42"/>
</g>
<!-- alconna_builtin_actions&#45;&gt;alconna_main -->
<g id="edge20" class="edge">
<title>alconna_builtin_actions&#45;&gt;alconna_main</title><style>.edge>path:hover{stroke-width:8}</style>
<path fill="none" stroke="black" d="M649.64,-536.65C610.18,-513.45 545.56,-474.4 549.16,-469.61"/>
</g>
<!-- alconna_builtin_analyser -->
<g id="node9" class="node">
<title>alconna_builtin_analyser</title><style>.edge>path:hover{stroke-width:8}</style>
<ellipse fill="#c24747" stroke="black" cx="549.16" cy="-554.81" rx="37.45" ry="28.98"/>
<text text-anchor="middle" x="549.16" y="-563.31" font-family="Helvetica,sans-Serif" font-size="10.00" fill="#ffffff">alconna.</text>
<text text-anchor="middle" x="549.16" y="-552.31" font-family="Helvetica,sans-Serif" font-size="10.00" fill="#ffffff">builtin.</text>
<text text-anchor="middle" x="549.16" y="-541.31" font-family="Helvetica,sans-Serif" font-size="10.00" fill="#ffffff">analyser</text>
</g>
<!-- alconna_builtin_analyser&#45;&gt;alconna_main -->
<g id="edge21" class="edge">
<title>alconna_builtin_analyser&#45;&gt;alconna_main</title><style>.edge>path:hover{stroke-width:8}</style>
<path fill="none" stroke="black" d="M541.3,-526.13C537.98,-508.28 537.23,-485.51 549.16,-469.61"/>
</g>
<!-- alconna_builtin_construct -->
<g id="node10" class="node">
<title>alconna_builtin_construct</title><style>.edge>path:hover{stroke-width:8}</style>
<ellipse fill="#c24747" stroke="black" cx="946.16" cy="-179.42" rx="40.11" ry="28.98"/>
<text text-anchor="middle" x="946.16" y="-187.92" font-family="Helvetica,sans-Serif" font-size="10.00" fill="#ffffff">alconna.</text>
<text text-anchor="middle" x="946.16" y="-176.92" font-family="Helvetica,sans-Serif" font-size="10.00" fill="#ffffff">builtin.</text>
<text text-anchor="middle" x="946.16" y="-165.92" font-family="Helvetica,sans-Serif" font-size="10.00" fill="#ffffff">construct</text>
</g>
<!-- alconna_builtin_construct&#45;&gt;alconna -->
<g id="edge22" class="edge">
<title>alconna_builtin_construct&#45;&gt;alconna</title><style>.edge>path:hover{stroke-width:8}</style>
<path fill="none" stroke="black" d="M923.62,-154.93C909.13,-138.84 890.72,-116.47 878.16,-94.21"/>
</g>
<!-- alconna_component&#45;&gt;alconna -->
<g id="edge23" class="edge">
<title>alconna_component&#45;&gt;alconna</title><style>.edge>path:hover{stroke-width:8}</style>
<path fill="none" stroke="black" d="M278.39,-536.4C236.1,-503.21 152.16,-426.39 152.16,-339.39 152.16,-339.39 152.16,-339.39 152.16,-272.4 152.16,-193.21 93.39,-147.29 152.16,-94.21"/>
</g>
<!-- alconna_component&#45;&gt;alconna_analysis -->
<g id="edge24" class="edge">
<title>alconna_component&#45;&gt;alconna_analysis</title><style>.edge>path:hover{stroke-width:8}</style>
<path fill="none" stroke="black" d="M333.61,-539.13C342.81,-534.83 352.89,-530.14 362.16,-525.82 390.15,-512.79 421.8,-498.08 445.71,-486.98"/>
<polygon fill="#e90c0c" stroke="black" points="447.2,-490.15 454.8,-482.77 444.25,-483.8 447.2,-490.15"/>
</g>
<!-- alconna_component&#45;&gt;alconna_analysis_analyser -->
<g id="edge25" class="edge">
<title>alconna_component&#45;&gt;alconna_analysis_analyser</title><style>.edge>path:hover{stroke-width:8}</style>
<path fill="none" stroke="black" d="M322.86,-535.85C334.88,-524.08 349.01,-507.62 356.16,-489.82 372,-450.38 338.13,-429.44 362.16,-394.39"/>
</g>
<!-- alconna_component&#45;&gt;alconna_analysis_parts -->
<g id="edge26" class="edge">
<title>alconna_component&#45;&gt;alconna_analysis_parts</title><style>.edge>path:hover{stroke-width:8}</style>
<path fill="none" stroke="black" d="M342.16,-467.61C335.2,-434.83 339.27,-424.3 324.16,-394.39"/>
<path fill="none" stroke="black" d="M319.39,-535C332.41,-518.51 347.24,-493.51 342.16,-469.61"/>
</g>
<!-- alconna_component&#45;&gt;alconna_main -->
<g id="edge27" class="edge">
<title>alconna_component&#45;&gt;alconna_main</title><style>.edge>path:hover{stroke-width:8}</style>
<path fill="none" stroke="black" d="M549.16,-467.61C569.64,-440.31 603.53,-421.23 630.56,-409.41"/>
<polygon fill="#e90c0c" stroke="black" points="631.94,-412.63 639.8,-405.53 629.23,-406.17 631.94,-412.63"/>
<path fill="none" stroke="black" d="M340.31,-542.86C358.43,-537.67 380.41,-531.4 400.16,-525.82 468.28,-506.59 506.69,-526.23 549.16,-469.61"/>
</g>
<!-- alconna_exceptions -->
<g id="node12" class="node">
<title>alconna_exceptions</title><style>.edge>path:hover{stroke-width:8}</style>
<ellipse fill="#f91010" stroke="black" cx="614.16" cy="-785.01" rx="45.01" ry="21.43"/>
<text text-anchor="middle" x="614.16" y="-788.01" font-family="Helvetica,sans-Serif" font-size="10.00" fill="#ffffff">alconna.</text>
<text text-anchor="middle" x="614.16" y="-777.01" font-family="Helvetica,sans-Serif" font-size="10.00" fill="#ffffff">exceptions</text>
</g>
<!-- alconna_exceptions&#45;&gt;alconna -->
<g id="edge28" class="edge">
<title>alconna_exceptions&#45;&gt;alconna</title><style>.edge>path:hover{stroke-width:8}</style>
<path fill="none" stroke="black" d="M0.16,-272.4C2.23,-219.41 57.28,-229.97 76.16,-180.42"/>
<path fill="none" stroke="black" d="M38.16,-338.39C34.8,-305.49 -1.13,-307.45 0.16,-274.4"/>
<path fill="none" stroke="black" d="M114.16,-467.61C107.7,-438.4 92.52,-437.06 77.16,-411.39 58.47,-380.16 41.85,-375.6 38.16,-339.39"/>
<path fill="none" stroke="black" d="M152.16,-92.21C208.71,-45.51 295.29,-28.48 345.14,-22.36"/>
<polygon fill="#f91010" stroke="black" points="345.66,-25.82 355.2,-21.21 344.86,-18.86 345.66,-25.82"/>
<path fill="none" stroke="black" d="M190.16,-636.8C181.87,-596.84 119.82,-510.02 114.16,-469.61"/>
<path fill="none" stroke="black" d="M76.16,-178.42C84.22,-157.26 141.68,-102.87 152.16,-94.21"/>
<path fill="none" stroke="black" d="M570.92,-778.42C464.51,-763.43 197.97,-718.07 190.16,-638.8"/>
</g>
<!-- alconna_exceptions&#45;&gt;alconna_analysis_analyser -->
<g id="edge29" class="edge">
<title>alconna_exceptions&#45;&gt;alconna_analysis_analyser</title><style>.edge>path:hover{stroke-width:8}</style>
<path fill="none" stroke="black" d="M190.16,-636.8C156.29,-481.47 346.23,-347.97 431.43,-296.75"/>
<polygon fill="#f91010" stroke="black" points="433.26,-299.73 440.07,-291.62 429.68,-293.72 433.26,-299.73"/>
</g>
<!-- alconna_exceptions&#45;&gt;alconna_analysis_arg_handlers -->
<g id="edge30" class="edge">
<title>alconna_exceptions&#45;&gt;alconna_analysis_arg_handlers</title><style>.edge>path:hover{stroke-width:8}</style>
<path fill="none" stroke="black" d="M896.16,-708.8C903.34,-641.18 896.16,-623.81 896.16,-555.81 896.16,-555.81 896.16,-555.81 896.16,-467.61 896.16,-370.75 839.45,-267.66 806.03,-215.31"/>
<polygon fill="#f91010" stroke="black" points="808.85,-213.23 800.48,-206.74 802.98,-217.04 808.85,-213.23"/>
</g>
<!-- alconna_exceptions&#45;&gt;alconna_analysis_parts -->
<g id="edge31" class="edge">
<title>alconna_exceptions&#45;&gt;alconna_analysis_parts</title><style>.edge>path:hover{stroke-width:8}</style>
<path fill="none" stroke="black" d="M248.16,-272.4C281.76,-243.13 325.81,-217.47 357.65,-200.75"/>
<polygon fill="#f91010" stroke="black" points="359.43,-203.77 366.7,-196.06 356.21,-197.55 359.43,-203.77"/>
<path fill="none" stroke="black" d="M114.16,-467.61C89.94,-365.95 169.37,-343.05 248.16,-274.4"/>
</g>
<!-- alconna_exceptions&#45;&gt;alconna_base -->
<g id="edge32" class="edge">
<title>alconna_exceptions&#45;&gt;alconna_base</title><style>.edge>path:hover{stroke-width:8}</style>
<path fill="none" stroke="black" d="M659.1,-781.5C737.4,-775.86 891.08,-758.71 896.16,-710.8"/>
<path fill="none" stroke="black" d="M896.16,-708.8C897.42,-696.97 743.63,-664.55 662.67,-648.32"/>
<polygon fill="#f91010" stroke="black" points="663.19,-644.86 652.7,-646.33 661.82,-651.72 663.19,-644.86"/>
</g>
<!-- alconna_exceptions&#45;&gt;alconna_manager -->
<g id="edge33" class="edge">
<title>alconna_exceptions&#45;&gt;alconna_manager</title><style>.edge>path:hover{stroke-width:8}</style>
<path fill="none" stroke="black" d="M38.16,-338.39C17.48,-192.87 240.12,-125.72 338.65,-103.28"/>
<polygon fill="#f91010" stroke="black" points="339.63,-106.65 348.63,-101.07 338.11,-99.82 339.63,-106.65"/>
</g>
<!-- alconna_types -->
<g id="node15" class="node">
<title>alconna_types</title><style>.edge>path:hover{stroke-width:8}</style>
<ellipse fill="#f90606" stroke="black" cx="614.16" cy="-709.8" rx="45.15" ry="18"/>
<text text-anchor="middle" x="614.16" y="-707.3" font-family="Helvetica,sans-Serif" font-size="10.00" fill="#ffffff">alconna.types</text>
</g>
<!-- alconna_exceptions&#45;&gt;alconna_types -->
<g id="edge34" class="edge">
<title>alconna_exceptions&#45;&gt;alconna_types</title><style>.edge>path:hover{stroke-width:8}</style>
<path fill="none" stroke="black" d="M614.16,-763.62C614.16,-755.77 614.16,-746.66 614.16,-738.25"/>
<polygon fill="#f91010" stroke="black" points="617.66,-738.11 614.16,-728.11 610.66,-738.11 617.66,-738.11"/>
</g>
<!-- alconna_main&#45;&gt;alconna -->
<g id="edge35" class="edge">
<title>alconna_main&#45;&gt;alconna</title><style>.edge>path:hover{stroke-width:8}</style>
<path fill="none" stroke="black" d="M673.55,-375.36C677.58,-327.56 689.9,-194.69 703.16,-180.42"/>
</g>
<!-- alconna_main&#45;&gt;alconna_analysis_analyser -->
<g id="edge37" class="edge">
<title>alconna_main&#45;&gt;alconna_analysis_analyser</title><style>.edge>path:hover{stroke-width:8}</style>
<path fill="none" stroke="black" d="M639.21,-373.05C603.81,-352.27 547.58,-319.26 510.04,-297.22"/>
<polygon fill="#9c1111" stroke="black" points="637.52,-376.12 647.92,-378.16 641.06,-370.08 637.52,-376.12"/>
<polygon fill="#9c1111" stroke="black" points="511.78,-294.19 501.39,-292.14 508.24,-300.23 511.78,-294.19"/>
</g>
<!-- alconna_main&#45;&gt;alconna_manager -->
<g id="edge38" class="edge">
<title>alconna_main&#45;&gt;alconna_manager</title><style>.edge>path:hover{stroke-width:8}</style>
<path fill="none" stroke="black" d="M667.71,-365.16C658.12,-315.26 630.82,-208.92 565.16,-150.43 528.1,-117.4 471.86,-103.78 431.91,-98.16"/>
<polygon fill="#9c1111" stroke="black" points="664.3,-365.98 669.54,-375.19 671.19,-364.72 664.3,-365.98"/>
<polygon fill="#9c1111" stroke="black" points="432.24,-94.67 421.88,-96.87 431.35,-101.62 432.24,-94.67"/>
</g>
<!-- alconna_manager&#45;&gt;alconna -->
<g id="edge39" class="edge">
<title>alconna_manager&#45;&gt;alconna</title><style>.edge>path:hover{stroke-width:8}</style>
<path fill="none" stroke="black" d="M384.16,-71.82C384.16,-63.97 384.16,-54.86 384.16,-46.45"/>
<polygon fill="#ac2b2b" stroke="black" points="387.66,-46.31 384.16,-36.31 380.66,-46.31 387.66,-46.31"/>
</g>
<!-- alconna_types&#45;&gt;alconna -->
<g id="edge41" class="edge">
<title>alconna_types&#45;&gt;alconna</title><style>.edge>path:hover{stroke-width:8}</style>
<path fill="none" stroke="black" d="M568.87,-708.85C473.78,-707.77 259.47,-698.61 228.16,-638.8"/>
<path fill="none" stroke="black" d="M228.16,-636.8C184.01,-552.46 177.7,-528.68 128.16,-447.39 97.43,-396.96 87.7,-385.56 52.16,-338.39 30.11,-309.12 0.82,-311.04 0.16,-274.4"/>
</g>
<!-- alconna_types&#45;&gt;alconna_analysis -->
<g id="edge42" class="edge">
<title>alconna_types&#45;&gt;alconna_analysis</title><style>.edge>path:hover{stroke-width:8}</style>
<path fill="none" stroke="black" d="M228.16,-636.8C199.21,-582 308.24,-621.87 357.16,-583.8 382.48,-564.1 376.99,-548.01 400.16,-525.82 414.55,-512.03 432.68,-499.33 448.32,-489.5"/>
<polygon fill="#f90606" stroke="black" points="450.5,-492.27 457.19,-484.06 446.84,-486.3 450.5,-492.27"/>
</g>
<!-- alconna_types&#45;&gt;alconna_analysis_analyser -->
<g id="edge43" class="edge">
<title>alconna_types&#45;&gt;alconna_analysis_analyser</title><style>.edge>path:hover{stroke-width:8}</style>
<path fill="none" stroke="black" d="M362.16,-392.39C387.31,-360.24 413.43,-372.6 437.16,-339.39"/>
<path fill="none" stroke="black" d="M437.16,-338.39C443.36,-329.72 449.18,-319.77 454.19,-310.35"/>
<polygon fill="#f90606" stroke="black" points="457.46,-311.66 458.92,-301.17 451.23,-308.46 457.46,-311.66"/>
<path fill="none" stroke="black" d="M304.16,-467.61C327.62,-433.35 336.58,-427.09 362.16,-394.39"/>
</g>
<!-- alconna_types&#45;&gt;alconna_analysis_arg_handlers -->
<g id="edge44" class="edge">
<title>alconna_types&#45;&gt;alconna_analysis_arg_handlers</title><style>.edge>path:hover{stroke-width:8}</style>
<path fill="none" stroke="black" d="M734.16,-636.8C741.22,-559.81 782.16,-546.92 782.16,-469.61 782.16,-469.61 782.16,-469.61 782.16,-338.39 782.16,-297.61 782.16,-250.91 782.16,-218.92"/>
<polygon fill="#f90606" stroke="black" points="785.66,-218.67 782.16,-208.67 778.66,-218.67 785.66,-218.67"/>
</g>
<!-- alconna_types&#45;&gt;alconna_analysis_parts -->
<g id="edge45" class="edge">
<title>alconna_types&#45;&gt;alconna_analysis_parts</title><style>.edge>path:hover{stroke-width:8}</style>
<path fill="none" stroke="black" d="M304.16,-467.61C323.22,-439.77 339.37,-424.5 324.16,-394.39"/>
<path fill="none" stroke="black" d="M324.16,-392.39C296.04,-336.71 199.09,-312.91 248.16,-274.4"/>
<path fill="none" stroke="black" d="M228.16,-553.81C233.91,-527.45 297.24,-479.71 304.16,-469.61"/>
</g>
<!-- alconna_types&#45;&gt;alconna_base -->
<g id="edge46" class="edge">
<title>alconna_types&#45;&gt;alconna_base</title><style>.edge>path:hover{stroke-width:8}</style>
<path fill="none" stroke="black" d="M614.16,-691.5C614.16,-683.78 614.16,-674.51 614.16,-665.91"/>
<polygon fill="#f90606" stroke="black" points="617.66,-665.91 614.16,-655.91 610.66,-665.91 617.66,-665.91"/>
</g>
<!-- alconna_types&#45;&gt;alconna_component -->
<g id="edge47" class="edge">
<title>alconna_types&#45;&gt;alconna_component</title><style>.edge>path:hover{stroke-width:8}</style>
<path fill="none" stroke="black" d="M228.16,-636.8C215.72,-613.25 238.95,-591.27 262.59,-576.16"/>
<polygon fill="#f90606" stroke="black" points="264.51,-579.09 271.25,-570.92 260.89,-573.1 264.51,-579.09"/>
</g>
<!-- alconna_types&#45;&gt;alconna_main -->
<g id="edge48" class="edge">
<title>alconna_types&#45;&gt;alconna_main</title><style>.edge>path:hover{stroke-width:8}</style>
<path fill="none" stroke="black" d="M655.16,-701.88C688.83,-693.53 731.43,-675.72 734.16,-638.8"/>
<path fill="none" stroke="black" d="M734.16,-636.8C741.92,-531.75 569.18,-665.88 503.16,-583.8 468.87,-541.16 515.82,-512.99 549.16,-469.61"/>
</g>
<!-- alconna_util -->
<g id="node16" class="node">
<title>alconna_util</title><style>.edge>path:hover{stroke-width:8}</style>
<ellipse fill="#d92626" stroke="black" cx="219.16" cy="-393.39" rx="38.7" ry="18"/>
<text text-anchor="middle" x="219.16" y="-390.89" font-family="Helvetica,sans-Serif" font-size="10.00" fill="#ffffff">alconna.util</text>
</g>
<!-- alconna_types&#45;&gt;alconna_util -->
<g id="edge49" class="edge">
<title>alconna_types&#45;&gt;alconna_util</title><style>.edge>path:hover{stroke-width:8}</style>
<path fill="none" stroke="black" d="M228.16,-553.81C237.81,-507.99 230.81,-453.24 224.93,-421.28"/>
<polygon fill="#f90606" stroke="black" points="228.34,-420.52 223,-411.37 221.47,-421.85 228.34,-420.52"/>
<path fill="none" stroke="black" d="M228.16,-636.8C211.47,-604.91 220.49,-590.98 228.16,-555.81"/>
</g>
<!-- alconna_util&#45;&gt;alconna -->
<g id="edge50" class="edge">
<title>alconna_util&#45;&gt;alconna</title><style>.edge>path:hover{stroke-width:8}</style>
<path fill="none" stroke="black" d="M200.16,-338.39C216.67,-250.67 29.25,-256.35 76.16,-180.42"/>
<path fill="none" stroke="black" d="M207.62,-375.87C201.79,-365.5 196.62,-351.8 200.16,-339.39"/>
</g>
<!-- alconna_util&#45;&gt;alconna_analysis_analyser -->
<g id="edge51" class="edge">
<title>alconna_util&#45;&gt;alconna_analysis_analyser</title><style>.edge>path:hover{stroke-width:8}</style>
<path fill="none" stroke="black" d="M200.16,-338.39C203.6,-316.16 345.32,-292.43 422.4,-281.13"/>
<polygon fill="#d92626" stroke="black" points="422.98,-284.58 432.38,-279.68 421.98,-277.65 422.98,-284.58"/>
</g>
<!-- alconna_util&#45;&gt;alconna_manager -->
<g id="edge52" class="edge">
<title>alconna_util&#45;&gt;alconna_manager</title><style>.edge>path:hover{stroke-width:8}</style>
<path fill="none" stroke="black" d="M200.16,-338.39C206.95,-294.49 210.34,-281.9 234.16,-244.41 267.13,-192.5 320.85,-144.45 354.26,-117.28"/>
<polygon fill="#d92626" stroke="black" points="356.68,-119.83 362.29,-110.84 352.3,-114.37 356.68,-119.83"/>
</g>
</g>
</svg>
