<?xml version="1.0" encoding="UTF-8" standalone="no"?>
<!DOCTYPE svg PUBLIC "-//W3C//DTD SVG 1.1//EN"
 "http://www.w3.org/Graphics/SVG/1.1/DTD/svg11.dtd">
<!-- Generated by graphviz version 2.49.3 (20211023.0002)
 -->
<!-- Title: G Pages: 1 -->
<svg width="1248pt" height="960pt"
 viewBox="0.00 0.00 1247.90 960.23" xmlns="http://www.w3.org/2000/svg" xmlns:xlink="http://www.w3.org/1999/xlink">
<g id="graph0" class="graph" transform="scale(1 1) rotate(0) translate(4 956.23)">
<title>G</title><style>.edge>path:hover{stroke-width:8}</style>
<polygon fill="white" stroke="transparent" points="-4,4 -4,-956.23 1243.9,-956.23 1243.9,4 -4,4"/>
<!-- alconna -->
<g id="node1" class="node">
<title>alconna</title><style>.edge>path:hover{stroke-width:8}</style>
<ellipse fill="#6b2e2e" stroke="black" cx="697.92" cy="-18" rx="29.37" ry="18"/>
<text text-anchor="middle" x="697.92" y="-15.5" font-family="Helvetica,sans-Serif" font-size="10.00" fill="#ffffff">alconna</text>
</g>
<!-- alconna_analysis -->
<g id="node2" class="node">
<title>alconna_analysis</title><style>.edge>path:hover{stroke-width:8}</style>
<ellipse fill="#ce3b3b" stroke="black" cx="940.92" cy="-562.59" rx="37.45" ry="21.43"/>
<text text-anchor="middle" x="940.92" y="-565.59" font-family="Helvetica,sans-Serif" font-size="10.00" fill="#ffffff">alconna.</text>
<text text-anchor="middle" x="940.92" y="-554.59" font-family="Helvetica,sans-Serif" font-size="10.00" fill="#ffffff">analysis</text>
</g>
<!-- alconna_analysis&#45;&gt;alconna -->
<g id="edge1" class="edge">
<title>alconna_analysis&#45;&gt;alconna</title><style>.edge>path:hover{stroke-width:8}</style>
<path fill="none" stroke="black" d="M966.13,-546.77C1006.69,-520.81 1081.92,-462.99 1081.92,-391.18 1081.92,-391.18 1081.92,-391.18 1081.92,-259.97 1081.92,-189.75 1135.57,-147.29 1081.92,-101.99"/>
</g>
<!-- alconna_core -->
<g id="node10" class="node">
<title>alconna_core</title><style>.edge>path:hover{stroke-width:8}</style>
<ellipse fill="#9b0808" stroke="black" cx="641.92" cy="-476.38" rx="42.27" ry="18"/>
<text text-anchor="middle" x="641.92" y="-473.88" font-family="Helvetica,sans-Serif" font-size="10.00" fill="#ffffff">alconna.core</text>
</g>
<!-- alconna_analysis&#45;&gt;alconna_core -->
<g id="edge2" class="edge">
<title>alconna_analysis&#45;&gt;alconna_core</title><style>.edge>path:hover{stroke-width:8}</style>
<path fill="none" stroke="black" d="M908.07,-552.34C854.04,-537.12 746.38,-506.8 685.86,-489.76"/>
<polygon fill="#ce3b3b" stroke="black" points="686.78,-486.38 676.21,-487.04 684.89,-493.12 686.78,-486.38"/>
</g>
<!-- alconna_analysis_analyser -->
<g id="node3" class="node">
<title>alconna_analysis_analyser</title><style>.edge>path:hover{stroke-width:8}</style>
<ellipse fill="#821717" stroke="black" cx="381.92" cy="-194.97" rx="39.7" ry="28.98"/>
<text text-anchor="middle" x="381.92" y="-203.47" font-family="Helvetica,sans-Serif" font-size="10.00" fill="#ffffff">alconna.</text>
<text text-anchor="middle" x="381.92" y="-192.47" font-family="Helvetica,sans-Serif" font-size="10.00" fill="#ffffff">analysis.</text>
<text text-anchor="middle" x="381.92" y="-181.47" font-family="Helvetica,sans-Serif" font-size="10.00" fill="#ffffff">analyser</text>
</g>
<!-- alconna_analysis_analyser&#45;&gt;alconna -->
<g id="edge3" class="edge">
<title>alconna_analysis_analyser&#45;&gt;alconna</title><style>.edge>path:hover{stroke-width:8}</style>
<path fill="none" stroke="black" d="M352.4,-175.19C328.93,-157.68 301.87,-130.1 313.92,-101.99"/>
</g>
<!-- alconna_analysis_parts -->
<g id="node5" class="node">
<title>alconna_analysis_parts</title><style>.edge>path:hover{stroke-width:8}</style>
<ellipse fill="#7a2828" stroke="black" cx="434.92" cy="-100.99" rx="39.7" ry="28.98"/>
<text text-anchor="middle" x="434.92" y="-109.49" font-family="Helvetica,sans-Serif" font-size="10.00" fill="#ffffff">alconna.</text>
<text text-anchor="middle" x="434.92" y="-98.49" font-family="Helvetica,sans-Serif" font-size="10.00" fill="#ffffff">analysis.</text>
<text text-anchor="middle" x="434.92" y="-87.49" font-family="Helvetica,sans-Serif" font-size="10.00" fill="#ffffff">parts</text>
</g>
<!-- alconna_analysis_analyser&#45;&gt;alconna_analysis_parts -->
<g id="edge4" class="edge">
<title>alconna_analysis_analyser&#45;&gt;alconna_analysis_parts</title><style>.edge>path:hover{stroke-width:8}</style>
<path fill="none" stroke="black" d="M402.02,-159.1C406.18,-151.88 410.56,-144.28 414.72,-137.06"/>
<polygon fill="#821717" stroke="black" points="398.93,-157.45 396.97,-167.86 404.99,-160.94 398.93,-157.45"/>
<polygon fill="#821717" stroke="black" points="417.88,-138.58 419.84,-128.17 411.81,-135.09 417.88,-138.58"/>
</g>
<!-- alconna_analysis_container -->
<g id="node4" class="node">
<title>alconna_analysis_container</title><style>.edge>path:hover{stroke-width:8}</style>
<ellipse fill="#ac2b2b" stroke="black" cx="237.92" cy="-476.38" rx="39.7" ry="28.98"/>
<text text-anchor="middle" x="237.92" y="-484.88" font-family="Helvetica,sans-Serif" font-size="10.00" fill="#ffffff">alconna.</text>
<text text-anchor="middle" x="237.92" y="-473.88" font-family="Helvetica,sans-Serif" font-size="10.00" fill="#ffffff">analysis.</text>
<text text-anchor="middle" x="237.92" y="-462.88" font-family="Helvetica,sans-Serif" font-size="10.00" fill="#ffffff">container</text>
</g>
<!-- alconna_analysis_container&#45;&gt;alconna -->
<g id="edge6" class="edge">
<title>alconna_analysis_container&#45;&gt;alconna</title><style>.edge>path:hover{stroke-width:8}</style>
<path fill="none" stroke="black" d="M207.89,-457.06C154.66,-422.04 52.39,-341.9 85.92,-260.97"/>
</g>
<!-- alconna_analysis_container&#45;&gt;alconna_analysis_analyser -->
<g id="edge7" class="edge">
<title>alconna_analysis_container&#45;&gt;alconna_analysis_analyser</title><style>.edge>path:hover{stroke-width:8}</style>
<path fill="none" stroke="black" d="M252.82,-449.3C282.71,-396.7 347.51,-281.2 351.92,-260.97"/>
<path fill="none" stroke="black" d="M351.92,-259.97C352.57,-249.88 355.9,-239.66 360.13,-230.43"/>
<polygon fill="#ac2b2b" stroke="black" points="363.4,-231.73 364.79,-221.22 357.15,-228.57 363.4,-231.73"/>
</g>
<!-- alconna_args -->
<g id="node6" class="node">
<title>alconna_args</title><style>.edge>path:hover{stroke-width:8}</style>
<ellipse fill="#c70505" stroke="black" cx="533.92" cy="-562.59" rx="42.27" ry="18"/>
<text text-anchor="middle" x="533.92" y="-560.09" font-family="Helvetica,sans-Serif" font-size="10.00" fill="#ffffff">alconna.args</text>
</g>
<!-- alconna_args&#45;&gt;alconna -->
<g id="edge9" class="edge">
<title>alconna_args&#45;&gt;alconna</title><style>.edge>path:hover{stroke-width:8}</style>
<path fill="none" stroke="black" d="M507.32,-548.4C488.39,-538.24 463.03,-522.98 443.92,-505.37 344.32,-413.6 304.53,-389.52 261.92,-260.97 238.54,-190.4 284.98,-170.46 313.92,-101.99"/>
</g>
<!-- alconna_args&#45;&gt;alconna_analysis_analyser -->
<g id="edge10" class="edge">
<title>alconna_args&#45;&gt;alconna_analysis_analyser</title><style>.edge>path:hover{stroke-width:8}</style>
<path fill="none" stroke="black" d="M457.92,-475.38C439.54,-444.64 426.3,-442.72 408.92,-411.39 382.57,-363.88 385.32,-347.71 365.92,-296.97 359.79,-280.93 350.83,-278.1 351.92,-260.97"/>
<path fill="none" stroke="black" d="M516.08,-546.23C498.89,-530.54 473.29,-504.66 457.92,-477.38"/>
</g>
<!-- alconna_args&#45;&gt;alconna_analysis_parts -->
<g id="edge11" class="edge">
<title>alconna_args&#45;&gt;alconna_analysis_parts</title><style>.edge>path:hover{stroke-width:8}</style>
<path fill="none" stroke="black" d="M533.92,-389.18C621.31,-243.86 949.54,-341.75 862.92,-195.97"/>
<path fill="none" stroke="black" d="M862.92,-193.97C804.56,-147.51 584.04,-118.22 484.37,-107.08"/>
<polygon fill="#c70505" stroke="black" points="484.58,-103.59 474.25,-105.97 483.81,-110.54 484.58,-103.59"/>
</g>
<!-- alconna_base -->
<g id="node8" class="node">
<title>alconna_base</title><style>.edge>path:hover{stroke-width:8}</style>
<ellipse fill="#cc0a0a" stroke="black" cx="461.92" cy="-390.18" rx="43.62" ry="18"/>
<text text-anchor="middle" x="461.92" y="-387.68" font-family="Helvetica,sans-Serif" font-size="10.00" fill="#ffffff">alconna.base</text>
</g>
<!-- alconna_args&#45;&gt;alconna_base -->
<g id="edge12" class="edge">
<title>alconna_args&#45;&gt;alconna_base</title><style>.edge>path:hover{stroke-width:8}</style>
<path fill="none" stroke="black" d="M457.92,-475.38C447.78,-458.43 449.45,-435.94 453.29,-418.47"/>
<polygon fill="#c70505" stroke="black" points="456.79,-418.89 455.87,-408.34 450.01,-417.16 456.79,-418.89"/>
</g>
<!-- alconna_args&#45;&gt;alconna_core -->
<g id="edge13" class="edge">
<title>alconna_args&#45;&gt;alconna_core</title><style>.edge>path:hover{stroke-width:8}</style>
<path fill="none" stroke="black" d="M553.23,-546.53C570.25,-533.27 595.24,-513.78 614.36,-498.87"/>
<polygon fill="#c70505" stroke="black" points="616.68,-501.5 622.42,-492.59 612.38,-495.98 616.68,-501.5"/>
</g>
<!-- alconna_output -->
<g id="node13" class="node">
<title>alconna_output</title><style>.edge>path:hover{stroke-width:8}</style>
<ellipse fill="#bf2121" stroke="black" cx="540.92" cy="-314.97" rx="47.19" ry="18"/>
<text text-anchor="middle" x="540.92" y="-312.47" font-family="Helvetica,sans-Serif" font-size="10.00" fill="#ffffff">alconna.output</text>
</g>
<!-- alconna_args&#45;&gt;alconna_output -->
<g id="edge14" class="edge">
<title>alconna_args&#45;&gt;alconna_output</title><style>.edge>path:hover{stroke-width:8}</style>
<path fill="none" stroke="black" d="M533.92,-389.18C540.97,-375.18 542.87,-357.78 542.94,-343.46"/>
<polygon fill="#c70505" stroke="black" points="546.43,-343.12 542.69,-333.21 539.43,-343.29 546.43,-343.12"/>
<path fill="none" stroke="black" d="M529.13,-544.47C521.15,-512.4 508.37,-441.91 533.92,-391.18"/>
</g>
<!-- alconna_arparma -->
<g id="node7" class="node">
<title>alconna_arparma</title><style>.edge>path:hover{stroke-width:8}</style>
<ellipse fill="#b62020" stroke="black" cx="902.92" cy="-390.18" rx="37.45" ry="21.43"/>
<text text-anchor="middle" x="902.92" y="-393.18" font-family="Helvetica,sans-Serif" font-size="10.00" fill="#ffffff">alconna.</text>
<text text-anchor="middle" x="902.92" y="-382.18" font-family="Helvetica,sans-Serif" font-size="10.00" fill="#ffffff">arparma</text>
</g>
<!-- alconna_arparma&#45;&gt;alconna -->
<g id="edge15" class="edge">
<title>alconna_arparma&#45;&gt;alconna</title><style>.edge>path:hover{stroke-width:8}</style>
<path fill="none" stroke="black" d="M917.63,-370.28C964.29,-309.81 1104.63,-123.72 1081.92,-101.99"/>
<path fill="none" stroke="black" d="M1081.92,-99.99C1029.71,-55.9 823.55,-31.18 736.76,-22.54"/>
<polygon fill="#b62020" stroke="black" points="737.08,-19.06 726.79,-21.57 736.4,-26.02 737.08,-19.06"/>
</g>
<!-- alconna_arparma&#45;&gt;alconna_analysis_analyser -->
<g id="edge16" class="edge">
<title>alconna_arparma&#45;&gt;alconna_analysis_analyser</title><style>.edge>path:hover{stroke-width:8}</style>
<path fill="none" stroke="black" d="M805.92,-259.97C676.15,-214.49 512.92,-201.33 432.07,-197.52"/>
<polygon fill="#b62020" stroke="black" points="431.83,-194 421.68,-197.06 431.52,-201 431.83,-194"/>
<path fill="none" stroke="black" d="M896.02,-369.26C883.77,-337.72 854.79,-278.09 805.92,-260.97"/>
</g>
<!-- alconna_base&#45;&gt;alconna -->
<g id="edge18" class="edge">
<title>alconna_base&#45;&gt;alconna</title><style>.edge>path:hover{stroke-width:8}</style>
<path fill="none" stroke="black" d="M440.73,-374.12C412.2,-352.58 362.22,-310.1 337.92,-260.97 306.25,-196.91 286.23,-167.86 313.92,-101.99"/>
</g>
<!-- alconna_base&#45;&gt;alconna_analysis_analyser -->
<g id="edge19" class="edge">
<title>alconna_base&#45;&gt;alconna_analysis_analyser</title><style>.edge>path:hover{stroke-width:8}</style>
<path fill="none" stroke="black" d="M466.05,-372.18C473.78,-339.87 489.55,-271.86 487.92,-260.97"/>
<path fill="none" stroke="black" d="M487.92,-259.97C485.86,-252.44 452,-232.84 423.1,-217.31"/>
<polygon fill="#cc0a0a" stroke="black" points="424.41,-214.04 413.94,-212.42 421.12,-220.21 424.41,-214.04"/>
</g>
<!-- alconna_base&#45;&gt;alconna_analysis_parts -->
<g id="edge20" class="edge">
<title>alconna_base&#45;&gt;alconna_analysis_parts</title><style>.edge>path:hover{stroke-width:8}</style>
<path fill="none" stroke="black" d="M487.92,-259.97C476.41,-217.92 460.09,-170.64 448.6,-138.85"/>
<polygon fill="#cc0a0a" stroke="black" points="451.77,-137.3 445.06,-129.1 445.19,-139.7 451.77,-137.3"/>
</g>
<!-- alconna_base&#45;&gt;alconna_output -->
<g id="edge22" class="edge">
<title>alconna_base&#45;&gt;alconna_output</title><style>.edge>path:hover{stroke-width:8}</style>
<path fill="none" stroke="black" d="M479.06,-373.29C489.93,-363.22 504.17,-350.02 516.25,-338.83"/>
<polygon fill="#cc0a0a" stroke="black" points="518.86,-341.19 523.81,-331.82 514.1,-336.05 518.86,-341.19"/>
</g>
<!-- alconna_config -->
<g id="node9" class="node">
<title>alconna_config</title><style>.edge>path:hover{stroke-width:8}</style>
<ellipse fill="#f91010" stroke="black" cx="579.92" cy="-641.01" rx="46.51" ry="18"/>
<text text-anchor="middle" x="579.92" y="-638.51" font-family="Helvetica,sans-Serif" font-size="10.00" fill="#ffffff">alconna.config</text>
</g>
<!-- alconna_config&#45;&gt;alconna -->
<g id="edge23" class="edge">
<title>alconna_config&#45;&gt;alconna</title><style>.edge>path:hover{stroke-width:8}</style>
<path fill="none" stroke="black" d="M616.92,-561.59C630.08,-537.41 596.84,-532.26 590.92,-505.37 585.38,-480.21 582.85,-471.87 590.92,-447.39 634.44,-315.39 863.24,-304.92 776.92,-195.97"/>
<path fill="none" stroke="black" d="M776.92,-193.97C695.17,-128.25 277.02,-200.19 313.92,-101.99"/>
</g>
<!-- alconna_config&#45;&gt;alconna_analysis_analyser -->
<g id="edge24" class="edge">
<title>alconna_config&#45;&gt;alconna_analysis_analyser</title><style>.edge>path:hover{stroke-width:8}</style>
<path fill="none" stroke="black" d="M616.92,-561.59C637.47,-524.94 674.01,-542.89 692.92,-505.37 729.8,-432.23 622.05,-297.12 621.92,-296.97 573.58,-238.64 485.7,-213.4 430.75,-202.92"/>
<polygon fill="#f91010" stroke="black" points="431.35,-199.48 420.89,-201.13 430.1,-206.36 431.35,-199.48"/>
</g>
<!-- alconna_config&#45;&gt;alconna_analysis_container -->
<g id="edge25" class="edge">
<title>alconna_config&#45;&gt;alconna_analysis_container</title><style>.edge>path:hover{stroke-width:8}</style>
<path fill="none" stroke="black" d="M548.63,-627.65C510.6,-612.6 444.5,-586.38 387.92,-563.59"/>
<path fill="none" stroke="black" d="M387.92,-561.59C347.76,-545.41 304.97,-520.54 275.42,-502.02"/>
<polygon fill="#f91010" stroke="black" points="277.01,-498.89 266.69,-496.49 273.26,-504.8 277.01,-498.89"/>
</g>
<!-- alconna_config&#45;&gt;alconna_analysis_parts -->
<g id="edge26" class="edge">
<title>alconna_config&#45;&gt;alconna_analysis_parts</title><style>.edge>path:hover{stroke-width:8}</style>
<path fill="none" stroke="black" d="M624.16,-635.1C696.95,-624.65 841.88,-593.44 921.92,-505.37 994.99,-424.99 967.06,-358.84 919.92,-260.97"/>
</g>
<!-- alconna_config&#45;&gt;alconna_args -->
<g id="edge27" class="edge">
<title>alconna_config&#45;&gt;alconna_args</title><style>.edge>path:hover{stroke-width:8}</style>
<path fill="none" stroke="black" d="M569.94,-623.43C563.85,-613.32 555.95,-600.19 549.1,-588.8"/>
<polygon fill="#f91010" stroke="black" points="552.04,-586.9 543.88,-580.14 546.04,-590.51 552.04,-586.9"/>
</g>
<!-- alconna_config&#45;&gt;alconna_arparma -->
<g id="edge28" class="edge">
<title>alconna_config&#45;&gt;alconna_arparma</title><style>.edge>path:hover{stroke-width:8}</style>
<path fill="none" stroke="black" d="M907.92,-475.38C914.9,-458.51 913.89,-438.1 911.02,-421.59"/>
<polygon fill="#f91010" stroke="black" points="914.37,-420.49 908.94,-411.39 907.51,-421.89 914.37,-420.49"/>
<path fill="none" stroke="black" d="M616.92,-561.59C682.76,-444.14 856.5,-601.82 907.92,-477.38"/>
</g>
<!-- alconna_config&#45;&gt;alconna_base -->
<g id="edge29" class="edge">
<title>alconna_config&#45;&gt;alconna_base</title><style>.edge>path:hover{stroke-width:8}</style>
<path fill="none" stroke="black" d="M616.92,-561.59C633.61,-529.44 582.73,-531.77 557.92,-505.37 529.96,-475.62 500.04,-439.21 481.17,-415.62"/>
<polygon fill="#f91010" stroke="black" points="483.7,-413.19 474.74,-407.55 478.23,-417.55 483.7,-413.19"/>
<path fill="none" stroke="black" d="M587.44,-623.02C594.54,-607.33 605.75,-583.52 616.92,-563.59"/>
</g>
<!-- alconna_config&#45;&gt;alconna_core -->
<g id="edge30" class="edge">
<title>alconna_config&#45;&gt;alconna_core</title><style>.edge>path:hover{stroke-width:8}</style>
<path fill="none" stroke="black" d="M616.92,-561.59C626.29,-543.54 632.68,-521.45 636.66,-504.43"/>
<polygon fill="#f91010" stroke="black" points="640.1,-505.08 638.82,-494.56 633.26,-503.58 640.1,-505.08"/>
</g>
<!-- alconna_core&#45;&gt;alconna -->
<g id="edge31" class="edge">
<title>alconna_core&#45;&gt;alconna</title><style>.edge>path:hover{stroke-width:8}</style>
<path fill="none" stroke="black" d="M668.5,-462.27C689.34,-450.99 718.05,-433.12 737.92,-411.39 789.32,-355.21 801.12,-334.75 819.92,-260.97 828.48,-227.4 800.81,-221.05 776.92,-195.97"/>
</g>
<!-- alconna_core&#45;&gt;alconna_analysis_analyser -->
<g id="edge32" class="edge">
<title>alconna_core&#45;&gt;alconna_analysis_analyser</title><style>.edge>path:hover{stroke-width:8}</style>
<path fill="none" stroke="black" d="M642.01,-447.97C640.71,-409.91 633.08,-340.83 596.92,-296.97 554.22,-245.16 478.89,-218.41 429.7,-205.79"/>
<polygon fill="#9b0808" stroke="black" points="638.51,-448.35 642.23,-458.27 645.51,-448.2 638.51,-448.35"/>
<polygon fill="#9b0808" stroke="black" points="430.47,-202.37 419.92,-203.38 428.79,-209.17 430.47,-202.37"/>
</g>
<!-- alconna_core&#45;&gt;alconna_arparma -->
<g id="edge33" class="edge">
<title>alconna_core&#45;&gt;alconna_arparma</title><style>.edge>path:hover{stroke-width:8}</style>
<path fill="none" stroke="black" d="M684.35,-461.7C733.17,-445.94 812.85,-420.24 861.32,-404.6"/>
<polygon fill="#9b0808" stroke="black" points="683.16,-458.4 674.71,-464.8 685.31,-465.06 683.16,-458.4"/>
<polygon fill="#9b0808" stroke="black" points="862.44,-407.92 870.88,-401.52 860.29,-401.26 862.44,-407.92"/>
</g>
<!-- alconna_core&#45;&gt;alconna_base -->
<g id="edge34" class="edge">
<title>alconna_core&#45;&gt;alconna_base</title><style>.edge>path:hover{stroke-width:8}</style>
<path fill="none" stroke="black" d="M605.4,-458.3C574.42,-443.81 530.18,-423.11 499.03,-408.54"/>
<polygon fill="#9b0808" stroke="black" points="604.04,-461.53 614.58,-462.59 607.01,-455.19 604.04,-461.53"/>
<polygon fill="#9b0808" stroke="black" points="500.36,-405.29 489.82,-404.23 497.39,-411.63 500.36,-405.29"/>
</g>
<!-- alconna_core&#45;&gt;alconna_output -->
<g id="edge35" class="edge">
<title>alconna_core&#45;&gt;alconna_output</title><style>.edge>path:hover{stroke-width:8}</style>
<path fill="none" stroke="black" d="M623.57,-451.07C614.9,-439.29 604.58,-424.81 595.92,-411.39 581.04,-388.33 565.56,-361.14 554.83,-341.69"/>
<polygon fill="#9b0808" stroke="black" points="620.78,-453.18 629.55,-459.13 626.4,-449.01 620.78,-453.18"/>
<polygon fill="#9b0808" stroke="black" points="557.84,-339.9 549.97,-332.82 551.7,-343.27 557.84,-339.9"/>
</g>
<!-- alconna_exceptions -->
<g id="node11" class="node">
<title>alconna_exceptions</title><style>.edge>path:hover{stroke-width:8}</style>
<ellipse fill="#f91010" stroke="black" cx="297.92" cy="-641.01" rx="45.01" ry="21.43"/>
<text text-anchor="middle" x="297.92" y="-644.01" font-family="Helvetica,sans-Serif" font-size="10.00" fill="#ffffff">alconna.</text>
<text text-anchor="middle" x="297.92" y="-633.01" font-family="Helvetica,sans-Serif" font-size="10.00" fill="#ffffff">exceptions</text>
</g>
<!-- alconna_exceptions&#45;&gt;alconna -->
<g id="edge36" class="edge">
<title>alconna_exceptions&#45;&gt;alconna</title><style>.edge>path:hover{stroke-width:8}</style>
<path fill="none" stroke="black" d="M85.92,-259.97C92.34,-245.96 308.5,-116.42 313.92,-101.99"/>
<path fill="none" stroke="black" d="M274.78,-622.44C221,-579.91 88.58,-465.17 41.92,-332.97 36.6,-317.88 35.07,-311.42 41.92,-296.97 52.74,-274.13 68.38,-279.15 85.92,-260.97"/>
<path fill="none" stroke="black" d="M313.92,-99.99C335.65,-34.36 564.22,-21.89 658.06,-19.54"/>
<polygon fill="#f91010" stroke="black" points="658.37,-23.03 668.29,-19.31 658.21,-16.03 658.37,-23.03"/>
</g>
<!-- alconna_exceptions&#45;&gt;alconna_analysis_analyser -->
<g id="edge37" class="edge">
<title>alconna_exceptions&#45;&gt;alconna_analysis_analyser</title><style>.edge>path:hover{stroke-width:8}</style>
<path fill="none" stroke="black" d="M199.92,-313.97C206.8,-273.36 240.21,-281.47 275.92,-260.97"/>
</g>
<!-- alconna_exceptions&#45;&gt;alconna_analysis_container -->
<g id="edge38" class="edge">
<title>alconna_exceptions&#45;&gt;alconna_analysis_container</title><style>.edge>path:hover{stroke-width:8}</style>
<path fill="none" stroke="black" d="M275.92,-561.59C273.57,-544.51 266.5,-526.94 259.08,-512.29"/>
<polygon fill="#f91010" stroke="black" points="261.99,-510.3 254.21,-503.12 255.81,-513.59 261.99,-510.3"/>
</g>
<!-- alconna_exceptions&#45;&gt;alconna_analysis_parts -->
<g id="edge39" class="edge">
<title>alconna_exceptions&#45;&gt;alconna_analysis_parts</title><style>.edge>path:hover{stroke-width:8}</style>
<path fill="none" stroke="black" d="M275.92,-561.59C261.02,-518.03 212.03,-545.19 188.92,-505.37 176.96,-484.76 189.53,-377.34 199.92,-315.97"/>
<path fill="none" stroke="black" d="M292.36,-619.83C288.04,-604.39 281.81,-582.58 275.92,-563.59"/>
<path fill="none" stroke="black" d="M199.92,-313.97C217.05,-242.04 221.3,-215.81 275.92,-165.98 307.14,-137.51 352.64,-120.94 386.97,-111.82"/>
<polygon fill="#f91010" stroke="black" points="387.96,-115.18 396.79,-109.34 386.24,-108.4 387.96,-115.18"/>
</g>
<!-- alconna_exceptions&#45;&gt;alconna_args -->
<g id="edge40" class="edge">
<title>alconna_exceptions&#45;&gt;alconna_args</title><style>.edge>path:hover{stroke-width:8}</style>
<path fill="none" stroke="black" d="M331.77,-626.87C338.42,-624.43 345.36,-621.96 351.92,-619.8 407.24,-601.58 422.5,-601.7 477.92,-583.8 483.09,-582.13 488.49,-580.3 493.81,-578.44"/>
<polygon fill="#f91010" stroke="black" points="494.99,-581.73 503.24,-575.09 492.65,-575.14 494.99,-581.73"/>
</g>
<!-- alconna_exceptions&#45;&gt;alconna_base -->
<g id="edge41" class="edge">
<title>alconna_exceptions&#45;&gt;alconna_base</title><style>.edge>path:hover{stroke-width:8}</style>
<path fill="none" stroke="black" d="M275.92,-561.59C265.12,-483.09 362.49,-430.43 420.53,-406.3"/>
<polygon fill="#f91010" stroke="black" points="421.88,-409.53 429.83,-402.53 419.25,-403.04 421.88,-409.53"/>
</g>
<!-- alconna_exceptions&#45;&gt;alconna_core -->
<g id="edge42" class="edge">
<title>alconna_exceptions&#45;&gt;alconna_core</title><style>.edge>path:hover{stroke-width:8}</style>
<path fill="none" stroke="black" d="M326.87,-624.36C374.91,-598.41 467.42,-548.6 482.92,-541.37 522.39,-522.97 568.7,-504.7 601.13,-492.42"/>
<polygon fill="#f91010" stroke="black" points="602.6,-495.6 610.73,-488.8 600.13,-489.05 602.6,-495.6"/>
</g>
<!-- alconna_model -->
<g id="node12" class="node">
<title>alconna_model</title><style>.edge>path:hover{stroke-width:8}</style>
<ellipse fill="#db2f2f" stroke="black" cx="832.92" cy="-476.38" rx="47.19" ry="18"/>
<text text-anchor="middle" x="832.92" y="-473.88" font-family="Helvetica,sans-Serif" font-size="10.00" fill="#ffffff">alconna.model</text>
</g>
<!-- alconna_model&#45;&gt;alconna_analysis_analyser -->
<g id="edge43" class="edge">
<title>alconna_model&#45;&gt;alconna_analysis_analyser</title><style>.edge>path:hover{stroke-width:8}</style>
<path fill="none" stroke="black" d="M822.51,-458.69C795.95,-417.63 721.3,-311.35 629.92,-259.97 566.7,-224.41 483.35,-208.18 431.2,-201.09"/>
<polygon fill="#db2f2f" stroke="black" points="431.57,-197.61 421.2,-199.79 430.66,-204.55 431.57,-197.61"/>
</g>
<!-- alconna_model&#45;&gt;alconna_analysis_parts -->
<g id="edge44" class="edge">
<title>alconna_model&#45;&gt;alconna_analysis_parts</title><style>.edge>path:hover{stroke-width:8}</style>
<path fill="none" stroke="black" d="M835.13,-458.32C838.26,-436.9 844.99,-399.28 856.92,-368.97 877.27,-317.26 939.4,-313.01 919.92,-260.97"/>
<path fill="none" stroke="black" d="M919.92,-259.97C903.4,-225.65 882.38,-228.72 862.92,-195.97"/>
</g>
<!-- alconna_model&#45;&gt;alconna_arparma -->
<g id="edge45" class="edge">
<title>alconna_model&#45;&gt;alconna_arparma</title><style>.edge>path:hover{stroke-width:8}</style>
<path fill="none" stroke="black" d="M846.75,-458.75C856.45,-447.08 869.63,-431.23 880.78,-417.81"/>
<polygon fill="#db2f2f" stroke="black" points="883.71,-419.76 887.42,-409.83 878.33,-415.28 883.71,-419.76"/>
</g>
<!-- alconna_output&#45;&gt;alconna -->
<g id="edge46" class="edge">
<title>alconna_output&#45;&gt;alconna</title><style>.edge>path:hover{stroke-width:8}</style>
<path fill="none" stroke="black" d="M534.51,-296.73C530.05,-285.77 523.56,-271.51 515.92,-259.97 484.85,-212.99 475.14,-200.87 430.92,-165.98 384.39,-129.27 290.56,-156.46 313.92,-101.99"/>
</g>
<!-- alconna_output&#45;&gt;alconna_analysis_analyser -->
<g id="edge47" class="edge">
<title>alconna_output&#45;&gt;alconna_analysis_analyser</title><style>.edge>path:hover{stroke-width:8}</style>
<path fill="none" stroke="black" d="M531.67,-297.31C524.64,-285.76 514.12,-270.61 501.92,-259.97 498.52,-256.99 456.26,-234.69 422.85,-217.24"/>
<polygon fill="#bf2121" stroke="black" points="424.18,-213.99 413.7,-212.46 420.94,-220.19 424.18,-213.99"/>
</g>
<!-- alconna_typing -->
<g id="node14" class="node">
<title>alconna_typing</title><style>.edge>path:hover{stroke-width:8}</style>
<ellipse fill="#f90606" stroke="black" cx="824.92" cy="-641.01" rx="47.19" ry="18"/>
<text text-anchor="middle" x="824.92" y="-638.51" font-family="Helvetica,sans-Serif" font-size="10.00" fill="#ffffff">alconna.typing</text>
</g>
<!-- alconna_typing&#45;&gt;alconna -->
<g id="edge49" class="edge">
<title>alconna_typing&#45;&gt;alconna</title><style>.edge>path:hover{stroke-width:8}</style>
<path fill="none" stroke="black" d="M1233.92,-259.97C1246.85,-218.84 1236.98,-199.54 1209.92,-165.98 1170,-116.47 1131.31,-142.07 1081.92,-101.99"/>
<path fill="none" stroke="black" d="M1119.92,-475.38C1127.15,-421.91 1221.69,-313.52 1233.92,-260.97"/>
</g>
<!-- alconna_typing&#45;&gt;alconna_analysis_analyser -->
<g id="edge50" class="edge">
<title>alconna_typing&#45;&gt;alconna_analysis_analyser</title><style>.edge>path:hover{stroke-width:8}</style>
<path fill="none" stroke="black" d="M1005.92,-561.59C1056.79,-409.39 960.12,-305.43 805.92,-260.97"/>
</g>
<!-- alconna_typing&#45;&gt;alconna_analysis_container -->
<g id="edge51" class="edge">
<title>alconna_typing&#45;&gt;alconna_analysis_container</title><style>.edge>path:hover{stroke-width:8}</style>
<path fill="none" stroke="black" d="M780.51,-634.64C684.2,-622.6 459.09,-592.26 387.92,-563.59"/>
</g>
<!-- alconna_typing&#45;&gt;alconna_analysis_parts -->
<g id="edge52" class="edge">
<title>alconna_typing&#45;&gt;alconna_analysis_parts</title><style>.edge>path:hover{stroke-width:8}</style>
<path fill="none" stroke="black" d="M870.17,-635.84C958.55,-625.2 1143.52,-589.4 1119.92,-477.38"/>
<path fill="none" stroke="black" d="M1043.92,-193.97C952.88,-131.81 613.38,-110.11 484.75,-104.02"/>
<polygon fill="#f90606" stroke="black" points="484.57,-100.51 474.41,-103.54 484.24,-107.5 484.57,-100.51"/>
<path fill="none" stroke="black" d="M1119.92,-475.38C1119.84,-467.34 1050.57,-200.51 1043.92,-195.97"/>
</g>
<!-- alconna_typing&#45;&gt;alconna_args -->
<g id="edge53" class="edge">
<title>alconna_typing&#45;&gt;alconna_args</title><style>.edge>path:hover{stroke-width:8}</style>
<path fill="none" stroke="black" d="M786.31,-630.7C741.93,-619.88 666.98,-601.29 602.92,-583.8 594.61,-581.53 585.77,-579.02 577.29,-576.56"/>
<polygon fill="#f90606" stroke="black" points="578.12,-573.15 567.54,-573.71 576.16,-579.87 578.12,-573.15"/>
</g>
<!-- alconna_typing&#45;&gt;alconna_arparma -->
<g id="edge54" class="edge">
<title>alconna_typing&#45;&gt;alconna_arparma</title><style>.edge>path:hover{stroke-width:8}</style>
<path fill="none" stroke="black" d="M1005.92,-561.59C1024.12,-507.12 885.99,-530.46 907.92,-477.38"/>
<path fill="none" stroke="black" d="M871.38,-638.05C918.9,-633.09 988.19,-616.64 1005.92,-563.59"/>
</g>
<!-- alconna_typing&#45;&gt;alconna_core -->
<g id="edge55" class="edge">
<title>alconna_typing&#45;&gt;alconna_core</title><style>.edge>path:hover{stroke-width:8}</style>
<path fill="none" stroke="black" d="M780.19,-634.92C738.39,-627.4 678.95,-608.9 654.92,-563.59"/>
</g>
<!-- alconna_util -->
<g id="node15" class="node">
<title>alconna_util</title><style>.edge>path:hover{stroke-width:8}</style>
<ellipse fill="#db2f2f" stroke="black" cx="399.92" cy="-641.01" rx="38.7" ry="18"/>
<text text-anchor="middle" x="399.92" y="-638.51" font-family="Helvetica,sans-Serif" font-size="10.00" fill="#ffffff">alconna.util</text>
</g>
<!-- alconna_util&#45;&gt;alconna_analysis_container -->
<g id="edge56" class="edge">
<title>alconna_util&#45;&gt;alconna_analysis_container</title><style>.edge>path:hover{stroke-width:8}</style>
<path fill="none" stroke="black" d="M379.35,-625.56C360.44,-611.46 332.59,-588.54 313.92,-563.59"/>
<path fill="none" stroke="black" d="M313.92,-561.59C299.83,-542.75 282.34,-523.16 267.69,-507.62"/>
<polygon fill="#db2f2f" stroke="black" points="270.19,-505.17 260.76,-500.34 265.12,-509.99 270.19,-505.17"/>
</g>
<!-- alconna_util&#45;&gt;alconna_analysis_parts -->
<g id="edge57" class="edge">
<title>alconna_util&#45;&gt;alconna_analysis_parts</title><style>.edge>path:hover{stroke-width:8}</style>
<path fill="none" stroke="black" d="M313.92,-561.59C303.74,-547.97 256.52,-276.09 261.92,-259.97 283.39,-195.93 349.8,-148.5 393.82,-123.07"/>
<polygon fill="#db2f2f" stroke="black" points="395.58,-126.1 402.57,-118.14 392.14,-120 395.58,-126.1"/>
</g>
<!-- alconna_util&#45;&gt;alconna_args -->
<g id="edge58" class="edge">
<title>alconna_util&#45;&gt;alconna_args</title><style>.edge>path:hover{stroke-width:8}</style>
<path fill="none" stroke="black" d="M423.57,-626.53C445.02,-614.29 476.87,-596.13 500.84,-582.46"/>
<polygon fill="#db2f2f" stroke="black" points="502.65,-585.45 509.61,-577.46 499.19,-579.37 502.65,-585.45"/>
</g>
<!-- nepattern -->
<g id="node16" class="node">
<title>nepattern</title><style>.edge>path:hover{stroke-width:8}</style>
<ellipse fill="#06f906" stroke="black" cx="566.92" cy="-753.23" rx="33.61" ry="18"/>
<text text-anchor="middle" x="566.92" y="-750.73" font-family="Helvetica,sans-Serif" font-size="10.00" fill="#000000">nepattern</text>
</g>
<!-- nepattern&#45;&gt;alconna -->
<g id="edge59" class="edge">
<title>nepattern&#45;&gt;alconna</title><style>.edge>path:hover{stroke-width:8}</style>
<path fill="none" stroke="black" d="M1157.92,-561.59C1205.66,-473.01 1232.82,-287.63 1233.92,-260.97"/>
</g>
<!-- nepattern&#45;&gt;alconna_analysis_analyser -->
<g id="edge60" class="edge">
<title>nepattern&#45;&gt;alconna_analysis_analyser</title><style>.edge>path:hover{stroke-width:8}</style>
<path fill="none" stroke="black" d="M542.71,-740.44C526.1,-731.25 504.66,-717.08 490.92,-699.23 459.77,-658.74 340.27,-310.71 351.92,-260.97"/>
</g>
<!-- nepattern&#45;&gt;alconna_analysis_parts -->
<g id="edge61" class="edge">
<title>nepattern&#45;&gt;alconna_analysis_parts</title><style>.edge>path:hover{stroke-width:8}</style>
<path fill="none" stroke="black" d="M1157.92,-561.59C1197.04,-486 1116.67,-240.15 1043.92,-195.97"/>
<path fill="none" stroke="black" d="M1110.92,-640.01C1140.92,-613.75 1139.01,-598.69 1157.92,-563.59"/>
</g>
<!-- nepattern&#45;&gt;alconna_args -->
<g id="edge62" class="edge">
<title>nepattern&#45;&gt;alconna_args</title><style>.edge>path:hover{stroke-width:8}</style>
<path fill="none" stroke="black" d="M542.4,-740.68C527.29,-731.84 509.88,-717.98 504.92,-699.23"/>
</g>
<!-- nepattern&#45;&gt;alconna_arparma -->
<g id="edge63" class="edge">
<title>nepattern&#45;&gt;alconna_arparma</title><style>.edge>path:hover{stroke-width:8}</style>
<path fill="none" stroke="black" d="M1110.92,-640.01C1181.75,-552.9 1016.06,-450.53 939.32,-409.52"/>
<polygon fill="#06f906" stroke="black" points="940.91,-406.4 930.43,-404.83 937.64,-412.59 940.91,-406.4"/>
<path fill="none" stroke="black" d="M824.92,-698.23C941.7,-642.15 1013.46,-727.35 1110.92,-642.01"/>
</g>
<!-- nepattern&#45;&gt;alconna_output -->
<g id="edge64" class="edge">
<title>nepattern&#45;&gt;alconna_output</title><style>.edge>path:hover{stroke-width:8}</style>
<path fill="none" stroke="black" d="M824.92,-698.23C851.6,-685.42 787.29,-685.42 768.92,-662.23 706.05,-582.82 750.02,-531.04 692.92,-447.39 660.7,-400.18 607.45,-359.56 573.3,-336.44"/>
<polygon fill="#06f906" stroke="black" points="574.89,-333.3 564.63,-330.67 571.01,-339.12 574.89,-333.3"/>
<path fill="none" stroke="black" d="M600.26,-750.38C650.98,-746.5 749.62,-734.65 824.92,-699.23"/>
</g>
<!-- nepattern&#45;&gt;alconna_typing -->
<g id="edge65" class="edge">
<title>nepattern&#45;&gt;alconna_typing</title><style>.edge>path:hover{stroke-width:8}</style>
<path fill="none" stroke="black" d="M824.92,-698.23C835.44,-693.18 836.13,-680.59 833.89,-668.6"/>
<polygon fill="#06f906" stroke="black" points="837.27,-667.71 831.46,-658.85 830.48,-669.4 837.27,-667.71"/>
</g>
<!-- nepattern_util -->
<g id="node17" class="node">
<title>nepattern_util</title><style>.edge>path:hover{stroke-width:8}</style>
<ellipse fill="#33cc33" stroke="black" cx="126.92" cy="-825.23" rx="42.94" ry="18"/>
<text text-anchor="middle" x="126.92" y="-822.73" font-family="Helvetica,sans-Serif" font-size="10.00" fill="#000000">nepattern.util</text>
</g>
<!-- nepattern_util&#45;&gt;alconna_analysis_analyser -->
<g id="edge66" class="edge">
<title>nepattern_util&#45;&gt;alconna_analysis_analyser</title><style>.edge>path:hover{stroke-width:8}</style>
<path fill="none" stroke="black" d="M119.43,-807.21C109.7,-783.5 93.92,-738.95 93.92,-699.23 93.92,-699.23 93.92,-699.23 93.92,-561.59 93.92,-437.07 99.92,-387.01 185.92,-296.97 215.68,-265.81 238.56,-282.41 275.92,-260.97"/>
<path fill="none" stroke="black" d="M275.92,-259.97C298.14,-246.41 323.06,-231.36 343.15,-219.27"/>
<polygon fill="#33cc33" stroke="black" points="344.96,-222.26 351.72,-214.11 341.35,-216.26 344.96,-222.26"/>
</g>
<!-- nepattern_util&#45;&gt;alconna_analysis_parts -->
<g id="edge67" class="edge">
<title>nepattern_util&#45;&gt;alconna_analysis_parts</title><style>.edge>path:hover{stroke-width:8}</style>
<path fill="none" stroke="black" d="M169.82,-823.8C369.23,-821.26 1195.92,-804.39 1195.92,-699.23 1195.92,-699.23 1195.92,-699.23 1195.92,-259.97 1195.92,-114.25 654.27,-101.96 484.91,-101.68"/>
<polygon fill="#33cc33" stroke="black" points="484.77,-98.18 474.77,-101.68 484.77,-105.18 484.77,-98.18"/>
</g>
<!-- nepattern_util&#45;&gt;nepattern -->
<g id="edge68" class="edge">
<title>nepattern_util&#45;&gt;nepattern</title><style>.edge>path:hover{stroke-width:8}</style>
<path fill="none" stroke="black" d="M168.93,-821.4C241.26,-815.9 393.6,-801.55 518.92,-771.23 522.98,-770.25 527.18,-769.05 531.32,-767.74"/>
<polygon fill="#33cc33" stroke="black" points="532.44,-771.06 540.81,-764.57 530.22,-764.42 532.44,-771.06"/>
</g>
<!-- typing_extensions -->
<g id="node18" class="node">
<title>typing_extensions</title><style>.edge>path:hover{stroke-width:8}</style>
<ellipse fill="#1616f3" stroke="black" cx="55.92" cy="-934.23" rx="55.85" ry="18"/>
<text text-anchor="middle" x="55.92" y="-931.73" font-family="Helvetica,sans-Serif" font-size="10.00" fill="#ffffff">typing_extensions</text>
</g>
<!-- typing_extensions&#45;&gt;alconna_analysis_analyser -->
<g id="edge69" class="edge">
<title>typing_extensions&#45;&gt;alconna_analysis_analyser</title><style>.edge>path:hover{stroke-width:8}</style>
<path fill="none" stroke="black" d="M55.92,-824.23C88.66,-779.34 55.92,-754.78 55.92,-699.23 55.92,-699.23 55.92,-699.23 55.92,-389.18 55.92,-262.01 241.79,-216.73 332.84,-202.18"/>
<polygon fill="#1616f3" stroke="black" points="333.57,-205.61 342.92,-200.63 332.51,-198.69 333.57,-205.61"/>
</g>
<!-- typing_extensions&#45;&gt;alconna_analysis_container -->
<g id="edge70" class="edge">
<title>typing_extensions&#45;&gt;alconna_analysis_container</title><style>.edge>path:hover{stroke-width:8}</style>
<path fill="none" stroke="black" d="M237.92,-561.59C235.01,-546.7 234.45,-530.04 234.83,-515.49"/>
<polygon fill="#1616f3" stroke="black" points="238.33,-515.46 235.25,-505.33 231.34,-515.18 238.33,-515.46"/>
</g>
<!-- typing_extensions&#45;&gt;alconna_args -->
<g id="edge71" class="edge">
<title>typing_extensions&#45;&gt;alconna_args</title><style>.edge>path:hover{stroke-width:8}</style>
<path fill="none" stroke="black" d="M504.92,-698.23C495.01,-660.76 509.28,-616.76 521.08,-589.52"/>
<polygon fill="#1616f3" stroke="black" points="524.32,-590.84 525.26,-580.29 517.95,-587.95 524.32,-590.84"/>
<path fill="none" stroke="black" d="M504.92,-752.23C513.04,-730.11 510.75,-722.05 504.92,-699.23"/>
</g>
<!-- typing_extensions&#45;&gt;alconna_base -->
<g id="edge72" class="edge">
<title>typing_extensions&#45;&gt;alconna_base</title><style>.edge>path:hover{stroke-width:8}</style>
<path fill="none" stroke="black" d="M55.92,-824.23C62.6,-815.07 64.61,-811.91 74.92,-807.23 162.59,-767.42 464.27,-841.5 504.92,-754.23"/>
<path fill="none" stroke="black" d="M504.92,-752.23C556.73,-641 318.16,-759.93 243.92,-662.23 217.35,-627.26 246.37,-606.69 237.92,-563.59"/>
<path fill="none" stroke="black" d="M237.92,-561.59C228.7,-529.75 200.7,-536.35 188.92,-505.37 179.76,-481.29 172.64,-467.37 188.92,-447.39 216.13,-414.01 337.48,-399.87 408.91,-394.36"/>
<polygon fill="#1616f3" stroke="black" points="409.35,-397.83 419.07,-393.6 408.84,-390.85 409.35,-397.83"/>
<path fill="none" stroke="black" d="M55.92,-879.23C62.63,-856.65 42.04,-845.26 55.92,-826.23"/>
<path fill="none" stroke="black" d="M53.49,-916.16C52.57,-905.6 52.47,-891.87 55.92,-880.23"/>
</g>
<!-- typing_extensions&#45;&gt;alconna_core -->
<g id="edge73" class="edge">
<title>typing_extensions&#45;&gt;alconna_core</title><style>.edge>path:hover{stroke-width:8}</style>
<path fill="none" stroke="black" d="M504.92,-752.23C529.27,-685.92 596.52,-720.86 635.92,-662.23 660.83,-625.17 675.84,-603.03 654.92,-563.59"/>
<path fill="none" stroke="black" d="M654.92,-561.59C645.87,-544.14 642.71,-522.12 641.77,-504.97"/>
<polygon fill="#1616f3" stroke="black" points="645.25,-504.38 641.43,-494.5 638.26,-504.61 645.25,-504.38"/>
</g>
<!-- typing_extensions&#45;&gt;nepattern_util -->
<g id="edge74" class="edge">
<title>typing_extensions&#45;&gt;nepattern_util</title><style>.edge>path:hover{stroke-width:8}</style>
<path fill="none" stroke="black" d="M55.92,-879.23C60.59,-863.5 73.69,-851.68 87.39,-843.24"/>
<polygon fill="#1616f3" stroke="black" points="89.39,-846.13 96.39,-838.18 85.96,-840.03 89.39,-846.13"/>
</g>
</g>
</svg>
