<?xml version="1.0" encoding="UTF-8" standalone="no"?>
<!DOCTYPE svg PUBLIC "-//W3C//DTD SVG 1.1//EN"
 "http://www.w3.org/Graphics/SVG/1.1/DTD/svg11.dtd">
<!-- Generated by graphviz version 2.49.3 (20211023.0002)
 -->
<!-- Title: G Pages: 1 -->
<svg width="1111pt" height="878pt"
 viewBox="0.00 0.00 1110.86 877.64" xmlns="http://www.w3.org/2000/svg" xmlns:xlink="http://www.w3.org/1999/xlink">
<g id="graph0" class="graph" transform="scale(1 1) rotate(0) translate(4 873.64)">
<title>G</title><style>.edge>path:hover{stroke-width:8}</style>
<polygon fill="white" stroke="transparent" points="-4,4 -4,-873.64 1106.86,-873.64 1106.86,4 -4,4"/>
<!-- alconna -->
<g id="node1" class="node">
<title>alconna</title><style>.edge>path:hover{stroke-width:8}</style>
<ellipse fill="#6b2e2e" stroke="black" cx="630.53" cy="-18" rx="29.37" ry="18"/>
<text text-anchor="middle" x="630.53" y="-15.5" font-family="Helvetica,sans-Serif" font-size="10.00" fill="#ffffff">alconna</text>
</g>
<!-- alconna_analysis -->
<g id="node2" class="node">
<title>alconna_analysis</title><style>.edge>path:hover{stroke-width:8}</style>
<ellipse fill="#9c1b1b" stroke="black" cx="445.53" cy="-510.03" rx="37.45" ry="21.43"/>
<text text-anchor="middle" x="445.53" y="-513.03" font-family="Helvetica,sans-Serif" font-size="10.00" fill="#ffffff">alconna.</text>
<text text-anchor="middle" x="445.53" y="-502.03" font-family="Helvetica,sans-Serif" font-size="10.00" fill="#ffffff">analysis</text>
</g>
<!-- alconna_analysis&#45;&gt;alconna -->
<g id="edge1" class="edge">
<title>alconna_analysis&#45;&gt;alconna</title><style>.edge>path:hover{stroke-width:8}</style>
<path fill="none" stroke="black" d="M438.95,-489.06C426.47,-448.31 402.01,-352.84 418.53,-274.4"/>
</g>
<!-- alconna_main -->
<g id="node15" class="node">
<title>alconna_main</title><style>.edge>path:hover{stroke-width:8}</style>
<ellipse fill="#950303" stroke="black" cx="661.53" cy="-434.82" rx="43.62" ry="18"/>
<text text-anchor="middle" x="661.53" y="-432.32" font-family="Helvetica,sans-Serif" font-size="10.00" fill="#ffffff">alconna.main</text>
</g>
<!-- alconna_analysis&#45;&gt;alconna_main -->
<g id="edge2" class="edge">
<title>alconna_analysis&#45;&gt;alconna_main</title><style>.edge>path:hover{stroke-width:8}</style>
<path fill="none" stroke="black" d="M486.45,-495.16C524.43,-482.29 580.74,-463.2 619.18,-450.18"/>
<polygon fill="#9c1b1b" stroke="black" points="485.29,-491.86 476.94,-498.39 487.54,-498.49 485.29,-491.86"/>
<polygon fill="#9c1b1b" stroke="black" points="620.68,-453.36 629.03,-446.84 618.43,-446.73 620.68,-453.36"/>
</g>
<!-- alconna_manager -->
<g id="node16" class="node">
<title>alconna_manager</title><style>.edge>path:hover{stroke-width:8}</style>
<ellipse fill="#b62020" stroke="black" cx="630.53" cy="-93.21" rx="38.37" ry="21.43"/>
<text text-anchor="middle" x="630.53" y="-96.21" font-family="Helvetica,sans-Serif" font-size="10.00" fill="#ffffff">alconna.</text>
<text text-anchor="middle" x="630.53" y="-85.21" font-family="Helvetica,sans-Serif" font-size="10.00" fill="#ffffff">manager</text>
</g>
<!-- alconna_analysis&#45;&gt;alconna_manager -->
<g id="edge3" class="edge">
<title>alconna_analysis&#45;&gt;alconna_manager</title><style>.edge>path:hover{stroke-width:8}</style>
<path fill="none" stroke="black" d="M456.53,-178.42C472.42,-126.83 537.02,-106.83 582.86,-99.08"/>
<polygon fill="#9c1b1b" stroke="black" points="583.56,-102.52 592.91,-97.53 582.49,-95.6 583.56,-102.52"/>
<path fill="none" stroke="black" d="M442.62,-488.8C435.83,-436.4 422.02,-292.53 456.53,-180.42"/>
</g>
<!-- alconna_analysis_analyser -->
<g id="node3" class="node">
<title>alconna_analysis_analyser</title><style>.edge>path:hover{stroke-width:8}</style>
<ellipse fill="#c20a0a" stroke="black" cx="562.53" cy="-273.4" rx="39.7" ry="28.98"/>
<text text-anchor="middle" x="562.53" y="-281.9" font-family="Helvetica,sans-Serif" font-size="10.00" fill="#ffffff">alconna.</text>
<text text-anchor="middle" x="562.53" y="-270.9" font-family="Helvetica,sans-Serif" font-size="10.00" fill="#ffffff">analysis.</text>
<text text-anchor="middle" x="562.53" y="-259.9" font-family="Helvetica,sans-Serif" font-size="10.00" fill="#ffffff">analyser</text>
</g>
<!-- alconna_analysis_analyser&#45;&gt;alconna_analysis -->
<g id="edge4" class="edge">
<title>alconna_analysis_analyser&#45;&gt;alconna_analysis</title><style>.edge>path:hover{stroke-width:8}</style>
<path fill="none" stroke="black" d="M547.72,-300.49C541.21,-314.05 534.64,-331.35 532.94,-348.53"/>
<polygon fill="#c20a0a" stroke="black" points="529.44,-348.47 532.53,-358.61 536.43,-348.75 529.44,-348.47"/>
</g>
<!-- alconna_analysis_arg_handlers -->
<g id="node4" class="node">
<title>alconna_analysis_arg_handlers</title><style>.edge>path:hover{stroke-width:8}</style>
<ellipse fill="#b03a3a" stroke="black" cx="883.53" cy="-179.42" rx="50.82" ry="28.98"/>
<text text-anchor="middle" x="883.53" y="-187.92" font-family="Helvetica,sans-Serif" font-size="10.00" fill="#ffffff">alconna.</text>
<text text-anchor="middle" x="883.53" y="-176.92" font-family="Helvetica,sans-Serif" font-size="10.00" fill="#ffffff">analysis.</text>
<text text-anchor="middle" x="883.53" y="-165.92" font-family="Helvetica,sans-Serif" font-size="10.00" fill="#ffffff">arg_handlers</text>
</g>
<!-- alconna_analysis_analyser&#45;&gt;alconna_analysis_arg_handlers -->
<g id="edge5" class="edge">
<title>alconna_analysis_analyser&#45;&gt;alconna_analysis_arg_handlers</title><style>.edge>path:hover{stroke-width:8}</style>
<path fill="none" stroke="black" d="M600.82,-265.46C652.3,-255.58 746.3,-235.6 823.53,-208.41 827.97,-206.85 832.53,-205.07 837.05,-203.18"/>
<polygon fill="#c20a0a" stroke="black" points="838.46,-206.38 846.24,-199.19 835.67,-199.96 838.46,-206.38"/>
</g>
<!-- alconna_analysis_parts -->
<g id="node5" class="node">
<title>alconna_analysis_parts</title><style>.edge>path:hover{stroke-width:8}</style>
<ellipse fill="#a13535" stroke="black" cx="350.53" cy="-179.42" rx="39.7" ry="28.98"/>
<text text-anchor="middle" x="350.53" y="-187.92" font-family="Helvetica,sans-Serif" font-size="10.00" fill="#ffffff">alconna.</text>
<text text-anchor="middle" x="350.53" y="-176.92" font-family="Helvetica,sans-Serif" font-size="10.00" fill="#ffffff">analysis.</text>
<text text-anchor="middle" x="350.53" y="-165.92" font-family="Helvetica,sans-Serif" font-size="10.00" fill="#ffffff">parts</text>
</g>
<!-- alconna_analysis_analyser&#45;&gt;alconna_analysis_parts -->
<g id="edge6" class="edge">
<title>alconna_analysis_analyser&#45;&gt;alconna_analysis_parts</title><style>.edge>path:hover{stroke-width:8}</style>
<path fill="none" stroke="black" d="M528.94,-257.83C492.3,-241.93 433.54,-216.43 393.55,-199.08"/>
<polygon fill="#c20a0a" stroke="black" points="394.89,-195.85 384.32,-195.08 392.1,-202.27 394.89,-195.85"/>
</g>
<!-- alconna_analysis_analyser&#45;&gt;alconna_manager -->
<g id="edge8" class="edge">
<title>alconna_analysis_analyser&#45;&gt;alconna_manager</title><style>.edge>path:hover{stroke-width:8}</style>
<path fill="none" stroke="black" d="M527.07,-260.23C491.87,-245.78 444.74,-218.72 456.53,-180.42"/>
</g>
<!-- alconna_analysis_arg_handlers&#45;&gt;alconna_analysis -->
<g id="edge9" class="edge">
<title>alconna_analysis_arg_handlers&#45;&gt;alconna_analysis</title><style>.edge>path:hover{stroke-width:8}</style>
<path fill="none" stroke="black" d="M532.53,-360.61C531.8,-402.95 530.61,-416.68 508.53,-452.82 498.6,-469.08 482.51,-483.32 469.07,-493.4"/>
<path fill="none" stroke="black" d="M846.8,-199.8C839.27,-203.13 831.27,-206.22 823.53,-208.41 756.81,-227.31 559.66,-192.62 513.53,-244.41 481.65,-280.21 524.63,-303.77 531.62,-348.42"/>
<polygon fill="#b03a3a" stroke="black" points="528.15,-348.96 532.53,-358.61 535.13,-348.33 528.15,-348.96"/>
</g>
<!-- alconna_analysis_parts&#45;&gt;alconna_analysis -->
<g id="edge10" class="edge">
<title>alconna_analysis_parts&#45;&gt;alconna_analysis</title><style>.edge>path:hover{stroke-width:8}</style>
<path fill="none" stroke="black" d="M352.12,-208.67C355.83,-259.51 367.77,-368.91 404.53,-452.82 409.12,-463.3 415.93,-473.72 422.69,-482.69"/>
<polygon fill="#a13535" stroke="black" points="420.14,-485.11 429.07,-490.8 425.64,-480.78 420.14,-485.11"/>
</g>
<!-- alconna_arpamar -->
<g id="node6" class="node">
<title>alconna_arpamar</title><style>.edge>path:hover{stroke-width:8}</style>
<ellipse fill="#e90c0c" stroke="black" cx="935.53" cy="-596.24" rx="37.45" ry="21.43"/>
<text text-anchor="middle" x="935.53" y="-599.24" font-family="Helvetica,sans-Serif" font-size="10.00" fill="#ffffff">alconna.</text>
<text text-anchor="middle" x="935.53" y="-588.24" font-family="Helvetica,sans-Serif" font-size="10.00" fill="#ffffff">arpamar</text>
</g>
<!-- alconna_arpamar&#45;&gt;alconna -->
<g id="edge11" class="edge">
<title>alconna_arpamar&#45;&gt;alconna</title><style>.edge>path:hover{stroke-width:8}</style>
<path fill="none" stroke="black" d="M1076.53,-358.61C1072.09,-317.79 1034.09,-315.22 1038.53,-274.4"/>
<path fill="none" stroke="black" d="M962.05,-580.82C980.54,-569.54 1004.49,-552.27 1019.53,-531.24 1066.06,-466.22 1085.19,-440.09 1076.53,-360.61"/>
</g>
<!-- alconna_arpamar&#45;&gt;alconna_analysis -->
<g id="edge12" class="edge">
<title>alconna_arpamar&#45;&gt;alconna_analysis</title><style>.edge>path:hover{stroke-width:8}</style>
<path fill="none" stroke="black" d="M900.52,-588.33C869.96,-582.4 824.39,-573.81 784.53,-567.24 673.77,-549.01 644.91,-551.69 534.53,-531.24 519.74,-528.5 503.68,-525.02 489.32,-521.71"/>
<polygon fill="#e90c0c" stroke="black" points="489.74,-518.22 479.21,-519.35 488.15,-525.03 489.74,-518.22"/>
</g>
<!-- alconna_arpamar&#45;&gt;alconna_analysis_analyser -->
<g id="edge13" class="edge">
<title>alconna_arpamar&#45;&gt;alconna_analysis_analyser</title><style>.edge>path:hover{stroke-width:8}</style>
<path fill="none" stroke="black" d="M926.18,-575.52C902.09,-526.98 832.99,-401.14 736.53,-338.39 697.32,-312.88 646.55,-295.71 609.98,-285.64"/>
<polygon fill="#e90c0c" stroke="black" points="610.63,-282.19 600.07,-282.98 608.82,-288.95 610.63,-282.19"/>
</g>
<!-- alconna_arpamar&#45;&gt;alconna_main -->
<g id="edge14" class="edge">
<title>alconna_arpamar&#45;&gt;alconna_main</title><style>.edge>path:hover{stroke-width:8}</style>
<path fill="none" stroke="black" d="M910.25,-580.52C860.55,-551.61 750.17,-487.39 694.7,-455.12"/>
<polygon fill="#e90c0c" stroke="black" points="696.37,-452.04 685.97,-450.04 692.85,-458.09 696.37,-452.04"/>
</g>
<!-- alconna_proxy -->
<g id="node17" class="node">
<title>alconna_proxy</title><style>.edge>path:hover{stroke-width:8}</style>
<ellipse fill="#8f3d3d" stroke="black" cx="880.53" cy="-18" rx="45.15" ry="18"/>
<text text-anchor="middle" x="880.53" y="-15.5" font-family="Helvetica,sans-Serif" font-size="10.00" fill="#ffffff">alconna.proxy</text>
</g>
<!-- alconna_arpamar&#45;&gt;alconna_proxy -->
<g id="edge15" class="edge">
<title>alconna_arpamar&#45;&gt;alconna_proxy</title><style>.edge>path:hover{stroke-width:8}</style>
<path fill="none" stroke="black" d="M1076.53,-358.61C1072.48,-321.4 1077.73,-311.81 1076.53,-274.4"/>
</g>
<!-- alconna_base -->
<g id="node7" class="node">
<title>alconna_base</title><style>.edge>path:hover{stroke-width:8}</style>
<ellipse fill="#ef0606" stroke="black" cx="262.53" cy="-690.22" rx="43.62" ry="18"/>
<text text-anchor="middle" x="262.53" y="-687.72" font-family="Helvetica,sans-Serif" font-size="10.00" fill="#ffffff">alconna.base</text>
</g>
<!-- alconna_base&#45;&gt;alconna -->
<g id="edge16" class="edge">
<title>alconna_base&#45;&gt;alconna</title><style>.edge>path:hover{stroke-width:8}</style>
<path fill="none" stroke="black" d="M254.96,-672.31C231.52,-620.27 159.9,-463.2 128.53,-416.82 122.57,-408.01 0.02,-285.03 0.53,-274.4"/>
</g>
<!-- alconna_base&#45;&gt;alconna_analysis -->
<g id="edge17" class="edge">
<title>alconna_base&#45;&gt;alconna_analysis</title><style>.edge>path:hover{stroke-width:8}</style>
<path fill="none" stroke="black" d="M501.53,-595.24C515.76,-574.36 496.3,-550.35 476.53,-533.32"/>
<polygon fill="#ef0606" stroke="black" points="478.67,-530.55 468.71,-526.93 474.24,-535.97 478.67,-530.55"/>
<path fill="none" stroke="black" d="M305.54,-686.78C361.58,-681.02 457.6,-661.72 501.53,-597.24"/>
</g>
<!-- alconna_base&#45;&gt;alconna_analysis_analyser -->
<g id="edge18" class="edge">
<title>alconna_base&#45;&gt;alconna_analysis_analyser</title><style>.edge>path:hover{stroke-width:8}</style>
<path fill="none" stroke="black" d="M501.53,-595.24C529.41,-554.31 509.15,-531.33 534.53,-488.82 551.45,-460.49 582.28,-468.54 586.53,-435.82"/>
<path fill="none" stroke="black" d="M586.53,-433.82C589.99,-391.78 581.06,-344 573.13,-311.8"/>
<polygon fill="#ef0606" stroke="black" points="576.47,-310.74 570.61,-301.92 569.69,-312.47 576.47,-310.74"/>
</g>
<!-- alconna_base&#45;&gt;alconna_analysis_parts -->
<g id="edge19" class="edge">
<title>alconna_base&#45;&gt;alconna_analysis_parts</title><style>.edge>path:hover{stroke-width:8}</style>
<path fill="none" stroke="black" d="M282.53,-358.61C288.03,-306.31 312.88,-250.33 330.95,-215.35"/>
<polygon fill="#ef0606" stroke="black" points="334.05,-216.98 335.61,-206.5 327.86,-213.72 334.05,-216.98"/>
<path fill="none" stroke="black" d="M228.53,-509.03C219.71,-467.61 237.12,-456.26 252.53,-416.82 262.84,-390.44 275.79,-388.11 282.53,-360.61"/>
</g>
<!-- alconna_component -->
<g id="node13" class="node">
<title>alconna_component</title><style>.edge>path:hover{stroke-width:8}</style>
<ellipse fill="#f90606" stroke="black" cx="342.53" cy="-596.24" rx="45.92" ry="21.43"/>
<text text-anchor="middle" x="342.53" y="-599.24" font-family="Helvetica,sans-Serif" font-size="10.00" fill="#ffffff">alconna.</text>
<text text-anchor="middle" x="342.53" y="-588.24" font-family="Helvetica,sans-Serif" font-size="10.00" fill="#ffffff">component</text>
</g>
<!-- alconna_base&#45;&gt;alconna_component -->
<g id="edge20" class="edge">
<title>alconna_base&#45;&gt;alconna_component</title><style>.edge>path:hover{stroke-width:8}</style>
<path fill="none" stroke="black" d="M276.84,-672.77C288.62,-659.22 305.57,-639.73 319.31,-623.94"/>
<polygon fill="#ef0606" stroke="black" points="322.23,-625.92 326.15,-616.08 316.94,-621.32 322.23,-625.92"/>
</g>
<!-- alconna_base&#45;&gt;alconna_main -->
<g id="edge21" class="edge">
<title>alconna_base&#45;&gt;alconna_main</title><style>.edge>path:hover{stroke-width:8}</style>
<path fill="none" stroke="black" d="M501.53,-595.24C525.66,-559.82 512.98,-534.97 548.53,-511.03"/>
</g>
<!-- alconna_visitor -->
<g id="node20" class="node">
<title>alconna_visitor</title><style>.edge>path:hover{stroke-width:8}</style>
<ellipse fill="#b42d2d" stroke="black" cx="179.53" cy="-359.61" rx="37.45" ry="21.43"/>
<text text-anchor="middle" x="179.53" y="-362.61" font-family="Helvetica,sans-Serif" font-size="10.00" fill="#ffffff">alconna.</text>
<text text-anchor="middle" x="179.53" y="-351.61" font-family="Helvetica,sans-Serif" font-size="10.00" fill="#ffffff">visitor</text>
</g>
<!-- alconna_base&#45;&gt;alconna_visitor -->
<g id="edge22" class="edge">
<title>alconna_base&#45;&gt;alconna_visitor</title><style>.edge>path:hover{stroke-width:8}</style>
<path fill="none" stroke="black" d="M258.51,-672.13C251.23,-640.53 235.96,-570.72 228.53,-511.03"/>
<path fill="none" stroke="black" d="M228.53,-509.03C220.9,-473.17 201.6,-470.77 190.53,-435.82"/>
</g>
<!-- alconna_builtin -->
<g id="node8" class="node">
<title>alconna_builtin</title><style>.edge>path:hover{stroke-width:8}</style>
<ellipse fill="#db2f2f" stroke="black" cx="973.53" cy="-510.03" rx="37.45" ry="21.43"/>
<text text-anchor="middle" x="973.53" y="-513.03" font-family="Helvetica,sans-Serif" font-size="10.00" fill="#ffffff">alconna.</text>
<text text-anchor="middle" x="973.53" y="-502.03" font-family="Helvetica,sans-Serif" font-size="10.00" fill="#ffffff">builtin</text>
</g>
<!-- alconna_builtin&#45;&gt;alconna -->
<g id="edge23" class="edge">
<title>alconna_builtin&#45;&gt;alconna</title><style>.edge>path:hover{stroke-width:8}</style>
<path fill="none" stroke="black" d="M964.66,-489.27C952.34,-458.55 934.57,-398.89 962.53,-360.61"/>
</g>
<!-- alconna_builtin&#45;&gt;alconna_main -->
<g id="edge24" class="edge">
<title>alconna_builtin&#45;&gt;alconna_main</title><style>.edge>path:hover{stroke-width:8}</style>
<path fill="none" stroke="black" d="M938.39,-502.32C888.69,-492.61 795.15,-473.53 716.53,-452.82 712.67,-451.8 708.68,-450.69 704.69,-449.53"/>
<polygon fill="#db2f2f" stroke="black" points="705.43,-446.1 694.85,-446.61 703.44,-452.81 705.43,-446.1"/>
</g>
<!-- alconna_builtin&#45;&gt;alconna_proxy -->
<g id="edge25" class="edge">
<title>alconna_builtin&#45;&gt;alconna_proxy</title><style>.edge>path:hover{stroke-width:8}</style>
<path fill="none" stroke="black" d="M1076.53,-272.4C1076.53,-191.43 1090.8,-156.06 1038.53,-94.21"/>
<path fill="none" stroke="black" d="M984.62,-489.54C1011.32,-441.83 1077.02,-319.77 1076.53,-274.4"/>
</g>
<!-- alconna_builtin_actions -->
<g id="node9" class="node">
<title>alconna_builtin_actions</title><style>.edge>path:hover{stroke-width:8}</style>
<ellipse fill="#db2f2f" stroke="black" cx="770.53" cy="-690.22" rx="37.45" ry="28.98"/>
<text text-anchor="middle" x="770.53" y="-698.72" font-family="Helvetica,sans-Serif" font-size="10.00" fill="#ffffff">alconna.</text>
<text text-anchor="middle" x="770.53" y="-687.72" font-family="Helvetica,sans-Serif" font-size="10.00" fill="#ffffff">builtin.</text>
<text text-anchor="middle" x="770.53" y="-676.72" font-family="Helvetica,sans-Serif" font-size="10.00" fill="#ffffff">actions</text>
</g>
<!-- alconna_builtin_actions&#45;&gt;alconna -->
<g id="edge26" class="edge">
<title>alconna_builtin_actions&#45;&gt;alconna</title><style>.edge>path:hover{stroke-width:8}</style>
<path fill="none" stroke="black" d="M962.53,-358.61C993.41,-318.75 1033.08,-324.52 1038.53,-274.4"/>
<path fill="none" stroke="black" d="M783.08,-662.62C811.01,-604.75 882.2,-464.28 962.53,-360.61"/>
<path fill="none" stroke="black" d="M1038.53,-272.4C1047.85,-186.81 985.6,-177.16 962.53,-94.21"/>
</g>
<!-- alconna_builtin_analyser -->
<g id="node10" class="node">
<title>alconna_builtin_analyser</title><style>.edge>path:hover{stroke-width:8}</style>
<ellipse fill="#c04040" stroke="black" cx="738.53" cy="-596.24" rx="37.45" ry="28.98"/>
<text text-anchor="middle" x="738.53" y="-604.74" font-family="Helvetica,sans-Serif" font-size="10.00" fill="#ffffff">alconna.</text>
<text text-anchor="middle" x="738.53" y="-593.74" font-family="Helvetica,sans-Serif" font-size="10.00" fill="#ffffff">builtin.</text>
<text text-anchor="middle" x="738.53" y="-582.74" font-family="Helvetica,sans-Serif" font-size="10.00" fill="#ffffff">analyser</text>
</g>
<!-- alconna_builtin_actions&#45;&gt;alconna_builtin_analyser -->
<g id="edge27" class="edge">
<title>alconna_builtin_actions&#45;&gt;alconna_builtin_analyser</title><style>.edge>path:hover{stroke-width:8}</style>
<path fill="none" stroke="black" d="M761.1,-662.12C758.04,-653.31 754.59,-643.38 751.32,-633.99"/>
<polygon fill="#db2f2f" stroke="black" points="754.6,-632.76 748,-624.46 747.98,-635.06 754.6,-632.76"/>
</g>
<!-- alconna_builtin_actions&#45;&gt;alconna_proxy -->
<g id="edge28" class="edge">
<title>alconna_builtin_actions&#45;&gt;alconna_proxy</title><style>.edge>path:hover{stroke-width:8}</style>
<path fill="none" stroke="black" d="M807.58,-685.63C863.92,-678.36 971.63,-657.1 1038.53,-597.24"/>
<path fill="none" stroke="black" d="M1038.53,-595.24C1125.33,-517.57 1103.05,-454.19 1090.53,-338.39 1087.4,-309.45 1077.46,-303.5 1076.53,-274.4"/>
</g>
<!-- alconna_builtin_analyser&#45;&gt;alconna_main -->
<g id="edge29" class="edge">
<title>alconna_builtin_analyser&#45;&gt;alconna_main</title><style>.edge>path:hover{stroke-width:8}</style>
<path fill="none" stroke="black" d="M712.15,-575.25C695.01,-559.9 675.49,-537 673.53,-511.03"/>
</g>
<!-- alconna_builtin_construct -->
<g id="node11" class="node">
<title>alconna_builtin_construct</title><style>.edge>path:hover{stroke-width:8}</style>
<ellipse fill="#c24747" stroke="black" cx="774.53" cy="-179.42" rx="40.11" ry="28.98"/>
<text text-anchor="middle" x="774.53" y="-187.92" font-family="Helvetica,sans-Serif" font-size="10.00" fill="#ffffff">alconna.</text>
<text text-anchor="middle" x="774.53" y="-176.92" font-family="Helvetica,sans-Serif" font-size="10.00" fill="#ffffff">builtin.</text>
<text text-anchor="middle" x="774.53" y="-165.92" font-family="Helvetica,sans-Serif" font-size="10.00" fill="#ffffff">construct</text>
</g>
<!-- alconna_builtin_construct&#45;&gt;alconna -->
<g id="edge30" class="edge">
<title>alconna_builtin_construct&#45;&gt;alconna</title><style>.edge>path:hover{stroke-width:8}</style>
<path fill="none" stroke="black" d="M805.04,-160.15C811.09,-156.77 817.45,-153.38 823.53,-150.43 883.49,-121.34 979.99,-158.52 962.53,-94.21"/>
</g>
<!-- alconna_builtin_formatter -->
<g id="node12" class="node">
<title>alconna_builtin_formatter</title><style>.edge>path:hover{stroke-width:8}</style>
<ellipse fill="#c24747" stroke="black" cx="606.53" cy="-596.24" rx="38.78" ry="28.98"/>
<text text-anchor="middle" x="606.53" y="-604.74" font-family="Helvetica,sans-Serif" font-size="10.00" fill="#ffffff">alconna.</text>
<text text-anchor="middle" x="606.53" y="-593.74" font-family="Helvetica,sans-Serif" font-size="10.00" fill="#ffffff">builtin.</text>
<text text-anchor="middle" x="606.53" y="-582.74" font-family="Helvetica,sans-Serif" font-size="10.00" fill="#ffffff">formatter</text>
</g>
<!-- alconna_builtin_formatter&#45;&gt;alconna_main -->
<g id="edge31" class="edge">
<title>alconna_builtin_formatter&#45;&gt;alconna_main</title><style>.edge>path:hover{stroke-width:8}</style>
<path fill="none" stroke="black" d="M634.95,-576.39C654.1,-561.15 675.56,-537.86 673.53,-511.03"/>
<path fill="none" stroke="black" d="M673.53,-509.03C672.38,-493.73 669.7,-476.81 667.17,-463.1"/>
<polygon fill="#c24747" stroke="black" points="670.52,-462.03 665.2,-452.88 663.65,-463.36 670.52,-462.03"/>
</g>
<!-- alconna_component&#45;&gt;alconna -->
<g id="edge32" class="edge">
<title>alconna_component&#45;&gt;alconna</title><style>.edge>path:hover{stroke-width:8}</style>
<path fill="none" stroke="black" d="M266.53,-509.03C248.29,-482.09 267.18,-468.35 266.53,-435.82"/>
<path fill="none" stroke="black" d="M266.53,-433.82C265.61,-387.67 250.87,-376.98 225.53,-338.39 199.05,-298.05 47.89,-219.26 76.53,-180.42"/>
</g>
<!-- alconna_component&#45;&gt;alconna_analysis -->
<g id="edge33" class="edge">
<title>alconna_component&#45;&gt;alconna_analysis</title><style>.edge>path:hover{stroke-width:8}</style>
<path fill="none" stroke="black" d="M364.38,-577.38C379.7,-564.85 400.34,-547.97 416.97,-534.38"/>
<polygon fill="#f90606" stroke="black" points="419.25,-537.04 424.77,-528 414.82,-531.62 419.25,-537.04"/>
</g>
<!-- alconna_component&#45;&gt;alconna_analysis_analyser -->
<g id="edge34" class="edge">
<title>alconna_component&#45;&gt;alconna_analysis_analyser</title><style>.edge>path:hover{stroke-width:8}</style>
<path fill="none" stroke="black" d="M352.13,-575.09C362.79,-553.28 380.96,-517.74 399.53,-488.82 443.12,-420.95 501.98,-347.19 535.73,-306.29"/>
<polygon fill="#f90606" stroke="black" points="538.45,-308.5 542.14,-298.56 533.06,-304.03 538.45,-308.5"/>
</g>
<!-- alconna_component&#45;&gt;alconna_analysis_parts -->
<g id="edge35" class="edge">
<title>alconna_component&#45;&gt;alconna_analysis_parts</title><style>.edge>path:hover{stroke-width:8}</style>
<path fill="none" stroke="black" d="M266.53,-433.82C265.87,-400.52 279.05,-393.73 282.53,-360.61"/>
</g>
<!-- alconna_component&#45;&gt;alconna_main -->
<g id="edge36" class="edge">
<title>alconna_component&#45;&gt;alconna_main</title><style>.edge>path:hover{stroke-width:8}</style>
<path fill="none" stroke="black" d="M548.53,-509.03C575.75,-490.7 607.09,-470.46 629.85,-455.92"/>
<polygon fill="#f90606" stroke="black" points="631.89,-458.77 638.43,-450.44 628.12,-452.87 631.89,-458.77"/>
<path fill="none" stroke="black" d="M381.29,-584.62C424.51,-571.63 495.34,-546.86 548.53,-511.03"/>
</g>
<!-- alconna_component&#45;&gt;alconna_visitor -->
<g id="edge37" class="edge">
<title>alconna_component&#45;&gt;alconna_visitor</title><style>.edge>path:hover{stroke-width:8}</style>
<path fill="none" stroke="black" d="M266.53,-509.03C240.24,-470.2 204.69,-480.53 190.53,-435.82"/>
<path fill="none" stroke="black" d="M323.08,-576.79C306.65,-560.53 283.21,-535.65 266.53,-511.03"/>
</g>
<!-- alconna_exceptions -->
<g id="node14" class="node">
<title>alconna_exceptions</title><style>.edge>path:hover{stroke-width:8}</style>
<ellipse fill="#f91010" stroke="black" cx="539.53" cy="-848.42" rx="45.01" ry="21.43"/>
<text text-anchor="middle" x="539.53" y="-851.42" font-family="Helvetica,sans-Serif" font-size="10.00" fill="#ffffff">alconna.</text>
<text text-anchor="middle" x="539.53" y="-840.42" font-family="Helvetica,sans-Serif" font-size="10.00" fill="#ffffff">exceptions</text>
</g>
<!-- alconna_exceptions&#45;&gt;alconna -->
<g id="edge38" class="edge">
<title>alconna_exceptions&#45;&gt;alconna</title><style>.edge>path:hover{stroke-width:8}</style>
<path fill="none" stroke="black" d="M38.53,-358.61C25.93,-319.53 -1.6,-315.4 0.53,-274.4"/>
<path fill="none" stroke="black" d="M190.53,-689.22C168.08,-573.8 138.99,-550.83 114.53,-435.82"/>
<path fill="none" stroke="black" d="M418.53,-92.21C479.36,-66.67 552.52,-42.87 595.06,-29.69"/>
<polygon fill="#f91010" stroke="black" points="596.15,-33.02 604.68,-26.73 594.09,-26.33 596.15,-33.02"/>
<path fill="none" stroke="black" d="M0.53,-272.4C3.29,-219.44 44.91,-222.99 76.53,-180.42"/>
<path fill="none" stroke="black" d="M114.53,-433.82C98.64,-389.69 52.93,-405.24 38.53,-360.61"/>
<path fill="none" stroke="black" d="M190.53,-772.21C174.08,-740.19 192.91,-727.14 190.53,-691.22"/>
<path fill="none" stroke="black" d="M494.23,-846.08C406.17,-842.28 218.12,-827.9 190.53,-774.21"/>
<path fill="none" stroke="black" d="M76.53,-178.42C169.88,-52.76 274.21,-154.83 418.53,-94.21"/>
</g>
<!-- alconna_exceptions&#45;&gt;alconna_analysis_arg_handlers -->
<g id="edge39" class="edge">
<title>alconna_exceptions&#45;&gt;alconna_analysis_arg_handlers</title><style>.edge>path:hover{stroke-width:8}</style>
<path fill="none" stroke="black" d="M1076.53,-689.22C1075.96,-652.58 1037.43,-659.53 1024.53,-625.23 1003.19,-568.44 1037.99,-546.61 1019.53,-488.82 1002.06,-434.1 973.39,-432.6 948.53,-380.82 922.48,-326.56 903.07,-259.25 892.52,-218.09"/>
<polygon fill="#f91010" stroke="black" points="895.87,-217.06 890.03,-208.21 889.08,-218.77 895.87,-217.06"/>
</g>
<!-- alconna_exceptions&#45;&gt;alconna_analysis_parts -->
<g id="edge40" class="edge">
<title>alconna_exceptions&#45;&gt;alconna_analysis_parts</title><style>.edge>path:hover{stroke-width:8}</style>
<path fill="none" stroke="black" d="M114.53,-433.82C87.87,-321.94 232.87,-235.75 307.84,-199.35"/>
<polygon fill="#f91010" stroke="black" points="309.54,-202.41 317.06,-194.95 306.53,-196.1 309.54,-202.41"/>
</g>
<!-- alconna_exceptions&#45;&gt;alconna_arpamar -->
<g id="edge41" class="edge">
<title>alconna_exceptions&#45;&gt;alconna_arpamar</title><style>.edge>path:hover{stroke-width:8}</style>
<path fill="none" stroke="black" d="M584.01,-843.6C720.15,-830.85 1119.45,-785.16 1076.53,-691.22"/>
<path fill="none" stroke="black" d="M1076.53,-689.22C1076.01,-655.57 992.67,-628.59 986.53,-625.23 981.37,-622.4 975.91,-619.41 970.56,-616.48"/>
<polygon fill="#f91010" stroke="black" points="972.18,-613.38 961.73,-611.63 968.82,-619.51 972.18,-613.38"/>
</g>
<!-- alconna_exceptions&#45;&gt;alconna_base -->
<g id="edge42" class="edge">
<title>alconna_exceptions&#45;&gt;alconna_base</title><style>.edge>path:hover{stroke-width:8}</style>
<path fill="none" stroke="black" d="M190.53,-772.21C178.05,-747.92 202.88,-725.13 226.72,-709.96"/>
<polygon fill="#f91010" stroke="black" points="228.63,-712.89 235.38,-704.72 225.01,-706.89 228.63,-712.89"/>
</g>
<!-- alconna_exceptions&#45;&gt;alconna_manager -->
<g id="edge43" class="edge">
<title>alconna_exceptions&#45;&gt;alconna_manager</title><style>.edge>path:hover{stroke-width:8}</style>
<path fill="none" stroke="black" d="M38.53,-358.61C2.84,-293.85 101.6,-290.36 159.53,-244.41 218.83,-197.38 231.16,-178.28 301.53,-150.43 352.06,-130.42 505.18,-109.55 583.42,-99.83"/>
<polygon fill="#f91010" stroke="black" points="583.99,-103.28 593.49,-98.58 583.13,-96.34 583.99,-103.28"/>
</g>
<!-- alconna_types -->
<g id="node18" class="node">
<title>alconna_types</title><style>.edge>path:hover{stroke-width:8}</style>
<ellipse fill="#f90606" stroke="black" cx="539.53" cy="-773.21" rx="45.15" ry="18"/>
<text text-anchor="middle" x="539.53" y="-770.71" font-family="Helvetica,sans-Serif" font-size="10.00" fill="#ffffff">alconna.types</text>
</g>
<!-- alconna_exceptions&#45;&gt;alconna_types -->
<g id="edge44" class="edge">
<title>alconna_exceptions&#45;&gt;alconna_types</title><style>.edge>path:hover{stroke-width:8}</style>
<path fill="none" stroke="black" d="M539.53,-827.03C539.53,-819.18 539.53,-810.07 539.53,-801.66"/>
<polygon fill="#f91010" stroke="black" points="543.03,-801.52 539.53,-791.52 536.03,-801.52 543.03,-801.52"/>
</g>
<!-- alconna_exceptions&#45;&gt;alconna_visitor -->
<g id="edge45" class="edge">
<title>alconna_exceptions&#45;&gt;alconna_visitor</title><style>.edge>path:hover{stroke-width:8}</style>
<path fill="none" stroke="black" d="M190.53,-433.82C186.19,-420.09 183.54,-404.35 181.93,-391"/>
<polygon fill="#f91010" stroke="black" points="185.4,-390.45 180.86,-380.88 178.43,-391.19 185.4,-390.45"/>
<path fill="none" stroke="black" d="M190.53,-689.22C169.03,-578.67 224.52,-543.19 190.53,-435.82"/>
</g>
<!-- alconna_main&#45;&gt;alconna -->
<g id="edge46" class="edge">
<title>alconna_main&#45;&gt;alconna</title><style>.edge>path:hover{stroke-width:8}</style>
<path fill="none" stroke="black" d="M962.53,-92.21C954.78,-63.64 755.26,-34.89 669.32,-23.78"/>
<polygon fill="#950303" stroke="black" points="669.54,-20.28 659.18,-22.49 668.65,-27.23 669.54,-20.28"/>
<path fill="none" stroke="black" d="M664.33,-416.64C673.98,-358.23 706.38,-169.79 725.53,-150.43 801.67,-73.47 990.89,-198.69 962.53,-94.21"/>
</g>
<!-- alconna_main&#45;&gt;alconna_analysis_analyser -->
<g id="edge48" class="edge">
<title>alconna_main&#45;&gt;alconna_analysis_analyser</title><style>.edge>path:hover{stroke-width:8}</style>
<path fill="none" stroke="black" d="M645.82,-408.51C629.12,-381.62 602.6,-338.93 583.99,-308.95"/>
<polygon fill="#950303" stroke="black" points="642.88,-410.41 651.13,-417.06 648.82,-406.72 642.88,-410.41"/>
<polygon fill="#950303" stroke="black" points="586.73,-306.74 578.48,-300.09 580.79,-310.43 586.73,-306.74"/>
</g>
<!-- alconna_main&#45;&gt;alconna_manager -->
<g id="edge49" class="edge">
<title>alconna_main&#45;&gt;alconna_manager</title><style>.edge>path:hover{stroke-width:8}</style>
<path fill="none" stroke="black" d="M659.03,-406.43C653.31,-343.69 639.27,-189.95 633.3,-124.5"/>
<polygon fill="#950303" stroke="black" points="655.56,-406.87 659.95,-416.51 662.53,-406.23 655.56,-406.87"/>
<polygon fill="#950303" stroke="black" points="636.77,-124.06 632.38,-114.42 629.8,-124.7 636.77,-124.06"/>
</g>
<!-- alconna_main&#45;&gt;alconna_proxy -->
<g id="edge50" class="edge">
<title>alconna_main&#45;&gt;alconna_proxy</title><style>.edge>path:hover{stroke-width:8}</style>
<path fill="none" stroke="black" d="M694.85,-422.93C804.23,-385.35 1139.78,-254.54 1038.53,-94.21"/>
<path fill="none" stroke="black" d="M1038.53,-92.21C1010.74,-59.32 964.96,-40.37 929.81,-30.02"/>
<polygon fill="#950303" stroke="black" points="930.32,-26.53 919.74,-27.21 928.43,-33.27 930.32,-26.53"/>
</g>
<!-- alconna_main&#45;&gt;alconna_visitor -->
<g id="edge51" class="edge">
<title>alconna_main&#45;&gt;alconna_visitor</title><style>.edge>path:hover{stroke-width:8}</style>
<path fill="none" stroke="black" d="M609.57,-428.31C534.13,-419.97 390.02,-402.76 268.53,-380.82 253.73,-378.14 237.66,-374.67 223.31,-371.36"/>
<polygon fill="#950303" stroke="black" points="609.43,-431.81 619.75,-429.42 610.19,-424.85 609.43,-431.81"/>
<polygon fill="#950303" stroke="black" points="223.73,-367.87 213.2,-369 222.14,-374.68 223.73,-367.87"/>
</g>
<!-- alconna_manager&#45;&gt;alconna -->
<g id="edge52" class="edge">
<title>alconna_manager&#45;&gt;alconna</title><style>.edge>path:hover{stroke-width:8}</style>
<path fill="none" stroke="black" d="M630.53,-71.82C630.53,-63.97 630.53,-54.86 630.53,-46.45"/>
<polygon fill="#b62020" stroke="black" points="634.03,-46.31 630.53,-36.31 627.03,-46.31 634.03,-46.31"/>
</g>
<!-- alconna_manager&#45;&gt;alconna_proxy -->
<g id="edge54" class="edge">
<title>alconna_manager&#45;&gt;alconna_proxy</title><style>.edge>path:hover{stroke-width:8}</style>
<path fill="none" stroke="black" d="M663.73,-82.49C707.84,-69.57 785.95,-46.7 835.39,-32.22"/>
<polygon fill="#b62020" stroke="black" points="836.57,-35.52 845.18,-29.35 834.6,-28.81 836.57,-35.52"/>
</g>
<!-- alconna_types&#45;&gt;alconna -->
<g id="edge55" class="edge">
<title>alconna_types&#45;&gt;alconna</title><style>.edge>path:hover{stroke-width:8}</style>
<path fill="none" stroke="black" d="M539.53,-595.24C533.58,-579.97 529.23,-576.25 515.53,-567.24 470.42,-537.6 431.55,-574.71 399.53,-531.24 331.64,-439.09 393.86,-386.18 418.53,-274.4"/>
<path fill="none" stroke="black" d="M418.53,-272.4C422.05,-232.96 382.12,-109.78 418.53,-94.21"/>
<path fill="none" stroke="black" d="M539.53,-689.22C543.12,-648.49 554.07,-635.45 539.53,-597.24"/>
</g>
<!-- alconna_types&#45;&gt;alconna_analysis -->
<g id="edge56" class="edge">
<title>alconna_types&#45;&gt;alconna_analysis</title><style>.edge>path:hover{stroke-width:8}</style>
<path fill="none" stroke="black" d="M539.53,-595.24C529.64,-566.94 503.47,-544.83 481.24,-530.38"/>
<polygon fill="#f90606" stroke="black" points="482.99,-527.35 472.65,-525.04 479.29,-533.29 482.99,-527.35"/>
</g>
<!-- alconna_types&#45;&gt;alconna_analysis_analyser -->
<g id="edge57" class="edge">
<title>alconna_types&#45;&gt;alconna_analysis_analyser</title><style>.edge>path:hover{stroke-width:8}</style>
<path fill="none" stroke="black" d="M539.53,-595.24C515.16,-525.51 574.74,-508.74 586.53,-435.82"/>
</g>
<!-- alconna_types&#45;&gt;alconna_analysis_arg_handlers -->
<g id="edge58" class="edge">
<title>alconna_types&#45;&gt;alconna_analysis_arg_handlers</title><style>.edge>path:hover{stroke-width:8}</style>
<path fill="none" stroke="black" d="M584.07,-769.3C703.73,-760.93 1024.17,-734.54 1038.53,-691.22"/>
<path fill="none" stroke="black" d="M1038.53,-689.22C1061.22,-620.81 931.25,-684 889.53,-625.23 800.38,-499.63 846.49,-299.77 871.22,-217.58"/>
<polygon fill="#f90606" stroke="black" points="874.6,-218.51 874.19,-207.92 867.91,-216.45 874.6,-218.51"/>
</g>
<!-- alconna_types&#45;&gt;alconna_analysis_parts -->
<g id="edge59" class="edge">
<title>alconna_types&#45;&gt;alconna_analysis_parts</title><style>.edge>path:hover{stroke-width:8}</style>
<path fill="none" stroke="black" d="M538.97,-755.13C538.57,-738.73 538.29,-713.26 539.53,-691.22"/>
<path fill="none" stroke="black" d="M539.53,-689.22C545.41,-585.26 429.06,-614.5 366.53,-531.24 315.77,-463.65 265.23,-443.35 282.53,-360.61"/>
</g>
<!-- alconna_types&#45;&gt;alconna_arpamar -->
<g id="edge60" class="edge">
<title>alconna_types&#45;&gt;alconna_arpamar</title><style>.edge>path:hover{stroke-width:8}</style>
<path fill="none" stroke="black" d="M1038.53,-689.22C1044.65,-670.76 1001.64,-638.75 969.32,-617.78"/>
<polygon fill="#f90606" stroke="black" points="970.85,-614.61 960.54,-612.18 967.09,-620.51 970.85,-614.61"/>
</g>
<!-- alconna_types&#45;&gt;alconna_base -->
<g id="edge61" class="edge">
<title>alconna_types&#45;&gt;alconna_base</title><style>.edge>path:hover{stroke-width:8}</style>
<path fill="none" stroke="black" d="M504.17,-761.87C453.92,-747.18 361.87,-720.26 307.04,-704.23"/>
<polygon fill="#f90606" stroke="black" points="307.83,-700.82 297.25,-701.37 305.87,-707.54 307.83,-700.82"/>
</g>
<!-- alconna_types&#45;&gt;alconna_main -->
<g id="edge62" class="edge">
<title>alconna_types&#45;&gt;alconna_main</title><style>.edge>path:hover{stroke-width:8}</style>
<path fill="none" stroke="black" d="M539.53,-689.22C543.55,-630.87 620.84,-673.04 654.53,-625.23 684.17,-583.17 677.4,-562.34 673.53,-511.03"/>
</g>
<!-- alconna_types&#45;&gt;alconna_proxy -->
<g id="edge63" class="edge">
<title>alconna_types&#45;&gt;alconna_proxy</title><style>.edge>path:hover{stroke-width:8}</style>
<path fill="none" stroke="black" d="M1038.53,-689.22C1051.58,-650.48 1010.14,-626.65 1038.53,-597.24"/>
</g>
<!-- alconna_util -->
<g id="node19" class="node">
<title>alconna_util</title><style>.edge>path:hover{stroke-width:8}</style>
<ellipse fill="#db2f2f" stroke="black" cx="764.53" cy="-434.82" rx="38.7" ry="18"/>
<text text-anchor="middle" x="764.53" y="-432.32" font-family="Helvetica,sans-Serif" font-size="10.00" fill="#ffffff">alconna.util</text>
</g>
<!-- alconna_util&#45;&gt;alconna -->
<g id="edge64" class="edge">
<title>alconna_util&#45;&gt;alconna</title><style>.edge>path:hover{stroke-width:8}</style>
<path fill="none" stroke="black" d="M783.91,-419.21C840.83,-374.36 1001.21,-233.28 962.53,-94.21"/>
</g>
<!-- alconna_util&#45;&gt;alconna_analysis_analyser -->
<g id="edge65" class="edge">
<title>alconna_util&#45;&gt;alconna_analysis_analyser</title><style>.edge>path:hover{stroke-width:8}</style>
<path fill="none" stroke="black" d="M722.53,-358.61C692.83,-323.41 644.63,-300.9 608.88,-288.1"/>
<polygon fill="#db2f2f" stroke="black" points="609.75,-284.69 599.15,-284.74 607.46,-291.31 609.75,-284.69"/>
<path fill="none" stroke="black" d="M757.06,-417.03C749.65,-401.44 737.28,-378.08 722.53,-360.61"/>
</g>
<!-- alconna_util&#45;&gt;alconna_manager -->
<g id="edge66" class="edge">
<title>alconna_util&#45;&gt;alconna_manager</title><style>.edge>path:hover{stroke-width:8}</style>
<path fill="none" stroke="black" d="M722.53,-358.61C659.58,-284.01 685.89,-242.17 652.53,-150.43 649.33,-141.62 645.69,-132.12 642.29,-123.47"/>
<polygon fill="#db2f2f" stroke="black" points="645.54,-122.17 638.61,-114.16 639.03,-124.74 645.54,-122.17"/>
</g>
<!-- alconna_visitor&#45;&gt;alconna -->
<g id="edge67" class="edge">
<title>alconna_visitor&#45;&gt;alconna</title><style>.edge>path:hover{stroke-width:8}</style>
<path fill="none" stroke="black" d="M157.48,-342.44C115.89,-310 33.71,-235.38 76.53,-180.42"/>
</g>
</g>
</svg>
