<?xml version="1.0" encoding="UTF-8" standalone="no"?>
<!DOCTYPE svg PUBLIC "-//W3C//DTD SVG 1.1//EN"
 "http://www.w3.org/Graphics/SVG/1.1/DTD/svg11.dtd">
<!-- Generated by graphviz version 2.49.3 (20211023.0002)
 -->
<!-- Title: G Pages: 1 -->
<svg width="1220pt" height="936pt"
 viewBox="0.00 0.00 1219.92 936.08" xmlns="http://www.w3.org/2000/svg" xmlns:xlink="http://www.w3.org/1999/xlink">
<g id="graph0" class="graph" transform="scale(1 1) rotate(0) translate(4 932.08)">
<title>G</title><style>.edge>path:hover{stroke-width:8}</style>
<polygon fill="white" stroke="transparent" points="-4,4 -4,-932.08 1215.92,-932.08 1215.92,4 -4,4"/>
<!-- alconna -->
<g id="node1" class="node">
<title>alconna</title><style>.edge>path:hover{stroke-width:8}</style>
<ellipse fill="#7a1e1e" stroke="black" cx="814.4" cy="-18" rx="29.37" ry="18"/>
<text text-anchor="middle" x="814.4" y="-15.5" font-family="Helvetica,sans-Serif" font-size="10.00" fill="#ffffff">alconna</text>
</g>
<!-- alconna_analysis -->
<g id="node2" class="node">
<title>alconna_analysis</title><style>.edge>path:hover{stroke-width:8}</style>
<ellipse fill="#b80909" stroke="black" cx="860.4" cy="-678.01" rx="37.45" ry="21.43"/>
<text text-anchor="middle" x="860.4" y="-681.01" font-family="Helvetica,sans-Serif" font-size="10.00" fill="#ffffff">alconna.</text>
<text text-anchor="middle" x="860.4" y="-670.01" font-family="Helvetica,sans-Serif" font-size="10.00" fill="#ffffff">analysis</text>
</g>
<!-- alconna_analysis&#45;&gt;alconna -->
<g id="edge1" class="edge">
<title>alconna_analysis&#45;&gt;alconna</title><style>.edge>path:hover{stroke-width:8}</style>
<path fill="none" stroke="black" d="M750.4,-619.8C726.6,-599.2 710.26,-607.38 689.4,-583.8 627.11,-513.39 532.86,-289.16 520.4,-195.97"/>
<path fill="none" stroke="black" d="M829.56,-665.95C806.09,-656.48 773.92,-641.15 750.4,-620.8"/>
</g>
<!-- alconna_builtin_analyser -->
<g id="node10" class="node">
<title>alconna_builtin_analyser</title><style>.edge>path:hover{stroke-width:8}</style>
<ellipse fill="#8a2e2e" stroke="black" cx="735.4" cy="-554.81" rx="37.45" ry="28.98"/>
<text text-anchor="middle" x="735.4" y="-563.31" font-family="Helvetica,sans-Serif" font-size="10.00" fill="#ffffff">alconna.</text>
<text text-anchor="middle" x="735.4" y="-552.31" font-family="Helvetica,sans-Serif" font-size="10.00" fill="#ffffff">builtin.</text>
<text text-anchor="middle" x="735.4" y="-541.31" font-family="Helvetica,sans-Serif" font-size="10.00" fill="#ffffff">analyser</text>
</g>
<!-- alconna_analysis&#45;&gt;alconna_builtin_analyser -->
<g id="edge2" class="edge">
<title>alconna_analysis&#45;&gt;alconna_builtin_analyser</title><style>.edge>path:hover{stroke-width:8}</style>
<path fill="none" stroke="black" d="M750.4,-619.8C742.84,-613.26 738.7,-603.71 736.52,-593.97"/>
<polygon fill="#b80909" stroke="black" points="739.94,-593.19 734.9,-583.87 733.03,-594.3 739.94,-593.19"/>
</g>
<!-- alconna_main -->
<g id="node14" class="node">
<title>alconna_main</title><style>.edge>path:hover{stroke-width:8}</style>
<ellipse fill="#a50808" stroke="black" cx="522.4" cy="-393.39" rx="43.62" ry="18"/>
<text text-anchor="middle" x="522.4" y="-390.89" font-family="Helvetica,sans-Serif" font-size="10.00" fill="#ffffff">alconna.main</text>
</g>
<!-- alconna_analysis&#45;&gt;alconna_main -->
<g id="edge3" class="edge">
<title>alconna_analysis&#45;&gt;alconna_main</title><style>.edge>path:hover{stroke-width:8}</style>
<path fill="none" stroke="black" d="M817.61,-664.83C773.61,-650.73 704.85,-624.13 656.4,-583.8 641.32,-571.25 571.55,-468.05 539.09,-419.49"/>
<polygon fill="#b80909" stroke="black" points="816.83,-668.26 827.42,-667.9 818.92,-661.58 816.83,-668.26"/>
<polygon fill="#b80909" stroke="black" points="541.95,-417.46 533.49,-411.09 536.13,-421.35 541.95,-417.46"/>
</g>
<!-- alconna_manager -->
<g id="node15" class="node">
<title>alconna_manager</title><style>.edge>path:hover{stroke-width:8}</style>
<ellipse fill="#c20a0a" stroke="black" cx="416.4" cy="-318.18" rx="38.37" ry="21.43"/>
<text text-anchor="middle" x="416.4" y="-321.18" font-family="Helvetica,sans-Serif" font-size="10.00" fill="#ffffff">alconna.</text>
<text text-anchor="middle" x="416.4" y="-310.18" font-family="Helvetica,sans-Serif" font-size="10.00" fill="#ffffff">manager</text>
</g>
<!-- alconna_analysis&#45;&gt;alconna_manager -->
<g id="edge4" class="edge">
<title>alconna_analysis&#45;&gt;alconna_manager</title><style>.edge>path:hover{stroke-width:8}</style>
<path fill="none" stroke="black" d="M827.61,-667.51C732.21,-639.01 459.41,-551.18 426.4,-469.61"/>
</g>
<!-- alconna_analysis_Analyser -->
<g id="node3" class="node">
<title>alconna_analysis_Analyser</title><style>.edge>path:hover{stroke-width:8}</style>
<ellipse fill="#913030" stroke="black" cx="452.4" cy="-194.97" rx="39.7" ry="28.98"/>
<text text-anchor="middle" x="452.4" y="-203.47" font-family="Helvetica,sans-Serif" font-size="10.00" fill="#ffffff">alconna.</text>
<text text-anchor="middle" x="452.4" y="-192.47" font-family="Helvetica,sans-Serif" font-size="10.00" fill="#ffffff">analysis.</text>
<text text-anchor="middle" x="452.4" y="-181.47" font-family="Helvetica,sans-Serif" font-size="10.00" fill="#ffffff">Analyser</text>
</g>
<!-- alconna_analysis_Analyser&#45;&gt;alconna -->
<g id="edge5" class="edge">
<title>alconna_analysis_Analyser&#45;&gt;alconna</title><style>.edge>path:hover{stroke-width:8}</style>
<path fill="none" stroke="black" d="M454.29,-165.66C457.42,-144.08 465.53,-115.8 486.4,-101.99"/>
</g>
<!-- alconna_analysis_analyser -->
<g id="node4" class="node">
<title>alconna_analysis_analyser</title><style>.edge>path:hover{stroke-width:8}</style>
<ellipse fill="#b80909" stroke="black" cx="882.4" cy="-194.97" rx="39.7" ry="28.98"/>
<text text-anchor="middle" x="882.4" y="-203.47" font-family="Helvetica,sans-Serif" font-size="10.00" fill="#ffffff">alconna.</text>
<text text-anchor="middle" x="882.4" y="-192.47" font-family="Helvetica,sans-Serif" font-size="10.00" fill="#ffffff">analysis.</text>
<text text-anchor="middle" x="882.4" y="-181.47" font-family="Helvetica,sans-Serif" font-size="10.00" fill="#ffffff">analyser</text>
</g>
<!-- alconna_analysis_analyser&#45;&gt;alconna_analysis -->
<g id="edge7" class="edge">
<title>alconna_analysis_analyser&#45;&gt;alconna_analysis</title><style>.edge>path:hover{stroke-width:8}</style>
<path fill="none" stroke="black" d="M888.18,-223.76C892.76,-248.24 898.4,-284.92 898.4,-317.18 898.4,-394.39 898.4,-394.39 898.4,-394.39 898.4,-461.78 894.55,-481.22 897.84,-543.82"/>
<polygon fill="#b80909" stroke="black" points="894.34,-544.02 898.4,-553.81 901.33,-543.63 894.34,-544.02"/>
</g>
<!-- alconna_analysis_arg_handlers -->
<g id="node5" class="node">
<title>alconna_analysis_arg_handlers</title><style>.edge>path:hover{stroke-width:8}</style>
<ellipse fill="#b42d2d" stroke="black" cx="735.4" cy="-100.99" rx="50.82" ry="28.98"/>
<text text-anchor="middle" x="735.4" y="-109.49" font-family="Helvetica,sans-Serif" font-size="10.00" fill="#ffffff">alconna.</text>
<text text-anchor="middle" x="735.4" y="-98.49" font-family="Helvetica,sans-Serif" font-size="10.00" fill="#ffffff">analysis.</text>
<text text-anchor="middle" x="735.4" y="-87.49" font-family="Helvetica,sans-Serif" font-size="10.00" fill="#ffffff">arg_handlers</text>
</g>
<!-- alconna_analysis_analyser&#45;&gt;alconna_analysis_arg_handlers -->
<g id="edge8" class="edge">
<title>alconna_analysis_analyser&#45;&gt;alconna_analysis_arg_handlers</title><style>.edge>path:hover{stroke-width:8}</style>
<path fill="none" stroke="black" d="M852.65,-175.36C831.06,-161.85 801.55,-143.38 777.53,-128.35"/>
<polygon fill="#b80909" stroke="black" points="779.29,-125.33 768.96,-122.99 775.58,-131.26 779.29,-125.33"/>
</g>
<!-- alconna_analysis_parts -->
<g id="node6" class="node">
<title>alconna_analysis_parts</title><style>.edge>path:hover{stroke-width:8}</style>
<ellipse fill="#ac2b2b" stroke="black" cx="935.4" cy="-100.99" rx="39.7" ry="28.98"/>
<text text-anchor="middle" x="935.4" y="-109.49" font-family="Helvetica,sans-Serif" font-size="10.00" fill="#ffffff">alconna.</text>
<text text-anchor="middle" x="935.4" y="-98.49" font-family="Helvetica,sans-Serif" font-size="10.00" fill="#ffffff">analysis.</text>
<text text-anchor="middle" x="935.4" y="-87.49" font-family="Helvetica,sans-Serif" font-size="10.00" fill="#ffffff">parts</text>
</g>
<!-- alconna_analysis_analyser&#45;&gt;alconna_analysis_parts -->
<g id="edge9" class="edge">
<title>alconna_analysis_analyser&#45;&gt;alconna_analysis_parts</title><style>.edge>path:hover{stroke-width:8}</style>
<path fill="none" stroke="black" d="M897.45,-167.86C902.99,-158.25 909.35,-147.2 915.27,-136.93"/>
<polygon fill="#b80909" stroke="black" points="918.36,-138.58 920.32,-128.17 912.29,-135.09 918.36,-138.58"/>
</g>
<!-- alconna_analysis_analyser&#45;&gt;alconna_builtin_analyser -->
<g id="edge10" class="edge">
<title>alconna_analysis_analyser&#45;&gt;alconna_builtin_analyser</title><style>.edge>path:hover{stroke-width:8}</style>
<path fill="none" stroke="black" d="M860.92,-219.68C821.39,-263.39 739.09,-354.88 716.25,-384.04"/>
<polygon fill="#b80909" stroke="black" points="713.27,-382.19 710.4,-392.39 719,-386.21 713.27,-382.19"/>
</g>
<!-- alconna_analysis_arg_handlers&#45;&gt;alconna_analysis -->
<g id="edge12" class="edge">
<title>alconna_analysis_arg_handlers&#45;&gt;alconna_analysis</title><style>.edge>path:hover{stroke-width:8}</style>
<path fill="none" stroke="black" d="M898.4,-555.81C900.43,-593.02 883.22,-633.92 871.29,-657.43"/>
<path fill="none" stroke="black" d="M737.4,-319.18C731.85,-398.01 738.55,-427.7 787.4,-489.82 822.6,-534.58 894.77,-496.98 898.4,-553.81"/>
</g>
<!-- alconna_analysis_arg_handlers&#45;&gt;alconna_builtin_analyser -->
<g id="edge13" class="edge">
<title>alconna_analysis_arg_handlers&#45;&gt;alconna_builtin_analyser</title><style>.edge>path:hover{stroke-width:8}</style>
<path fill="none" stroke="black" d="M710.4,-394.39C697.75,-425.42 679.42,-436.71 692.4,-467.61"/>
<path fill="none" stroke="black" d="M736.78,-130.21C738.45,-169.27 740.71,-242.3 737.9,-306.89"/>
<polygon fill="#b42d2d" stroke="black" points="734.39,-307.02 737.4,-317.18 741.38,-307.36 734.39,-307.02"/>
<path fill="none" stroke="black" d="M737.4,-319.18C735.57,-353.81 723.49,-360.28 710.4,-392.39"/>
</g>
<!-- alconna_analysis_parts&#45;&gt;alconna_analysis -->
<g id="edge14" class="edge">
<title>alconna_analysis_parts&#45;&gt;alconna_analysis</title><style>.edge>path:hover{stroke-width:8}</style>
<path fill="none" stroke="black" d="M936.4,-469.61C910.79,-514.7 930.58,-535.23 912.4,-583.8 902.27,-610.88 885.18,-639.57 873.37,-657.85"/>
</g>
<!-- alconna_analysis_parts&#45;&gt;alconna_builtin_analyser -->
<g id="edge15" class="edge">
<title>alconna_analysis_parts&#45;&gt;alconna_builtin_analyser</title><style>.edge>path:hover{stroke-width:8}</style>
<path fill="none" stroke="black" d="M938.46,-129.94C945.79,-201.08 962.2,-388.25 940.11,-457.85"/>
<polygon fill="#ac2b2b" stroke="black" points="936.69,-457.01 936.4,-467.61 943.23,-459.5 936.69,-457.01"/>
<path fill="none" stroke="black" d="M936.4,-469.61C908.43,-530.45 823.05,-547.41 773.02,-552.09"/>
</g>
<!-- alconna_base -->
<g id="node7" class="node">
<title>alconna_base</title><style>.edge>path:hover{stroke-width:8}</style>
<ellipse fill="#ef0606" stroke="black" cx="828.4" cy="-831.65" rx="43.62" ry="18"/>
<text text-anchor="middle" x="828.4" y="-829.15" font-family="Helvetica,sans-Serif" font-size="10.00" fill="#ffffff">alconna.base</text>
</g>
<!-- alconna_base&#45;&gt;alconna -->
<g id="edge16" class="edge">
<title>alconna_base&#45;&gt;alconna</title><style>.edge>path:hover{stroke-width:8}</style>
<path fill="none" stroke="black" d="M122.4,-755.44C81.59,-719.68 60.31,-690.83 84.4,-469.61"/>
<path fill="none" stroke="black" d="M785.28,-829C639.73,-823.03 172.91,-800.65 122.4,-757.44"/>
</g>
<!-- alconna_base&#45;&gt;alconna_analysis -->
<g id="edge17" class="edge">
<title>alconna_base&#45;&gt;alconna_analysis</title><style>.edge>path:hover{stroke-width:8}</style>
<path fill="none" stroke="black" d="M847.18,-815.41C863.24,-801.61 886.11,-780.03 901.4,-757.44"/>
<path fill="none" stroke="black" d="M901.4,-755.44C912.54,-738.98 901.3,-719.18 887.79,-703.86"/>
<polygon fill="#ef0606" stroke="black" points="890.04,-701.14 880.62,-696.29 884.96,-705.96 890.04,-701.14"/>
</g>
<!-- alconna_base&#45;&gt;alconna_analysis_Analyser -->
<g id="edge18" class="edge">
<title>alconna_base&#45;&gt;alconna_analysis_Analyser</title><style>.edge>path:hover{stroke-width:8}</style>
<path fill="none" stroke="black" d="M198.4,-317.18C199.07,-292.2 190.64,-284.71 198.4,-260.97"/>
<path fill="none" stroke="black" d="M122.4,-755.44C96.86,-733.05 106.92,-709.25 122.4,-679.01"/>
</g>
<!-- alconna_base&#45;&gt;alconna_analysis_analyser -->
<g id="edge19" class="edge">
<title>alconna_base&#45;&gt;alconna_analysis_analyser</title><style>.edge>path:hover{stroke-width:8}</style>
<path fill="none" stroke="black" d="M901.4,-755.44C944.88,-691.22 1012.4,-698.35 1012.4,-620.8 1012.4,-620.8 1012.4,-620.8 1012.4,-392.39 1012.4,-331.59 1019.53,-301.72 974.4,-260.97"/>
</g>
<!-- alconna_base&#45;&gt;alconna_analysis_parts -->
<g id="edge20" class="edge">
<title>alconna_base&#45;&gt;alconna_analysis_parts</title><style>.edge>path:hover{stroke-width:8}</style>
<path fill="none" stroke="black" d="M859.27,-818.61C920.27,-792.54 1050.4,-724.75 1050.4,-620.8 1050.4,-620.8 1050.4,-620.8 1050.4,-392.39 1050.4,-333.98 1056.7,-319.04 1050.4,-260.97"/>
</g>
<!-- alconna_builtin_actions -->
<g id="node9" class="node">
<title>alconna_builtin_actions</title><style>.edge>path:hover{stroke-width:8}</style>
<ellipse fill="#bc2f2f" stroke="black" cx="263.4" cy="-554.81" rx="37.45" ry="28.98"/>
<text text-anchor="middle" x="263.4" y="-563.31" font-family="Helvetica,sans-Serif" font-size="10.00" fill="#ffffff">alconna.</text>
<text text-anchor="middle" x="263.4" y="-552.31" font-family="Helvetica,sans-Serif" font-size="10.00" fill="#ffffff">builtin.</text>
<text text-anchor="middle" x="263.4" y="-541.31" font-family="Helvetica,sans-Serif" font-size="10.00" fill="#ffffff">actions</text>
</g>
<!-- alconna_base&#45;&gt;alconna_builtin_actions -->
<g id="edge21" class="edge">
<title>alconna_base&#45;&gt;alconna_builtin_actions</title><style>.edge>path:hover{stroke-width:8}</style>
<path fill="none" stroke="black" d="M785.09,-829.5C716.96,-825.98 582.42,-812.03 484.4,-757.44"/>
<path fill="none" stroke="black" d="M484.4,-755.44C430.12,-725.21 403.74,-739.48 356.4,-699.23 321.57,-669.61 294.98,-623.7 279.33,-591.83"/>
<polygon fill="#ef0606" stroke="black" points="282.3,-589.93 274.82,-582.43 275.99,-592.96 282.3,-589.93"/>
</g>
<!-- alconna_component -->
<g id="node12" class="node">
<title>alconna_component</title><style>.edge>path:hover{stroke-width:8}</style>
<ellipse fill="#ef0606" stroke="black" cx="827.4" cy="-756.44" rx="45.92" ry="21.43"/>
<text text-anchor="middle" x="827.4" y="-759.44" font-family="Helvetica,sans-Serif" font-size="10.00" fill="#ffffff">alconna.</text>
<text text-anchor="middle" x="827.4" y="-748.44" font-family="Helvetica,sans-Serif" font-size="10.00" fill="#ffffff">component</text>
</g>
<!-- alconna_base&#45;&gt;alconna_component -->
<g id="edge22" class="edge">
<title>alconna_base&#45;&gt;alconna_component</title><style>.edge>path:hover{stroke-width:8}</style>
<path fill="none" stroke="black" d="M828.17,-813.3C828.06,-805.73 827.94,-796.61 827.82,-787.97"/>
<polygon fill="#ef0606" stroke="black" points="831.32,-787.73 827.68,-777.78 824.32,-787.83 831.32,-787.73"/>
</g>
<!-- alconna_base&#45;&gt;alconna_main -->
<g id="edge23" class="edge">
<title>alconna_base&#45;&gt;alconna_main</title><style>.edge>path:hover{stroke-width:8}</style>
<path fill="none" stroke="black" d="M464.4,-467.61C469.14,-447.97 483,-430.11 495.98,-416.95"/>
<polygon fill="#ef0606" stroke="black" points="498.67,-419.22 503.44,-409.76 493.81,-414.17 498.67,-419.22"/>
<path fill="none" stroke="black" d="M484.4,-755.44C373.78,-692.36 434.54,-593.4 464.4,-469.61"/>
</g>
<!-- alconna_builtin -->
<g id="node8" class="node">
<title>alconna_builtin</title><style>.edge>path:hover{stroke-width:8}</style>
<ellipse fill="#ce3b3b" stroke="black" cx="833.4" cy="-468.61" rx="37.45" ry="21.43"/>
<text text-anchor="middle" x="833.4" y="-471.61" font-family="Helvetica,sans-Serif" font-size="10.00" fill="#ffffff">alconna.</text>
<text text-anchor="middle" x="833.4" y="-460.61" font-family="Helvetica,sans-Serif" font-size="10.00" fill="#ffffff">builtin</text>
</g>
<!-- alconna_builtin&#45;&gt;alconna -->
<g id="edge24" class="edge">
<title>alconna_builtin&#45;&gt;alconna</title><style>.edge>path:hover{stroke-width:8}</style>
<path fill="none" stroke="black" d="M832.54,-447.16C829.46,-374.49 819.04,-128.59 815.55,-46.18"/>
<polygon fill="#ce3b3b" stroke="black" points="819.05,-45.94 815.13,-36.1 812.05,-46.23 819.05,-45.94"/>
</g>
<!-- alconna_builtin&#45;&gt;alconna_main -->
<g id="edge25" class="edge">
<title>alconna_builtin&#45;&gt;alconna_main</title><style>.edge>path:hover{stroke-width:8}</style>
<path fill="none" stroke="black" d="M799.23,-459.56C743.48,-446.44 632.84,-420.39 569.62,-405.51"/>
<polygon fill="#ce3b3b" stroke="black" points="570.06,-402.01 559.52,-403.13 568.45,-408.83 570.06,-402.01"/>
</g>
<!-- alconna_builtin_actions&#45;&gt;alconna -->
<g id="edge26" class="edge">
<title>alconna_builtin_actions&#45;&gt;alconna</title><style>.edge>path:hover{stroke-width:8}</style>
<path fill="none" stroke="black" d="M280.66,-528.86C300.76,-498.51 333.38,-445.05 350.4,-394.39"/>
<path fill="none" stroke="black" d="M350.4,-392.39C355.06,-349.4 343.89,-331.88 369.4,-296.97 417.04,-231.78 524.93,-276.58 520.4,-195.97"/>
<path fill="none" stroke="black" d="M520.4,-193.97C514.63,-150.77 450.06,-126.05 486.4,-101.99"/>
</g>
<!-- alconna_builtin_actions&#45;&gt;alconna_main -->
<g id="edge27" class="edge">
<title>alconna_builtin_actions&#45;&gt;alconna_main</title><style>.edge>path:hover{stroke-width:8}</style>
<path fill="none" stroke="black" d="M292.11,-536.14C340.94,-506.09 439.8,-445.23 490.64,-413.94"/>
<polygon fill="#bc2f2f" stroke="black" points="492.57,-416.86 499.25,-408.64 488.9,-410.9 492.57,-416.86"/>
</g>
<!-- alconna_builtin_analyser&#45;&gt;alconna_main -->
<g id="edge28" class="edge">
<title>alconna_builtin_analyser&#45;&gt;alconna_main</title><style>.edge>path:hover{stroke-width:8}</style>
<path fill="none" stroke="black" d="M708.86,-533.94C668.48,-503.72 591.97,-446.46 550.62,-415.51"/>
<polygon fill="#8a2e2e" stroke="black" points="552.7,-412.7 542.6,-409.51 548.51,-418.3 552.7,-412.7"/>
</g>
<!-- alconna_builtin_construct -->
<g id="node11" class="node">
<title>alconna_builtin_construct</title><style>.edge>path:hover{stroke-width:8}</style>
<ellipse fill="#c24747" stroke="black" cx="1118.4" cy="-194.97" rx="40.11" ry="28.98"/>
<text text-anchor="middle" x="1118.4" y="-203.47" font-family="Helvetica,sans-Serif" font-size="10.00" fill="#ffffff">alconna.</text>
<text text-anchor="middle" x="1118.4" y="-192.47" font-family="Helvetica,sans-Serif" font-size="10.00" fill="#ffffff">builtin.</text>
<text text-anchor="middle" x="1118.4" y="-181.47" font-family="Helvetica,sans-Serif" font-size="10.00" fill="#ffffff">construct</text>
</g>
<!-- alconna_builtin_construct&#45;&gt;alconna -->
<g id="edge29" class="edge">
<title>alconna_builtin_construct&#45;&gt;alconna</title><style>.edge>path:hover{stroke-width:8}</style>
<path fill="none" stroke="black" d="M1148.25,-175.26C1172.8,-157.36 1201.31,-129.15 1186.4,-101.99"/>
<path fill="none" stroke="black" d="M1186.4,-99.99C1154.42,-41.74 943.18,-25.03 854.01,-20.54"/>
<polygon fill="#c24747" stroke="black" points="853.91,-17.03 843.76,-20.05 853.58,-24.02 853.91,-17.03"/>
</g>
<!-- alconna_component&#45;&gt;alconna -->
<g id="edge30" class="edge">
<title>alconna_component&#45;&gt;alconna</title><style>.edge>path:hover{stroke-width:8}</style>
<path fill="none" stroke="black" d="M786.9,-746.41C664.76,-716.7 310.81,-611.25 350.4,-394.39"/>
</g>
<!-- alconna_component&#45;&gt;alconna_analysis -->
<g id="edge31" class="edge">
<title>alconna_component&#45;&gt;alconna_analysis</title><style>.edge>path:hover{stroke-width:8}</style>
<path fill="none" stroke="black" d="M836.07,-735.36C839.66,-727.05 843.9,-717.24 847.82,-708.16"/>
<polygon fill="#ef0606" stroke="black" points="851.15,-709.26 851.9,-698.7 844.73,-706.49 851.15,-709.26"/>
</g>
<!-- alconna_component&#45;&gt;alconna_analysis_Analyser -->
<g id="edge32" class="edge">
<title>alconna_component&#45;&gt;alconna_analysis_Analyser</title><style>.edge>path:hover{stroke-width:8}</style>
<path fill="none" stroke="black" d="M781.65,-753.48C690.51,-748.86 490.09,-734.84 432.4,-699.23 379.29,-666.44 385.9,-636.47 352.4,-583.8 315.88,-526.39 198.4,-387.22 198.4,-319.18"/>
</g>
<!-- alconna_component&#45;&gt;alconna_analysis_analyser -->
<g id="edge33" class="edge">
<title>alconna_component&#45;&gt;alconna_analysis_analyser</title><style>.edge>path:hover{stroke-width:8}</style>
<path fill="none" stroke="black" d="M861.5,-742.06C904.92,-722.51 974.4,-681.71 974.4,-620.8 974.4,-620.8 974.4,-620.8 974.4,-467.61 974.4,-401.64 955.47,-382.37 974.4,-319.18"/>
<path fill="none" stroke="black" d="M974.4,-259.97C958.05,-245.2 938.16,-230.97 921.06,-219.7"/>
<polygon fill="#ef0606" stroke="black" points="922.7,-216.59 912.41,-214.09 918.89,-222.46 922.7,-216.59"/>
<path fill="none" stroke="black" d="M974.4,-317.18C982.68,-293.6 992.94,-277.71 974.4,-260.97"/>
</g>
<!-- alconna_component&#45;&gt;alconna_analysis_parts -->
<g id="edge34" class="edge">
<title>alconna_component&#45;&gt;alconna_analysis_parts</title><style>.edge>path:hover{stroke-width:8}</style>
<path fill="none" stroke="black" d="M974.4,-317.18C988.32,-277.54 1054.93,-302.73 1050.4,-260.97"/>
<path fill="none" stroke="black" d="M1050.4,-193.97C1024.52,-171 993.85,-146.6 970.7,-128.71"/>
<polygon fill="#ef0606" stroke="black" points="972.59,-125.75 962.53,-122.43 968.32,-131.3 972.59,-125.75"/>
<path fill="none" stroke="black" d="M1050.4,-259.97C1047.34,-231.69 1071.67,-214.85 1050.4,-195.97"/>
</g>
<!-- alconna_component&#45;&gt;alconna_builtin_analyser -->
<g id="edge35" class="edge">
<title>alconna_component&#45;&gt;alconna_builtin_analyser</title><style>.edge>path:hover{stroke-width:8}</style>
<path fill="none" stroke="black" d="M712.4,-677.01C685.9,-657.93 699.13,-618.57 714.16,-589.87"/>
<polygon fill="#ef0606" stroke="black" points="717.31,-591.41 719.06,-580.96 711.18,-588.04 717.31,-591.41"/>
</g>
<!-- alconna_component&#45;&gt;alconna_main -->
<g id="edge36" class="edge">
<title>alconna_component&#45;&gt;alconna_main</title><style>.edge>path:hover{stroke-width:8}</style>
<path fill="none" stroke="black" d="M712.4,-677.01C623,-614.88 599.05,-589.12 554.4,-489.82 544.26,-467.26 535.55,-440.47 529.79,-421.03"/>
<polygon fill="#ef0606" stroke="black" points="533.12,-419.95 526.98,-411.32 526.4,-421.9 533.12,-419.95"/>
<path fill="none" stroke="black" d="M797.86,-739.86C773.26,-725.99 738.21,-704.05 712.4,-679.01"/>
</g>
<!-- alconna_exceptions -->
<g id="node13" class="node">
<title>alconna_exceptions</title><style>.edge>path:hover{stroke-width:8}</style>
<ellipse fill="#f91010" stroke="black" cx="828.4" cy="-906.87" rx="45.01" ry="21.43"/>
<text text-anchor="middle" x="828.4" y="-909.87" font-family="Helvetica,sans-Serif" font-size="10.00" fill="#ffffff">alconna.</text>
<text text-anchor="middle" x="828.4" y="-898.87" font-family="Helvetica,sans-Serif" font-size="10.00" fill="#ffffff">exceptions</text>
</g>
<!-- alconna_exceptions&#45;&gt;alconna -->
<g id="edge37" class="edge">
<title>alconna_exceptions&#45;&gt;alconna</title><style>.edge>path:hover{stroke-width:8}</style>
<path fill="none" stroke="black" d="M84.4,-467.61C96.86,-370.55 89.19,-328.08 160.4,-260.97"/>
<path fill="none" stroke="black" d="M8.4,-830.65C-16.18,-803.72 19.18,-619.12 46.4,-555.81"/>
<path fill="none" stroke="black" d="M46.4,-553.81C62.89,-516.21 76.76,-509.95 84.4,-469.61"/>
<path fill="none" stroke="black" d="M486.4,-99.99C577.44,-39.73 709.5,-24.28 774.79,-20.34"/>
<polygon fill="#f91010" stroke="black" points="775.26,-23.82 785.06,-19.78 774.88,-16.83 775.26,-23.82"/>
<path fill="none" stroke="black" d="M160.4,-259.97C264.95,-137.52 352.14,-190.86 486.4,-101.99"/>
<path fill="none" stroke="black" d="M782.94,-905.86C635.52,-905.33 172.15,-899.62 32.4,-849.65 20.09,-845.25 16.15,-843.18 8.4,-832.65"/>
</g>
<!-- alconna_exceptions&#45;&gt;alconna_analysis_Analyser -->
<g id="edge38" class="edge">
<title>alconna_exceptions&#45;&gt;alconna_analysis_Analyser</title><style>.edge>path:hover{stroke-width:8}</style>
<path fill="none" stroke="black" d="M46.4,-553.81C61.79,-520.55 79.57,-521.25 98.4,-489.82 126.75,-442.51 124.32,-425.93 146.4,-375.39 157.58,-349.8 189.73,-287.52 198.4,-260.97"/>
<path fill="none" stroke="black" d="M198.4,-259.97C203.34,-239.73 331.34,-215.68 403.71,-203.64"/>
<polygon fill="#f91010" stroke="black" points="404.66,-207.03 413.96,-201.95 403.52,-200.12 404.66,-207.03"/>
</g>
<!-- alconna_exceptions&#45;&gt;alconna_analysis_analyser -->
<g id="edge39" class="edge">
<title>alconna_exceptions&#45;&gt;alconna_analysis_analyser</title><style>.edge>path:hover{stroke-width:8}</style>
<path fill="none" stroke="black" d="M1126.4,-467.61C1105.76,-380.98 1081.08,-363.06 1021.4,-296.97 1003.77,-277.44 993.78,-278.76 974.4,-260.97"/>
<path fill="none" stroke="black" d="M846.19,-887.21C869.11,-863.48 908.08,-824.3 925.4,-813.65 966,-788.69 989.23,-807.47 1026.4,-777.65 1066.79,-745.25 1088.4,-730.79 1088.4,-679.01 1088.4,-679.01 1088.4,-679.01 1088.4,-619.8 1088.4,-617.65 1126.78,-471.72 1126.4,-469.61"/>
</g>
<!-- alconna_exceptions&#45;&gt;alconna_analysis_arg_handlers -->
<g id="edge40" class="edge">
<title>alconna_exceptions&#45;&gt;alconna_analysis_arg_handlers</title><style>.edge>path:hover{stroke-width:8}</style>
<path fill="none" stroke="black" d="M408.4,-755.44C396.02,-713.35 389.96,-698.23 404.4,-656.8 467.47,-475.9 672.4,-510.76 672.4,-319.18 672.4,-319.18 672.4,-319.18 672.4,-259.97 672.4,-215.22 694.48,-168.09 712.49,-137.08"/>
<polygon fill="#f91010" stroke="black" points="715.56,-138.77 717.69,-128.39 709.55,-135.18 715.56,-138.77"/>
<path fill="none" stroke="black" d="M408.4,-830.65C377.46,-820.59 407.88,-789.98 408.4,-757.44"/>
</g>
<!-- alconna_exceptions&#45;&gt;alconna_analysis_parts -->
<g id="edge41" class="edge">
<title>alconna_exceptions&#45;&gt;alconna_analysis_parts</title><style>.edge>path:hover{stroke-width:8}</style>
<path fill="none" stroke="black" d="M862.59,-892.74C940.86,-862.17 1126.4,-786.63 1126.4,-757.44 1126.4,-757.44 1126.4,-757.44 1126.4,-619.8 1126.4,-542.92 1154.58,-522.95 1140.4,-447.39 1134.07,-413.65 1126.83,-406.55 1112.4,-375.39 1088.09,-322.91 1056.95,-318.43 1050.4,-260.97"/>
</g>
<!-- alconna_exceptions&#45;&gt;alconna_base -->
<g id="edge42" class="edge">
<title>alconna_exceptions&#45;&gt;alconna_base</title><style>.edge>path:hover{stroke-width:8}</style>
<path fill="none" stroke="black" d="M828.4,-885.47C828.4,-877.62 828.4,-868.52 828.4,-860.11"/>
<polygon fill="#f91010" stroke="black" points="831.9,-859.96 828.4,-849.96 824.9,-859.96 831.9,-859.96"/>
</g>
<!-- alconna_exceptions&#45;&gt;alconna_builtin_analyser -->
<g id="edge43" class="edge">
<title>alconna_exceptions&#45;&gt;alconna_builtin_analyser</title><style>.edge>path:hover{stroke-width:8}</style>
<path fill="none" stroke="black" d="M408.4,-755.44C367.4,-629.28 588.76,-578.53 688.57,-562.26"/>
<polygon fill="#f91010" stroke="black" points="689.36,-565.68 698.69,-560.66 688.27,-558.77 689.36,-565.68"/>
</g>
<!-- alconna_exceptions&#45;&gt;alconna_manager -->
<g id="edge44" class="edge">
<title>alconna_exceptions&#45;&gt;alconna_manager</title><style>.edge>path:hover{stroke-width:8}</style>
<path fill="none" stroke="black" d="M426.4,-467.61C417.66,-436.18 413.31,-425.99 421.4,-394.39"/>
<path fill="none" stroke="black" d="M784.26,-902.08C706.71,-894.56 541.62,-874.73 408.4,-832.65"/>
<path fill="none" stroke="black" d="M408.4,-830.65C279.29,-789.87 195.42,-881.39 108.4,-777.65 33.22,-688.02 190.23,-729.69 237.4,-699.23 251.28,-690.26 430.83,-485.52 426.4,-469.61"/>
</g>
<!-- alconna_util -->
<g id="node17" class="node">
<title>alconna_util</title><style>.edge>path:hover{stroke-width:8}</style>
<ellipse fill="#e90c0c" stroke="black" cx="189.4" cy="-678.01" rx="38.7" ry="18"/>
<text text-anchor="middle" x="189.4" y="-675.51" font-family="Helvetica,sans-Serif" font-size="10.00" fill="#ffffff">alconna.util</text>
</g>
<!-- alconna_exceptions&#45;&gt;alconna_util -->
<g id="edge45" class="edge">
<title>alconna_exceptions&#45;&gt;alconna_util</title><style>.edge>path:hover{stroke-width:8}</style>
<path fill="none" stroke="black" d="M8.4,-830.65C-16.31,-803.57 23.97,-786.44 46.4,-757.44"/>
<path fill="none" stroke="black" d="M46.4,-755.44C54.93,-744.41 58.67,-742.76 70.4,-735.23 95.92,-718.85 126.96,-704.34 150.94,-694.17"/>
<polygon fill="#f91010" stroke="black" points="152.54,-697.3 160.42,-690.22 149.84,-690.84 152.54,-697.3"/>
</g>
<!-- alconna_main&#45;&gt;alconna -->
<g id="edge46" class="edge">
<title>alconna_main&#45;&gt;alconna</title><style>.edge>path:hover{stroke-width:8}</style>
<path fill="none" stroke="black" d="M518.17,-375.09C512.73,-349.26 505.59,-299.52 520.4,-260.97"/>
</g>
<!-- alconna_main&#45;&gt;alconna_analysis_Analyser -->
<g id="edge48" class="edge">
<title>alconna_main&#45;&gt;alconna_analysis_Analyser</title><style>.edge>path:hover{stroke-width:8}</style>
<path fill="none" stroke="black" d="M512.86,-365.63C500.66,-331.39 479.46,-271.9 465.68,-233.24"/>
<polygon fill="#a50808" stroke="black" points="509.66,-367.06 516.31,-375.3 516.25,-364.71 509.66,-367.06"/>
<polygon fill="#a50808" stroke="black" points="468.83,-231.65 462.18,-223.41 462.24,-234 468.83,-231.65"/>
</g>
<!-- alconna_main&#45;&gt;alconna_analysis_analyser -->
<g id="edge49" class="edge">
<title>alconna_main&#45;&gt;alconna_analysis_analyser</title><style>.edge>path:hover{stroke-width:8}</style>
<path fill="none" stroke="black" d="M547.09,-378.51C590.35,-354.21 682.77,-302.54 761.4,-259.97 788.06,-245.53 818.2,-229.59 841.72,-217.23"/>
<polygon fill="#a50808" stroke="black" points="843.49,-220.26 850.72,-212.51 840.24,-214.06 843.49,-220.26"/>
</g>
<!-- alconna_main&#45;&gt;alconna_manager -->
<g id="edge50" class="edge">
<title>alconna_main&#45;&gt;alconna_manager</title><style>.edge>path:hover{stroke-width:8}</style>
<path fill="none" stroke="black" d="M492.59,-371.8C478.71,-362.21 462.19,-350.8 448.08,-341.06"/>
<polygon fill="#a50808" stroke="black" points="490.73,-374.77 500.95,-377.58 494.71,-369.01 490.73,-374.77"/>
<polygon fill="#a50808" stroke="black" points="449.88,-338.05 439.66,-335.24 445.9,-343.81 449.88,-338.05"/>
</g>
<!-- alconna_manager&#45;&gt;alconna -->
<g id="edge51" class="edge">
<title>alconna_manager&#45;&gt;alconna</title><style>.edge>path:hover{stroke-width:8}</style>
<path fill="none" stroke="black" d="M520.4,-259.97C530.6,-233.42 522,-224.37 520.4,-195.97"/>
<path fill="none" stroke="black" d="M452.09,-310.31C477.78,-303.09 509.73,-288.75 520.4,-260.97"/>
</g>
<!-- alconna_manager&#45;&gt;alconna_analysis_Analyser -->
<g id="edge52" class="edge">
<title>alconna_manager&#45;&gt;alconna_analysis_Analyser</title><style>.edge>path:hover{stroke-width:8}</style>
<path fill="none" stroke="black" d="M378.62,-314.97C313.2,-310.2 186.84,-296.35 198.4,-260.97"/>
</g>
<!-- alconna_manager&#45;&gt;alconna_analysis_analyser -->
<g id="edge53" class="edge">
<title>alconna_manager&#45;&gt;alconna_analysis_analyser</title><style>.edge>path:hover{stroke-width:8}</style>
<path fill="none" stroke="black" d="M459.23,-304.71C500.43,-292.83 564.52,-274.62 620.4,-259.97 695.13,-240.37 782.37,-219.45 834.95,-207.05"/>
<polygon fill="#c20a0a" stroke="black" points="458.16,-301.38 449.52,-307.52 460.1,-308.1 458.16,-301.38"/>
<polygon fill="#c20a0a" stroke="black" points="836.06,-210.39 844.99,-204.69 834.45,-203.57 836.06,-210.39"/>
</g>
<!-- alconna_manager&#45;&gt;alconna_builtin_analyser -->
<g id="edge54" class="edge">
<title>alconna_manager&#45;&gt;alconna_builtin_analyser</title><style>.edge>path:hover{stroke-width:8}</style>
<path fill="none" stroke="black" d="M452.63,-325.32C514.09,-337.9 637.02,-373.03 687.47,-458.61"/>
<polygon fill="#c20a0a" stroke="black" points="684.52,-460.52 692.4,-467.61 690.66,-457.15 684.52,-460.52"/>
<path fill="none" stroke="black" d="M692.4,-469.61C702.3,-489.06 713.52,-511.03 722.02,-527.65"/>
</g>
<!-- alconna_types -->
<g id="node16" class="node">
<title>alconna_types</title><style>.edge>path:hover{stroke-width:8}</style>
<ellipse fill="#f91010" stroke="black" cx="937.4" cy="-906.87" rx="45.15" ry="18"/>
<text text-anchor="middle" x="937.4" y="-904.37" font-family="Helvetica,sans-Serif" font-size="10.00" fill="#ffffff">alconna.types</text>
</g>
<!-- alconna_types&#45;&gt;alconna -->
<g id="edge56" class="edge">
<title>alconna_types&#45;&gt;alconna</title><style>.edge>path:hover{stroke-width:8}</style>
<path fill="none" stroke="black" d="M1186.4,-259.97C1148.13,-201.11 1220.19,-163.54 1186.4,-101.99"/>
</g>
<!-- alconna_types&#45;&gt;alconna_analysis -->
<g id="edge57" class="edge">
<title>alconna_types&#45;&gt;alconna_analysis</title><style>.edge>path:hover{stroke-width:8}</style>
<path fill="none" stroke="black" d="M939.4,-830.65C917.28,-792.93 936.77,-773.39 915.4,-735.23 908.66,-723.2 898.68,-711.91 889.06,-702.65"/>
<polygon fill="#f91010" stroke="black" points="891.23,-699.88 881.5,-695.68 886.49,-705.03 891.23,-699.88"/>
</g>
<!-- alconna_types&#45;&gt;alconna_analysis_Analyser -->
<g id="edge58" class="edge">
<title>alconna_types&#45;&gt;alconna_analysis_Analyser</title><style>.edge>path:hover{stroke-width:8}</style>
<path fill="none" stroke="black" d="M907.6,-893.14C899.56,-890.2 890.76,-887.42 882.4,-885.65 791.33,-866.46 117.36,-892.88 46.4,-832.65"/>
<path fill="none" stroke="black" d="M46.4,-830.65C13.72,-802.92 11.62,-772.72 32.4,-735.23 55.27,-693.98 100.91,-720.99 122.4,-679.01"/>
<path fill="none" stroke="black" d="M122.4,-677.01C179.91,-552.82 154.08,-508.85 184.4,-375.39 190.11,-350.28 197.72,-344.92 198.4,-319.18"/>
</g>
<!-- alconna_types&#45;&gt;alconna_analysis_analyser -->
<g id="edge59" class="edge">
<title>alconna_types&#45;&gt;alconna_analysis_analyser</title><style>.edge>path:hover{stroke-width:8}</style>
<path fill="none" stroke="black" d="M1164.4,-553.81C1164.4,-512.75 1135.54,-509.63 1126.4,-469.61"/>
</g>
<!-- alconna_types&#45;&gt;alconna_analysis_arg_handlers -->
<g id="edge60" class="edge">
<title>alconna_types&#45;&gt;alconna_analysis_arg_handlers</title><style>.edge>path:hover{stroke-width:8}</style>
<path fill="none" stroke="black" d="M1164.4,-830.65C1222.81,-723.37 1164.4,-677.96 1164.4,-555.81"/>
<path fill="none" stroke="black" d="M1202.4,-467.61C1201.7,-422.56 969.38,-190.23 931.4,-165.98 889.04,-138.93 834.18,-122.3 793.27,-112.8"/>
<polygon fill="#f91010" stroke="black" points="793.98,-109.37 783.46,-110.6 792.45,-116.2 793.98,-109.37"/>
<path fill="none" stroke="black" d="M1164.4,-553.81C1162.84,-512.78 1199.6,-510.57 1202.4,-469.61"/>
</g>
<!-- alconna_types&#45;&gt;alconna_analysis_parts -->
<g id="edge61" class="edge">
<title>alconna_types&#45;&gt;alconna_analysis_parts</title><style>.edge>path:hover{stroke-width:8}</style>
<path fill="none" stroke="black" d="M1186.4,-259.97C1158.56,-213.23 1113.16,-256.3 1069.4,-223.97 1057.31,-215.03 1061.65,-205.95 1050.4,-195.97"/>
<path fill="none" stroke="black" d="M1202.4,-467.61C1199.98,-375.52 1233.55,-340.1 1186.4,-260.97"/>
</g>
<!-- alconna_types&#45;&gt;alconna_base -->
<g id="edge62" class="edge">
<title>alconna_types&#45;&gt;alconna_base</title><style>.edge>path:hover{stroke-width:8}</style>
<path fill="none" stroke="black" d="M915.34,-891.05C899.09,-880.14 876.79,-865.15 858.84,-853.1"/>
<polygon fill="#f91010" stroke="black" points="860.68,-850.12 850.43,-847.45 856.78,-855.93 860.68,-850.12"/>
</g>
<!-- alconna_types&#45;&gt;alconna_builtin_analyser -->
<g id="edge63" class="edge">
<title>alconna_types&#45;&gt;alconna_builtin_analyser</title><style>.edge>path:hover{stroke-width:8}</style>
<path fill="none" stroke="black" d="M979.76,-900.19C1042.3,-890.64 1153.18,-868.79 1164.4,-832.65"/>
<path fill="none" stroke="black" d="M1164.4,-830.65C1191.65,-742.93 892.3,-616.64 778.37,-572.1"/>
<polygon fill="#f91010" stroke="black" points="779.48,-568.78 768.89,-568.42 776.95,-575.3 779.48,-568.78"/>
</g>
<!-- alconna_types&#45;&gt;alconna_component -->
<g id="edge64" class="edge">
<title>alconna_types&#45;&gt;alconna_component</title><style>.edge>path:hover{stroke-width:8}</style>
<path fill="none" stroke="black" d="M939.4,-830.65C924.24,-804.8 895.91,-786.41 871.54,-774.53"/>
<polygon fill="#f91010" stroke="black" points="872.97,-771.34 862.43,-770.29 870.02,-777.68 872.97,-771.34"/>
</g>
<!-- alconna_types&#45;&gt;alconna_main -->
<g id="edge65" class="edge">
<title>alconna_types&#45;&gt;alconna_main</title><style>.edge>path:hover{stroke-width:8}</style>
<path fill="none" stroke="black" d="M942.74,-888.87C946.62,-873.14 949.59,-849.67 939.4,-832.65"/>
<path fill="none" stroke="black" d="M939.4,-830.65C899.42,-763.83 839.5,-817.18 772.4,-777.65 605.59,-679.38 417.95,-657.55 464.4,-469.61"/>
</g>
<!-- alconna_types&#45;&gt;alconna_util -->
<g id="edge66" class="edge">
<title>alconna_types&#45;&gt;alconna_util</title><style>.edge>path:hover{stroke-width:8}</style>
<path fill="none" stroke="black" d="M46.4,-830.65C21.59,-809.6 26.5,-783.18 46.4,-757.44"/>
</g>
<!-- alconna_util&#45;&gt;alconna -->
<g id="edge67" class="edge">
<title>alconna_util&#45;&gt;alconna</title><style>.edge>path:hover{stroke-width:8}</style>
<path fill="none" stroke="black" d="M198.4,-619.8C207.02,-592.7 189.78,-582.91 198.4,-555.81"/>
<path fill="none" stroke="black" d="M198.4,-553.81C219.88,-486.29 207.15,-464.7 198.4,-394.39"/>
<path fill="none" stroke="black" d="M198.4,-392.39C186.54,-332.76 116.28,-302.8 160.4,-260.97"/>
<path fill="none" stroke="black" d="M190.8,-659.98C192.05,-648.68 194.33,-633.61 198.4,-620.8"/>
</g>
<!-- alconna_util&#45;&gt;alconna_analysis_Analyser -->
<g id="edge68" class="edge">
<title>alconna_util&#45;&gt;alconna_analysis_Analyser</title><style>.edge>path:hover{stroke-width:8}</style>
<path fill="none" stroke="black" d="M198.4,-392.39C194.39,-360.1 198.4,-351.72 198.4,-319.18"/>
</g>
<!-- alconna_util&#45;&gt;alconna_analysis_analyser -->
<g id="edge69" class="edge">
<title>alconna_util&#45;&gt;alconna_analysis_analyser</title><style>.edge>path:hover{stroke-width:8}</style>
<path fill="none" stroke="black" d="M228.49,-676.99C348.46,-676.04 707.74,-666.23 781.4,-583.8 791.51,-572.49 784.35,-462.25 787.4,-447.39 803.79,-367.64 841.97,-279.81 864.62,-231.96"/>
<polygon fill="#e90c0c" stroke="black" points="867.91,-233.19 869.07,-222.66 861.6,-230.17 867.91,-233.19"/>
</g>
<!-- alconna_util&#45;&gt;alconna_builtin_actions -->
<g id="edge70" class="edge">
<title>alconna_util&#45;&gt;alconna_builtin_actions</title><style>.edge>path:hover{stroke-width:8}</style>
<path fill="none" stroke="black" d="M198.4,-619.8C203.36,-604.2 214.91,-590.77 226.92,-580.29"/>
<polygon fill="#e90c0c" stroke="black" points="229.28,-582.88 234.82,-573.84 224.86,-577.46 229.28,-582.88"/>
</g>
<!-- alconna_util&#45;&gt;alconna_manager -->
<g id="edge71" class="edge">
<title>alconna_util&#45;&gt;alconna_manager</title><style>.edge>path:hover{stroke-width:8}</style>
<path fill="none" stroke="black" d="M198.4,-553.81C202.73,-539.41 206.64,-536.32 217.4,-525.82 255.99,-488.15 407.06,-446.38 421.4,-394.39"/>
<path fill="none" stroke="black" d="M421.4,-392.39C424.95,-378.56 424.43,-362.81 422.73,-349.48"/>
<polygon fill="#e90c0c" stroke="black" points="426.15,-348.72 421.16,-339.38 419.24,-349.8 426.15,-348.72"/>
</g>
</g>
</svg>
