<?xml version="1.0" encoding="UTF-8" standalone="no"?>
<!DOCTYPE svg PUBLIC "-//W3C//DTD SVG 1.1//EN"
 "http://www.w3.org/Graphics/SVG/1.1/DTD/svg11.dtd">
<!-- Generated by graphviz version 2.49.3 (20211023.0002)
 -->
<!-- Title: G Pages: 1 -->
<svg width="1257pt" height="1008pt"
 viewBox="0.00 0.00 1256.92 1008.08" xmlns="http://www.w3.org/2000/svg" xmlns:xlink="http://www.w3.org/1999/xlink">
<g id="graph0" class="graph" transform="scale(1 1) rotate(0) translate(4 1004.08)">
<title>G</title><style>.edge>path:hover{stroke-width:8}</style>
<polygon fill="white" stroke="transparent" points="-4,4 -4,-1004.08 1252.92,-1004.08 1252.92,4 -4,4"/>
<!-- alconna -->
<g id="node1" class="node">
<title>alconna</title><style>.edge>path:hover{stroke-width:8}</style>
<ellipse fill="#7a1e1e" stroke="black" cx="911.29" cy="-18" rx="29.37" ry="18"/>
<text text-anchor="middle" x="911.29" y="-15.5" font-family="Helvetica,sans-Serif" font-size="10.00" fill="#ffffff">alconna</text>
</g>
<!-- alconna_analysis -->
<g id="node2" class="node">
<title>alconna_analysis</title><style>.edge>path:hover{stroke-width:8}</style>
<ellipse fill="#b80909" stroke="black" cx="742.29" cy="-678.01" rx="37.45" ry="21.43"/>
<text text-anchor="middle" x="742.29" y="-681.01" font-family="Helvetica,sans-Serif" font-size="10.00" fill="#ffffff">alconna.</text>
<text text-anchor="middle" x="742.29" y="-670.01" font-family="Helvetica,sans-Serif" font-size="10.00" fill="#ffffff">analysis</text>
</g>
<!-- alconna_analysis&#45;&gt;alconna -->
<g id="edge1" class="edge">
<title>alconna_analysis&#45;&gt;alconna</title><style>.edge>path:hover{stroke-width:8}</style>
<path fill="none" stroke="black" d="M740.56,-656.77C735.99,-609.35 721.21,-488 683.29,-394.39"/>
<path fill="none" stroke="black" d="M683.29,-392.39C667.56,-351.5 622.56,-362.67 617.29,-319.18"/>
</g>
<!-- alconna_builtin_analyser -->
<g id="node10" class="node">
<title>alconna_builtin_analyser</title><style>.edge>path:hover{stroke-width:8}</style>
<ellipse fill="#8a2e2e" stroke="black" cx="843.29" cy="-554.81" rx="37.45" ry="28.98"/>
<text text-anchor="middle" x="843.29" y="-563.31" font-family="Helvetica,sans-Serif" font-size="10.00" fill="#ffffff">alconna.</text>
<text text-anchor="middle" x="843.29" y="-552.31" font-family="Helvetica,sans-Serif" font-size="10.00" fill="#ffffff">builtin.</text>
<text text-anchor="middle" x="843.29" y="-541.31" font-family="Helvetica,sans-Serif" font-size="10.00" fill="#ffffff">analyser</text>
</g>
<!-- alconna_analysis&#45;&gt;alconna_builtin_analyser -->
<g id="edge2" class="edge">
<title>alconna_analysis&#45;&gt;alconna_builtin_analyser</title><style>.edge>path:hover{stroke-width:8}</style>
<path fill="none" stroke="black" d="M757.63,-658.61C773.25,-639.85 797.8,-610.39 816.62,-587.81"/>
<polygon fill="#b80909" stroke="black" points="819.56,-589.75 823.27,-579.83 814.18,-585.27 819.56,-589.75"/>
</g>
<!-- alconna_main -->
<g id="node14" class="node">
<title>alconna_main</title><style>.edge>path:hover{stroke-width:8}</style>
<ellipse fill="#a50808" stroke="black" cx="497.29" cy="-393.39" rx="43.62" ry="18"/>
<text text-anchor="middle" x="497.29" y="-390.89" font-family="Helvetica,sans-Serif" font-size="10.00" fill="#ffffff">alconna.main</text>
</g>
<!-- alconna_analysis&#45;&gt;alconna_main -->
<g id="edge3" class="edge">
<title>alconna_analysis&#45;&gt;alconna_main</title><style>.edge>path:hover{stroke-width:8}</style>
<path fill="none" stroke="black" d="M715.09,-652.79C679.83,-621.85 615.88,-567.34 557.29,-525.82 532.22,-508.06 513.46,-516.53 498.29,-489.82 486.56,-469.18 487.64,-441.76 490.87,-421.61"/>
<polygon fill="#b80909" stroke="black" points="713.19,-655.77 723,-659.76 717.81,-650.52 713.19,-655.77"/>
<polygon fill="#b80909" stroke="black" points="494.36,-422 492.76,-411.53 487.48,-420.71 494.36,-422"/>
</g>
<!-- alconna_manager -->
<g id="node15" class="node">
<title>alconna_manager</title><style>.edge>path:hover{stroke-width:8}</style>
<ellipse fill="#cc0a0a" stroke="black" cx="683.29" cy="-318.18" rx="38.37" ry="21.43"/>
<text text-anchor="middle" x="683.29" y="-321.18" font-family="Helvetica,sans-Serif" font-size="10.00" fill="#ffffff">alconna.</text>
<text text-anchor="middle" x="683.29" y="-310.18" font-family="Helvetica,sans-Serif" font-size="10.00" fill="#ffffff">manager</text>
</g>
<!-- alconna_analysis&#45;&gt;alconna_manager -->
<g id="edge4" class="edge">
<title>alconna_analysis&#45;&gt;alconna_manager</title><style>.edge>path:hover{stroke-width:8}</style>
<path fill="none" stroke="black" d="M683.29,-392.39C677.9,-379.1 677.26,-363.3 678.23,-349.79"/>
<polygon fill="#b80909" stroke="black" points="681.75,-349.84 679.3,-339.53 674.78,-349.12 681.75,-349.84"/>
</g>
<!-- alconna_analysis_Analyser -->
<g id="node3" class="node">
<title>alconna_analysis_Analyser</title><style>.edge>path:hover{stroke-width:8}</style>
<ellipse fill="#913030" stroke="black" cx="587.29" cy="-194.97" rx="39.7" ry="28.98"/>
<text text-anchor="middle" x="587.29" y="-203.47" font-family="Helvetica,sans-Serif" font-size="10.00" fill="#ffffff">alconna.</text>
<text text-anchor="middle" x="587.29" y="-192.47" font-family="Helvetica,sans-Serif" font-size="10.00" fill="#ffffff">analysis.</text>
<text text-anchor="middle" x="587.29" y="-181.47" font-family="Helvetica,sans-Serif" font-size="10.00" fill="#ffffff">Analyser</text>
</g>
<!-- alconna_analysis_Analyser&#45;&gt;alconna -->
<g id="edge5" class="edge">
<title>alconna_analysis_Analyser&#45;&gt;alconna</title><style>.edge>path:hover{stroke-width:8}</style>
<path fill="none" stroke="black" d="M577.83,-166.73C572.49,-145.76 569.91,-117.77 587.29,-101.99"/>
</g>
<!-- alconna_analysis_analyser -->
<g id="node4" class="node">
<title>alconna_analysis_analyser</title><style>.edge>path:hover{stroke-width:8}</style>
<ellipse fill="#b80909" stroke="black" cx="893.29" cy="-194.97" rx="39.7" ry="28.98"/>
<text text-anchor="middle" x="893.29" y="-203.47" font-family="Helvetica,sans-Serif" font-size="10.00" fill="#ffffff">alconna.</text>
<text text-anchor="middle" x="893.29" y="-192.47" font-family="Helvetica,sans-Serif" font-size="10.00" fill="#ffffff">analysis.</text>
<text text-anchor="middle" x="893.29" y="-181.47" font-family="Helvetica,sans-Serif" font-size="10.00" fill="#ffffff">analyser</text>
</g>
<!-- alconna_analysis_analyser&#45;&gt;alconna_analysis -->
<g id="edge7" class="edge">
<title>alconna_analysis_analyser&#45;&gt;alconna_analysis</title><style>.edge>path:hover{stroke-width:8}</style>
<path fill="none" stroke="black" d="M969.29,-555.81C943.65,-590.47 827.65,-641.76 772.1,-664.9"/>
<path fill="none" stroke="black" d="M906.79,-222.66C917.71,-246.73 931.29,-283.44 931.29,-317.18 931.29,-394.39 931.29,-394.39 931.29,-394.39 931.29,-398.29 960.93,-509.4 967.93,-543.82"/>
<polygon fill="#b80909" stroke="black" points="964.47,-544.37 969.29,-553.81 971.41,-543.43 964.47,-544.37"/>
</g>
<!-- alconna_analysis_arg_handlers -->
<g id="node5" class="node">
<title>alconna_analysis_arg_handlers</title><style>.edge>path:hover{stroke-width:8}</style>
<ellipse fill="#b42d2d" stroke="black" cx="716.29" cy="-100.99" rx="50.82" ry="28.98"/>
<text text-anchor="middle" x="716.29" y="-109.49" font-family="Helvetica,sans-Serif" font-size="10.00" fill="#ffffff">alconna.</text>
<text text-anchor="middle" x="716.29" y="-98.49" font-family="Helvetica,sans-Serif" font-size="10.00" fill="#ffffff">analysis.</text>
<text text-anchor="middle" x="716.29" y="-87.49" font-family="Helvetica,sans-Serif" font-size="10.00" fill="#ffffff">arg_handlers</text>
</g>
<!-- alconna_analysis_analyser&#45;&gt;alconna_analysis_arg_handlers -->
<g id="edge8" class="edge">
<title>alconna_analysis_analyser&#45;&gt;alconna_analysis_arg_handlers</title><style>.edge>path:hover{stroke-width:8}</style>
<path fill="none" stroke="black" d="M861.64,-177.53C833.95,-163.14 793.37,-142.05 762.13,-125.81"/>
<polygon fill="#b80909" stroke="black" points="763.65,-122.66 753.17,-121.16 760.42,-128.87 763.65,-122.66"/>
</g>
<!-- alconna_analysis_parts -->
<g id="node6" class="node">
<title>alconna_analysis_parts</title><style>.edge>path:hover{stroke-width:8}</style>
<ellipse fill="#ac2b2b" stroke="black" cx="825.29" cy="-100.99" rx="39.7" ry="28.98"/>
<text text-anchor="middle" x="825.29" y="-109.49" font-family="Helvetica,sans-Serif" font-size="10.00" fill="#ffffff">alconna.</text>
<text text-anchor="middle" x="825.29" y="-98.49" font-family="Helvetica,sans-Serif" font-size="10.00" fill="#ffffff">analysis.</text>
<text text-anchor="middle" x="825.29" y="-87.49" font-family="Helvetica,sans-Serif" font-size="10.00" fill="#ffffff">parts</text>
</g>
<!-- alconna_analysis_analyser&#45;&gt;alconna_analysis_parts -->
<g id="edge9" class="edge">
<title>alconna_analysis_analyser&#45;&gt;alconna_analysis_parts</title><style>.edge>path:hover{stroke-width:8}</style>
<path fill="none" stroke="black" d="M874.7,-168.84C867,-158.41 857.95,-146.17 849.71,-135.03"/>
<polygon fill="#b80909" stroke="black" points="852.37,-132.74 843.61,-126.78 846.74,-136.9 852.37,-132.74"/>
</g>
<!-- alconna_analysis_analyser&#45;&gt;alconna_builtin_analyser -->
<g id="edge10" class="edge">
<title>alconna_analysis_analyser&#45;&gt;alconna_builtin_analyser</title><style>.edge>path:hover{stroke-width:8}</style>
<path fill="none" stroke="black" d="M890.42,-224.04C890.12,-232.16 890.28,-241.2 891.43,-249.93"/>
<polygon fill="#b80909" stroke="black" points="888.03,-250.77 893.29,-259.97 894.91,-249.5 888.03,-250.77"/>
</g>
<!-- alconna_analysis_arg_handlers&#45;&gt;alconna_analysis -->
<g id="edge12" class="edge">
<title>alconna_analysis_arg_handlers&#45;&gt;alconna_analysis</title><style>.edge>path:hover{stroke-width:8}</style>
<path fill="none" stroke="black" d="M738.38,-127.32C747.21,-138.53 756.8,-152.28 763.29,-165.98 781.72,-204.95 787.29,-216.85 787.29,-259.97 787.29,-394.39 787.29,-394.39 787.29,-394.39 787.29,-487.59 763.13,-595.95 750.21,-647.21"/>
<polygon fill="#b42d2d" stroke="black" points="746.8,-646.41 747.71,-656.97 753.58,-648.15 746.8,-646.41"/>
</g>
<!-- alconna_analysis_arg_handlers&#45;&gt;alconna_builtin_analyser -->
<g id="edge13" class="edge">
<title>alconna_analysis_arg_handlers&#45;&gt;alconna_builtin_analyser</title><style>.edge>path:hover{stroke-width:8}</style>
<path fill="none" stroke="black" d="M748.27,-123.56C764.78,-135.31 784.85,-150.56 801.29,-165.98 810.25,-174.39 813.58,-178.68 818.95,-185.74"/>
<polygon fill="#b42d2d" stroke="black" points="816.42,-188.18 825.29,-193.97 821.96,-183.91 816.42,-188.18"/>
<path fill="none" stroke="black" d="M893.29,-260.97C916.89,-357.67 876.49,-475.01 855.17,-526.9"/>
<path fill="none" stroke="black" d="M825.29,-195.97C834.56,-207.81 833.85,-213.14 844.29,-223.97 863.03,-243.43 886.88,-233.71 893.29,-259.97"/>
</g>
<!-- alconna_analysis_parts&#45;&gt;alconna_analysis -->
<g id="edge14" class="edge">
<title>alconna_analysis_parts&#45;&gt;alconna_analysis</title><style>.edge>path:hover{stroke-width:8}</style>
<path fill="none" stroke="black" d="M865.22,-101.37C917.24,-102.82 1007.61,-113.43 1059.29,-165.98 1089.51,-196.72 1083.29,-216.85 1083.29,-259.97 1083.29,-319.18 1083.29,-319.18 1083.29,-319.18 1083.29,-431.72 1032.35,-453.35 974.54,-545.29"/>
<polygon fill="#ac2b2b" stroke="black" points="971.55,-543.46 969.29,-553.81 977.51,-547.13 971.55,-543.46"/>
</g>
<!-- alconna_analysis_parts&#45;&gt;alconna_builtin_analyser -->
<g id="edge15" class="edge">
<title>alconna_analysis_parts&#45;&gt;alconna_builtin_analyser</title><style>.edge>path:hover{stroke-width:8}</style>
<path fill="none" stroke="black" d="M817.05,-129.43C813.47,-146.44 811.74,-168.25 820.01,-185.45"/>
<polygon fill="#ac2b2b" stroke="black" points="817.05,-187.31 825.29,-193.97 823,-183.63 817.05,-187.31"/>
</g>
<!-- alconna_base -->
<g id="node7" class="node">
<title>alconna_base</title><style>.edge>path:hover{stroke-width:8}</style>
<ellipse fill="#e50505" stroke="black" cx="433.29" cy="-831.65" rx="43.62" ry="18"/>
<text text-anchor="middle" x="433.29" y="-829.15" font-family="Helvetica,sans-Serif" font-size="10.00" fill="#ffffff">alconna.base</text>
</g>
<!-- alconna_base&#45;&gt;alconna -->
<g id="edge16" class="edge">
<title>alconna_base&#45;&gt;alconna</title><style>.edge>path:hover{stroke-width:8}</style>
<path fill="none" stroke="black" d="M408.9,-816.45C384.73,-802.17 346.85,-779.19 315.29,-757.44"/>
<path fill="none" stroke="black" d="M315.29,-755.44C181.48,-663.23 53.79,-628.62 87.29,-469.61"/>
</g>
<!-- alconna_base&#45;&gt;alconna_analysis -->
<g id="edge17" class="edge">
<title>alconna_base&#45;&gt;alconna_analysis</title><style>.edge>path:hover{stroke-width:8}</style>
<path fill="none" stroke="black" d="M460.17,-817.46C515.61,-790.25 642.73,-727.87 705.64,-697"/>
<polygon fill="#e50505" stroke="black" points="707.37,-700.05 714.8,-692.5 704.28,-693.76 707.37,-700.05"/>
</g>
<!-- alconna_base&#45;&gt;alconna_analysis_Analyser -->
<g id="edge18" class="edge">
<title>alconna_base&#45;&gt;alconna_analysis_Analyser</title><style>.edge>path:hover{stroke-width:8}</style>
<path fill="none" stroke="black" d="M239.29,-619.8C232.56,-604.69 274.96,-572.18 277.29,-555.81"/>
<path fill="none" stroke="black" d="M391.29,-392.39C411.35,-337.53 338.29,-285.54 391.29,-260.97"/>
<path fill="none" stroke="black" d="M277.29,-553.81C289.54,-467.57 366.84,-478 391.29,-394.39"/>
</g>
<!-- alconna_base&#45;&gt;alconna_analysis_analyser -->
<g id="edge19" class="edge">
<title>alconna_base&#45;&gt;alconna_analysis_analyser</title><style>.edge>path:hover{stroke-width:8}</style>
<path fill="none" stroke="black" d="M466.48,-819.89C474.53,-817.56 483.16,-815.31 491.29,-813.65 625.46,-786.3 667.25,-820.59 797.29,-777.65 818.21,-770.75 950.79,-690.98 969.29,-679.01"/>
<path fill="none" stroke="black" d="M969.29,-677.01C1017.73,-648.02 990.34,-609.66 1007.29,-555.81"/>
</g>
<!-- alconna_base&#45;&gt;alconna_analysis_parts -->
<g id="edge20" class="edge">
<title>alconna_base&#45;&gt;alconna_analysis_parts</title><style>.edge>path:hover{stroke-width:8}</style>
<path fill="none" stroke="black" d="M1197.29,-392.39C1204.83,-360.74 1194.45,-351.59 1197.29,-319.18"/>
<path fill="none" stroke="black" d="M969.29,-677.01C1022.37,-644.72 1053.3,-664.69 1097.29,-620.8 1136.22,-581.95 1184.54,-447.9 1197.29,-394.39"/>
</g>
<!-- alconna_builtin_actions -->
<g id="node9" class="node">
<title>alconna_builtin_actions</title><style>.edge>path:hover{stroke-width:8}</style>
<ellipse fill="#c43131" stroke="black" cx="212.29" cy="-554.81" rx="37.45" ry="28.98"/>
<text text-anchor="middle" x="212.29" y="-563.31" font-family="Helvetica,sans-Serif" font-size="10.00" fill="#ffffff">alconna.</text>
<text text-anchor="middle" x="212.29" y="-552.31" font-family="Helvetica,sans-Serif" font-size="10.00" fill="#ffffff">builtin.</text>
<text text-anchor="middle" x="212.29" y="-541.31" font-family="Helvetica,sans-Serif" font-size="10.00" fill="#ffffff">actions</text>
</g>
<!-- alconna_base&#45;&gt;alconna_builtin_actions -->
<g id="edge21" class="edge">
<title>alconna_base&#45;&gt;alconna_builtin_actions</title><style>.edge>path:hover{stroke-width:8}</style>
<path fill="none" stroke="black" d="M315.29,-677.01C303.23,-636.77 256.37,-659.18 239.29,-620.8"/>
<path fill="none" stroke="black" d="M315.29,-755.44C287.32,-736.17 325.04,-711.55 315.29,-679.01"/>
<path fill="none" stroke="black" d="M239.29,-619.8C235.28,-610.81 231.09,-601.04 227.23,-591.91"/>
<polygon fill="#e50505" stroke="black" points="230.45,-590.55 223.35,-582.69 224,-593.26 230.45,-590.55"/>
</g>
<!-- alconna_component -->
<g id="node12" class="node">
<title>alconna_component</title><style>.edge>path:hover{stroke-width:8}</style>
<ellipse fill="#ef0606" stroke="black" cx="742.29" cy="-756.44" rx="45.92" ry="21.43"/>
<text text-anchor="middle" x="742.29" y="-759.44" font-family="Helvetica,sans-Serif" font-size="10.00" fill="#ffffff">alconna.</text>
<text text-anchor="middle" x="742.29" y="-748.44" font-family="Helvetica,sans-Serif" font-size="10.00" fill="#ffffff">component</text>
</g>
<!-- alconna_base&#45;&gt;alconna_component -->
<g id="edge22" class="edge">
<title>alconna_base&#45;&gt;alconna_component</title><style>.edge>path:hover{stroke-width:8}</style>
<path fill="none" stroke="black" d="M467.23,-820.31C475.1,-818.02 483.46,-815.67 491.29,-813.65 559.85,-795.95 639.78,-778.61 690.69,-767.98"/>
<polygon fill="#e50505" stroke="black" points="691.71,-771.34 700.78,-765.87 690.28,-764.49 691.71,-771.34"/>
</g>
<!-- alconna_base&#45;&gt;alconna_main -->
<g id="edge23" class="edge">
<title>alconna_base&#45;&gt;alconna_main</title><style>.edge>path:hover{stroke-width:8}</style>
<path fill="none" stroke="black" d="M315.29,-677.01C283.33,-570.39 341.55,-530.78 415.29,-447.39 427.86,-433.17 445.13,-421.24 460.58,-412.33"/>
<polygon fill="#e50505" stroke="black" points="462.37,-415.34 469.42,-407.44 458.98,-409.22 462.37,-415.34"/>
</g>
<!-- alconna_builtin -->
<g id="node8" class="node">
<title>alconna_builtin</title><style>.edge>path:hover{stroke-width:8}</style>
<ellipse fill="#ce3b3b" stroke="black" cx="570.29" cy="-468.61" rx="37.45" ry="21.43"/>
<text text-anchor="middle" x="570.29" y="-471.61" font-family="Helvetica,sans-Serif" font-size="10.00" fill="#ffffff">alconna.</text>
<text text-anchor="middle" x="570.29" y="-460.61" font-family="Helvetica,sans-Serif" font-size="10.00" fill="#ffffff">builtin</text>
</g>
<!-- alconna_builtin&#45;&gt;alconna -->
<g id="edge24" class="edge">
<title>alconna_builtin&#45;&gt;alconna</title><style>.edge>path:hover{stroke-width:8}</style>
<path fill="none" stroke="black" d="M574.4,-447.19C578.43,-428.33 585.14,-399.64 593.29,-375.39 601.93,-349.64 618.9,-346.3 617.29,-319.18"/>
<path fill="none" stroke="black" d="M617.29,-317.18C614.28,-292.38 607.06,-283.76 617.29,-260.97"/>
</g>
<!-- alconna_builtin&#45;&gt;alconna_main -->
<g id="edge25" class="edge">
<title>alconna_builtin&#45;&gt;alconna_main</title><style>.edge>path:hover{stroke-width:8}</style>
<path fill="none" stroke="black" d="M552.61,-449.88C542.97,-440.21 530.91,-428.12 520.52,-417.69"/>
<polygon fill="#ce3b3b" stroke="black" points="522.84,-415.06 513.3,-410.45 517.88,-420.01 522.84,-415.06"/>
</g>
<!-- alconna_builtin_actions&#45;&gt;alconna -->
<g id="edge26" class="edge">
<title>alconna_builtin_actions&#45;&gt;alconna</title><style>.edge>path:hover{stroke-width:8}</style>
<path fill="none" stroke="black" d="M194.75,-529.07C162.67,-480.64 103.13,-373.33 163.29,-319.18"/>
</g>
<!-- alconna_builtin_actions&#45;&gt;alconna_main -->
<g id="edge27" class="edge">
<title>alconna_builtin_actions&#45;&gt;alconna_main</title><style>.edge>path:hover{stroke-width:8}</style>
<path fill="none" stroke="black" d="M234.19,-530.95C258.08,-507.18 298.38,-470.3 339.29,-447.39 374.29,-427.79 417.72,-413.87 450.19,-405.23"/>
<polygon fill="#c43131" stroke="black" points="451.09,-408.62 459.89,-402.72 449.33,-401.84 451.09,-408.62"/>
</g>
<!-- alconna_builtin_analyser&#45;&gt;alconna_main -->
<g id="edge28" class="edge">
<title>alconna_builtin_analyser&#45;&gt;alconna_main</title><style>.edge>path:hover{stroke-width:8}</style>
<path fill="none" stroke="black" d="M805.91,-551.13C730.75,-544.99 564.97,-527.46 524.29,-489.82 505.58,-472.51 499.48,-443.33 497.66,-421.78"/>
<polygon fill="#8a2e2e" stroke="black" points="501.14,-421.38 497.06,-411.6 494.16,-421.79 501.14,-421.38"/>
</g>
<!-- alconna_builtin_construct -->
<g id="node11" class="node">
<title>alconna_builtin_construct</title><style>.edge>path:hover{stroke-width:8}</style>
<ellipse fill="#c24747" stroke="black" cx="451.29" cy="-194.97" rx="40.11" ry="28.98"/>
<text text-anchor="middle" x="451.29" y="-203.47" font-family="Helvetica,sans-Serif" font-size="10.00" fill="#ffffff">alconna.</text>
<text text-anchor="middle" x="451.29" y="-192.47" font-family="Helvetica,sans-Serif" font-size="10.00" fill="#ffffff">builtin.</text>
<text text-anchor="middle" x="451.29" y="-181.47" font-family="Helvetica,sans-Serif" font-size="10.00" fill="#ffffff">construct</text>
</g>
<!-- alconna_builtin_construct&#45;&gt;alconna -->
<g id="edge29" class="edge">
<title>alconna_builtin_construct&#45;&gt;alconna</title><style>.edge>path:hover{stroke-width:8}</style>
<path fill="none" stroke="black" d="M482.54,-176.35C511.34,-159.32 554.47,-131.79 587.29,-101.99"/>
<path fill="none" stroke="black" d="M587.29,-99.99C629.26,-61.88 796.16,-34.74 872.64,-24.04"/>
<polygon fill="#c24747" stroke="black" points="873.38,-27.47 882.81,-22.64 872.43,-20.54 873.38,-27.47"/>
</g>
<!-- alconna_component&#45;&gt;alconna -->
<g id="edge30" class="edge">
<title>alconna_component&#45;&gt;alconna</title><style>.edge>path:hover{stroke-width:8}</style>
<path fill="none" stroke="black" d="M704.97,-743.74C664.22,-730.36 597.51,-706.69 543.29,-679.01"/>
<path fill="none" stroke="black" d="M543.29,-677.01C469.98,-639.6 431.47,-650.52 383.29,-583.8 297.44,-464.93 185.23,-328.68 315.29,-260.97"/>
</g>
<!-- alconna_component&#45;&gt;alconna_analysis -->
<g id="edge31" class="edge">
<title>alconna_component&#45;&gt;alconna_analysis</title><style>.edge>path:hover{stroke-width:8}</style>
<path fill="none" stroke="black" d="M742.29,-734.96C742.29,-727.1 742.29,-717.96 742.29,-709.37"/>
<polygon fill="#ef0606" stroke="black" points="745.79,-709.29 742.29,-699.29 738.79,-709.29 745.79,-709.29"/>
</g>
<!-- alconna_component&#45;&gt;alconna_analysis_Analyser -->
<g id="edge32" class="edge">
<title>alconna_component&#45;&gt;alconna_analysis_Analyser</title><style>.edge>path:hover{stroke-width:8}</style>
<path fill="none" stroke="black" d="M543.29,-677.01C416.93,-610.86 345.85,-529.58 391.29,-394.39"/>
</g>
<!-- alconna_component&#45;&gt;alconna_analysis_analyser -->
<g id="edge33" class="edge">
<title>alconna_component&#45;&gt;alconna_analysis_analyser</title><style>.edge>path:hover{stroke-width:8}</style>
<path fill="none" stroke="black" d="M855.29,-677.01C906.96,-607.77 994.33,-641.24 1007.29,-555.81"/>
<path fill="none" stroke="black" d="M1045.29,-392.39C1045.29,-353.08 968.17,-270.11 923.79,-225.63"/>
<polygon fill="#ef0606" stroke="black" points="926.26,-223.15 916.7,-218.57 921.32,-228.11 926.26,-223.15"/>
<path fill="none" stroke="black" d="M1007.29,-553.81C1007.02,-505.33 1019.76,-494.49 1031.29,-447.39 1037.08,-423.73 1045.41,-418.76 1045.29,-394.39"/>
</g>
<!-- alconna_component&#45;&gt;alconna_analysis_parts -->
<g id="edge34" class="edge">
<title>alconna_component&#45;&gt;alconna_analysis_parts</title><style>.edge>path:hover{stroke-width:8}</style>
<path fill="none" stroke="black" d="M777.32,-742.49C803.44,-732.24 839.59,-716.75 869.29,-699.23 942.34,-656.12 963.97,-646.33 1021.29,-583.8 1069.71,-530.97 1067.57,-507.05 1107.29,-447.39 1145.86,-389.44 1181.15,-386.9 1197.29,-319.18"/>
<path fill="none" stroke="black" d="M1197.29,-317.18C1217.95,-169.69 980.24,-121.38 874.5,-107.25"/>
<polygon fill="#ef0606" stroke="black" points="874.76,-103.75 864.39,-105.95 873.86,-110.69 874.76,-103.75"/>
</g>
<!-- alconna_component&#45;&gt;alconna_builtin_analyser -->
<g id="edge35" class="edge">
<title>alconna_component&#45;&gt;alconna_builtin_analyser</title><style>.edge>path:hover{stroke-width:8}</style>
<path fill="none" stroke="black" d="M855.29,-677.01C870.23,-656.99 861.46,-645.01 855.29,-620.8"/>
<path fill="none" stroke="black" d="M774.46,-741.11C799.83,-728.26 834.32,-707.11 855.29,-679.01"/>
<path fill="none" stroke="black" d="M855.29,-619.8C853.14,-611.38 851.2,-602.24 849.53,-593.58"/>
<polygon fill="#ef0606" stroke="black" points="852.97,-592.9 847.71,-583.7 846.08,-594.17 852.97,-592.9"/>
</g>
<!-- alconna_component&#45;&gt;alconna_main -->
<g id="edge36" class="edge">
<title>alconna_component&#45;&gt;alconna_main</title><style>.edge>path:hover{stroke-width:8}</style>
<path fill="none" stroke="black" d="M543.29,-677.01C511.64,-659.21 500.82,-556.43 481.29,-525.82 462.98,-497.13 426.72,-503.54 429.29,-469.61"/>
</g>
<!-- alconna_exceptions -->
<g id="node13" class="node">
<title>alconna_exceptions</title><style>.edge>path:hover{stroke-width:8}</style>
<ellipse fill="#f91010" stroke="black" cx="436.29" cy="-978.87" rx="45.01" ry="21.43"/>
<text text-anchor="middle" x="436.29" y="-981.87" font-family="Helvetica,sans-Serif" font-size="10.00" fill="#ffffff">alconna.</text>
<text text-anchor="middle" x="436.29" y="-970.87" font-family="Helvetica,sans-Serif" font-size="10.00" fill="#ffffff">exceptions</text>
</g>
<!-- alconna_exceptions&#45;&gt;alconna -->
<g id="edge37" class="edge">
<title>alconna_exceptions&#45;&gt;alconna</title><style>.edge>path:hover{stroke-width:8}</style>
<path fill="none" stroke="black" d="M11.29,-553.81C14.81,-540.35 16.88,-536.9 25.29,-525.82 47.77,-496.19 79.8,-506.04 87.29,-469.61"/>
<path fill="none" stroke="black" d="M87.29,-467.61C102.21,-395.01 105.36,-365.4 163.29,-319.18"/>
<path fill="none" stroke="black" d="M11.29,-902.65C1.67,-777.76 -7.64,-744.63 11.29,-620.8"/>
<path fill="none" stroke="black" d="M163.29,-317.18C173.75,-307.96 174.96,-303.49 187.29,-296.97 239.51,-269.31 261.15,-284.67 315.29,-260.97"/>
<path fill="none" stroke="black" d="M315.29,-259.97C392.02,-226.36 430.75,-270.67 500.29,-223.97 525.86,-206.79 520.46,-191.12 538.29,-165.98 559.01,-136.76 560.77,-126.07 587.29,-101.99"/>
<path fill="none" stroke="black" d="M11.29,-619.8C17.27,-592 4.08,-583.32 11.29,-555.81"/>
<path fill="none" stroke="black" d="M391.57,-974.77C283.04,-966.67 14.29,-942.77 11.29,-904.65"/>
</g>
<!-- alconna_exceptions&#45;&gt;alconna_analysis_Analyser -->
<g id="edge38" class="edge">
<title>alconna_exceptions&#45;&gt;alconna_analysis_Analyser</title><style>.edge>path:hover{stroke-width:8}</style>
<path fill="none" stroke="black" d="M11.29,-619.8C16.23,-585.02 84.17,-520.5 101.29,-489.82 128.32,-441.35 121.36,-422.13 151.29,-375.39 160.3,-361.31 187.53,-328.68 201.29,-319.18"/>
<path fill="none" stroke="black" d="M201.29,-317.18C271.83,-264.46 310.98,-297.11 391.29,-260.97"/>
<path fill="none" stroke="black" d="M391.29,-259.97C450.66,-233.24 472.43,-247.1 533.29,-223.97 537.86,-222.23 542.54,-220.2 547.15,-218.05"/>
<polygon fill="#f91010" stroke="black" points="548.99,-221.05 556.44,-213.51 545.92,-214.76 548.99,-221.05"/>
</g>
<!-- alconna_exceptions&#45;&gt;alconna_analysis_analyser -->
<g id="edge39" class="edge">
<title>alconna_exceptions&#45;&gt;alconna_analysis_analyser</title><style>.edge>path:hover{stroke-width:8}</style>
<path fill="none" stroke="black" d="M1026.29,-830.65C1040.35,-790.58 1014.77,-774.35 1031.29,-735.23 1044.52,-703.87 1072.77,-711.38 1083.29,-679.01"/>
<path fill="none" stroke="black" d="M1083.29,-677.01C1087.41,-652.37 1075.99,-644.7 1083.29,-620.8"/>
<path fill="none" stroke="black" d="M931.29,-902.65C934.16,-901.08 1024.62,-835.48 1026.29,-832.65"/>
</g>
<!-- alconna_exceptions&#45;&gt;alconna_analysis_arg_handlers -->
<g id="edge40" class="edge">
<title>alconna_exceptions&#45;&gt;alconna_analysis_arg_handlers</title><style>.edge>path:hover{stroke-width:8}</style>
<path fill="none" stroke="black" d="M505.29,-830.65C496.39,-763.85 505.29,-746.41 505.29,-679.01 505.29,-679.01 505.29,-679.01 505.29,-619.8 505.29,-537.47 595.46,-560.74 637.29,-489.82 664.11,-444.33 637.11,-417.27 669.29,-375.39 688.47,-350.43 714.68,-366.73 730.29,-339.39 766.2,-276.5 746.32,-188.33 730.25,-139.06"/>
<polygon fill="#f91010" stroke="black" points="733.52,-137.8 727,-129.45 726.89,-140.04 733.52,-137.8"/>
</g>
<!-- alconna_exceptions&#45;&gt;alconna_analysis_parts -->
<g id="edge41" class="edge">
<title>alconna_exceptions&#45;&gt;alconna_analysis_parts</title><style>.edge>path:hover{stroke-width:8}</style>
<path fill="none" stroke="black" d="M1026.29,-830.65C1049.95,-790.61 1045.28,-775.07 1069.29,-735.23 1079.75,-717.86 1086.64,-716.48 1097.29,-699.23 1172.16,-577.88 1186.02,-536.53 1197.29,-394.39"/>
</g>
<!-- alconna_exceptions&#45;&gt;alconna_base -->
<g id="edge42" class="edge">
<title>alconna_exceptions&#45;&gt;alconna_base</title><style>.edge>path:hover{stroke-width:8}</style>
<path fill="none" stroke="black" d="M11.29,-902.65C8.44,-865.72 266.37,-843.84 380.31,-835.98"/>
<polygon fill="#f91010" stroke="black" points="380.81,-839.45 390.55,-835.28 380.34,-832.47 380.81,-839.45"/>
</g>
<!-- alconna_exceptions&#45;&gt;alconna_builtin_analyser -->
<g id="edge43" class="edge">
<title>alconna_exceptions&#45;&gt;alconna_builtin_analyser</title><style>.edge>path:hover{stroke-width:8}</style>
<path fill="none" stroke="black" d="M931.29,-902.65C1026.21,-841.92 903.55,-764.15 869.29,-656.8 864.07,-640.45 859.53,-637.44 855.29,-620.8"/>
<path fill="none" stroke="black" d="M469.35,-964.31C476.49,-961.78 484.07,-959.39 491.29,-957.65 682.79,-911.59 758.37,-998.99 931.29,-904.65"/>
</g>
<!-- alconna_exceptions&#45;&gt;alconna_manager -->
<g id="edge44" class="edge">
<title>alconna_exceptions&#45;&gt;alconna_manager</title><style>.edge>path:hover{stroke-width:8}</style>
<path fill="none" stroke="black" d="M505.29,-830.65C494.06,-797.24 464.72,-807.7 446.29,-777.65 417.78,-731.18 412.68,-709.84 425.29,-656.8 440.36,-593.38 441.1,-567.42 491.29,-525.82 535.79,-488.92 578.59,-533.65 616.29,-489.82 649.73,-450.93 609.51,-421.83 631.29,-375.39 636.89,-363.45 645.96,-352.32 654.97,-343.17"/>
<polygon fill="#f91010" stroke="black" points="657.66,-345.43 662.44,-335.97 652.81,-340.38 657.66,-345.43"/>
<path fill="none" stroke="black" d="M455.91,-959.51C465.79,-949.26 477.15,-935.73 484.29,-921.65 502.66,-885.4 513.96,-872.36 505.29,-832.65"/>
</g>
<!-- alconna_util -->
<g id="node17" class="node">
<title>alconna_util</title><style>.edge>path:hover{stroke-width:8}</style>
<ellipse fill="#dd1818" stroke="black" cx="436.29" cy="-903.65" rx="38.7" ry="18"/>
<text text-anchor="middle" x="436.29" y="-901.15" font-family="Helvetica,sans-Serif" font-size="10.00" fill="#ffffff">alconna.util</text>
</g>
<!-- alconna_exceptions&#45;&gt;alconna_util -->
<g id="edge45" class="edge">
<title>alconna_exceptions&#45;&gt;alconna_util</title><style>.edge>path:hover{stroke-width:8}</style>
<path fill="none" stroke="black" d="M436.29,-957.47C436.29,-949.62 436.29,-940.52 436.29,-932.11"/>
<polygon fill="#f91010" stroke="black" points="439.79,-931.96 436.29,-921.96 432.79,-931.96 439.79,-931.96"/>
</g>
<!-- alconna_main&#45;&gt;alconna -->
<g id="edge46" class="edge">
<title>alconna_main&#45;&gt;alconna</title><style>.edge>path:hover{stroke-width:8}</style>
<path fill="none" stroke="black" d="M617.29,-259.97C630.83,-229.79 660.95,-228.56 655.29,-195.97"/>
<path fill="none" stroke="black" d="M514.21,-376.55C530.54,-361.43 556.14,-338.21 579.29,-319.18"/>
<path fill="none" stroke="black" d="M655.29,-193.97C646.58,-143.88 549.65,-136.17 587.29,-101.99"/>
<path fill="none" stroke="black" d="M579.29,-317.18C602.58,-298.03 604.94,-288.48 617.29,-260.97"/>
</g>
<!-- alconna_main&#45;&gt;alconna_analysis_Analyser -->
<g id="edge48" class="edge">
<title>alconna_main&#45;&gt;alconna_analysis_Analyser</title><style>.edge>path:hover{stroke-width:8}</style>
<path fill="none" stroke="black" d="M509.18,-366.43C524.94,-332.03 552.83,-271.17 570.67,-232.25"/>
<polygon fill="#a50808" stroke="black" points="505.94,-365.1 504.96,-375.65 512.31,-368.01 505.94,-365.1"/>
<polygon fill="#a50808" stroke="black" points="573.99,-233.4 574.97,-222.85 567.62,-230.48 573.99,-233.4"/>
</g>
<!-- alconna_main&#45;&gt;alconna_analysis_analyser -->
<g id="edge49" class="edge">
<title>alconna_main&#45;&gt;alconna_analysis_analyser</title><style>.edge>path:hover{stroke-width:8}</style>
<path fill="none" stroke="black" d="M579.29,-317.18C673.5,-238.48 726.76,-273.04 839.29,-223.97 843.77,-222.01 848.4,-219.85 852.97,-217.61"/>
<polygon fill="#a50808" stroke="black" points="854.85,-220.59 862.22,-212.98 851.71,-214.33 854.85,-220.59"/>
</g>
<!-- alconna_main&#45;&gt;alconna_manager -->
<g id="edge50" class="edge">
<title>alconna_main&#45;&gt;alconna_manager</title><style>.edge>path:hover{stroke-width:8}</style>
<path fill="none" stroke="black" d="M537.36,-376.62C568.62,-364.31 611.84,-347.3 643.13,-334.99"/>
<polygon fill="#a50808" stroke="black" points="536.02,-373.38 528,-380.3 538.59,-379.9 536.02,-373.38"/>
<polygon fill="#a50808" stroke="black" points="644.81,-338.08 652.84,-331.16 642.25,-331.57 644.81,-338.08"/>
</g>
<!-- alconna_manager&#45;&gt;alconna -->
<g id="edge51" class="edge">
<title>alconna_manager&#45;&gt;alconna</title><style>.edge>path:hover{stroke-width:8}</style>
<path fill="none" stroke="black" d="M655.29,-259.97C642.53,-234.55 660.15,-224 655.29,-195.97"/>
</g>
<!-- alconna_manager&#45;&gt;alconna_analysis_Analyser -->
<g id="edge52" class="edge">
<title>alconna_manager&#45;&gt;alconna_analysis_Analyser</title><style>.edge>path:hover{stroke-width:8}</style>
<path fill="none" stroke="black" d="M655.29,-259.97C647.95,-245.35 635.83,-232.31 623.84,-221.88"/>
<polygon fill="#cc0a0a" stroke="black" points="625.97,-219.1 616.03,-215.41 621.5,-224.49 625.97,-219.1"/>
<path fill="none" stroke="black" d="M673.6,-297.65C668.22,-286.83 661.4,-273.15 655.29,-260.97"/>
</g>
<!-- alconna_manager&#45;&gt;alconna_analysis_analyser -->
<g id="edge53" class="edge">
<title>alconna_manager&#45;&gt;alconna_analysis_analyser</title><style>.edge>path:hover{stroke-width:8}</style>
<path fill="none" stroke="black" d="M717.7,-297.31C754.96,-275.81 814.31,-241.56 853.53,-218.92"/>
<polygon fill="#cc0a0a" stroke="black" points="715.95,-294.29 709.04,-302.32 719.45,-300.35 715.95,-294.29"/>
<polygon fill="#cc0a0a" stroke="black" points="855.64,-221.74 862.55,-213.71 852.14,-215.68 855.64,-221.74"/>
</g>
<!-- alconna_manager&#45;&gt;alconna_builtin_analyser -->
<g id="edge54" class="edge">
<title>alconna_manager&#45;&gt;alconna_builtin_analyser</title><style>.edge>path:hover{stroke-width:8}</style>
<path fill="none" stroke="black" d="M696.39,-338.4C723.56,-378.24 786.33,-470.29 820.36,-520.19"/>
<polygon fill="#cc0a0a" stroke="black" points="817.64,-522.41 826.16,-528.7 823.42,-518.47 817.64,-522.41"/>
</g>
<!-- alconna_types -->
<g id="node16" class="node">
<title>alconna_types</title><style>.edge>path:hover{stroke-width:8}</style>
<ellipse fill="#f91010" stroke="black" cx="545.29" cy="-978.87" rx="45.15" ry="18"/>
<text text-anchor="middle" x="545.29" y="-976.37" font-family="Helvetica,sans-Serif" font-size="10.00" fill="#ffffff">alconna.types</text>
</g>
<!-- alconna_types&#45;&gt;alconna -->
<g id="edge56" class="edge">
<title>alconna_types&#45;&gt;alconna</title><style>.edge>path:hover{stroke-width:8}</style>
<path fill="none" stroke="black" d="M1235.29,-193.97C1162.24,-95.61 1016.96,-46.45 948.55,-27.96"/>
<polygon fill="#f91010" stroke="black" points="949.21,-24.51 938.64,-25.35 947.42,-31.28 949.21,-24.51"/>
</g>
<!-- alconna_types&#45;&gt;alconna_analysis -->
<g id="edge57" class="edge">
<title>alconna_types&#45;&gt;alconna_analysis</title><style>.edge>path:hover{stroke-width:8}</style>
<path fill="none" stroke="black" d="M969.29,-902.65C1012.24,-803.75 858.19,-725.81 782.23,-694.24"/>
<polygon fill="#f91010" stroke="black" points="783.51,-690.99 772.93,-690.45 780.87,-697.47 783.51,-690.99"/>
</g>
<!-- alconna_types&#45;&gt;alconna_analysis_Analyser -->
<g id="edge58" class="edge">
<title>alconna_types&#45;&gt;alconna_analysis_Analyser</title><style>.edge>path:hover{stroke-width:8}</style>
<path fill="none" stroke="black" d="M590.7,-978.72C693.91,-979.44 939.48,-973.76 969.29,-904.65"/>
<path fill="none" stroke="black" d="M969.29,-902.65C974.46,-890.65 956.72,-891.99 945.29,-885.65 836.58,-825.36 800.35,-829.31 687.29,-777.65 615.98,-745.07 598.49,-736.06 529.29,-699.23 415.53,-638.68 223.18,-672.77 277.29,-555.81"/>
</g>
<!-- alconna_types&#45;&gt;alconna_analysis_analyser -->
<g id="edge59" class="edge">
<title>alconna_types&#45;&gt;alconna_analysis_analyser</title><style>.edge>path:hover{stroke-width:8}</style>
<path fill="none" stroke="black" d="M1073.29,-830.65C1087.46,-801.03 1069.96,-787.46 1083.29,-757.44"/>
<path fill="none" stroke="black" d="M1083.29,-755.44C1097.07,-724.39 1072.79,-711.32 1083.29,-679.01"/>
</g>
<!-- alconna_types&#45;&gt;alconna_analysis_arg_handlers -->
<g id="edge60" class="edge">
<title>alconna_types&#45;&gt;alconna_analysis_arg_handlers</title><style>.edge>path:hover{stroke-width:8}</style>
<path fill="none" stroke="black" d="M1216.29,-677.01C1237.26,-621.3 1159.29,-615.34 1159.29,-555.81 1159.29,-555.81 1159.29,-555.81 1159.29,-467.61 1159.29,-302.46 1080.39,-256.53 942.29,-165.98 879.15,-124.59 847.83,-154.09 776.29,-129.98 771.82,-128.48 767.25,-126.74 762.72,-124.88"/>
<polygon fill="#f91010" stroke="black" points="764.1,-121.66 753.53,-120.92 761.33,-128.09 764.1,-121.66"/>
<path fill="none" stroke="black" d="M1083.29,-755.44C1110.94,-693.13 1182.21,-738.07 1216.29,-679.01"/>
</g>
<!-- alconna_types&#45;&gt;alconna_analysis_parts -->
<g id="edge61" class="edge">
<title>alconna_types&#45;&gt;alconna_analysis_parts</title><style>.edge>path:hover{stroke-width:8}</style>
<path fill="none" stroke="black" d="M1216.29,-677.01C1243.54,-629.79 1235.29,-610.34 1235.29,-555.81 1235.29,-555.81 1235.29,-555.81 1235.29,-317.18 1235.29,-263.31 1264.38,-241.31 1235.29,-195.97"/>
<path fill="none" stroke="black" d="M1235.29,-193.97C1192.6,-136.49 974.3,-113.08 874.81,-105.29"/>
<polygon fill="#f91010" stroke="black" points="874.94,-101.79 864.71,-104.52 874.41,-108.77 874.94,-101.79"/>
</g>
<!-- alconna_types&#45;&gt;alconna_base -->
<g id="edge62" class="edge">
<title>alconna_types&#45;&gt;alconna_base</title><style>.edge>path:hover{stroke-width:8}</style>
<path fill="none" stroke="black" d="M547.72,-960.76C549.21,-945.57 549.76,-923 543.29,-904.65"/>
<path fill="none" stroke="black" d="M543.29,-902.65C533.29,-874.36 504.15,-856.6 478.38,-846.05"/>
<polygon fill="#f91010" stroke="black" points="479.3,-842.65 468.71,-842.35 476.8,-849.19 479.3,-842.65"/>
</g>
<!-- alconna_types&#45;&gt;alconna_builtin_analyser -->
<g id="edge63" class="edge">
<title>alconna_types&#45;&gt;alconna_builtin_analyser</title><style>.edge>path:hover{stroke-width:8}</style>
<path fill="none" stroke="black" d="M969.29,-902.65C991.35,-851.49 1056.58,-885.81 1073.29,-832.65"/>
<path fill="none" stroke="black" d="M1073.29,-830.65C1086.33,-789.15 1011.7,-689.74 983.29,-656.8 954.51,-623.44 912.63,-595.1 882.17,-577.01"/>
<polygon fill="#f91010" stroke="black" points="883.91,-573.97 873.51,-571.95 880.38,-580.02 883.91,-573.97"/>
</g>
<!-- alconna_types&#45;&gt;alconna_component -->
<g id="edge64" class="edge">
<title>alconna_types&#45;&gt;alconna_component</title><style>.edge>path:hover{stroke-width:8}</style>
<path fill="none" stroke="black" d="M969.29,-902.65C986.15,-862.24 856.97,-803.29 786.32,-774.51"/>
<polygon fill="#f91010" stroke="black" points="787.34,-771.15 776.76,-770.66 784.72,-777.64 787.34,-771.15"/>
</g>
<!-- alconna_types&#45;&gt;alconna_main -->
<g id="edge65" class="edge">
<title>alconna_types&#45;&gt;alconna_main</title><style>.edge>path:hover{stroke-width:8}</style>
<path fill="none" stroke="black" d="M543.29,-902.65C529.64,-864.02 536.23,-850.96 519.29,-813.65 489.52,-748.12 429.29,-750.99 429.29,-679.01 429.29,-679.01 429.29,-679.01 429.29,-619.8 429.29,-553.05 416.52,-535.13 429.29,-469.61"/>
<path fill="none" stroke="black" d="M429.29,-467.61C433.66,-446.03 450.4,-427.86 466.18,-415.02"/>
<polygon fill="#f91010" stroke="black" points="468.48,-417.66 474.27,-408.79 464.21,-412.12 468.48,-417.66"/>
</g>
<!-- alconna_types&#45;&gt;alconna_util -->
<g id="edge66" class="edge">
<title>alconna_types&#45;&gt;alconna_util</title><style>.edge>path:hover{stroke-width:8}</style>
<path fill="none" stroke="black" d="M523.23,-963.05C506.76,-951.99 484.09,-936.76 466.02,-924.63"/>
<polygon fill="#f91010" stroke="black" points="467.82,-921.62 457.57,-918.95 463.92,-927.43 467.82,-921.62"/>
</g>
<!-- alconna_util&#45;&gt;alconna -->
<g id="edge67" class="edge">
<title>alconna_util&#45;&gt;alconna</title><style>.edge>path:hover{stroke-width:8}</style>
<path fill="none" stroke="black" d="M147.29,-755.44C131.91,-704.01 -0.43,-608.19 11.29,-555.81"/>
<path fill="none" stroke="black" d="M398.15,-900.04C324.91,-892.62 169.75,-864.32 147.29,-757.44"/>
</g>
<!-- alconna_util&#45;&gt;alconna_analysis_Analyser -->
<g id="edge68" class="edge">
<title>alconna_util&#45;&gt;alconna_analysis_Analyser</title><style>.edge>path:hover{stroke-width:8}</style>
<path fill="none" stroke="black" d="M147.29,-755.44C121.68,-661.17 126.5,-382.03 201.29,-319.18"/>
</g>
<!-- alconna_util&#45;&gt;alconna_analysis_analyser -->
<g id="edge69" class="edge">
<title>alconna_util&#45;&gt;alconna_analysis_analyser</title><style>.edge>path:hover{stroke-width:8}</style>
<path fill="none" stroke="black" d="M1083.29,-619.8C1112.45,-522.48 1062.78,-494.47 1045.29,-394.39"/>
<path fill="none" stroke="black" d="M470.81,-895.19C543.12,-878.93 714.99,-836.94 850.29,-777.65 913.14,-750.11 926.61,-737.91 983.29,-699.23 1029.94,-667.38 1064.22,-673.97 1083.29,-620.8"/>
</g>
<!-- alconna_util&#45;&gt;alconna_base -->
<g id="edge70" class="edge">
<title>alconna_util&#45;&gt;alconna_base</title><style>.edge>path:hover{stroke-width:8}</style>
<path fill="none" stroke="black" d="M435.54,-885.35C435.21,-877.64 434.82,-868.37 434.45,-859.77"/>
<polygon fill="#dd1818" stroke="black" points="437.94,-859.6 434.02,-849.76 430.95,-859.9 437.94,-859.6"/>
</g>
</g>
</svg>
